<svg id="icons" height="512" viewBox="0 0 64 64" width="512" xmlns="http://www.w3.org/2000/svg"><path d="m56.94 24.83-3.72 20.5a9.0035 9.0035 0 0 0 -16.44 0l-3.72-20.5a11.99688 11.99688 0 0 1 23.88 0zm-7.94 2.17a4 4 0 1 0 -4 4 3.9989 3.9989 0 0 0 4-4z" fill="#656d78"/><path d="m53.22 45.33-2.3 12.67a6.00464 6.00464 0 0 1 -11.84 0l-2.3-12.67a9.0035 9.0035 0 0 1 16.44 0z" fill="#545c66"/><path d="m19 50v13l-15-3v-4l3.06-16.83a11.99986 11.99986 0 0 0 11.94 10.83z" fill="#545c66"/><path d="m60 4v4l-3.06 16.83a11.99986 11.99986 0 0 0 -11.94-10.83v-13z" fill="#434a54"/><circle cx="45" cy="27" fill="#ccd1d9" r="4"/><path d="m27.22 18.67 3.72 20.5a11.99688 11.99688 0 0 1 -23.88 0l3.72-20.5a9.0035 9.0035 0 0 0 16.44 0zm-4.22 18.33a4 4 0 1 0 -4 4 3.9989 3.9989 0 0 0 4-4z" fill="#656d78"/><circle cx="19" cy="37" fill="#ccd1d9" r="4"/><path d="m45 1v13a11.99986 11.99986 0 0 0 -11.94 10.83l-3.06-16.83v-4z" fill="#545c66"/><path d="m24.92 6 2.3 12.67a9.0035 9.0035 0 0 1 -16.44 0l2.3-12.67a6.00464 6.00464 0 0 1 11.84 0z" fill="#545c66"/><path d="m34 56v4l-15 3v-13a11.99986 11.99986 0 0 0 11.94-10.83z" fill="#434a54"/><path d="m24.916 7.00049a1.00041 1.00041 0 0 1 -.98536-.835 5.00093 5.00093 0 0 0 -9.86132 0 1 1 0 0 1 -1.97266-.33008 7.001 7.001 0 0 1 13.80664 0 1.00039 1.00039 0 0 1 -.8213 1.15141 1.01153 1.01153 0 0 1 -.166.01367z"/><path d="m34 61a.99943.99943 0 0 1 -1-1v-4a1 1 0 0 1 2 0v4a.99943.99943 0 0 1 -1 1z"/><path d="m33.999 57a1.00012 1.00012 0 0 1 -.98339-.82129l-9.08106-50a1.00047 1.00047 0 0 1 1.96875-.35742l9.08106 50a1.00186 1.00186 0 0 1 -.80567 1.16309 1.02354 1.02354 0 0 1 -.17969.01562z"/><path d="m4 61a.99943.99943 0 0 1 -1-1v-4a1 1 0 0 1 2 0v4a.99943.99943 0 0 1 -1 1z"/><path d="m4.001 57a1.02354 1.02354 0 0 1 -.17969-.01562 1.00185 1.00185 0 0 1 -.80566-1.16309l9.08105-50a1.00047 1.00047 0 0 1 1.96875.35742l-9.081 50a1.00014 1.00014 0 0 1 -.98345.82129z"/><path d="m19.001 64a.97225.97225 0 0 1 -.19727-.01953l-15-3a.99993.99993 0 1 1 .39258-1.96094l15 3a1 1 0 0 1 -.19531 1.98047z"/><path d="m18.999 64a1 1 0 0 1 -.19531-1.98047l15-3a.99993.99993 0 0 1 .39258 1.96094l-15 3a.97907.97907 0 0 1 -.19727.01953z"/><path d="m19 64a.99943.99943 0 0 1 -1-1v-13a1 1 0 0 1 2 0v13a.99943.99943 0 0 1 -1 1z"/><path d="m19 51a12.9437 12.9437 0 0 1 -12.93848-11.73242.99981.99981 0 0 1 1.99024-.19336 11.0009 11.0009 0 0 0 21.89648 0 .99981.99981 0 0 1 1.99024.19336 12.9437 12.9437 0 0 1 -12.93848 11.73242z"/><path d="m19 25a10.01706 10.01706 0 0 1 -9.13281-5.92187 1.00018 1.00018 0 0 1 1.82617-.81641 8.00272 8.00272 0 0 0 14.61328 0 1.00018 1.00018 0 0 1 1.82617.81641 10.01706 10.01706 0 0 1 -9.13281 5.92187z"/><path d="m19 42a5 5 0 1 1 5-5 5.00588 5.00588 0 0 1 -5 5zm0-8a3 3 0 1 0 3 3 3.00328 3.00328 0 0 0 -3-3z"/><path d="m20 38h-2a1 1 0 0 1 0-2h2a1 1 0 0 1 0 2z"/><path d="m45 64a6.97478 6.97478 0 0 1 -6.90332-5.835 1 1 0 1 1 1.97266-.33008 5.001 5.001 0 0 0 9.86132 0 1 1 0 1 1 1.97266.33008 6.97478 6.97478 0 0 1 -6.90332 5.835z"/><path d="m30 9a.99974.99974 0 0 1 -1-1v-4a1 1 0 0 1 2 0v4a.99974.99974 0 0 1 -1 1z"/><path d="m39.08008 59a1.00013 1.00013 0 0 1 -.9834-.82129l-9.081-50a1.00047 1.00047 0 0 1 1.96875-.35742l9.081 50a1.00186 1.00186 0 0 1 -.80566 1.16309 1.02354 1.02354 0 0 1 -.17969.01562z"/><path d="m60 9a.99974.99974 0 0 1 -1-1v-4a1 1 0 0 1 2 0v4a.99974.99974 0 0 1 -1 1z"/><path d="m50.91992 59a1.02354 1.02354 0 0 1 -.17969-.01562 1.00186 1.00186 0 0 1 -.80566-1.16309l9.08106-50a1.00047 1.00047 0 0 1 1.96875.35742l-9.08106 50a1.00013 1.00013 0 0 1 -.9834.82129z"/><path d="m60.001 5a1.00848 1.00848 0 0 1 -.19727-.01953l-15-3a.99993.99993 0 1 1 .39256-1.96094l15 3a1 1 0 0 1 -.19529 1.98047z"/><path d="m29.999 5a1 1 0 0 1 -.19531-1.98047l15-3a.99993.99993 0 0 1 .39258 1.96094l-15 3a1.01583 1.01583 0 0 1 -.19727.01953z"/><path d="m45 15a.99974.99974 0 0 1 -1-1v-13a1 1 0 0 1 2 0v13a.99974.99974 0 0 1 -1 1z"/><path d="m56.94238 25.82861a.99993.99993 0 0 1 -.99414-.90332 11.001 11.001 0 0 0 -21.89648 0 .9882.9882 0 0 1 -1.0918.89844.99921.99921 0 0 1 -.89844-1.0918 13.00052 13.00052 0 0 1 25.877 0 .99921.99921 0 0 1 -.89844 1.0918.947.947 0 0 1 -.0977.00488z"/><path d="m53.2207 46.33008a1.001 1.001 0 0 1 -.91406-.5918 8.00272 8.00272 0 0 0 -14.61328 0 1.00018 1.00018 0 0 1 -1.82617-.8164 10.00332 10.00332 0 0 1 18.26562 0 .99983.99983 0 0 1 -.91211 1.4082z"/><path d="m45 32a5 5 0 1 1 5-5 5.00588 5.00588 0 0 1 -5 5zm0-8a3 3 0 1 0 3 3 3.00328 3.00328 0 0 0 -3-3z"/><path d="m46 28h-2a1 1 0 0 1 0-2h2a1 1 0 0 1 0 2z"/></svg>