<svg id="icons" height="512" viewBox="0 0 64 64" width="512" xmlns="http://www.w3.org/2000/svg"><path d="m51.5 48v10a1.99944 1.99944 0 0 1 -2 2h-14a2.00588 2.00588 0 0 1 -2-2v-10z" fill="#656d78"/><path d="m50.5 18v27h-16v-27a8.00589 8.00589 0 0 1 6-7.75 8.125 8.125 0 0 1 4 0 8.00589 8.00589 0 0 1 6 7.75zm-4 12a4 4 0 1 0 -4 4 3.9989 3.9989 0 0 0 4-4z" fill="#5d9cec"/><path d="m50.5 1v6h-3v-3-3z" fill="#ccd1d9"/><path d="m35.5 60h14v3h-14z" fill="#545c66"/><circle cx="42.5" cy="30" fill="#e6e9ed" r="4"/><g fill="#ccd1d9"><path d="m40.5 1h4v3h-4z"/><path d="m40.5 7h4v3.25a8.125 8.125 0 0 0 -4 0z"/><path d="m16.5 4v3h-3v-6h3z"/><path d="m29.5 1h5v3h-5z"/></g><path d="m34.5 45h16 1v3h-18v-3z" fill="#545c66"/><path d="m33.5 58a2.00588 2.00588 0 0 0 2 2h-7a2.00588 2.00588 0 0 0 2-2v-13h3z" fill="#434a54"/><path d="m19.5 1h4v3h-4z" fill="#ccd1d9"/><path d="m30.5 45v3h-18v-3h1 16z" fill="#545c66"/><path d="m29.5 18v27h-16v-27a8.00589 8.00589 0 0 1 6-7.75 8.125 8.125 0 0 1 4 0 8.00589 8.00589 0 0 1 6 7.75zm-4 12a4 4 0 1 0 -4 4 3.9989 3.9989 0 0 0 4-4z" fill="#5d9cec"/><path d="m14.5 60h14v3h-14z" fill="#545c66"/><path d="m19.5 7h4v3.25a8.125 8.125 0 0 0 -4 0z" fill="#ccd1d9"/><circle cx="21.5" cy="30" fill="#e6e9ed" r="4"/><path d="m30.5 48v10a2.00588 2.00588 0 0 1 -2 2h-14a1.99944 1.99944 0 0 1 -2-2v-10z" fill="#656d78"/><path d="m47.5 4v3h-3-4-17-4-3v-3h3 4 6 5 6 4z" fill="#e6e9ed"/><path d="m29.499 19.00049a.99974.99974 0 0 1 -1-1 7 7 0 0 0 -14 0 1 1 0 0 1 -2 0 9 9 0 0 1 18 0 .99974.99974 0 0 1 -1 1z"/><path d="m29.499 46.001a.99943.99943 0 0 1 -1-1v-27.00051a1 1 0 0 1 2 0v27.00051a.99942.99942 0 0 1 -1 1z"/><path d="m13.499 46.001a.99943.99943 0 0 1 -1-1v-27.00051a1 1 0 0 1 2 0v27.00051a.99942.99942 0 0 1 -1 1z"/><path d="m30.499 59.001a.99943.99943 0 0 1 -1-1v-12h-16v12a1 1 0 0 1 -2 0v-13a.99942.99942 0 0 1 1-1h18a.99942.99942 0 0 1 1 1v13a.99942.99942 0 0 1 -1 1z"/><path d="m28.499 61.001a1 1 0 0 1 0-2 1.00068 1.00068 0 0 0 1-1 1 1 0 0 1 2 0 3.00328 3.00328 0 0 1 -3 3z"/><path d="m14.499 61.001a3.00329 3.00329 0 0 1 -3-3 1 1 0 0 1 2 0 1.00069 1.00069 0 0 0 1 1 1 1 0 1 1 0 2z"/><path d="m28.499 61.001h-14a1 1 0 0 1 0-2h14a1 1 0 0 1 0 2z"/><path d="m28.499 64.001h-14a.99943.99943 0 0 1 -1-1v-3a.99942.99942 0 0 1 1-1h14a.99942.99942 0 0 1 1 1v3a.99942.99942 0 0 1 -1 1zm-13-2h12v-1h-12z"/><path d="m23.499 11.25293a.99974.99974 0 0 1 -1-1v-3.25244a1 1 0 1 1 2 0v3.25244a.99973.99973 0 0 1 -1 1z"/><path d="m19.499 11.25293a.99974.99974 0 0 1 -1-1v-3.25244a1 1 0 1 1 2 0v3.25244a.99973.99973 0 0 1 -1 1z"/><path d="m47.501 8.00049h-31.002a.99974.99974 0 0 1 -1-1v-3a.99974.99974 0 0 1 1-1h31.002a.99974.99974 0 0 1 1 1v3a.99974.99974 0 0 1 -1 1zm-30.002-2h29.002v-1h-29.002z"/><path d="m16.499 8.00049h-3a.99974.99974 0 0 1 -1-1v-6a.99974.99974 0 0 1 1-1h3a.99973.99973 0 0 1 1 1v6a.99974.99974 0 0 1 -1 1zm-2-2h1v-4h-1z"/><path d="m23.499 5.00049h-4a.99974.99974 0 0 1 -1-1v-3a.99974.99974 0 0 1 1-1h4a.99973.99973 0 0 1 1 1v3a.99974.99974 0 0 1 -1 1zm-3-2h2v-1h-2z"/><path d="m30.499 49.001h-18a1 1 0 0 1 0-2h18a1 1 0 0 1 0 2z"/><path d="m21.499 35.001a5.00025 5.00025 0 1 1 5-5.00049 5.006 5.006 0 0 1 -5 5.00049zm0-8.00049a3.00025 3.00025 0 1 0 3 3 3.00328 3.00328 0 0 0 -3-3.00002z"/><path d="m50.501 19.00049a.99974.99974 0 0 1 -1-1 7 7 0 0 0 -14 0 1 1 0 0 1 -2 0 9 9 0 0 1 18 0 .99974.99974 0 0 1 -1 1z"/><path d="m34.501 46.001a.99942.99942 0 0 1 -1-1v-27.00051a1 1 0 0 1 2 0v27.00051a.99943.99943 0 0 1 -1 1z"/><path d="m50.501 46.001a.99942.99942 0 0 1 -1-1v-27.00051a1 1 0 0 1 2 0v27.00051a.99943.99943 0 0 1 -1 1z"/><path d="m51.501 59.001a.99942.99942 0 0 1 -1-1v-12h-16v12a1 1 0 0 1 -2 0v-13a.99942.99942 0 0 1 1-1h18a.99942.99942 0 0 1 1 1v13a.99943.99943 0 0 1 -1 1z"/><path d="m35.501 61.001a3.00328 3.00328 0 0 1 -3-3 1 1 0 0 1 2 0 1.00068 1.00068 0 0 0 1 1 1 1 0 0 1 0 2z"/><path d="m49.501 61.001a1 1 0 0 1 0-2 1.00069 1.00069 0 0 0 1-1 1 1 0 0 1 2 0 3.00329 3.00329 0 0 1 -3 3z"/><path d="m49.501 61.001h-14a1 1 0 0 1 0-2h14a1 1 0 0 1 0 2z"/><path d="m49.501 64.001h-14a.99942.99942 0 0 1 -1-1v-3a.99942.99942 0 0 1 1-1h14a.99942.99942 0 0 1 1 1v3a.99943.99943 0 0 1 -1 1zm-13-2h12v-1h-12z"/><path d="m40.501 11.25293a.99973.99973 0 0 1 -1-1v-3.25244a1 1 0 1 1 2 0v3.25244a.99974.99974 0 0 1 -1 1z"/><path d="m44.501 11.25293a.99973.99973 0 0 1 -1-1v-3.25244a1 1 0 1 1 2 0v3.25244a.99974.99974 0 0 1 -1 1z"/><path d="m50.501 8.00049h-3a.99974.99974 0 0 1 -1-1v-6a.99973.99973 0 0 1 1-1h3a.99974.99974 0 0 1 1 1v6a.99974.99974 0 0 1 -1 1zm-2-2h1v-4h-1z"/><path d="m44.501 5.00049h-4a.99974.99974 0 0 1 -1-1v-3a.99973.99973 0 0 1 1-1h4a.99974.99974 0 0 1 1 1v3a.99974.99974 0 0 1 -1 1zm-3-2h2v-1h-2z"/><path d="m51.501 49.001h-18a1 1 0 0 1 0-2h18a1 1 0 0 1 0 2z"/><path d="m42.501 35.001a5.00025 5.00025 0 1 1 5-5.00049 5.006 5.006 0 0 1 -5 5.00049zm0-8.00049a3.00025 3.00025 0 1 0 3 3 3.00328 3.00328 0 0 0 -3-3.00002z"/><path d="m34.501 5.00049h-5.002a.99974.99974 0 0 1 -1-1v-3.00098a.99974.99974 0 0 1 1-1h5.002a.99974.99974 0 0 1 1 1v3.001a.99974.99974 0 0 1 -1 .99998zm-4.002-2h3.002v-1.001h-3.002z"/><path d="m35.501 61.001h-7.002a1 1 0 0 1 0-2h7.002a1 1 0 0 1 0 2z"/><path d="m33.501 46.001h-3.002a1 1 0 0 1 0-2h3.002a1 1 0 0 1 0 2z"/></svg>