<svg id="icons" height="512" viewBox="0 0 64 64" width="512" xmlns="http://www.w3.org/2000/svg"><path d="m17 55a2.00588 2.00588 0 0 1 -2 2h-12a2.00588 2.00588 0 0 1 -2-2v-4a2.00588 2.00588 0 0 0 2 2h12a2.00588 2.00588 0 0 0 2-2z" fill="#da4453"/><path d="m14 45a5 5 0 1 0 -5 5 5.00182 5.00182 0 0 0 5-5zm0-13a5 5 0 1 0 -5 5 5.00182 5.00182 0 0 0 5-5zm3-2v21a2.00588 2.00588 0 0 1 -2 2h-12a2.00588 2.00588 0 0 1 -2-2v-25a2.00588 2.00588 0 0 1 2-2h12a2.00588 2.00588 0 0 1 2 2z" fill="#ed5565"/><circle cx="9" cy="32" fill="#e6e9ed" r="5"/><circle cx="9" cy="45" fill="#e6e9ed" r="5"/><path d="m39 43h10a3.9989 3.9989 0 0 0 4-4v-6.06a8.26189 8.26189 0 0 0 1 .06 9.35622 9.35622 0 0 0 2-.22v6.22a6.99488 6.99488 0 0 1 -7 7h-10a6.99488 6.99488 0 0 1 -7-7v-19a3.9989 3.9989 0 0 0 -4-4h-14a3.9989 3.9989 0 0 0 -4 4v4h-3v-4a6.99488 6.99488 0 0 1 7-7h14a6.99488 6.99488 0 0 1 7 7v19a3.9989 3.9989 0 0 0 4 4z" fill="#545c66"/><path d="m56 15.22a9.00631 9.00631 0 0 1 0 17.56 9.35622 9.35622 0 0 1 -2 .22 8.26189 8.26189 0 0 1 -1-.06 9.00045 9.00045 0 0 1 -1-17.72 9.20091 9.20091 0 0 1 4 0zm3 8.78a5 5 0 1 0 -5 5 5.00182 5.00182 0 0 0 5-5z" fill="#656d78"/><path d="m56 8 2-1v4h-2-4-2v-4l2 1z" fill="#656d78"/><path d="m56 11v4.22a9.20091 9.20091 0 0 0 -4 0v-4.22z" fill="#545c66"/><circle cx="54" cy="24" fill="#ccd1d9" r="5"/><path d="m15 54h-12a3.00328 3.00328 0 0 1 -3-3v-25a3.00328 3.00328 0 0 1 3-3h12a3.00328 3.00328 0 0 1 3 3v25a3.00328 3.00328 0 0 1 -3 3zm-12-29a1.00067 1.00067 0 0 0 -1 1v25a1.00067 1.00067 0 0 0 1 1h12a1.00067 1.00067 0 0 0 1-1v-25a1.00067 1.00067 0 0 0 -1-1z"/><path d="m15 58h-12a3.00328 3.00328 0 0 1 -3-3v-25a1 1 0 0 1 2 0v25a1.00067 1.00067 0 0 0 1 1h12a1.00067 1.00067 0 0 0 1-1v-25a1 1 0 0 1 2 0v25a3.00328 3.00328 0 0 1 -3 3z"/><path d="m9 38a6 6 0 1 1 6-6 6.00657 6.00657 0 0 1 -6 6zm0-10a4 4 0 1 0 4 4 4.004 4.004 0 0 0 -4-4z"/><path d="m9 51a6 6 0 1 1 6-6 6.00657 6.00657 0 0 1 -6 6zm0-10a4 4 0 1 0 4 4 4.004 4.004 0 0 0 -4-4z"/><path d="m9 33a.99943.99943 0 0 1 -1-1v-2a1 1 0 0 1 2 0v2a.99943.99943 0 0 1 -1 1z"/><path d="m9 46a.99943.99943 0 0 1 -1-1v-2a1 1 0 0 1 2 0v2a.99943.99943 0 0 1 -1 1z"/><path d="m54 34a10 10 0 1 1 10-10 10.01177 10.01177 0 0 1 -10 10zm0-18a8 8 0 1 0 8 8 8.00917 8.00917 0 0 0 -8-8z"/><path d="m54 30a6 6 0 1 1 6-6 6.00657 6.00657 0 0 1 -6 6zm0-10a4 4 0 1 0 4 4 4.004 4.004 0 0 0 -4-4z"/><path d="m52 16.22363a.99942.99942 0 0 1 -1-1v-4.22363a1 1 0 0 1 2 0v4.22363a.99942.99942 0 0 1 -1 1z"/><path d="m56 16.22363a.99942.99942 0 0 1 -1-1v-4.22363a1 1 0 0 1 2 0v4.22363a.99942.99942 0 0 1 -1 1z"/><path d="m58 12h-8a.99943.99943 0 0 1 -1-1v-4a1.00038 1.00038 0 0 1 1.44727-.89453l1.78906.89453h3.52734l1.78906-.89453a1.00038 1.00038 0 0 1 1.44727.89453v4a.99943.99943 0 0 1 -1 1zm-7-2h6v-1.38184l-.55273.27637a1.00067 1.00067 0 0 1 -.44727.10547h-4a1.00067 1.00067 0 0 1 -.44727-.10547l-.55273-.27637z"/><path d="m7 21a.99943.99943 0 0 1 -1-1 8.00917 8.00917 0 0 1 8-8 1 1 0 0 1 0 2 6.00657 6.00657 0 0 0 -6 6 .99943.99943 0 0 1 -1 1z"/><path d="m10 21a.99943.99943 0 0 1 -1-1 5.00588 5.00588 0 0 1 5-5 1 1 0 0 1 0 2 3.00328 3.00328 0 0 0 -3 3 .99943.99943 0 0 1 -1 1z"/><path d="m49 46.999a1 1 0 0 1 0-2 6.00656 6.00656 0 0 0 6-6 1 1 0 0 1 2 0 8.00916 8.00916 0 0 1 -8 8z"/><path d="m49 43.999a1 1 0 0 1 0-2 3.00328 3.00328 0 0 0 3-3 1 1 0 0 1 2 0 5.00588 5.00588 0 0 1 -5 5z"/><path d="m39 46.999a8.00916 8.00916 0 0 1 -8-8 1 1 0 0 1 2 0 6.00656 6.00656 0 0 0 6 6 1 1 0 0 1 0 2z"/><path d="m39 43.999a5.00588 5.00588 0 0 1 -5-5 1 1 0 0 1 2 0 3.00328 3.00328 0 0 0 3 3 1 1 0 0 1 0 2z"/><path d="m35 20.999a.99942.99942 0 0 1 -1-1 6.00657 6.00657 0 0 0 -6-6 1 1 0 0 1 0-2 8.00917 8.00917 0 0 1 8 8 .99942.99942 0 0 1 -1 1z"/><path d="m32 20.999a.99942.99942 0 0 1 -1-1 3.00328 3.00328 0 0 0 -3-3 1 1 0 1 1 0-2 5.00589 5.00589 0 0 1 5 5 .99942.99942 0 0 1 -1 1z"/><path d="m53 39.999a.99942.99942 0 0 1 -1-1v-6.05369a1 1 0 0 1 2 0v6.05369a.99942.99942 0 0 1 -1 1z"/><path d="m56 39.999a.99942.99942 0 0 1 -1-1v-6.22166a1 1 0 1 1 2 0v6.22166a.99942.99942 0 0 1 -1 1z"/><path d="m28 14h-14a1 1 0 0 1 0-2h14a1 1 0 0 1 0 2z"/><path d="m28 16.999h-14a1 1 0 0 1 0-2h14a1 1 0 0 1 0 2z"/><path d="m49 43.999h-10a1 1 0 0 1 0-2h10a1 1 0 0 1 0 2z"/><path d="m49 46.999h-10a1 1 0 0 1 0-2h10a1 1 0 0 1 0 2z"/><path d="m35 39.999a.99942.99942 0 0 1 -1-1v-19a1 1 0 0 1 2 0v19a.99942.99942 0 0 1 -1 1z"/><path d="m32 39.999a.99942.99942 0 0 1 -1-1v-19a1 1 0 0 1 2 0v19a.99942.99942 0 0 1 -1 1z"/><path d="m7 25a.99943.99943 0 0 1 -1-1v-4a1 1 0 0 1 2 0v4a.99943.99943 0 0 1 -1 1z"/><path d="m10 25a.99943.99943 0 0 1 -1-1v-4a1 1 0 0 1 2 0v4a.99943.99943 0 0 1 -1 1z"/></svg>