<svg id="icons" height="512" viewBox="0 0 64 64" width="512" xmlns="http://www.w3.org/2000/svg"><path d="m47 39.5a2.5 2.5 0 1 0 -2.5 2.5 2.50091 2.50091 0 0 0 2.5-2.5zm-1-5.29a5.498 5.498 0 0 1 0 10.58 5.46214 5.46214 0 0 1 -3 0 5.498 5.498 0 0 1 0-10.58 5.46214 5.46214 0 0 1 3 0z" fill="#656d78"/><path d="m32 49v3h-18v-3h1 16z" fill="#545c66"/><path d="m31 18v31h-16v-31a8.00589 8.00589 0 0 1 6-7.75 8.125 8.125 0 0 1 4 0 8.00589 8.00589 0 0 1 6 7.75zm-4 13a4 4 0 1 0 -4 4 3.9989 3.9989 0 0 0 4-4z" fill="#5d9cec"/><path d="m47 48v4l-2.5-1-2.5 1v-4h1 3z" fill="#656d78"/><circle cx="44.5" cy="39.5" fill="#e6e9ed" r="2.5"/><path d="m44.5 45a5.32979 5.32979 0 0 0 1.5-.21v3.21h-3v-3.21a5.32979 5.32979 0 0 0 1.5.21z" fill="#545c66"/><path d="m34 4a11.99669 11.99669 0 0 1 12 12v18.21a5.46214 5.46214 0 0 0 -3 0v-18.21a8.99432 8.99432 0 0 0 -9-9h-6v-3z" fill="#545c66"/><path d="m28 4v3h-3-4-3v-3h3 4z" fill="#e6e9ed"/><path d="m21 1h4v3h-4z" fill="#ccd1d9"/><path d="m21 7h4v3.25a8.125 8.125 0 0 0 -4 0z" fill="#ccd1d9"/><path d="m16 60h14v3h-14z" fill="#545c66"/><circle cx="23" cy="31" fill="#e6e9ed" r="4"/><path d="m32 52v6a1.99309 1.99309 0 0 1 -2 2h-14a1.99309 1.99309 0 0 1 -2-2v-6z" fill="#656d78"/><path d="m31 19a.99943.99943 0 0 1 -1-1 7 7 0 0 0 -14 0 1 1 0 0 1 -2 0 9 9 0 0 1 18 0 .99943.99943 0 0 1 -1 1z"/><path d="m15 50a.99943.99943 0 0 1 -1-1v-31a1 1 0 0 1 2 0v31a.99943.99943 0 0 1 -1 1z"/><path d="m31 50a.99943.99943 0 0 1 -1-1v-31a1 1 0 0 1 2 0v31a.99943.99943 0 0 1 -1 1z"/><path d="m32 59a.99943.99943 0 0 1 -1-1v-8h-16v8a1 1 0 0 1 -2 0v-9a.99943.99943 0 0 1 1-1h18a.99943.99943 0 0 1 1 1v9a.99943.99943 0 0 1 -1 1z"/><path d="m16 61a3.00328 3.00328 0 0 1 -3-3 1 1 0 0 1 2 0 1.00067 1.00067 0 0 0 1 1 1 1 0 0 1 0 2z"/><path d="m30 61a1 1 0 0 1 0-2 1.00067 1.00067 0 0 0 1-1 1 1 0 0 1 2 0 3.00328 3.00328 0 0 1 -3 3z"/><path d="m30 61h-14a1 1 0 0 1 0-2h14a1 1 0 0 1 0 2z"/><path d="m30 64h-14a.99943.99943 0 0 1 -1-1v-3a.99943.99943 0 0 1 1-1h14a.99943.99943 0 0 1 1 1v3a.99943.99943 0 0 1 -1 1zm-13-2h12v-1h-12z"/><path d="m21 11.252a.99942.99942 0 0 1 -1-1v-3.252a1 1 0 0 1 2 0v3.252a.99942.99942 0 0 1 -1 1z"/><path d="m25 11.252a.99942.99942 0 0 1 -1-1v-3.252a1 1 0 0 1 2 0v3.252a.99942.99942 0 0 1 -1 1z"/><path d="m28 8h-10a.99943.99943 0 0 1 -1-1v-3a.99943.99943 0 0 1 1-1h10a.99943.99943 0 0 1 1 1v3a.99943.99943 0 0 1 -1 1zm-9-2h8v-1h-8z"/><path d="m25 5h-4a.99943.99943 0 0 1 -1-1v-3a.99943.99943 0 0 1 1-1h4a.99943.99943 0 0 1 1 1v3a.99943.99943 0 0 1 -1 1zm-3-2h2v-1h-2z"/><path d="m32 53h-18a1 1 0 0 1 0-2h18a1 1 0 0 1 0 2z"/><path d="m23 36a5 5 0 1 1 5-5 5.00588 5.00588 0 0 1 -5 5zm0-8a3 3 0 1 0 3 3 3.00328 3.00328 0 0 0 -3-3z"/><path d="m46 16.99805a.99943.99943 0 0 1 -1-1 11.01245 11.01245 0 0 0 -11-11 1 1 0 0 1 0-2 13.01505 13.01505 0 0 1 13 13 .99943.99943 0 0 1 -1 1z"/><path d="m43 16.99805a.99943.99943 0 0 1 -1-1 8.00916 8.00916 0 0 0 -8-8 1 1 0 0 1 0-2 10.01177 10.01177 0 0 1 10 10 .99943.99943 0 0 1 -1 1z"/><path d="m34 5h-6a1 1 0 0 1 0-2h6a1 1 0 0 1 0 2z"/><path d="m34 8h-6a1 1 0 0 1 0-2h6a1 1 0 0 1 0 2z"/><path d="m46 35.2041a.99942.99942 0 0 1 -1-1v-18.206a1 1 0 0 1 2 0v18.206a.99942.99942 0 0 1 -1 1z"/><path d="m43 35.2041a.99942.99942 0 0 1 -1-1v-18.206a1 1 0 0 1 2 0v18.206a.99942.99942 0 0 1 -1 1z"/><path d="m44.5 45.99805a6.5 6.5 0 1 1 6.5-6.5 6.50753 6.50753 0 0 1 -6.5 6.5zm0-11a4.5 4.5 0 1 0 4.5 4.5 4.50491 4.50491 0 0 0 -4.5-4.5z"/><path d="m44.5 42.99805a3.5 3.5 0 1 1 3.5-3.5 3.50425 3.50425 0 0 1 -3.5 3.5zm0-5a1.5 1.5 0 1 0 1.5 1.5 1.50164 1.50164 0 0 0 -1.5-1.5z"/><path d="m43 48.99805a.99943.99943 0 0 1 -1-1v-3.20705a1 1 0 0 1 2 0v3.207a.99943.99943 0 0 1 -1 1.00005z"/><path d="m46 48.99805a.99943.99943 0 0 1 -1-1v-3.20705a1 1 0 0 1 2 0v3.207a.99943.99943 0 0 1 -1 1.00005z"/><path d="m47 52.99805a.99486.99486 0 0 1 -.37109-.07129l-2.12891-.85156-2.12891.85156a1.00012 1.00012 0 0 1 -1.37109-.92871v-4a.99942.99942 0 0 1 1-1h5a.99942.99942 0 0 1 1 1v4a1 1 0 0 1 -1 1zm-2.5-3a.99466.99466 0 0 1 .37109.07129l1.12891.45214v-1.52343h-3v1.52343l1.12891-.45214a.99466.99466 0 0 1 .37109-.07129z"/></svg>