<svg id="icons" height="512" viewBox="0 0 64 64" width="512" xmlns="http://www.w3.org/2000/svg"><path d="m14 34.5h4v6h-4z" fill="#656d78"/><path d="m62.33 30.49a6.93536 6.93536 0 0 0 .67-2.99v6a6.99488 6.99488 0 0 1 -7 7v-6a6.99412 6.99412 0 0 0 6.33-4.01z" fill="#656d78"/><path d="m28 34.5h8v6h-8z" fill="#e6e9ed"/><path d="m46 34.5v6 3h-6v-3-6-3h6z" fill="#ccd1d9"/><path d="m14 40.5v3h-6v-3-6-3h6v3z" fill="#ccd1d9"/><g fill="#656d78"><path d="m46 34.5h4v6h-4z"/><path d="m36 34.5h4v6h-4z"/><path d="m24 34.5h4v6h-4z"/></g><path d="m24 40.5v3h-6v-3-6-3h6v3z" fill="#ccd1d9"/><path d="m56 34.5v6 3h-6v-3-6-3h6z" fill="#ccd1d9"/><path d="m63 27.5a6.93536 6.93536 0 0 1 -.67 2.99 7.04423 7.04423 0 0 0 -6.33-3.99h-48a7.04423 7.04423 0 0 0 -6.33 3.99 7.00123 7.00123 0 0 1 6.33-9.99h48a6.99488 6.99488 0 0 1 7 7z" fill="#545c66"/><path d="m1.67 30.49a6.99412 6.99412 0 0 0 6.33 4.01v6a6.99488 6.99488 0 0 1 -7-7v-6a6.93536 6.93536 0 0 0 .67 2.99z" fill="#656d78"/><path d="m36 41.5h-8a.99943.99943 0 0 1 -1-1v-6a.99943.99943 0 0 1 1-1h8a.99943.99943 0 0 1 1 1v6a.99943.99943 0 0 1 -1 1zm-7-2h6v-4h-6z"/><path d="m56 35.5a1 1 0 0 1 0-2 6 6 0 0 0 0-12 1 1 0 0 1 0-2 8 8 0 0 1 0 16z"/><path d="m62.32813 31.501a1.00042 1.00042 0 0 1 -.9043-.57129 6.03275 6.03275 0 0 0 -5.42383-3.42971 1 1 0 0 1 0-2 8.04151 8.04151 0 0 1 7.23047 4.57227 1.0001 1.0001 0 0 1 -.90234 1.42871z"/><path d="m56 41.50488a1 1 0 0 1 0-2 6.00656 6.00656 0 0 0 6-6 1 1 0 0 1 2 0 8.00916 8.00916 0 0 1 -8 8z"/><path d="m63 34.50488a.99942.99942 0 0 1 -1-1v-6.00488a1 1 0 0 1 2 0v6.00488a.99942.99942 0 0 1 -1 1z"/><path d="m8 35.5a8 8 0 0 1 0-16 1 1 0 0 1 0 2 6 6 0 0 0 0 12 1 1 0 0 1 0 2z"/><path d="m1.67188 31.501a1.0001 1.0001 0 0 1 -.90235-1.42871 8.04151 8.04151 0 0 1 7.23047-4.57229 1 1 0 0 1 0 2 6.03275 6.03275 0 0 0 -5.42383 3.42969 1.00041 1.00041 0 0 1 -.90429.57131z"/><path d="m8 41.50488a8.00916 8.00916 0 0 1 -8-8 1 1 0 0 1 2 0 6.00656 6.00656 0 0 0 6 6 1 1 0 0 1 0 2z"/><path d="m1 34.50488a.99942.99942 0 0 1 -1-1v-6.00488a1 1 0 0 1 2 0v6.00488a.99942.99942 0 0 1 -1 1z"/><path d="m18 35.5h-4a1 1 0 0 1 0-2h4a1 1 0 0 1 0 2z"/><path d="m18 41.50488h-4a1 1 0 0 1 0-2h4a1 1 0 0 1 0 2z"/><path d="m28 35.5h-4a1 1 0 0 1 0-2h4a1 1 0 0 1 0 2z"/><path d="m28 41.50488h-4a1 1 0 0 1 0-2h4a1 1 0 0 1 0 2z"/><path d="m56 21.5h-48a1 1 0 0 1 0-2h48a1 1 0 0 1 0 2z"/><path d="m56 27.5h-48a1 1 0 0 1 0-2h48a1 1 0 0 1 0 2z"/><path d="m14 44.5h-6a.99943.99943 0 0 1 -1-1v-12a.99943.99943 0 0 1 1-1h6a.99943.99943 0 0 1 1 1v12a.99943.99943 0 0 1 -1 1zm-5-2h4v-10h-4z"/><path d="m24 44.5h-6a.99943.99943 0 0 1 -1-1v-12a.99943.99943 0 0 1 1-1h6a.99943.99943 0 0 1 1 1v12a.99943.99943 0 0 1 -1 1zm-5-2h4v-10h-4z"/><path d="m11 41.5a.99943.99943 0 0 1 -1-1v-6a1 1 0 0 1 2 0v6a.99943.99943 0 0 1 -1 1z"/><path d="m21 41.5a.99943.99943 0 0 1 -1-1v-6a1 1 0 0 1 2 0v6a.99943.99943 0 0 1 -1 1z"/><path d="m50 35.5h-4a1 1 0 0 1 0-2h4a1 1 0 0 1 0 2z"/><path d="m50 41.50488h-4a1 1 0 0 1 0-2h4a1 1 0 0 1 0 2z"/><path d="m40 35.5h-4a1 1 0 0 1 0-2h4a1 1 0 0 1 0 2z"/><path d="m40 41.50488h-4a1 1 0 0 1 0-2h4a1 1 0 0 1 0 2z"/><path d="m56 44.5h-6a.99943.99943 0 0 1 -1-1v-12a.99943.99943 0 0 1 1-1h6a.99943.99943 0 0 1 1 1v12a.99943.99943 0 0 1 -1 1zm-5-2h4v-10h-4z"/><path d="m46 44.5h-6a.99943.99943 0 0 1 -1-1v-12a.99943.99943 0 0 1 1-1h6a.99943.99943 0 0 1 1 1v12a.99943.99943 0 0 1 -1 1zm-5-2h4v-10h-4z"/><path d="m53 41.5a.99943.99943 0 0 1 -1-1v-6a1 1 0 0 1 2 0v6a.99943.99943 0 0 1 -1 1z"/><path d="m43 41.5a.99943.99943 0 0 1 -1-1v-6a1 1 0 0 1 2 0v6a.99943.99943 0 0 1 -1 1z"/></svg>