<svg id="icons" height="512" viewBox="0 0 64 64" width="512" xmlns="http://www.w3.org/2000/svg"><path d="m22 22-5 1v-2-2l5 1v1z" fill="#ed5565"/><path d="m56 33v2h-36v-3h36z" fill="#ccd1d9"/><path d="m20 37a2.00588 2.00588 0 0 0 -2-2h-4a2.00588 2.00588 0 0 0 -2 2 1.94812 1.94812 0 0 0 .02.25 7.995 7.995 0 0 0 -6.02 7.75h-5a10.99475 10.99475 0 0 1 6-9.8v-.2a2.996 2.996 0 0 0 -3-3h16z" fill="#656d78"/><path d="m56 36h-36a.99943.99943 0 0 1 -1-1v-3a.99943.99943 0 0 1 1-1h36a.99943.99943 0 0 1 1 1v3a.99943.99943 0 0 1 -1 1zm-35-2h34v-1h-34z"/><path d="m20 33h-16a1 1 0 0 1 0-2h16a1 1 0 0 1 0 2z"/><path d="m7 36a.99943.99943 0 0 1 -1-1 2.0026 2.0026 0 0 0 -2-2 1 1 0 0 1 0-2 4.004 4.004 0 0 1 4 4 .99943.99943 0 0 1 -1 1z"/><path d="m14 40a3 3 0 0 1 0-6 1 1 0 0 1 0 2 1 1 0 0 0 0 2 1 1 0 0 1 0 2z"/><path d="m18 40a1 1 0 0 1 0-2 1 1 0 0 0 0-2 1 1 0 0 1 0-2 3 3 0 0 1 0 6z"/><path d="m20 38a.99943.99943 0 0 1 -1-1v-2a1 1 0 0 1 2 0v2a.99943.99943 0 0 1 -1 1z"/><path d="m18 40h-4a1 1 0 0 1 0-2h4a1 1 0 0 1 0 2z"/><path d="m18 36h-4a1 1 0 0 1 0-2h4a1 1 0 0 1 0 2z"/><path d="m16 38a3.00328 3.00328 0 0 1 -3-3 1 1 0 0 1 2 0 1.00067 1.00067 0 0 0 1 1 1 1 0 0 1 0 2z"/><path d="m1 46a.99943.99943 0 0 1 -1-1 11.95391 11.95391 0 0 1 6.54492-10.69336 1.00016 1.00016 0 1 1 .91016 1.78125 9.962 9.962 0 0 0 -5.45508 8.91211.99943.99943 0 0 1 -1 1z"/><path d="m7 36.19727a.99943.99943 0 0 1 -1-1v-.19727a1 1 0 0 1 2 0v.19727a.99943.99943 0 0 1 -1 1z"/><path d="m6 46a.99943.99943 0 0 1 -1-1 8.98646 8.98646 0 0 1 6.76855-8.7207.99976.99976 0 1 1 .49415 1.9375 6.98971 6.98971 0 0 0 -5.2627 6.7832.99943.99943 0 0 1 -1 1z"/><path d="m7 46h-6a1 1 0 0 1 0-2h6a1 1 0 0 1 0 2z"/><path d="m60 34a1 1 0 0 1 0-2 2 2 0 0 0 0-4 1 1 0 0 1 0-2 4 4 0 0 1 0 8z"/><path d="m4 28a4 4 0 0 1 0-8 1 1 0 0 1 0 2 2 2 0 0 0 0 4 1 1 0 0 1 0 2z"/><path d="m60 34h-4a1 1 0 0 1 0-2h4a1 1 0 0 1 0 2z"/><path d="m60 28h-56a1 1 0 0 1 0-2h56a1 1 0 0 1 0 2z"/><path d="m17 22h-13a1 1 0 0 1 0-2h13a1 1 0 0 1 0 2z"/><path d="m22.001 21a.97225.97225 0 0 1 -.19727-.01953l-5-1a.99993.99993 0 0 1 .39258-1.96094l5 1a1 1 0 0 1 -.19531 1.98047z"/><path d="m17 24a.99943.99943 0 0 1 -1-1v-4a1 1 0 0 1 2 0v4a.99943.99943 0 0 1 -1 1z"/><path d="m16.999 24a1 1 0 0 1 -.19531-1.98047l5-1a.99993.99993 0 0 1 .39258 1.96094l-5 1a.97907.97907 0 0 1 -.19727.01953z"/><path d="m22 23a.99943.99943 0 0 1 -1-1v-2a1 1 0 0 1 2 0v2a.99943.99943 0 0 1 -1 1z"/><path d="m58 22h-36a1 1 0 0 1 0-2h36a1 1 0 0 1 0 2z"/><path d="m55.001 24a1 1 0 0 1 -.55567-1.832l3-2a1 1 0 1 1 1.10936 1.664l-3 2a.99943.99943 0 0 1 -.55369.168z"/><path d="m57.999 22a.99943.99943 0 0 1 -.55371-.168l-3-2a1 1 0 1 1 1.1094-1.664l3 2a1 1 0 0 1 -.55569 1.832z"/></svg>