<svg id="icons" height="512" viewBox="0 0 64 64" width="512" xmlns="http://www.w3.org/2000/svg"><path d="m33.5 44 11 13-3.1 6h-4.9l-3-9z" fill="#656d78"/><path d="m41.5 29v-6h-1v-9h-3v9h-1v6zm3-6v22l-11-13v-9l1-2v-11h9v11z" fill="#656d78"/><path d="m37.5 14h3v9h-3z" fill="#aab2bd"/><path d="m41.5 23v6h-5v-6h1 3z" fill="#ccd1d9"/><g fill="#ed5565"><path d="m44.5 45v6l-11-13v-6z"/><path d="m44.5 51v6l-11-13v-6z"/><path d="m22.5 1h4v3h-4z"/></g><path d="m28.5 4-.21 5-.25 6-.25 6-.29 7h-6l-.29-7-.25-6-.25-6-.21-5h2 4z" fill="#656d78"/><path d="m27.5 28v21l-2 14c-2.21 0-4-6.62-4-15v-20z" fill="#e6e9ed"/><path d="m29.5 29h-10a1 1 0 0 1 0-2h10a1 1 0 0 1 0 2z"/><path d="m27.5 29h-6a1 1 0 0 1 -.999-.958l-1-24a.9996.9996 0 0 1 .999-1.042h8a.9996.9996 0 0 1 .999 1.042l-1 24a1 1 0 0 1 -.999.958zm-5.041-2h4.082l.916-22h-5.914z"/><path d="m26.5 5h-4a.99943.99943 0 0 1 -1-1v-3a.99943.99943 0 0 1 1-1h4a.99943.99943 0 0 1 1 1v3a.99943.99943 0 0 1 -1 1zm-3-2h2v-1h-2z"/><path d="m25.5 64c-3.43555 0-5-8.294-5-16a1 1 0 0 1 2 0c0 9.2373 2.10254 14 3 14a1 1 0 0 1 0 2z"/><path d="m25.501 64a.99833.99833 0 0 1 -.99121-1.1416l2-14a1.0003 1.0003 0 1 1 1.98046.2832l-2 14a.99985.99985 0 0 1 -.98925.8584z"/><path d="m27.5 50a.99943.99943 0 0 1 -1-1v-21a1 1 0 0 1 2 0v21a.99943.99943 0 0 1 -1 1z"/><path d="m21.5 49a.99943.99943 0 0 1 -1-1v-20a1 1 0 0 1 2 0v20a.99943.99943 0 0 1 -1 1z"/><path d="m28.292 10h-1.792a1 1 0 0 1 0-2h1.792a1 1 0 0 1 0 2z"/><path d="m28.16406 13h-1.66406a1 1 0 0 1 0-2h1.66406a1 1 0 0 1 0 2z"/><path d="m28.042 16h-1.542a1 1 0 0 1 0-2h1.542a1 1 0 0 1 0 2z"/><path d="m27.91406 19h-1.41406a1 1 0 0 1 0-2h1.41406a1 1 0 0 1 0 2z"/><path d="m27.792 22h-1.292a1 1 0 0 1 0-2h1.292a1 1 0 0 1 0 2z"/><path d="m22.5 10h-1.792a1 1 0 0 1 0-2h1.792a1 1 0 0 1 0 2z"/><path d="m22.5 13h-1.66406a1 1 0 0 1 0-2h1.66406a1 1 0 0 1 0 2z"/><path d="m22.5 16h-1.542a1 1 0 0 1 0-2h1.542a1 1 0 0 1 0 2z"/><path d="m22.5 19h-1.41406a1 1 0 0 1 0-2h1.41406a1 1 0 0 1 0 2z"/><path d="m22.5 22h-1.292a1 1 0 0 1 0-2h1.292a1 1 0 0 1 0 2z"/><path d="m33.5 55a.99943.99943 0 0 1 -1-1v-31a1 1 0 0 1 2 0v31a.99943.99943 0 0 1 -1 1z"/><path d="m36.5 64a.99947.99947 0 0 1 -.94824-.68359l-3-9a.99964.99964 0 0 1 1.89648-.63282l3 9a1.00062 1.00062 0 0 1 -.94824 1.31641z"/><path d="m41.40332 64h-4.90332a1 1 0 0 1 0-2h4.90332a1 1 0 1 1 0 2z"/><path d="m44.5 58a.99943.99943 0 0 1 -1-1v-34a1 1 0 0 1 2 0v34a.99943.99943 0 0 1 -1 1z"/><path d="m41.40234 64a.99985.99985 0 0 1 -.88769-1.459l3.09668-6a1.0002 1.0002 0 0 1 1.77734.918l-3.09668 6a1.00045 1.00045 0 0 1 -.88965.541z"/><path d="m33.499 24a.99991.99991 0 0 1 -.89355-1.44727l1-2a1.00012 1.00012 0 0 1 1.78906.89454l-1 2a1.00011 1.00011 0 0 1 -.89551.55273z"/><path d="m34.5 22a.99943.99943 0 0 1 -1-1v-11a1 1 0 0 1 2 0v11a.99943.99943 0 0 1 -1 1z"/><path d="m44.501 24a1.00011 1.00011 0 0 1 -.89551-.55273l-1-2a1.00012 1.00012 0 1 1 1.78906-.89454l1 2a.99991.99991 0 0 1 -.89355 1.44727z"/><path d="m43.5 22a.99943.99943 0 0 1 -1-1v-11a1 1 0 0 1 2 0v11a.99943.99943 0 0 1 -1 1z"/><path d="m43.5 11h-9a1 1 0 0 1 0-2h9a1 1 0 0 1 0 2z"/><path d="m41.5 30h-5a.99943.99943 0 0 1 -1-1v-6a.99943.99943 0 0 1 1-1h5a.99943.99943 0 0 1 1 1v6a.99943.99943 0 0 1 -1 1zm-4-2h3v-4h-3z"/><path d="m40.5 24h-3a.99943.99943 0 0 1 -1-1v-9a.99943.99943 0 0 1 1-1h3a.99943.99943 0 0 1 1 1v9a.99943.99943 0 0 1 -1 1zm-2-2h1v-7h-1z"/><path d="m44.501 58a.99815.99815 0 0 1 -.76465-.35449l-11-13a.99994.99994 0 1 1 1.52734-1.291l11 13a1 1 0 0 1 -.76269 1.64549z"/><path d="m44.501 51.999a.99811.99811 0 0 1 -.76465-.35449l-11-13a.99993.99993 0 1 1 1.52734-1.291l11 13a1 1 0 0 1 -.76269 1.64549z"/><path d="m44.501 45.99805a.99812.99812 0 0 1 -.76465-.3545l-11-13a.99993.99993 0 0 1 1.52734-1.291l11 13a1 1 0 0 1 -.76269 1.64551z"/></svg>