<svg id="icons" height="512" viewBox="0 0 64 64" width="512" xmlns="http://www.w3.org/2000/svg"><path d="m11.5 25h3.86a14.96488 14.96488 0 0 0 0 10h-3.86z" fill="#f6bb42"/><path d="m42.5 47a2.996 2.996 0 0 0 3-3 16 16 0 0 1 -32 0 3 3 0 0 0 6 0v-2.82l.01-.01a14.94373 14.94373 0 0 0 19.98 0l.01.01v2.82a2.996 2.996 0 0 0 3 3z" fill="#f6bb42"/><path d="m48.5 44a18.56494 18.56494 0 0 1 -.68 5.03 18.99725 18.99725 0 0 1 -36.64 0 18.56494 18.56494 0 0 1 -.68-5.03h3a16 16 0 0 0 32 0z" fill="#ffce54"/><path d="m41.29 20.72a13.99247 13.99247 0 0 0 11.21-13.72v-6h3v6a17.00274 17.00274 0 0 1 -12.52 16.41 14.63581 14.63581 0 0 0 -1.7-2.68z" fill="#656d78"/><path d="m47.83 49.03a7.97748 7.97748 0 0 1 2.67 5.97v8h-21a19 19 0 0 0 18.32-13.97z" fill="#656d78"/><path d="m32.33 32.83a4.00222 4.00222 0 1 0 -5.66 0 4.00761 4.00761 0 0 0 5.66 0zm3.88-4.83a7.001 7.001 0 1 1 -6.71-5 6.95892 6.95892 0 0 1 6.71 5z" fill="#e6e9ed"/><path d="m47.5 25v10h-3.86a14.96488 14.96488 0 0 0 0-10z" fill="#f6bb42"/><path d="m36.5 30a6.993 6.993 0 1 0 -.29 2 6.95892 6.95892 0 0 0 .29-2zm7.14-5a14.98682 14.98682 0 0 1 -24.13 16.17 14.95918 14.95918 0 0 1 -4.15-16.17 15.00031 15.00031 0 0 1 9.14-9.14 14.97492 14.97492 0 0 1 16.78 4.87 14.26675 14.26675 0 0 1 2.36 4.27z" fill="#ffce54"/><path d="m34.5 12v3.86a14.96488 14.96488 0 0 0 -10 0v-3.86z" fill="#f6bb42"/><g fill="#656d78"><path d="m32.33 27.17-2.83 2.83-2.83-2.83a4.00761 4.00761 0 0 1 5.66 0z"/><path d="m26.67 27.17 2.83 2.83-2.83 2.83a4.00761 4.00761 0 0 1 0-5.66z"/><path d="m32.33 27.17a4.00761 4.00761 0 0 1 0 5.66l-2.83-2.83z"/><path d="m29.5 30 2.83 2.83a4.00761 4.00761 0 0 1 -5.66 0z"/><path d="m29.5 63h-21v-8a7.97748 7.97748 0 0 1 2.67-5.97h.01a19 19 0 0 0 18.32 13.97z"/></g><path d="m29.5 46a16 16 0 1 1 16-16 16.01833 16.01833 0 0 1 -16 16zm0-30a14 14 0 1 0 14 14 14.01572 14.01572 0 0 0 -14-14z"/><path d="m29.5 64a20.02229 20.02229 0 0 1 -20-20 1 1 0 0 1 2 0 18 18 0 0 0 36 0 1 1 0 0 1 2 0 20.02229 20.02229 0 0 1 -20 20z"/><path d="m29.5 61a17.019 17.019 0 0 1 -17-17 1 1 0 0 1 2 0 15 15 0 0 0 30 0 1 1 0 0 1 2 0 17.019 17.019 0 0 1 -17 17z"/><path d="m29.5 38a8 8 0 1 1 8-8 8.00917 8.00917 0 0 1 -8 8zm0-14a6 6 0 1 0 6 6 6.00657 6.00657 0 0 0 -6-6z"/><path d="m29.5 35a5.00128 5.00128 0 1 1 3.53516-1.46484 4.96622 4.96622 0 0 1 -3.53516 1.46484zm0-8a2.99967 2.99967 0 0 0 -2.12109 5.12109 3.07249 3.07249 0 0 0 4.24218 0 3 3 0 0 0 -2.12109-5.12109z"/><path d="m26.67188 33.82813a1 1 0 0 1 -.707-1.707l5.65625-5.65625a.9999.9999 0 1 1 1.41407 1.41407l-5.65625 5.65625a.9968.9968 0 0 1 -.70707.29293z"/><path d="m32.32813 33.82813a.9968.9968 0 0 1 -.707-.293l-5.65625-5.65625a.9999.9999 0 0 1 1.41407-1.41407l5.65625 5.65625a1 1 0 0 1 -.707 1.707z"/><path d="m37.5 29h-1.291a1 1 0 0 1 0-2h1.291a1 1 0 0 1 0 2z"/><path d="m37.5 33h-1.291a1 1 0 0 1 0-2h1.291a1 1 0 0 1 0 2z"/><path d="m47.5 36h-3.85547a1 1 0 0 1 0-2h2.85547v-8h-2.85547a1 1 0 0 1 0-2h3.85547a.99943.99943 0 0 1 1 1v10a.99943.99943 0 0 1 -1 1z"/><path d="m15.35547 36h-3.85547a.99943.99943 0 0 1 -1-1v-10a.99943.99943 0 0 1 1-1h3.85547a1 1 0 0 1 0 2h-2.85547v8h2.85547a1 1 0 0 1 0 2z"/><path d="m34.5 16.85547a.99943.99943 0 0 1 -1-1v-2.85547h-8v2.85547a1 1 0 0 1 -2 0v-3.85547a.99943.99943 0 0 1 1-1h10a.99943.99943 0 0 1 1 1v3.85547a.99943.99943 0 0 1 -1 1z"/><path d="m42.5 48a4.004 4.004 0 0 1 -4-4 1 1 0 0 1 2 0 2.0026 2.0026 0 0 0 2 2 1 1 0 0 1 0 2z"/><path d="m39.5 45a.99943.99943 0 0 1 -1-1v-2.81934a1 1 0 0 1 2 0v2.81934a.99943.99943 0 0 1 -1 1z"/><path d="m42.5 48a1 1 0 0 1 0-2 2.0026 2.0026 0 0 0 2-2 1 1 0 0 1 2 0 4.004 4.004 0 0 1 -4 4z"/><path d="m48.5 45h-3a1 1 0 0 1 0-2h3a1 1 0 0 1 0 2z"/><path d="m16.5 48a1 1 0 0 1 0-2 2.0026 2.0026 0 0 0 2-2 1 1 0 0 1 2 0 4.004 4.004 0 0 1 -4 4z"/><path d="m19.5 45a.99943.99943 0 0 1 -1-1v-2.81934a1 1 0 0 1 2 0v2.81934a.99943.99943 0 0 1 -1 1z"/><path d="m16.5 48a4.004 4.004 0 0 1 -4-4 1 1 0 0 1 2 0 2.0026 2.0026 0 0 0 2 2 1 1 0 0 1 0 2z"/><path d="m13.5 45h-3a1 1 0 0 1 0-2h3a1 1 0 0 1 0 2z"/><path d="m50.5 56a.99943.99943 0 0 1 -1-1 7.01142 7.01142 0 0 0 -2.33887-5.22461 1.00012 1.00012 0 1 1 1.332-1.49219 9.01248 9.01248 0 0 1 3.00687 6.7168.99943.99943 0 0 1 -1 1z"/><path d="m8.5 56a.99943.99943 0 0 1 -1-1 9.01248 9.01248 0 0 1 3.00684-6.7168 1.00012 1.00012 0 1 1 1.332 1.49219 7.01142 7.01142 0 0 0 -2.33884 5.22461.99943.99943 0 0 1 -1 1z"/><path d="m8.5 64a.99943.99943 0 0 1 -1-1v-8a1 1 0 0 1 2 0v8a.99943.99943 0 0 1 -1 1z"/><path d="m50.5 64a.99943.99943 0 0 1 -1-1v-8a1 1 0 0 1 2 0v8a.99943.99943 0 0 1 -1 1z"/><path d="m41.28711 21.72266a1.00005 1.00005 0 0 1 -.19629-1.98047 13.02656 13.02656 0 0 0 10.40918-12.74219 1 1 0 0 1 2 0 15.033 15.033 0 0 1 -12.01465 14.70313.98157.98157 0 0 1 -.19824.01953z"/><path d="m42.97559 24.40527a.99988.99988 0 0 1 -.26075-1.96484 16.02424 16.02424 0 0 0 11.78516-15.44043 1 1 0 0 1 2 0 18.02655 18.02655 0 0 1 -13.26172 17.37012.9722.9722 0 0 1 -.26269.03515z"/><path d="m52.5 8a.99943.99943 0 0 1 -1-1v-6a1 1 0 0 1 2 0v6a.99943.99943 0 0 1 -1 1z"/><path d="m55.5 8a.99943.99943 0 0 1 -1-1v-6a1 1 0 0 1 2 0v6a.99943.99943 0 0 1 -1 1z"/></svg>