<svg id="icons" height="512" viewBox="0 0 64 64" width="512" xmlns="http://www.w3.org/2000/svg"><path d="m33 39a8 8 0 1 0 -8 8 8.0042 8.0042 0 0 0 8-8zm-8-11a11 11 0 1 1 -11 11 11.00017 11.00017 0 0 1 11-11z" fill="#656d78"/><path d="m60 24a10.99552 10.99552 0 1 0 -11 11 10.96548 10.96548 0 0 0 11-11zm-11-14a14 14 0 1 1 -14 14 13.99614 13.99614 0 0 1 14-14z" fill="#ed5565"/><path d="m5 21h6v3h-6z" fill="#aab2bd"/><path d="m49 38v16h-48v-30h34a14.00254 14.00254 0 0 0 14 14zm-13 1a11 11 0 1 0 -11 11 11.00017 11.00017 0 0 0 11-11zm-25-7v-4h-6v4z" fill="#545c66"/><path d="m51.98 21.02-6.98 6.97a4.93361 4.93361 0 0 1 -1-2.99c0-2.76 5-7 5-7a27.94648 27.94648 0 0 1 2.98 3.02z" fill="#5d9cec"/><path d="m56.78 16.22a10.999 10.999 0 1 1 -15.56 15.55l3.78-3.78a4.995 4.995 0 0 0 9-2.99c0-1.2-.95-2.68-2.02-3.98z" fill="#e6e9ed"/><path d="m56.78 16.22-4.8 4.8a27.94648 27.94648 0 0 0 -2.98-3.02s-5 4.24-5 7a4.93361 4.93361 0 0 0 1 2.99l-3.78 3.78a10.999 10.999 0 0 1 15.56-15.55z" fill="#e6e9ed"/><g fill="#5d9cec"><path d="m54 25a4.995 4.995 0 0 1 -9 2.99l6.98-6.97c1.07 1.3 2.02 2.78 2.02 3.98z"/><path d="m5 28h6v4h-6z"/><circle cx="25" cy="39" r="8"/></g><path d="m49 55.00391h-48a.99943.99943 0 0 1 -1-1v-30a.99942.99942 0 0 1 1-1h34a1 1 0 0 1 0 2h-33v28h46v-15.00782a1 1 0 0 1 2 0v16.00782a.99943.99943 0 0 1 -1 1z"/><path d="m25 51.00391a12 12 0 1 1 12-12 12.01312 12.01312 0 0 1 -12 12zm0-22a10 10 0 1 0 10 10 10.01177 10.01177 0 0 0 -10-10z"/><path d="m25 48.00391a9 9 0 1 1 9-9 9.00984 9.00984 0 0 1 -9 9zm0-16a7 7 0 1 0 7 7 7.00849 7.00849 0 0 0 -7-7z"/><path d="m11 33.00391h-6a.99943.99943 0 0 1 -1-1v-4a.99942.99942 0 0 1 1-1h6a.99942.99942 0 0 1 1 1v4a.99943.99943 0 0 1 -1 1zm-5-2h4v-2h-4z"/><path d="m11 25.00391h-6a.99943.99943 0 0 1 -1-1v-3a.99942.99942 0 0 1 1-1h6a.99942.99942 0 0 1 1 1v3a.99943.99943 0 0 1 -1 1zm-5-2h4v-1h-4z"/><path d="m49 38.99609a15 15 0 1 1 15-15 15.0164 15.0164 0 0 1 -15 15zm0-28a13 13 0 1 0 13 13 13.01506 13.01506 0 0 0 -13-13z"/><path d="m49 35.99609a12 12 0 1 1 12-12 12.01312 12.01312 0 0 1 -12 12zm0-22a10 10 0 1 0 10 10 10.01177 10.01177 0 0 0 -10-10z"/><path d="m49 30.99609a6.00656 6.00656 0 0 1 -6-6c0-3.13379 4.80566-7.29785 5.35352-7.76269a.99923.99923 0 0 1 1.293 0c.54782.46484 5.35348 4.6289 5.35348 7.76269a6.00656 6.00656 0 0 1 -6 6zm0-11.66409c-1.75977 1.625-4 4.1836-4 5.66406a4 4 0 0 0 8 0c0-1.48336-2.23926-4.04098-4-5.66406z"/><path d="m41.22168 32.77441a1 1 0 0 1 -.707-1.707l15.55661-15.55569a.99989.99989 0 0 1 1.41406 1.41406l-15.55664 15.55567a.99675.99675 0 0 1 -.70703.29296z"/></svg>