<svg id="icons" height="512" viewBox="0 0 64 64" width="512" xmlns="http://www.w3.org/2000/svg"><circle cx="32" cy="32" fill="#ccd1d9" r="16"/><path d="m54 24v16h-4.77a18.9641 18.9641 0 0 0 0-16z" fill="#aab2bd"/><path d="m46.78 43.95 2.19 2.19-2.83 2.83-2.19-2.19-.01-.01a18.93019 18.93019 0 0 0 2.83-2.83z" fill="#ccd1d9"/><path d="m48.97 17.86-2.19 2.19-.01.01a18.93019 18.93019 0 0 0 -2.83-2.83l.01-.01 2.19-2.19z" fill="#ccd1d9"/><g fill="#545c66"><path d="m42 48.16v14.84h-3v-13.34a18.67117 18.67117 0 0 0 3-1.5z"/><path d="m42 1v14.84a18.67117 18.67117 0 0 0 -3-1.5v-13.34z"/><path d="m25 49.67v13.33h-3v-14.84a18.67117 18.67117 0 0 0 3 1.5z"/></g><path d="m32 48a16 16 0 1 0 -16-16 15.99559 15.99559 0 0 0 16 16zm17.23-24a18.99883 18.99883 0 0 1 -5.29 22.77 19.45606 19.45606 0 0 1 -1.94 1.39 18.99662 18.99662 0 0 1 -17 1.5 18.67117 18.67117 0 0 1 -3-1.5 19.45606 19.45606 0 0 1 -1.94-1.39 18.93019 18.93019 0 0 1 -2.83-2.83 18.96557 18.96557 0 0 1 -2.46-19.94 18.61032 18.61032 0 0 1 2.46-3.94 18.93019 18.93019 0 0 1 2.83-2.83 19.45606 19.45606 0 0 1 1.94-1.39 18.99662 18.99662 0 0 1 17-1.5 18.67117 18.67117 0 0 1 3 1.5 19.45606 19.45606 0 0 1 1.94 1.39 18.93019 18.93019 0 0 1 2.83 2.83 18.61032 18.61032 0 0 1 2.46 3.94z" fill="#e6e9ed"/><path d="m39 49.67v13.33h-14v-13.34a18.95358 18.95358 0 0 0 14 0z" fill="#656d78"/><path d="m25 14.33v.01a18.67117 18.67117 0 0 0 -3 1.5v-14.84h3z" fill="#545c66"/><path d="m17.86 15.03 2.19 2.19.01.01a18.93019 18.93019 0 0 0 -2.83 2.83l-.01-.01-2.19-2.19z" fill="#ccd1d9"/><path d="m20.05 46.78-2.19 2.19-2.83-2.83 2.19-2.19.01-.01a18.93019 18.93019 0 0 0 2.83 2.83z" fill="#ccd1d9"/><path d="m13 32a18.77722 18.77722 0 0 0 1.77 8h-4.77v-16h4.77a18.77722 18.77722 0 0 0 -1.77 8z" fill="#aab2bd"/><path d="m39 14.33v.01a18.95358 18.95358 0 0 0 -14 0v-13.34h14z" fill="#656d78"/><path d="m17.22363 21.05273a.99675.99675 0 0 1 -.707-.293l-2.19433-2.19532a.99962.99962 0 0 1 0-1.41406l2.82812-2.82812a.99962.99962 0 0 1 1.41406 0l2.19532 2.19433a.99989.99989 0 0 1 -1.41407 1.41406l-1.48828-1.4873-1.41406 1.41406 1.4873 1.48828a1 1 0 0 1 -.707 1.707z"/><path d="m46.14258 49.9707a.99672.99672 0 0 1 -.707-.293l-2.19535-2.1943a.99989.99989 0 0 1 1.41407-1.41406l1.48828 1.4873 1.41406-1.41406-1.4873-1.48828a.99989.99989 0 0 1 1.41406-1.41407l2.19433 2.19532a.99962.99962 0 0 1 0 1.41406l-2.82812 2.82812a.99672.99672 0 0 1 -.70703.29297z"/><path d="m32 52a20 20 0 1 1 20-20 20.02229 20.02229 0 0 1 -20 20zm0-38a18 18 0 1 0 18 18 18.02094 18.02094 0 0 0 -18-18z"/><path d="m32 49a17 17 0 1 1 17-17 17.019 17.019 0 0 1 -17 17zm0-32a15 15 0 1 0 15 15 15.01641 15.01641 0 0 0 -15-15z"/><path d="m46.77637 21.05273a1 1 0 0 1 -.707-1.707l1.4873-1.48828-1.41406-1.41406-1.48828 1.4873a.99989.99989 0 0 1 -1.41407-1.41406l2.19532-2.19433a.99962.99962 0 0 1 1.41406 0l2.82812 2.82812a.99962.99962 0 0 1 0 1.41406l-2.19436 2.19529a.99675.99675 0 0 1 -.70703.29296z"/><path d="m17.85742 49.9707a.99672.99672 0 0 1 -.707-.293l-2.82812-2.82812a.99962.99962 0 0 1 0-1.41406l2.19433-2.19532a.99989.99989 0 0 1 1.41406 1.41407l-1.4873 1.48828 1.41406 1.41406 1.48828-1.4873a.99989.99989 0 0 1 1.41407 1.41406l-2.19532 2.19433a.99672.99672 0 0 1 -.70706.293z"/><path d="m54 41h-4.7627a1 1 0 0 1 0-2h3.7627v-14h-3.76172a1 1 0 0 1 0-2h4.76172a.99943.99943 0 0 1 1 1v16a.99943.99943 0 0 1 -1 1z"/><path d="m14.7627 41h-4.7627a.99943.99943 0 0 1 -1-1v-16a.99943.99943 0 0 1 1-1h4.76172a1 1 0 0 1 0 2h-3.76172v14h3.7627a1 1 0 1 1 0 2z"/><path d="m25 38a.99943.99943 0 0 1 -1-1v-10a1 1 0 0 1 2 0v10a.99943.99943 0 0 1 -1 1z"/><path d="m33 28h-3a1 1 0 0 1 0-2h3a1 1 0 0 1 0 2z"/><path d="m33 33a.99943.99943 0 0 1 -1-1v-5a1 1 0 0 1 2 0v5a.99943.99943 0 0 1 -1 1z"/><path d="m33 33h-3a1 1 0 0 1 0-2h3a1 1 0 0 1 0 2z"/><path d="m30 38a.99943.99943 0 0 1 -1-1v-5a1 1 0 0 1 2 0v5a.99943.99943 0 0 1 -1 1z"/><path d="m33 38h-3a1 1 0 0 1 0-2h3a1 1 0 0 1 0 2z"/><path d="m40 33h-4a.99943.99943 0 0 1 -1-1v-5a.99943.99943 0 0 1 1-1h4a.99943.99943 0 0 1 1 1v5a.99943.99943 0 0 1 -1 1zm-3-2h2v-3h-2z"/><path d="m40 38h-4a.99943.99943 0 0 1 -1-1v-5a.99943.99943 0 0 1 1-1h4a.99943.99943 0 0 1 1 1v5a.99943.99943 0 0 1 -1 1zm-3-2h2v-3h-2z"/><path d="m35 23h-6a1 1 0 0 1 0-2h6a1 1 0 0 1 0 2z"/><path d="m35 43h-6a1 1 0 0 1 0-2h6a1 1 0 0 1 0 2z"/><path d="m22 16.84082a.99943.99943 0 0 1 -1-1v-14.84082a.99943.99943 0 0 1 1-1h20a.99943.99943 0 0 1 1 1v14.83984a1 1 0 1 1 -2 0v-13.83984h-18v13.84082a.99943.99943 0 0 1 -1 1z"/><path d="m25 15.332a.99942.99942 0 0 1 -1-1v-13.332a1 1 0 0 1 2 0v13.332a.99942.99942 0 0 1 -1 1z"/><path d="m39 15.332a.99942.99942 0 0 1 -1-1v-13.332a1 1 0 0 1 2 0v13.332a.99942.99942 0 0 1 -1 1z"/><path d="m42 64h-20a.99943.99943 0 0 1 -1-1v-14.83984a1 1 0 1 1 2 0v13.83984h18v-13.84082a1 1 0 1 1 2 0v14.84082a.99943.99943 0 0 1 -1 1z"/><path d="m39 64a.99943.99943 0 0 1 -1-1v-13.332a1 1 0 0 1 2 0v13.332a.99943.99943 0 0 1 -1 1z"/><path d="m25 64a.99943.99943 0 0 1 -1-1v-13.332a1 1 0 0 1 2 0v13.332a.99943.99943 0 0 1 -1 1z"/></svg>