<svg id="icons" height="512" viewBox="0 0 64 64" width="512" xmlns="http://www.w3.org/2000/svg"><path d="m57 26-1 33h-48l-1-33a25 25 0 0 1 50 0zm-6 8.03v-8.03a19 19 0 0 0 -38 0v8.03a19 19 0 0 0 38 0z" fill="#545c66"/><path d="m57 59v4h-50v-4h1 48z" fill="#656d78"/><path d="m51 26v8.03a19 19 0 0 1 -38 0v-8.03a19 19 0 0 1 38 0z" fill="#434a54"/><path d="m57 27a.99943.99943 0 0 1 -1-1 24 24 0 0 0 -48 0 1 1 0 0 1 -2 0 26 26 0 0 1 52 0 .99943.99943 0 0 1 -1 1z"/><path d="m51 27a.99943.99943 0 0 1 -1-1 18 18 0 0 0 -36 0 1 1 0 0 1 -2 0 20 20 0 0 1 40 0 .99943.99943 0 0 1 -1 1z"/><path d="m32 54.02637a20.02229 20.02229 0 0 1 -20-20 1 1 0 0 1 2 0 18 18 0 0 0 36 0 1 1 0 0 1 2 0 20.02229 20.02229 0 0 1 -20 20z"/><path d="m7.999 60a1.0001 1.0001 0 0 1 -.999-.96973l-1-33a1.00046 1.00046 0 0 1 2-.06054l1 33a1.00175 1.00175 0 0 1 -.96973 1.03027z"/><path d="m56.001 60h-.03125a1.00175 1.00175 0 0 1 -.96975-1.03027l1-33a1.01743 1.01743 0 0 1 1.03027-.96973 1.00175 1.00175 0 0 1 .96973 1.03027l-1 33a1.0001 1.0001 0 0 1 -.999.96973z"/><path d="m57 64h-50a.99943.99943 0 0 1 -1-1v-4a.99943.99943 0 0 1 1-1h50a.99943.99943 0 0 1 1 1v4a.99943.99943 0 0 1 -1 1zm-49-2h48v-2h-48z"/><path d="m13 35.02637a.99943.99943 0 0 1 -1-1v-8.02637a1 1 0 0 1 2 0v8.02637a.99943.99943 0 0 1 -1 1z"/><path d="m51 35.02637a.99943.99943 0 0 1 -1-1v-8.02637a1 1 0 0 1 2 0v8.02637a.99943.99943 0 0 1 -1 1z"/></svg>