<svg id="icons" height="512" viewBox="0 0 64 64" width="512" xmlns="http://www.w3.org/2000/svg"><path d="m55 17a5.00182 5.00182 0 0 1 5 5c0 12.96-5.27 22-10 22h-1.5l-11.1-14.8a3.00136 3.00136 0 0 0 -2.4-1.19v-.01h-6v.01a3.00136 3.00136 0 0 0 -2.4 1.19l-11.1 14.8h-1.5c-4.73 0-10-9.04-10-22a5.00182 5.00182 0 0 1 5-5z" fill="#5d9cec"/><path d="m33 35 4 11h-10l4-11z" fill="#656d78"/><path d="m50 47a2.996 2.996 0 0 1 -3 3h-30a2.996 2.996 0 0 1 -3-3h3l12-16h6l12 16zm-13-1-4-11h-2l-4 11z" fill="#545c66"/><path d="m50 44c4.73 0 10-9.04 10-22a5.00182 5.00182 0 0 0 -5-5h-46a5.00182 5.00182 0 0 0 -5 5c0 12.96 5.27 22 10 22h1.5l11.1-14.8a3.00136 3.00136 0 0 1 2.4-1.19v-.01h6v.01a3.00136 3.00136 0 0 1 2.4 1.19l11.1 14.8zm5-30a7.9978 7.9978 0 0 1 8 8c0 13.82-5.81 25-13 25h-3l-12-16h-6l-12 16h-3c-7.19 0-13-11.18-13-25a7.9978 7.9978 0 0 1 8-8z" fill="#656d78"/><path d="m63 23a.99974.99974 0 0 1 -1-1 7.00818 7.00818 0 0 0 -7-7 1 1 0 0 1 0-2 9.01016 9.01016 0 0 1 9 9 .99974.99974 0 0 1 -1 1z"/><path d="m50 48a1 1 0 0 1 0-2c6.61719 0 12-10.7666 12-24a1 1 0 0 1 2 0c0 14.5791-6.14941 26-14 26z"/><path d="m35 32h-6a1 1 0 0 1 0-2h6a1 1 0 0 1 0 2z"/><path d="m50 48h-3a1 1 0 0 1 0-2h3a1 1 0 0 1 0 2z"/><path d="m47.001 48a.99556.99556 0 0 1 -.80078-.40039l-12-15.99951a.9999.9999 0 0 1 1.5996-1.2002l12 16.00049a1.0001 1.0001 0 0 1 -.79882 1.59961z"/><path d="m1 23a.99974.99974 0 0 1 -1-1 9.01016 9.01016 0 0 1 9-9 1 1 0 0 1 0 2 7.00818 7.00818 0 0 0 -7 7 .99974.99974 0 0 1 -1 1z"/><path d="m14 48c-7.85059 0-14-11.4209-14-26a1 1 0 0 1 2 0c0 13.2334 5.38281 24 12 24a1 1 0 0 1 0 2z"/><path d="m17 48h-3a1 1 0 0 1 0-2h3a1 1 0 0 1 0 2z"/><path d="m16.999 48a1.0001 1.0001 0 0 1 -.79882-1.59961l12-16.00049a.9999.9999 0 0 1 1.5996 1.2002l-12 15.99951a.99556.99556 0 0 1 -.80078.40039z"/><path d="m55 15h-46a1 1 0 0 1 0-2h46a1 1 0 0 1 0 2z"/><path d="m50 45h-1.5a.99947.99947 0 0 1 -.7998-.40039l-11.09961-14.79932a1.98269 1.98269 0 0 0 -1.60157-.78955 1.03374 1.03374 0 0 1 -.14648-.01074h-5.7041a.9803.9803 0 0 1 -.14746.01123 1.98268 1.98268 0 0 0 -1.60157.78955l-11.09961 14.79883a.99947.99947 0 0 1 -.7998.40039h-1.5c-5.3125 0-11-9.24219-11-23a6.00657 6.00657 0 0 1 6-6h46a6.00657 6.00657 0 0 1 6 6c0 13.75781-5.6875 23-11 23zm-1-2h1c3.75781 0 9-7.98926 9-21a4.00427 4.00427 0 0 0 -4-4h-46a4.00427 4.00427 0 0 0 -4 4c0 13.01074 5.24219 21 9 21h1l10.7998-14.3999a3.96086 3.96086 0 0 1 3.0293-1.58545.98411.98411 0 0 1 .1709-.01465h6a1.01109 1.01109 0 0 1 .169.01416 3.95748 3.95748 0 0 1 3.0312 1.58594z"/><path d="m17 51a4.004 4.004 0 0 1 -4-4 1 1 0 0 1 2 0 2.0026 2.0026 0 0 0 2 2 1 1 0 0 1 0 2z"/><path d="m47 51a1 1 0 0 1 0-2 2.0026 2.0026 0 0 0 2-2 1 1 0 0 1 2 0 4.004 4.004 0 0 1 -4 4z"/><path d="m47 51h-30a1 1 0 0 1 0-2h30a1 1 0 0 1 0 2z"/><path d="m37 47h-10a.9997.9997 0 0 1 -.93945-1.3418l4-11a1.00007 1.00007 0 0 1 1.93945.31836 1.00007 1.00007 0 0 1 1.93945-.31836l4 11a.9997.9997 0 0 1 -.93945 1.3418zm-8.57227-2h7.14454l-3.51172-9.6582a1.01973 1.01973 0 0 1 -.06055-.31836 1.01973 1.01973 0 0 1 -.06055.31836z"/><path d="m33 36h-2a1 1 0 0 1 0-2h2a1 1 0 0 1 0 2z"/></svg>