<svg id="icons" height="512" viewBox="0 0 64 64" width="512" xmlns="http://www.w3.org/2000/svg"><path d="m56 27 3 34a1.99309 1.99309 0 0 1 -2 2h-8a8.00589 8.00589 0 0 1 -7.75-6l-1.08-4-1.63-6-.54-2a17.98388 17.98388 0 0 1 8-14.97v-.01a17.94368 17.94368 0 0 1 10-3.02z" fill="#656d78"/><path d="m25 14h4v3h-4z" fill="#aab2bd"/><path d="m25 2v7h-10v-6l10-2z" fill="#656d78"/><path d="m49 12v5a5.00371 5.00371 0 0 1 -3 4.58v.01a5.083 5.083 0 0 1 -4 0v-.01a5.00371 5.00371 0 0 1 -3-4.58v-5z" fill="#656d78"/><path d="m44 22a5.10631 5.10631 0 0 0 2-.41v3.41h-4v-3.41a5.10631 5.10631 0 0 0 2 .41z" fill="#aab2bd"/><path d="m29 47v6h-5.17l1.63-6z" fill="#aab2bd"/><path d="m26 45a17.89736 17.89736 0 0 0 -4-11.32v-12.1a5.00371 5.00371 0 0 0 3-4.58h4v1h6v-1h4a5.00371 5.00371 0 0 0 3 4.58v12.1a17.89736 17.89736 0 0 0 -4 11.32l.54 2h-13.08z" fill="#545c66"/><path d="m18 25h4v3h-4z" fill="#ccd1d9"/><path d="m39 9h10v3h-10z" fill="#aab2bd"/><path d="m56 24v3a17.94368 17.94368 0 0 0 -10 3.02v-8.44a5.00371 5.00371 0 0 0 3-4.58 6.99488 6.99488 0 0 0 7 7z" fill="#545c66"/><path d="m42 25h4v3h-4z" fill="#ccd1d9"/><path d="m38.54 47 1.63 6h-5.17v-6z" fill="#aab2bd"/><path d="m32 13v5h-3v-1-3-1z" fill="#e6e9ed"/><path d="m35 17v1h-3v-5h3v1z" fill="#e6e9ed"/><path d="m32 47h3v6h-3z" fill="#ccd1d9"/><path d="m23.83 53-1.08 4a8.00589 8.00589 0 0 1 -7.75 6h-8a1.99309 1.99309 0 0 1 -2-2l3-34a17.94368 17.94368 0 0 1 10 3.02v.01a18.0406 18.0406 0 0 1 4 3.65 17.89736 17.89736 0 0 1 4 11.32l-.54 2z" fill="#656d78"/><path d="m49 3v6h-10v-7-1z" fill="#656d78"/><g fill="#aab2bd"><path d="m46 28v2.03a18.0406 18.0406 0 0 0 -4 3.65v-5.68z"/><path d="m20 22a5.10631 5.10631 0 0 0 2-.41v3.41h-4v-3.41a5.10631 5.10631 0 0 0 2 .41z"/><path d="m35 14h4v3h-4z"/></g><path d="m39 12v2h-4v-1h-3-3v1h-4v-2-3-7h14v7z" fill="#545c66"/><path d="m25 14v3a5.00371 5.00371 0 0 1 -3 4.58v.01a5.083 5.083 0 0 1 -4 0v-.01a5.00371 5.00371 0 0 1 -3-4.58v-5h10z" fill="#656d78"/><path d="m29 47h3v6h-3z" fill="#ccd1d9"/><path d="m40.17 53 1.08 4h-18.5l1.08-4h5.17 3 3z" fill="#545c66"/><path d="m18 28v2.02a17.94368 17.94368 0 0 0 -10-3.02v-3a6.99488 6.99488 0 0 0 7-7 5.00371 5.00371 0 0 0 3 4.58z" fill="#545c66"/><path d="m18 28h4v5.68a18.0406 18.0406 0 0 0 -4-3.65z" fill="#aab2bd"/><path d="m15 9h10v3h-10z" fill="#aab2bd"/><path d="m26 46a.99943.99943 0 0 1 -1-1 17.019 17.019 0 0 0 -17-17 1 1 0 0 1 0-2 19.02162 19.02162 0 0 1 19 19 .99943.99943 0 0 1 -1 1z"/><path d="m15 64a1 1 0 0 1 0-2 6.99182 6.99182 0 0 0 6.7793-5.249 1.00024 1.00024 0 0 1 1.9375.498 8.99255 8.99255 0 0 1 -8.7168 6.751z"/><path d="m22.74805 58a.977.977 0 0 1 -.2627-.03516.9993.9993 0 0 1 -.70312-1.22656l3.25293-12a.99971.99971 0 1 1 1.92968.52344l-3.25293 12a.99888.99888 0 0 1 -.96386.73828z"/><path d="m15 64h-8a1 1 0 0 1 0-2h8a1 1 0 0 1 0 2z"/><path d="m7 64a3.00328 3.00328 0 0 1 -3-3 1 1 0 0 1 2 0 1.00067 1.00067 0 0 0 1 1 1 1 0 0 1 0 2z"/><path d="m5.001 62c-.0293 0-.0586-.001-.08887-.00391a1.00033 1.00033 0 0 1 -.9082-1.084l3-34a1 1 0 0 1 1.99218.17578l-3 34a.99987.99987 0 0 1 -.99511.91213z"/><path d="m8 25a1 1 0 0 1 0-2 6.00657 6.00657 0 0 0 6-6 1 1 0 0 1 2 0 8.00917 8.00917 0 0 1 -8 8z"/><path d="m8 28a.99943.99943 0 0 1 -1-1v-3a1 1 0 0 1 2 0v3a.99943.99943 0 0 1 -1 1z"/><path d="m15 18a.99943.99943 0 0 1 -1-1v-14a1 1 0 0 1 2 0v14a.99943.99943 0 0 1 -1 1z"/><path d="m14.999 4a1 1 0 0 1 -.19531-1.98047l10-2a.99993.99993 0 1 1 .39258 1.96094l-10 2a.97907.97907 0 0 1 -.19727.01953z"/><path d="m25 18a.99943.99943 0 0 1 -1-1v-16a1 1 0 0 1 2 0v16a.99943.99943 0 0 1 -1 1z"/><path d="m20 23a6.00657 6.00657 0 0 1 -6-6 1 1 0 0 1 2 0 4 4 0 0 0 8 0 1 1 0 0 1 2 0 6.00657 6.00657 0 0 1 -6 6z"/><path d="m22 34.67969a.99943.99943 0 0 1 -1-1v-12.09569a1 1 0 1 1 2 0v12.09569a.99943.99943 0 0 1 -1 1z"/><path d="m18 31.02734a.99942.99942 0 0 1 -1-1v-8.44334a1 1 0 1 1 2 0v8.44336a.99942.99942 0 0 1 -1 .99998z"/><path d="m22 26h-4a1 1 0 0 1 0-2h4a1 1 0 0 1 0 2z"/><path d="m22 29h-4a1 1 0 0 1 0-2h4a1 1 0 0 1 0 2z"/><path d="m25 10h-10a1 1 0 0 1 0-2h10a1 1 0 0 1 0 2z"/><path d="m25 13h-10a1 1 0 0 1 0-2h10a1 1 0 0 1 0 2z"/><path d="m38 46a.99943.99943 0 0 1 -1-1 19.02162 19.02162 0 0 1 19-19 1 1 0 0 1 0 2 17.019 17.019 0 0 0 -17 17 .99943.99943 0 0 1 -1 1z"/><path d="m49 64a8.99255 8.99255 0 0 1 -8.7168-6.751 1.00024 1.00024 0 1 1 1.9375-.498 6.99182 6.99182 0 0 0 6.7793 5.249 1 1 0 0 1 0 2z"/><path d="m41.252 58a.99888.99888 0 0 1 -.96386-.73828l-3.25293-12a.99971.99971 0 0 1 1.92968-.52344l3.25293 12a.9993.9993 0 0 1 -.70312 1.22656.977.977 0 0 1 -.2627.03516z"/><path d="m57 64h-8a1 1 0 0 1 0-2h8a1 1 0 0 1 0 2z"/><path d="m57 64a1 1 0 0 1 0-2 1.00067 1.00067 0 0 0 1-1 1 1 0 0 1 2 0 3.00328 3.00328 0 0 1 -3 3z"/><path d="m58.999 62a.99987.99987 0 0 1 -.99511-.91211l-3-34a1.00033 1.00033 0 0 1 .9082-1.084.988.988 0 0 1 1.084.9082l3 34a1.00033 1.00033 0 0 1 -.9082 1.084c-.03027.00291-.05957.00391-.08889.00391z"/><path d="m56 25a8.00917 8.00917 0 0 1 -8-8 1 1 0 0 1 2 0 6.00657 6.00657 0 0 0 6 6 1 1 0 0 1 0 2z"/><path d="m56 28a.99943.99943 0 0 1 -1-1v-3a1 1 0 0 1 2 0v3a.99943.99943 0 0 1 -1 1z"/><path d="m49 18a.99943.99943 0 0 1 -1-1v-14a1 1 0 0 1 2 0v14a.99943.99943 0 0 1 -1 1z"/><path d="m49.001 4a.97225.97225 0 0 1 -.19727-.01953l-10-2a.99993.99993 0 0 1 .39256-1.96094l10 2a1 1 0 0 1 -.19529 1.98047z"/><path d="m39 18a.99943.99943 0 0 1 -1-1v-16a1 1 0 0 1 2 0v16a.99943.99943 0 0 1 -1 1z"/><path d="m44 23a6.00657 6.00657 0 0 1 -6-6 1 1 0 0 1 2 0 4 4 0 0 0 8 0 1 1 0 0 1 2 0 6.00657 6.00657 0 0 1 -6 6z"/><path d="m42 34.67969a.99943.99943 0 0 1 -1-1v-12.09569a1 1 0 1 1 2 0v12.09569a.99943.99943 0 0 1 -1 1z"/><path d="m46 31.02734a.99942.99942 0 0 1 -1-1v-8.44334a1 1 0 1 1 2 0v8.44336a.99942.99942 0 0 1 -1 .99998z"/><path d="m46 26h-4a1 1 0 0 1 0-2h4a1 1 0 0 1 0 2z"/><path d="m46 29h-4a1 1 0 0 1 0-2h4a1 1 0 0 1 0 2z"/><path d="m49 10h-10a1 1 0 0 1 0-2h10a1 1 0 0 1 0 2z"/><path d="m49 13h-10a1 1 0 0 1 0-2h10a1 1 0 0 1 0 2z"/><path d="m35 54h-6a.99943.99943 0 0 1 -1-1v-6a.99943.99943 0 0 1 1-1h6a.99943.99943 0 0 1 1 1v6a.99943.99943 0 0 1 -1 1zm-5-2h4v-4h-4z"/><path d="m32 54a.99943.99943 0 0 1 -1-1v-6a1 1 0 0 1 2 0v6a.99943.99943 0 0 1 -1 1z"/><path d="m38.542 48h-3.542a1 1 0 0 1 0-2h3.542a1 1 0 0 1 0 2z"/><path d="m40.168 54h-5.168a1 1 0 0 1 0-2h5.168a1 1 0 0 1 0 2z"/><path d="m29 48h-3.542a1 1 0 0 1 0-2h3.542a1 1 0 0 1 0 2z"/><path d="m29 54h-5.1875a1 1 0 0 1 0-2h5.1875a1 1 0 0 1 0 2z"/><path d="m29 18h-4a1 1 0 0 1 0-2h4a1 1 0 0 1 0 2z"/><path d="m29 15h-4a1 1 0 0 1 0-2h4a1 1 0 0 1 0 2z"/><path d="m39 18h-4a1 1 0 0 1 0-2h4a1 1 0 0 1 0 2z"/><path d="m39 15h-4a1 1 0 0 1 0-2h4a1 1 0 0 1 0 2z"/><path d="m35 19h-6a.99943.99943 0 0 1 -1-1v-5a.99943.99943 0 0 1 1-1h6a.99943.99943 0 0 1 1 1v5a.99943.99943 0 0 1 -1 1zm-5-2h4v-3h-4z"/><path d="m32 19a.99943.99943 0 0 1 -1-1v-5a1 1 0 0 1 2 0v5a.99943.99943 0 0 1 -1 1z"/><path d="m41.252 58h-18.50395a1 1 0 0 1 0-2h18.50395a1 1 0 0 1 0 2z"/><path d="m39 3h-14a1 1 0 0 1 0-2h14a1 1 0 0 1 0 2z"/></svg>