<svg id="icons" height="512" viewBox="0 0 64 64" width="512" xmlns="http://www.w3.org/2000/svg"><path d="m61.5 33.01v12h-3a4 4 0 1 0 -8 0h-3v-12a7 7 0 0 1 14 0z" fill="#5d9cec"/><path d="m35.5 22.01h3v4h-3z" fill="#656d78"/><circle cx="54.5" cy="45.01" fill="#e6e9ed" r="4"/><path d="m61.5 45.01v14a1.99944 1.99944 0 0 1 -2 2h-10a1.99944 1.99944 0 0 1 -2-2v-14h3a4 4 0 0 0 8 0z" fill="#5d9cec"/><path d="m35.5 26.01v2a2.00588 2.00588 0 0 1 -2 2h-6l-3-5h-2l-3 5h-6a2.00588 2.00588 0 0 1 -2-2v-8.02a2.00588 2.00588 0 0 1 2-2h20a2.00588 2.00588 0 0 1 2 2z" fill="#5d9cec"/><path d="m24.5 25.01 3 5-3 1h-2l-3-1 3-5z" fill="#656d78"/><path d="m11.5 28.01a2.00588 2.00588 0 0 0 2 2h6l3 1h2l3-1h6a2.00588 2.00588 0 0 0 2-2v-2h3v.98a15 15 0 1 1 -30 0v-.98h3z" fill="#eac6bb"/><path d="m8.5 22.01h3v4h-3z" fill="#656d78"/><path d="m8.5 22.01v-6.02a12.99322 12.99322 0 0 1 13-13h10v5a6.99488 6.99488 0 0 1 7 7v7.02h-3v-2.02a2.00588 2.00588 0 0 0 -2-2h-20a2.00588 2.00588 0 0 0 -2 2v2.02z" fill="#965353"/><path d="m44.5 53.99v2.02a9.99724 9.99724 0 0 1 -10-10v-.02h2a7.9978 7.9978 0 0 1 8 8z" fill="#545c66"/><path d="m30.5 45.99v.02c0 1.65-3.13 3-7 3v-7.02a14.98529 14.98529 0 0 0 7-1.73z" fill="#545c66"/><path d="m23.5 41.99v7.02c-3.87 0-7-1.35-7-3v-5.75a14.98529 14.98529 0 0 0 7 1.73z" fill="#656d78"/><path d="m2.5 53.99a7.9978 7.9978 0 0 1 8-8h2v.02a9.99724 9.99724 0 0 1 -10 10z" fill="#545c66"/><path d="m23.5 49.01c3.87 0 7-1.35 7-3v-.02h4v.02a9.99724 9.99724 0 0 0 10 10v5h-42v-5a9.99724 9.99724 0 0 0 10-10v-.02h4v.02c0 1.65 3.13 3 7 3z" fill="#434a54"/><g id="_1_avatar_man_style_people_hairstyle_barbershop" data-name="1 avatar, man, style, people, hairstyle, barbershop"><path d="m2.5 54.99316a.99942.99942 0 0 1 -1-1 9.00984 9.00984 0 0 1 9-9 1 1 0 0 1 0 2 7.0085 7.0085 0 0 0 -7 7 .99942.99942 0 0 1 -1 1z"/><path d="m44.5 54.99414a.99942.99942 0 0 1 -1-1 7.00849 7.00849 0 0 0 -7-7 1 1 0 0 1 0-2 9.00984 9.00984 0 0 1 9 9 .99942.99942 0 0 1 -1 1z"/><path d="m16.5 46.99414-6-.001a1 1 0 0 1 0-2l6 .001a1 1 0 0 1 0 2z"/><path d="m36.5 46.99414-6-.002a1 1 0 1 1 0-2l6 .002a1 1 0 0 1 0 2z"/><path d="m2.501 61.99219a1.00005 1.00005 0 0 1 -1-1l-.001-6.999a1 1 0 0 1 2 0l.001 6.999a1.00005 1.00005 0 0 1 -1 1z"/><path d="m44.5 61.99219a.99943.99943 0 0 1 -1-1v-6.998a1 1 0 0 1 2 0v6.998a.99943.99943 0 0 1 -1 1z"/><path d="m16.5 46.99414a.99942.99942 0 0 1 -1-1v-5.73144a1 1 0 0 1 2 0v5.73144a.99942.99942 0 0 1 -1 1z"/><path d="m30.5 46.99219a.99943.99943 0 0 1 -1-1v-5.72949a1 1 0 1 1 2 0v5.72949a.99943.99943 0 0 1 -1 1z"/><path d="m23.5 42.99316a16.01833 16.01833 0 0 1 -16-16 1 1 0 0 1 2 0 14 14 0 1 0 28 0 1 1 0 0 1 2 0 16.01833 16.01833 0 0 1 -16 16z"/><path d="m8.5 27.99316a.99942.99942 0 0 1 -1-1v-11.001a1 1 0 0 1 2 0v11.001a.99942.99942 0 0 1 -1 1z"/><path d="m38.5 27.99316a.99942.99942 0 0 1 -1-1v-11.999a1 1 0 0 1 2 0v11.999a.99942.99942 0 0 1 -1 1z"/><path d="m38.5 15.99414a.99942.99942 0 0 1 -1-1 6.00657 6.00657 0 0 0 -6-6 1 1 0 0 1 0-2 8.00917 8.00917 0 0 1 8 8 .99942.99942 0 0 1 -1 1z"/><path d="m31.5 8.99414a.99942.99942 0 0 1 -1-1v-5.00195a1 1 0 0 1 2 0v5.002a.99942.99942 0 0 1 -1 .99995z"/><path d="m31.5 3.99219h-10a1 1 0 0 1 0-2h10a1 1 0 0 1 0 2z"/><path d="m8.5 16.99219a.99943.99943 0 0 1 -1-1 14.01572 14.01572 0 0 1 14-14 1 1 0 0 1 0 2 12.01312 12.01312 0 0 0 -12 12 .99943.99943 0 0 1 -1 1z"/></g><path d="m23.5 50.00781c-3.97559 0-8-1.374-8-4a1 1 0 0 1 2 0c0 .70508 2.27832 2 6 2s6-1.29492 6-2a1 1 0 0 1 2 0c0 2.62598-4.02441 4-8 4z"/><path d="m23.5 54.00781a.99942.99942 0 0 1 -1-1v-11.01465a1 1 0 0 1 2 0v11.01465a.99942.99942 0 0 1 -1 1z"/><path d="m44.5 57.00781a11.01245 11.01245 0 0 1 -11-11 1 1 0 0 1 2 0 9.00984 9.00984 0 0 0 9 9 1 1 0 0 1 0 2z"/><path d="m2.5 57.00781a1 1 0 0 1 0-2 9.00984 9.00984 0 0 0 9-9 1 1 0 0 1 2 0 11.01245 11.01245 0 0 1 -11 11z"/><path d="m33.5 31.00781h-6a1.00022 1.00022 0 0 1 -.85742-.48535l-2.709-4.51465h-.86718l-2.709 4.51465a1.00022 1.00022 0 0 1 -.85742.48535h-6a3.00328 3.00328 0 0 1 -3-3v-8.01562a3.00328 3.00328 0 0 1 3-3h20a3.00328 3.00328 0 0 1 3 3v8.01562a3.00328 3.00328 0 0 1 -2.99998 3zm-5.43359-2h5.43359a1.00067 1.00067 0 0 0 1-1v-8.01562a1.00067 1.00067 0 0 0 -1-1h-20a1.00067 1.00067 0 0 0 -1 1v8.01562a1.00067 1.00067 0 0 0 1 1h5.43359l2.709-4.51465a1.00022 1.00022 0 0 1 .85741-.48535h2a1.00022 1.00022 0 0 1 .85742.48535z"/><path d="m38.5 23.00781h-3a1 1 0 0 1 0-2h3a1 1 0 0 1 0 2z"/><path d="m38.5 27.00781h-3a1 1 0 0 1 0-2h3a1 1 0 0 1 0 2z"/><path d="m11.5 23.00781h-3a1 1 0 0 1 0-2h3a1 1 0 0 1 0 2z"/><path d="m11.5 27.00781h-3a1 1 0 0 1 0-2h3a1 1 0 0 1 0 2z"/><path d="m22.5 32.00781a.99826.99826 0 0 1 -.31641-.05176l-3-1a.99964.99964 0 0 1 .63282-1.89648l3 1a.99986.99986 0 0 1 -.31641 1.94824z"/><path d="m24.5 32.00781h-2a1 1 0 0 1 0-2h2a1 1 0 0 1 0 2z"/><path d="m24.5 32.00781a.99986.99986 0 0 1 -.31641-1.94824l3-1a.99964.99964 0 0 1 .63282 1.89648l-3 1a.99826.99826 0 0 1 -.31641.05176z"/><path d="m61.5 34.00781a.99942.99942 0 0 1 -1-1 6 6 0 0 0 -12 0 1 1 0 1 1 -2 0 8 8 0 0 1 16 0 .99942.99942 0 0 1 -1 1z"/><path d="m47.5 60.00781a.99942.99942 0 0 1 -1-1v-26a1 1 0 0 1 2 0v26a.99942.99942 0 0 1 -1 1z"/><path d="m61.5 60.00781a.99942.99942 0 0 1 -1-1v-26a1 1 0 0 1 2 0v26a.99942.99942 0 0 1 -1 1z"/><path d="m54.5 50.00781a5 5 0 1 1 5-5 5.00588 5.00588 0 0 1 -5 5zm0-8a3 3 0 1 0 3 3 3.00328 3.00328 0 0 0 -3-3z"/><path d="m49.5 62.00781a3.00328 3.00328 0 0 1 -3-3 1 1 0 0 1 2 0 1.00067 1.00067 0 0 0 1 1 1 1 0 0 1 0 2z"/><path d="m59.5 62.00684a1 1 0 0 1 0-2 1.00047 1.00047 0 0 0 1-.999 1 1 0 0 1 2 0 3.00308 3.00308 0 0 1 -3 2.999z"/><path d="m59.5 62.00781h-10a1 1 0 0 1 0-2h10a1 1 0 0 1 0 2z"/><path d="m54.5 27.00781a.99942.99942 0 0 1 -1-1v-5.01465a1 1 0 0 1 2 0v5.01465a.99942.99942 0 0 1 -1 1z"/><path d="m58.5 24.00781h-6a1 1 0 0 1 0-2h6a1 1 0 0 1 0 2z"/><path d="m58.5 25.00781a.99942.99942 0 0 1 -1-1v-2a1 1 0 0 1 2 0v2a.99942.99942 0 0 1 -1 1z"/></svg>