<svg id="icons" height="512" viewBox="0 0 64 64" width="512" xmlns="http://www.w3.org/2000/svg"><path d="m41.5 24v24.53a5.97074 5.97074 0 0 0 -4-1.53h-8v-5.25a14.97915 14.97915 0 0 0 9-13.74v-5.75z" fill="#edab37"/><path d="m11.5 24.01v4h-3v-.01-3.99z" fill="#656d78"/><path d="m38.5 28v.01h-3v-4h3z" fill="#656d78"/><path d="m35.5 30.01v-2h3a15 15 0 0 1 -30 0h3v2a2.00588 2.00588 0 0 0 2 2h6l3 1h2l3-1h6a2.00588 2.00588 0 0 0 2-2z" fill="#eac6bb"/><path d="m5.5 23 2.99-1.3.01.03v6.28a14.99512 14.99512 0 0 0 9 13.74v5.25h-8a5.97074 5.97074 0 0 0 -4 1.53z" fill="#edab37"/><path d="m24.5 27.01 3 5-3 1h-2l-3-1 3-5z" fill="#656d78"/><path d="m8.49 21.7-2.99 1.3v-3a17.99477 17.99477 0 0 1 32.24-11l-12.38 5.38z" fill="#ffce54"/><path d="m41.5 20v4l-3-1.74-13-7.56-.14-.32 12.38-5.38a17.87955 17.87955 0 0 1 3.76 11z" fill="#f6bb42"/><path d="m35.5 28.01v2a2.00588 2.00588 0 0 1 -2 2h-6l-3-5h-2l-3 5h-6a2.00588 2.00588 0 0 1 -2-2v-8.01a2.00588 2.00588 0 0 1 2-2h20a2.00588 2.00588 0 0 1 2 2z" fill="#5d9cec"/><path d="m38.5 22.26v1.75h-3v-2.01a2.00588 2.00588 0 0 0 -2-2h-20a2.00588 2.00588 0 0 0 -2 2v2.01h-3v-2.28l-.01-.03 16.87-7.32.14.32z" fill="#eac6bb"/><path d="m23.5 43v7c-3.31 0-6-1.34-6-3v-5.25a15.01926 15.01926 0 0 0 6 1.25z" fill="#656d78"/><path d="m9.5 47h4a9.99086 9.99086 0 0 1 -10 10v-4a6.00387 6.00387 0 0 1 6-6z" fill="#656d78"/><path d="m60.5 46v14a1.99944 1.99944 0 0 1 -2 2h-10a1.99944 1.99944 0 0 1 -2-2v-14h3a4 4 0 0 0 8 0z" fill="#5d9cec"/><path d="m60.5 34v12h-3a4 4 0 0 0 -8 0h-3v-12a7 7 0 0 1 14 0z" fill="#5d9cec"/><circle cx="53.5" cy="46" fill="#e6e9ed" r="4"/><path d="m43.5 53v4a9.99086 9.99086 0 0 1 -10-10h4a6.00387 6.00387 0 0 1 6 6z" fill="#656d78"/><path d="m29.5 41.75v5.25c0 1.66-2.69 3-6 3v-7a15.01926 15.01926 0 0 0 6-1.25z" fill="#545c66"/><path d="m23.5 50c3.31 0 6-1.34 6-3h4a9.99086 9.99086 0 0 0 10 10v5h-40v-5a9.99086 9.99086 0 0 0 10-10h4c0 1.66 2.69 3 6 3z" fill="#434a54"/><path d="m3.501 54.00293a.99942.99942 0 0 1 -1-1 7.00931 7.00931 0 0 1 7.00195-7.002 1 1 0 0 1 0 2 5.008 5.008 0 0 0 -5.00195 5.002.99943.99943 0 0 1 -1 1z"/><path d="m43.501 54.002a.99942.99942 0 0 1 -1-1 5.00589 5.00589 0 0 0 -5-5 1 1 0 0 1 0-2 7.0085 7.0085 0 0 1 7 7 .99942.99942 0 0 1 -1 1z"/><path d="m17.501 48.002-7.998-.001a1 1 0 0 1 0-2l7.998.001a1 1 0 0 1 0 2z"/><path d="m37.501 48.002-8-.001a1 1 0 0 1 0-2l8 .001a1 1 0 0 1 0 2z"/><path d="m3.502 63a1.00006 1.00006 0 0 1 -1-1l-.001-8.99707a1 1 0 0 1 2 0l.001 8.99707a1 1 0 0 1 -1 1z"/><path d="m43.501 63a.99942.99942 0 0 1 -1-1v-8.998a1 1 0 1 1 2 0v8.998a.99943.99943 0 0 1 -1 1z"/><path d="m17.501 48.002a.99942.99942 0 0 1 -1-1v-5.25a1 1 0 0 1 2 0v5.25a.99942.99942 0 0 1 -1 1z"/><path d="m29.501 48.001a.99942.99942 0 0 1 -1-1v-5.249a1 1 0 1 1 2 0v5.249a.99943.99943 0 0 1 -1 1z"/><path d="m23.501 44.001a16.01833 16.01833 0 0 1 -16-16 1 1 0 0 1 2 0 14 14 0 0 0 28 0 1 1 0 0 1 2 0 16.01834 16.01834 0 0 1 -16 16z"/><path d="m41.501 21a.99942.99942 0 0 1 -1-1 17 17 0 0 0 -34 0 1 1 0 0 1 -2 0 19 19 0 0 1 38 0 .99943.99943 0 0 1 -1 1z"/><path d="m8.501 29.001a.99942.99942 0 0 1 -1-1v-6.27541a1 1 0 0 1 2 0v6.27541a.99943.99943 0 0 1 -1 1z"/><path d="m38.501 29.001a.99942.99942 0 0 1 -1-1v-5.74514a1 1 0 0 1 2 0v5.74514a.99943.99943 0 0 1 -1 1z"/><path d="m5.502 24a.99993.99993 0 0 1 -.39941-1.917l32.249-14a.99981.99981 0 1 1 .79688 1.834l-32.249 14a.99082.99082 0 0 1 -.39747.083z"/><path d="m41.5 25a.99743.99743 0 0 1 -.502-.13574l-16-9.30274a.99994.99994 0 1 1 1.00591-1.72852l16 9.30273a1 1 0 0 1 -.50391 1.86427z"/><path d="m5.501 49.5293a.99942.99942 0 0 1 -1-1v-28.5293a1 1 0 0 1 2 0v28.5293a.99943.99943 0 0 1 -1 1z"/><path d="m41.501 49.53223a.99942.99942 0 0 1 -1-1v-28.53223a1 1 0 0 1 2 0v28.53223a.99943.99943 0 0 1 -1 1z"/><path d="m23.501 51c-3.99024 0-6.999-1.71973-6.999-4a1 1 0 0 1 2 0c0 .81543 1.94727 2 4.999 2s5-1.18457 5-2a1 1 0 0 1 2 0c0 2.28027-3.00979 4-7 4z"/><path d="m43.5 58a11.01245 11.01245 0 0 1 -11-11 1 1 0 0 1 2 0 9.00984 9.00984 0 0 0 9 9 1 1 0 0 1 0 2z"/><path d="m3.5 58a1 1 0 0 1 0-2 9.00984 9.00984 0 0 0 9-9 1 1 0 0 1 2 0 11.01245 11.01245 0 0 1 -11 11z"/><path d="m23.501 56a.99942.99942 0 0 1 -1-1v-11.999a1 1 0 0 1 2 0v11.999a.99943.99943 0 0 1 -1 1z"/><path d="m33.502 33.01367h-6a1.00023 1.00023 0 0 1 -.85742-.48535l-2.709-4.51465h-.86719l-2.709 4.51465a1.00024 1.00024 0 0 1 -.85743.48535h-6a3.00328 3.00328 0 0 1 -3-3v-8.01467a3.00329 3.00329 0 0 1 3-3h20a3.00328 3.00328 0 0 1 3 3v8.01465a3.00328 3.00328 0 0 1 -2.99996 3.00002zm-5.43359-2h5.43359a1.00067 1.00067 0 0 0 1-1v-8.01467a1.00068 1.00068 0 0 0 -1-1h-20a1.00069 1.00069 0 0 0 -1 1v8.01465a1.00068 1.00068 0 0 0 1 1h5.4336l2.709-4.51465a1.00023 1.00023 0 0 1 .85742-.48535h2a1.00024 1.00024 0 0 1 .85743.48535z"/><path d="m38.502 25.01367h-3a1 1 0 0 1 0-2h3a1 1 0 0 1 0 2z"/><path d="m38.502 29.01367h-3a1 1 0 0 1 0-2h3a1 1 0 0 1 0 2z"/><path d="m11.502 25.01367h-3a1 1 0 0 1 0-2h3a1 1 0 0 1 0 2z"/><path d="m11.502 29.01367h-3a1 1 0 0 1 0-2h3a1 1 0 0 1 0 2z"/><path d="m22.502 34.01367a.9982.9982 0 0 1 -.3164-.05176l-3-1a.99964.99964 0 1 1 .63281-1.89648l3 1a.99986.99986 0 0 1 -.31641 1.94824z"/><path d="m24.502 34.01367h-2a1 1 0 0 1 0-2h2a1 1 0 0 1 0 2z"/><path d="m24.502 34.01367a.99986.99986 0 0 1 -.3164-1.94824l3-1a.99964.99964 0 1 1 .63281 1.89648l-3 1a.99821.99821 0 0 1 -.31641.05176z"/><path d="m60.5 34.999a.99942.99942 0 0 1 -1-1 6 6 0 0 0 -12 0 1 1 0 0 1 -2 0 8 8 0 0 1 16 0 .99942.99942 0 0 1 -1 1z"/><path d="m46.5 60.999a.99942.99942 0 0 1 -1-1v-26a1 1 0 0 1 2 0v26a.99942.99942 0 0 1 -1 1z"/><path d="m60.5 60.999a.99942.99942 0 0 1 -1-1v-26a1 1 0 0 1 2 0v26a.99942.99942 0 0 1 -1 1z"/><path d="m53.5 50.999a5 5 0 1 1 5-5 5.00588 5.00588 0 0 1 -5 5zm0-8a3 3 0 1 0 3 3 3.00328 3.00328 0 0 0 -3-3z"/><path d="m48.501 63a3.005 3.005 0 0 1 -3.001-3.001 1 1 0 0 1 2 0 1.00235 1.00235 0 0 0 1.001 1.001 1 1 0 0 1 0 2z"/><path d="m58.501 62.999a1 1 0 0 1 0-2 1.00046 1.00046 0 0 0 .999-1 1 1 0 0 1 2 0 3.00307 3.00307 0 0 1 -2.999 3z"/><path d="m58.501 63h-10a1 1 0 0 1 0-2h10a1 1 0 0 1 0 2z"/><path d="m53.5 27.999a.99942.99942 0 0 1 -1-1v-5.01365a1 1 0 1 1 2 0v5.01365a.99942.99942 0 0 1 -1 1z"/><path d="m57.501 24.999h-6a1 1 0 0 1 0-2h6a1 1 0 0 1 0 2z"/><path d="m57.501 25.999a.99942.99942 0 0 1 -1-1v-2a1 1 0 0 1 2 0v2a.99942.99942 0 0 1 -1 1z"/></svg>