<svg id="icons" height="512" viewBox="0 0 64 64" width="512" xmlns="http://www.w3.org/2000/svg"><g fill="#eac6bb"><path d="m42 28.5a2.0052 2.0052 0 0 0 1.88-1.33 11.95213 11.95213 0 0 1 -3.7 7.1 6.79262 6.79262 0 0 0 -3.18-.77h-1a3.9989 3.9989 0 0 0 -4-4h1l3-1z"/><path d="m37 33.5a6.79262 6.79262 0 0 1 3.18.77 11.90579 11.90579 0 0 1 -8.18 3.23 3.9989 3.9989 0 0 0 4-4z"/><path d="m31 29.5h1a4 4 0 0 0 0 8 12.00116 12.00116 0 0 1 -11.88-10.32 2.00612 2.00612 0 0 0 1.88 1.32h6z"/></g><circle cx="32" cy="33.5" fill="#656d78" r="4"/><path d="m33 23.5 3 5-3 1h-1-1l-3-1 3-5z" fill="#656d78"/><path d="m17 20.5h3v4h-3z" fill="#656d78"/><path d="m20 18.48v2.02h-3v-2a15 15 0 0 1 30 0v2h-3v-2.02a2.00588 2.00588 0 0 0 -2-2h-20a2.00588 2.00588 0 0 0 -2 2z" fill="#545c66"/><path d="m44 20.5h3v4h-3z" fill="#656d78"/><path d="m44 26.5v-2h3v1a14.9355 14.9355 0 0 1 -4.49 10.7 6.61722 6.61722 0 0 0 -2.33-1.93 11.95213 11.95213 0 0 0 3.7-7.1 1.85294 1.85294 0 0 0 .12-.67z" fill="#545c66"/><path d="m44 24.5v2a1.85294 1.85294 0 0 1 -.12.67 2.0052 2.0052 0 0 1 -1.88 1.33h-6l-3-5h-2l-3 5h-6a2.00612 2.00612 0 0 1 -1.88-1.32c0-.01-.01-.01 0-.02a1.83825 1.83825 0 0 1 -.12-.66v-8.02a2.00588 2.00588 0 0 1 2-2h20a2.00588 2.00588 0 0 1 2 2z" fill="#5d9cec"/><path d="m32 37.5a11.90579 11.90579 0 0 0 8.18-3.23 6.61722 6.61722 0 0 1 2.33 1.93 14.62213 14.62213 0 0 1 -3.51 2.57 15 15 0 0 1 -22-13.27v-1h3v2a1.83825 1.83825 0 0 0 .12.66c-.01.01 0 .01 0 .02a12.00116 12.00116 0 0 0 11.88 10.32z" fill="#545c66"/><path d="m54 52.5v8h-8v-16a7.9978 7.9978 0 0 1 8 8z" fill="#434a54"/><path d="m41 44.5v16h-18v-16h2v.01c0 1.66 3.14 3 7 3 3.87 0 7-1.34 7-3v-.01z" fill="#434a54"/><path d="m18 53.5h4.98v4.98h-4.98z" fill="#aab2bd"/><path d="m39 44.5v.01c0 1.66-3.13 3-7 3v-7.01a14.86608 14.86608 0 0 0 7-1.73z" fill="#545c66"/><path d="m22.98 58.48v-4.98h.02v7h-5v-2.02z" fill="#656d78"/><path d="m46 44.5v9h-.02-4.98v-9h3z" fill="#656d78"/><path d="m41 53.5h4.98v4.98h-4.98z" fill="#aab2bd"/><path d="m32 40.5v7.01c-3.86 0-7-1.34-7-3v-5.74a14.98529 14.98529 0 0 0 7 1.73z" fill="#656d78"/><path d="m23 44.5v9h-.02-4.98v-9z" fill="#656d78"/><path d="m46 60.5h-5v-2.02h4.98v-4.98h.02z" fill="#656d78"/><path d="m18 44.5v16h-8v-8a7.9978 7.9978 0 0 1 8-8z" fill="#434a54"/><path d="m10 53.50293a.99943.99943 0 0 1 -1-1 9.01192 9.01192 0 0 1 9.002-9.002 1 1 0 0 1 0 2 7.00932 7.00932 0 0 0 -7.002 7.002.99943.99943 0 0 1 -1 1z"/><path d="m54 53.502a.99942.99942 0 0 1 -1-1 7.00849 7.00849 0 0 0 -7-7 1 1 0 0 1 0-2 9.00984 9.00984 0 0 1 9 9 .99942.99942 0 0 1 -1 1z"/><path d="m25 45.502-6.998-.001a1 1 0 0 1 0-2l6.998.001a1 1 0 0 1 0 2z"/><path d="m46 45.502-7-.001a1 1 0 0 1 0-2l7 .001a1 1 0 0 1 0 2z"/><path d="m10.001 61.5a1.00005 1.00005 0 0 1 -1-1l-.001-7.99707a1 1 0 0 1 2 0l.001 7.99707a1.00005 1.00005 0 0 1 -1 1z"/><path d="m54 61.5a.99943.99943 0 0 1 -1-1v-7.998a1 1 0 1 1 2 0v7.998a.99943.99943 0 0 1 -1 1z"/><path d="m25 45.502a.99942.99942 0 0 1 -1-1v-5.73149a1 1 0 0 1 2 0v5.73149a.99942.99942 0 0 1 -1 1z"/><path d="m39 45.501a.99943.99943 0 0 1 -1-1v-5.73049a1 1 0 0 1 2 0v5.73049a.99943.99943 0 0 1 -1 1z"/><path d="m32 41.501a16.01833 16.01833 0 0 1 -16-16 1 1 0 0 1 2 0 14 14 0 0 0 28 0 1 1 0 0 1 2 0 16.01833 16.01833 0 0 1 -16 16z"/><path d="m47 19.5a.99943.99943 0 0 1 -1-1 14 14 0 0 0 -28 0 1 1 0 0 1 -2 0 16 16 0 0 1 32 0 .99943.99943 0 0 1 -1 1z"/><path d="m32 38.5a13.04347 13.04347 0 0 1 -12.875-11.20117.99963.99963 0 0 1 1.98047-.27344 11.00108 11.00108 0 0 0 21.78808.00879.99976.99976 0 1 1 1.98047.27539 13.04638 13.04638 0 0 1 -12.87402 11.19043z"/><path d="m17 26.501a.99943.99943 0 0 1 -1-1v-7.001a1 1 0 0 1 2 0v7.001a.99943.99943 0 0 1 -1 1z"/><path d="m47 26.501a.99943.99943 0 0 1 -1-1v-7.001a1 1 0 0 1 2 0v7.001a.99943.99943 0 0 1 -1 1z"/><path d="m42.001 29.5h-6a1.00024 1.00024 0 0 1 -.85743-.48535l-2.709-4.51465h-.86719l-2.709 4.51465a1.00023 1.00023 0 0 1 -.85738.48535h-6a3.00328 3.00328 0 0 1 -3-3v-8.01562a3.00328 3.00328 0 0 1 3-3h20a3.00328 3.00328 0 0 1 3 3v8.01562a3.00328 3.00328 0 0 1 -3 3zm-5.4336-2h5.4336a1.00068 1.00068 0 0 0 1-1v-8.01562a1.00068 1.00068 0 0 0 -1-1h-20a1.00067 1.00067 0 0 0 -1 1v8.01562a1.00067 1.00067 0 0 0 1 1h5.43359l2.709-4.51465a1.00024 1.00024 0 0 1 .85741-.48535h2a1.00023 1.00023 0 0 1 .85742.48535z"/><path d="m47.001 21.5h-3a1 1 0 0 1 0-2h3a1 1 0 0 1 0 2z"/><path d="m47.001 25.5h-3a1 1 0 0 1 0-2h3a1 1 0 0 1 0 2z"/><path d="m20.001 21.5h-3a1 1 0 0 1 0-2h3a1 1 0 0 1 0 2z"/><path d="m20.001 25.5h-3a1 1 0 0 1 0-2h3a1 1 0 0 1 0 2z"/><path d="m31.001 30.5a.99821.99821 0 0 1 -.31641-.05176l-3-1a.99964.99964 0 1 1 .63281-1.89648l3 1a.99986.99986 0 0 1 -.3164 1.94824z"/><path d="m33.001 30.5h-2a1 1 0 0 1 0-2h2a1 1 0 0 1 0 2z"/><path d="m33.001 30.5a.99986.99986 0 0 1 -.31641-1.94824l3-1a.99964.99964 0 1 1 .63281 1.89648l-3 1a.9982.9982 0 0 1 -.3164.05176z"/><path d="m32.001 38.5a5 5 0 1 1 5-5 5.00588 5.00588 0 0 1 -5 5zm0-8a3 3 0 1 0 3 3 3.00328 3.00328 0 0 0 -3-3z"/><path d="m32.02051 34.5a1 1 0 0 1 -.00977-2h.00977a1 1 0 0 1 0 2z"/><path d="m32.001 48.51465c-3.97559 0-8-1.374-8-4a1 1 0 0 1 2 0c0 .70508 2.27832 2 6 2s6-1.29492 6-2a1 1 0 0 1 2 0c0 2.62598-4.02444 4-8 4z"/><path d="m32.001 52.51465a.99942.99942 0 0 1 -1-1v-11.01465a1 1 0 0 1 2 0v11.01465a.99943.99943 0 0 1 -1 1z"/><path d="m18.002 61.5a.99943.99943 0 0 1 -1-1v-15.999a1 1 0 0 1 2 0v15.999a.99942.99942 0 0 1 -1 1z"/><path d="m23.002 61.5a.99943.99943 0 0 1 -1-1v-15.999a1 1 0 0 1 2 0v15.999a.99942.99942 0 0 1 -1 1z"/><path d="m22.97656 59.47754h-4.97456a.99943.99943 0 0 1 -1-1v-4.97461a.99943.99943 0 0 1 1-1h4.97461a.99942.99942 0 0 1 1 1v4.97461a.99942.99942 0 0 1 -1.00005 1zm-3.97461-2h2.97461v-2.97461h-2.97456z"/><path d="m41.002 61.5a.99943.99943 0 0 1 -1-1v-15.999a1 1 0 0 1 2 0v15.999a.99942.99942 0 0 1 -1 1z"/><path d="m46.002 61.5a.99943.99943 0 0 1 -1-1v-15.999a1 1 0 0 1 2 0v15.999a.99942.99942 0 0 1 -1 1z"/><path d="m45.97656 59.47754h-4.97456a.99943.99943 0 0 1 -1-1v-4.97461a.99943.99943 0 0 1 1-1h4.97461a.99942.99942 0 0 1 1 1v4.97461a.99942.99942 0 0 1 -1.00005 1zm-3.97461-2h2.97461v-2.97461h-2.97456z"/><path d="m44.001 41.501a.99942.99942 0 0 1 -1-1 6.00823 6.00823 0 0 0 -6.001-6.001 1 1 0 0 1 0-2 8.00959 8.00959 0 0 1 8.001 8.001.99943.99943 0 0 1 -1 1z"/><path d="m44.001 45.5a.99942.99942 0 0 1 -1-1v-3.999a1 1 0 0 1 2 0v3.999a.99943.99943 0 0 1 -1 1z"/><path d="m37 34.5h-.999a1 1 0 0 1 0-2h.999a1 1 0 0 1 0 2z"/></svg>