<svg id="icons" height="512" viewBox="0 0 64 64" width="512" xmlns="http://www.w3.org/2000/svg"><path d="m35 15.5v1a2.00588 2.00588 0 0 1 -2 2h-1l-1-1h-1l-1 1h-1a2.00588 2.00588 0 0 1 -2-2v-2a2.00588 2.00588 0 0 1 2-2h5a2.00588 2.00588 0 0 1 2 2z" fill="#5d9cec"/><path d="m33 18.5a2.00588 2.00588 0 0 0 2-2v-2a2.00588 2.00588 0 0 0 -2-2h-5a2.00588 2.00588 0 0 0 -2 2v2a2.00588 2.00588 0 0 0 2 2h1l1-1h1l1 1zm-1-15a10.99377 10.99377 0 0 1 11 11c0 7-5.39 13.02-8.62 16a29.82114 29.82114 0 0 1 -2.38 2 29.82114 29.82114 0 0 1 -2.38-2c-3.23-2.98-8.62-9-8.62-16a10.99377 10.99377 0 0 1 11-11z" fill="#ed5565"/><path d="m63 35.5v13h-62v-18h28.62a29.82114 29.82114 0 0 0 2.38 2 29.82114 29.82114 0 0 0 2.38-2h28.62z" fill="#5d9cec"/><path d="m1 48.5h62v12h-62z" fill="#ffce54"/><path d="m63 49.5h-62a1 1 0 0 1 0-2h62a1 1 0 0 1 0 2z"/><path d="m63 61.5h-62a1 1 0 0 1 0-2h62a1 1 0 0 1 0 2z"/><path d="m29.62305 31.5h-28.62305a1 1 0 0 1 0-2h28.62305a1 1 0 0 1 0 2z"/><path d="m21 39.5h-20a1 1 0 0 1 0-2h20a1 1 0 0 1 0 2z"/><path d="m63 36.5h-15a1 1 0 0 1 0-2h15a1 1 0 0 1 0 2z"/><path d="m45 36.5h-3a1 1 0 0 1 0-2h3a1 1 0 0 1 0 2z"/><path d="m43 43.5h-15a1 1 0 0 1 0-2h15a1 1 0 0 1 0 2z"/><path d="m51 43.5h-5a1 1 0 0 1 0-2h5a1 1 0 0 1 0 2z"/><path d="m32 33.5a.99478.99478 0 0 1 -.58789-.19141c-.46582-.33886-11.41111-8.41894-11.41211-18.80859a12 12 0 0 1 24 0c0 10.38965-10.94629 18.46973-11.41211 18.80859a.99478.99478 0 0 1 -.58789.19141zm0-29a9.99924 9.99924 0 0 0 -10 10c.001 8.0791 7.77246 14.93457 9.999 16.73242 2.22659-1.80078 10.001-8.66797 10.001-16.73242a10.01177 10.01177 0 0 0 -10-10z"/><path d="m63 31.5h-28.62207a1 1 0 1 1 0-2h28.62207a1 1 0 0 1 0 2z"/><path d="m33 19.5h-1a.99928.99928 0 0 1 -.707-.293l-.707-.707h-.17188l-.707.707a.99927.99927 0 0 1 -.70712.293h-1a3.00328 3.00328 0 0 1 -3-3v-2a3.00328 3.00328 0 0 1 3-3h5a3.00328 3.00328 0 0 1 3 3v2a3.00328 3.00328 0 0 1 -3 3zm-.58594-2h.58594a1.00067 1.00067 0 0 0 1-1v-2a1.00067 1.00067 0 0 0 -1-1h-5a1.00067 1.00067 0 0 0 -1 1v2a1.00067 1.00067 0 0 0 1 1h.58594l.707-.707a.99928.99928 0 0 1 .70706-.293h1a.99927.99927 0 0 1 .707.293z"/><path d="m33 22.5a1 1 0 0 1 0-2 4.004 4.004 0 0 0 4-4 1 1 0 0 1 2 0 6.00657 6.00657 0 0 1 -6 6z"/><path d="m38 17.5a.99943.99943 0 0 1 -1-1v-6a1 1 0 0 1 2 0v6a.99943.99943 0 0 1 -1 1z"/><path d="m26 16.5h-1a1 1 0 0 1 0-2h1a1 1 0 0 1 0 2z"/><path d="m36 16.5h-1a1 1 0 0 1 0-2h1a1 1 0 0 1 0 2z"/><path d="m2.01953 52.5a1 1 0 0 1 -.00976-2h.00976a1 1 0 1 1 0 2z"/><path d="m5.01953 55.5a1 1 0 0 1 -.00976-2h.00976a1 1 0 1 1 0 2z"/><path d="m8.01953 58.5a1 1 0 0 1 -.00976-2h.00976a1 1 0 1 1 0 2z"/><path d="m8.01953 52.5a1 1 0 0 1 -.00976-2h.00976a1 1 0 1 1 0 2z"/><path d="m11.01953 55.5a1 1 0 0 1 -.00976-2h.00976a1 1 0 1 1 0 2z"/><path d="m14.01953 58.5a1 1 0 0 1 -.00976-2h.00976a1 1 0 1 1 0 2z"/><path d="m14.01953 52.5a1 1 0 0 1 -.00976-2h.00976a1 1 0 1 1 0 2z"/><path d="m17.01953 55.5a1 1 0 0 1 -.00976-2h.00976a1 1 0 1 1 0 2z"/><path d="m20.01953 58.5a1 1 0 0 1 -.00976-2h.00976a1 1 0 1 1 0 2z"/><path d="m20.01953 52.5a1 1 0 0 1 -.00976-2h.00976a1 1 0 1 1 0 2z"/><path d="m23.01953 55.5a1 1 0 0 1 -.00976-2h.00976a1 1 0 1 1 0 2z"/><path d="m26.01953 58.5a1 1 0 0 1 -.00976-2h.00976a1 1 0 1 1 0 2z"/><path d="m26.01953 52.5a1 1 0 0 1 -.00976-2h.00976a1 1 0 1 1 0 2z"/><path d="m29.01953 55.5a1 1 0 0 1 -.00976-2h.00976a1 1 0 1 1 0 2z"/><path d="m32.01953 58.5a1 1 0 0 1 -.00976-2h.00976a1 1 0 0 1 0 2z"/><path d="m32.01953 52.5a1 1 0 0 1 -.00976-2h.00976a1 1 0 0 1 0 2z"/><path d="m35.01953 55.5a1 1 0 0 1 -.00976-2h.00976a1 1 0 0 1 0 2z"/><path d="m38.01953 58.5a1 1 0 0 1 -.00976-2h.00976a1 1 0 0 1 0 2z"/><path d="m38.01953 52.5a1 1 0 0 1 -.00976-2h.00976a1 1 0 0 1 0 2z"/><path d="m41.01953 55.5a1 1 0 0 1 -.00976-2h.00976a1 1 0 0 1 0 2z"/><path d="m44.01953 58.5a1 1 0 0 1 -.00976-2h.00976a1 1 0 0 1 0 2z"/><path d="m44.01953 52.5a1 1 0 0 1 -.00976-2h.00976a1 1 0 0 1 0 2z"/><path d="m47.01953 55.5a1 1 0 0 1 -.00976-2h.00976a1 1 0 0 1 0 2z"/><path d="m50.01953 58.5a1 1 0 0 1 -.00976-2h.00976a1 1 0 0 1 0 2z"/><path d="m50.01953 52.5a1 1 0 0 1 -.00976-2h.00976a1 1 0 0 1 0 2z"/><path d="m53.01953 55.5a1 1 0 0 1 -.00976-2h.00976a1 1 0 0 1 0 2z"/><path d="m56.01953 58.5a1 1 0 0 1 -.00976-2h.00976a1 1 0 0 1 0 2z"/><path d="m56.01953 52.5a1 1 0 0 1 -.00976-2h.00976a1 1 0 0 1 0 2z"/><path d="m59.01953 55.5a1 1 0 0 1 -.00976-2h.00976a1 1 0 0 1 0 2z"/><path d="m62.01953 58.5a1 1 0 0 1 -.00976-2h.00976a1 1 0 0 1 0 2z"/><path d="m62.01953 52.5a1 1 0 0 1 -.00976-2h.00976a1 1 0 0 1 0 2z"/><path d="m2.01953 58.5a1 1 0 0 1 -.00976-2h.00976a1 1 0 1 1 0 2z"/></svg>