<svg id="icons" height="512" viewBox="0 0 64 64" width="512" xmlns="http://www.w3.org/2000/svg"><path d="m36 21v-1a2.00588 2.00588 0 0 0 -2-2h-5a2.00588 2.00588 0 0 0 -2 2v2a2.00588 2.00588 0 0 0 2 2h1l1-1h1l1 1h1a2.00588 2.00588 0 0 0 2-2zm-3-10a10.00365 10.00365 0 0 1 10 10c0 5.52-8 17-10 17s-10-11.48-10-17a10.00365 10.00365 0 0 1 10-10z" fill="#ed5565"/><path d="m36 21v1a2.00588 2.00588 0 0 1 -2 2h-1l-1-1h-1l-1 1h-1a2.00588 2.00588 0 0 1 -2-2v-2a2.00588 2.00588 0 0 1 2-2h5a2.00588 2.00588 0 0 1 2 2z" fill="#5d9cec"/><path d="m58.6 32 4.4 17h-21a17.00193 17.00193 0 0 1 16.6-17z" fill="#a0d468"/><path d="m63 52.58v.42h-21v-4h21z" fill="#8cc152"/><path d="m1 49h41v4h-41z" fill="#4a89dc"/><path d="m23 21c0 5.52 8 17 10 17s10-11.48 10-17h12.75l2.85 11a17.00193 17.00193 0 0 0 -16.6 17h-41l1.75-7.01a20.99137 20.99137 0 0 0 20.25-20.99z" fill="#5d9cec"/><path d="m23 21a20.99137 20.99137 0 0 1 -20.25 20.99l5.25-20.99z" fill="#a0d468"/><path d="m63 50h-62a.9997.9997 0 0 1 -.96973-1.24219l7-28a.99952.99952 0 0 1 1.93946.48438l-6.68848 26.75781h59.42675l-6.92773-26.749a.99979.99979 0 0 1 1.93555-.502l7.252 28a.99923.99923 0 0 1 -.96782 1.251z"/><path d="m1 54a.99943.99943 0 0 1 -1-1v-4a1 1 0 0 1 2 0v4a.99943.99943 0 0 1 -1 1z"/><path d="m63 54h-62a1 1 0 0 1 0-2h62a1 1 0 0 1 0 2z"/><path d="m63 53.584a.99942.99942 0 0 1 -1-1v-3.584a1 1 0 0 1 2 0v3.584a.99942.99942 0 0 1 -1 1z"/><path d="m42 54a.99943.99943 0 0 1 -1-1v-4a1 1 0 0 1 2 0v4a.99943.99943 0 0 1 -1 1z"/><path d="m23 22h-15a1 1 0 0 1 0-2h15a1 1 0 0 1 0 2z"/><path d="m55.74805 22h-12.74805a1 1 0 0 1 0-2h12.748a1 1 0 1 1 0 2z"/><path d="m42 50a.99943.99943 0 0 1 -1-1 17.8871 17.8871 0 0 1 17.5752-17.99512.9828.9828 0 0 1 1.02343.97657 1.00033 1.00033 0 0 1 -.97656 1.02343 15.89862 15.89862 0 0 0 -15.62207 15.99512.99943.99943 0 0 1 -1 1z"/><path d="m33 39c-2.89844 0-11-12.333-11-18a11 11 0 0 1 22 0c0 5.667-8.10156 18-11 18zm0-27a9.00984 9.00984 0 0 0 -9 9c0 5.05371 7.22949 15.21777 9 15.97949 1.77051-.76172 9-10.92578 9-15.97949a9.00984 9.00984 0 0 0 -9-9z"/><path d="m34 25h-1a.99928.99928 0 0 1 -.707-.293l-.707-.707h-.17188l-.707.707a.99927.99927 0 0 1 -.70712.293h-1a3.00328 3.00328 0 0 1 -3-3v-2a3.00328 3.00328 0 0 1 3-3h5a3.00328 3.00328 0 0 1 3 3v2a3.00328 3.00328 0 0 1 -3 3zm-.58594-2h.58594a1.00067 1.00067 0 0 0 1-1v-2a1.00067 1.00067 0 0 0 -1-1h-5a1.00067 1.00067 0 0 0 -1 1v2a1.00067 1.00067 0 0 0 1 1h.58594l.707-.707a.99928.99928 0 0 1 .70706-.293h1a.99927.99927 0 0 1 .707.293z"/><path d="m34 28a1 1 0 0 1 0-2 4.004 4.004 0 0 0 4-4 1 1 0 0 1 2 0 6.00657 6.00657 0 0 1 -6 6z"/><path d="m39 23a.99943.99943 0 0 1 -1-1v-4a1 1 0 0 1 2 0v4a.99943.99943 0 0 1 -1 1z"/><path d="m27 22h-1a1 1 0 0 1 0-2h1a1 1 0 0 1 0 2z"/><path d="m37 22h-1a1 1 0 0 1 0-2h1a1 1 0 0 1 0 2z"/><path d="m2.752 42.98633a.99983.99983 0 0 1 -.03418-1.999 19.9183 19.9183 0 0 0 19.28218-19.98733 1 1 0 0 1 2 0 21.91083 21.91083 0 0 1 -21.21191 21.98535c-.01172.00098-.02442.00098-.03609.00098z"/><path d="m25 45h-11a1 1 0 0 1 0-2h11a1 1 0 0 1 0 2z"/><path d="m30 45h-2a1 1 0 0 1 0-2h2a1 1 0 0 1 0 2z"/><path d="m28 41h-9a1 1 0 0 1 0-2h9a1 1 0 0 1 0 2z"/><path d="m49 28h-4a1 1 0 0 1 0-2h4a1 1 0 0 1 0 2z"/><path d="m53 28h-1a1 1 0 0 1 0-2h1a1 1 0 0 1 0 2z"/><path d="m47 32h-4a1 1 0 0 1 0-2h4a1 1 0 0 1 0 2z"/><path d="m25 37h-3a1 1 0 0 1 0-2h3a1 1 0 0 1 0 2z"/></svg>