<svg id="icons" height="512" viewBox="0 0 64 64" width="512" xmlns="http://www.w3.org/2000/svg"><path d="m49 6v1h-34v-1a5.00182 5.00182 0 0 1 5-5h24a5.00182 5.00182 0 0 1 5 5z" fill="#656d78"/><path d="m60 12v18h-11-8l-5 3v-21h13z" fill="#e6e9ed"/><path d="m49 53v4a6.01764 6.01764 0 0 1 -6 6h-22a6.01764 6.01764 0 0 1 -6-6v-4a6.01764 6.01764 0 0 0 6 6h22a6.01764 6.01764 0 0 0 6-6z" fill="#545c66"/><circle cx="32" cy="55" fill="#aab2bd" r="2"/><path d="m49 51v2a6.01764 6.01764 0 0 1 -6 6h-11v-2a2 2 0 0 0 0-4v-2z" fill="#656d78"/><path d="m30 55a1.99944 1.99944 0 0 0 2 2v2h-11a6.01764 6.01764 0 0 1 -6-6v-2h17v2a2.00588 2.00588 0 0 0 -2 2z" fill="#656d78"/><path d="m21 34a2.00588 2.00588 0 0 1 -2 2h-2l-2-2h-1l-2 2h-2a2.00588 2.00588 0 0 1 -2-2v-4a2.00588 2.00588 0 0 1 2-2h9a2.00588 2.00588 0 0 1 2 2z" fill="#5d9cec"/><path d="m49 30v21h-17-17v-7h8l5 3v-27h-13v-13h34v5h-13v21l5-3z" fill="#ccd1d9"/><path d="m4 44v-24h24v27l-5-3zm15-8a2.00588 2.00588 0 0 0 2-2v-4a2.00588 2.00588 0 0 0 -2-2h-9a2.00588 2.00588 0 0 0 -2 2v4a2.00588 2.00588 0 0 0 2 2h2l2-2h1l2 2z" fill="#e6e9ed"/><path d="m43 60h-22a7.00849 7.00849 0 0 1 -7-7 1 1 0 0 1 2 0 5.00588 5.00588 0 0 0 5 5h22a5.00588 5.00588 0 0 0 5-5 1 1 0 0 1 2 0 7.00848 7.00848 0 0 1 -7 7z"/><path d="m29.01953 5a1 1 0 0 1 -.00976-2h.00976a1 1 0 1 1 0 2z"/><path d="m35 5h-3a1 1 0 0 1 0-2h3a1 1 0 0 1 0 2z"/><path d="m49 7.002a.99942.99942 0 0 1 -1-1 4.004 4.004 0 0 0 -4-4 1 1 0 0 1 0-2 6.00657 6.00657 0 0 1 6 6 .99942.99942 0 0 1 -1 1z"/><path d="m15 7a.99943.99943 0 0 1 -1-1 6.00657 6.00657 0 0 1 6-6 1 1 0 0 1 0 2 4.004 4.004 0 0 0 -4 4 .99943.99943 0 0 1 -1 1z"/><path d="m44 2h-24a1 1 0 0 1 0-2h24a1 1 0 0 1 0 2z"/><path d="m49 8.002h-34a1 1 0 1 1 0-2h34a1 1 0 0 1 0 2z"/><path d="m43 64h-22a7.00849 7.00849 0 0 1 -7-7v-12.998a1 1 0 0 1 2 0v12.998a5.00588 5.00588 0 0 0 5 5h22a5.00588 5.00588 0 0 0 5-5v-27.001a1 1 0 0 1 2 0v27.001a7.00848 7.00848 0 0 1 -7 7z"/><path d="m49 52h-34a1 1 0 0 1 0-2h34a1 1 0 0 1 0 2z"/><path d="m32 58a3 3 0 1 1 3-3 3.00328 3.00328 0 0 1 -3 3zm0-4a1 1 0 1 0 1 1 1.00067 1.00067 0 0 0 -1-1z"/><path d="m28 48.002a1.00317 1.00317 0 0 1 -.51465-.14257l-4.76269-2.85743h-18.72266a.99942.99942 0 0 1 -1-1v-24.00591a.99943.99943 0 0 1 1-1h24a.99943.99943 0 0 1 1 1v27.00591a.99957.99957 0 0 1 -1 1zm-23-5h18a.99441.99441 0 0 1 .51465.14258l3.48535 2.09077v-24.23926h-22z"/><path d="m36 33.999a.99957.99957 0 0 1 -1-1v-21a.99943.99943 0 0 1 1-1h24a.99943.99943 0 0 1 1 1v18a.99942.99942 0 0 1 -1 1h-18.72168l-4.76367 2.85743a1.00317 1.00317 0 0 1 -.51465.14257zm1-21v18.2344l3.48633-2.0918a.99441.99441 0 0 1 .51467-.1426h17.999v-16z"/><path d="m15 20.99609a.99942.99942 0 0 1 -1-1v-13.99609a1 1 0 0 1 2 0v13.99609a.99942.99942 0 0 1 -1 1z"/><path d="m49 12.999a.99942.99942 0 0 1 -1-1v-5.997a1 1 0 0 1 2 0v5.997a.99942.99942 0 0 1 -1 1z"/><path d="m55 17.999h-14a1 1 0 1 1 0-2h14a1 1 0 0 1 0 2z"/><path d="m55 21.999h-14a1 1 0 0 1 0-2h14a1 1 0 0 1 0 2z"/><path d="m48 25.999h-7a1 1 0 0 1 0-2h7a1 1 0 0 1 0 2z"/><path d="m19 37h-2a.99928.99928 0 0 1 -.707-.293l-1.70706-1.707h-.17188l-1.707 1.707a.99927.99927 0 0 1 -.70706.293h-2a3.00328 3.00328 0 0 1 -3-3v-4a3.00328 3.00328 0 0 1 3-3h9a3.00328 3.00328 0 0 1 3 3v4a3.00328 3.00328 0 0 1 -3 3zm-1.58594-2h1.58594a1.00067 1.00067 0 0 0 1-1v-4a1.00067 1.00067 0 0 0 -1-1h-9a1.00067 1.00067 0 0 0 -1 1v4a1.00067 1.00067 0 0 0 1 1h1.58594l1.707-1.707a.99928.99928 0 0 1 .70706-.293h1a.99927.99927 0 0 1 .707.293z"/><path d="m19 40a1 1 0 0 1 0-2 4.004 4.004 0 0 0 4-4 1 1 0 0 1 2 0 6.00657 6.00657 0 0 1 -6 6z"/><path d="m24 35a.99943.99943 0 0 1 -1-1v-9a1 1 0 0 1 2 0v9a.99943.99943 0 0 1 -1 1z"/><path d="m8 33h-1a1 1 0 0 1 0-2h1a1 1 0 0 1 0 2z"/><path d="m22 33h-1a1 1 0 0 1 0-2h1a1 1 0 0 1 0 2z"/></svg>