<svg id="icons" height="512" viewBox="0 0 64 64" width="512" xmlns="http://www.w3.org/2000/svg"><path d="m52 51.5a2.00588 2.00588 0 0 0 2-2v-4a2.00588 2.00588 0 0 0 -2-2h-9a2.00588 2.00588 0 0 0 -2 2v4a2.00588 2.00588 0 0 0 2 2h2l2-2h1l2 2zm-2.99-18.02a14.02153 14.02153 0 1 1 -14.04 14.02c0-.34.01-.69.04-1.02a13.61991 13.61991 0 0 1 .89-4 14.02917 14.02917 0 0 1 13.09-9z" fill="#ed5565"/><path d="m54 47.5v2a2.00588 2.00588 0 0 1 -2 2h-2l-2-2h-1l-2 2h-2a2.00588 2.00588 0 0 1 -2-2v-4a2.00588 2.00588 0 0 1 2-2h9a2.00588 2.00588 0 0 1 2 2z" fill="#5d9cec"/><path d="m48.99 8.48v6h-48v-6a2.00588 2.00588 0 0 1 2-2h4v2.5a1.5 1.5 0 0 0 3 0v-2.5h8v2.5a1.5 1.5 0 0 0 3 0v-2.5h8v2.5a1.5 1.5 0 0 0 3 0v-2.5h8v2.5a1.5 1.5 0 0 0 3 0v-2.5h4a1.99944 1.99944 0 0 1 2 2z" fill="#ed5565"/><path d="m36.31 53.5a14.02469 14.02469 0 0 0 1.93 2.99l-.01.01-37.24.01v-3.01z" fill="#ccd1d9"/><path d="m36.31 53.5h-35.32v-3.02h34.3a14.13151 14.13151 0 0 0 1.02 3.02z" fill="#ccd1d9"/><path d="m42.99 6.48v2.5a1.5 1.5 0 0 1 -3 0v-5a1.5 1.5 0 1 1 3 0z" fill="#e6e9ed"/><path d="m31.99 6.48v2.5a1.5 1.5 0 0 1 -3 0v-5a1.5 1.5 0 0 1 3 0z" fill="#e6e9ed"/><path d="m20.99 6.48v2.5a1.5 1.5 0 0 1 -3 0v-5a1.5 1.5 0 0 1 3 0z" fill="#e6e9ed"/><path d="m9.99 6.48v2.5a1.5 1.5 0 0 1 -3 0v-5a1.5 1.5 0 0 1 3 0z" fill="#e6e9ed"/><g fill="#fff"><path d="m40.99 26.48h4v4h-4z"/><path d="m40.99 18.48h4v4h-4z"/><path d="m31.99 26.48h4v4h-4z"/><path d="m31.99 18.48h4v4h-4z"/><path d="m22.99 42.48h4v4h-4z"/><path d="m22.99 34.48h4v4h-4z"/><path d="m22.99 26.48h4v4h-4z"/><path d="m32.01 42.48h3.89a13.61991 13.61991 0 0 0 -.89 4h-3z"/><path d="m32.01 34.48h4v4h-4z"/><path d="m4.99 34.48h4v4h-4z"/><path d="m4.99 26.48h4v4h-4z"/><path d="m22.99 18.48h4v4h-4z"/><path d="m13.99 42.48h4v4h-4z"/><path d="m13.99 18.48h4v4h-4z"/><path d="m13.99 34.48h4v4h-4z"/><path d="m13.99 26.48h4v4h-4z"/><path d="m4.99 42.48h4v4h-4z"/><path d="m4.99 18.48h4v4h-4z"/></g><path d="m36.01 38.48v-4h-4v4zm12.98-5a14.02917 14.02917 0 0 0 -13.09 9h-3.89v4h3c-.03.33-.04.68-.04 1.02a13.95266 13.95266 0 0 0 .32 2.98h-34.3v-36h48l.02 19zm-4-3v-4h-4v4zm0-8v-4h-4v4zm-9 8v-4h-4v4zm0-8v-4h-4v4zm-9 24v-4h-4v4zm0-8v-4h-4v4zm0-8v-4h-4v4zm0-8v-4h-4v4zm-9 24v-4h-4v4zm0-8v-4h-4v4zm0-8v-4h-4v4zm0-8v-4h-4v4zm-9 24v-4h-4v4zm0-8v-4h-4v4zm0-8v-4h-4v4zm0-8v-4h-4v4z" fill="#e6e9ed"/><path d="m.99121 9.48047a.99943.99943 0 0 1 -1-1 3.00328 3.00328 0 0 1 3-3 1 1 0 1 1 0 2 1.00067 1.00067 0 0 0 -1 1 .99942.99942 0 0 1 -1 1z"/><path d="m48.99121 9.48047a.99943.99943 0 0 1 -1-1 1.00067 1.00067 0 0 0 -1-1 1 1 0 0 1 0-2 3.00328 3.00328 0 0 1 3 3 .99942.99942 0 0 1 -1 1z"/><path d="m48.99121 15.48047h-48a1 1 0 0 1 0-2h48a1 1 0 0 1 0 2z"/><path d="m49 7.48047h.001a.999.999 0 0 1 .999.999v25.00491a1 1 0 0 1 -1 1h-.001a.999.999 0 0 1 -.999-.999v-25.00491a1 1 0 0 1 1-1z"/><path d="m.99121 57.51367a.99942.99942 0 0 1 -1-1v-48.0332a1 1 0 0 1 2 0v48.0332a.99942.99942 0 0 1 -1 1z"/><path d="m35.292 51.48047h-34.30079a1 1 0 0 1 0-2h34.30079a1 1 0 0 1 0 2z"/><path d="m.99121 54.49805a1 1 0 0 1 0-2l35.31934-.002a1 1 0 0 1 0 2z"/><path d="m.99121 57.51367a1 1 0 0 1 0-2l37.23633-.01758a1 1 0 0 1 0 2z"/><path d="m8.49121 11.48047a2.50231 2.50231 0 0 1 -2.5-2.5v-5a2.5 2.5 0 0 1 5 0v5a2.50231 2.50231 0 0 1 -2.5 2.5zm0-8a.501.501 0 0 0 -.5.5v5a.5.5 0 1 0 1 0v-5a.501.501 0 0 0 -.5-.5z"/><path d="m19.49121 11.48047a2.50231 2.50231 0 0 1 -2.5-2.5v-5a2.5 2.5 0 0 1 5 0v5a2.50231 2.50231 0 0 1 -2.5 2.5zm0-8a.501.501 0 0 0 -.5.5v5a.5.5 0 0 0 1 0v-5a.501.501 0 0 0 -.5-.5z"/><path d="m30.49121 11.48047a2.50231 2.50231 0 0 1 -2.5-2.5v-5a2.5 2.5 0 0 1 5 0v5a2.50231 2.50231 0 0 1 -2.5 2.5zm0-8a.501.501 0 0 0 -.5.5v5a.5.5 0 0 0 1 0v-5a.501.501 0 0 0 -.5-.5z"/><path d="m41.49121 11.48047a2.50231 2.50231 0 0 1 -2.5-2.5v-5a2.5 2.5 0 1 1 5 0v5a2.50231 2.50231 0 0 1 -2.5 2.5zm0-8a.501.501 0 0 0 -.5.5v5a.5.5 0 1 0 1 0v-5a.501.501 0 0 0 -.5-.5z"/><path d="m6.99121 7.48047h-4a1 1 0 0 1 0-2h4a1 1 0 0 1 0 2z"/><path d="m17.99121 7.48047h-8a1 1 0 1 1 0-2h8a1 1 0 0 1 0 2z"/><path d="m28.99121 7.48047h-8a1 1 0 0 1 0-2h8a1 1 0 0 1 0 2z"/><path d="m39.99121 7.48047h-8a1 1 0 0 1 0-2h8a1 1 0 0 1 0 2z"/><path d="m46.99121 7.48047h-4a1 1 0 0 1 0-2h4a1 1 0 0 1 0 2z"/><path d="m8.99121 23.48047h-4a.99943.99943 0 0 1 -1-1v-4a.99942.99942 0 0 1 1-1h4a.99942.99942 0 0 1 1 1v4a.99942.99942 0 0 1 -1 1zm-3-2h2v-2h-2z"/><path d="m17.99121 23.48047h-4a.99943.99943 0 0 1 -1-1v-4a.99942.99942 0 0 1 1-1h4a.99942.99942 0 0 1 1 1v4a.99942.99942 0 0 1 -1 1zm-3-2h2v-2h-2z"/><path d="m26.99121 23.48047h-4a.99943.99943 0 0 1 -1-1v-4a.99942.99942 0 0 1 1-1h4a.99942.99942 0 0 1 1 1v4a.99942.99942 0 0 1 -1 1zm-3-2h2v-2h-2z"/><path d="m35.99121 23.48047h-4a.99943.99943 0 0 1 -1-1v-4a.99942.99942 0 0 1 1-1h4a.99942.99942 0 0 1 1 1v4a.99942.99942 0 0 1 -1 1zm-3-2h2v-2h-2z"/><path d="m8.99121 31.48047h-4a.99943.99943 0 0 1 -1-1v-4a.99942.99942 0 0 1 1-1h4a.99942.99942 0 0 1 1 1v4a.99942.99942 0 0 1 -1 1zm-3-2h2v-2h-2z"/><path d="m17.99121 31.48047h-4a.99943.99943 0 0 1 -1-1v-4a.99942.99942 0 0 1 1-1h4a.99942.99942 0 0 1 1 1v4a.99942.99942 0 0 1 -1 1zm-3-2h2v-2h-2z"/><path d="m26.99121 31.48047h-4a.99943.99943 0 0 1 -1-1v-4a.99942.99942 0 0 1 1-1h4a.99942.99942 0 0 1 1 1v4a.99942.99942 0 0 1 -1 1zm-3-2h2v-2h-2z"/><path d="m8.99121 39.48047h-4a.99943.99943 0 0 1 -1-1v-4a.99942.99942 0 0 1 1-1h4a.99942.99942 0 0 1 1 1v4a.99942.99942 0 0 1 -1 1zm-3-2h2v-2h-2z"/><path d="m17.99121 39.48047h-4a.99943.99943 0 0 1 -1-1v-4a.99942.99942 0 0 1 1-1h4a.99942.99942 0 0 1 1 1v4a.99942.99942 0 0 1 -1 1zm-3-2h2v-2h-2z"/><path d="m26.99121 39.48047h-4a.99943.99943 0 0 1 -1-1v-4a.99942.99942 0 0 1 1-1h4a.99942.99942 0 0 1 1 1v4a.99942.99942 0 0 1 -1 1zm-3-2h2v-2h-2z"/><path d="m36.00879 39.48047h-4a.99942.99942 0 0 1 -1-1v-4a.99942.99942 0 0 1 1-1h4a.99942.99942 0 0 1 1 1v4a.99943.99943 0 0 1 -1 1zm-3-2h2v-2h-2z"/><path d="m35.00781 47.48047h-2.999a.99942.99942 0 0 1 -1-1v-4a.99942.99942 0 0 1 1-1h3.89062a1 1 0 0 1 0 2h-2.89064v2h1.999a1 1 0 1 1 0 2z"/><path d="m8.99121 47.48047h-4a.99943.99943 0 0 1 -1-1v-4a.99942.99942 0 0 1 1-1h4a.99942.99942 0 0 1 1 1v4a.99942.99942 0 0 1 -1 1zm-3-2h2v-2h-2z"/><path d="m17.99121 47.48047h-4a.99943.99943 0 0 1 -1-1v-4a.99942.99942 0 0 1 1-1h4a.99942.99942 0 0 1 1 1v4a.99942.99942 0 0 1 -1 1zm-3-2h2v-2h-2z"/><path d="m26.99121 47.48047h-4a.99943.99943 0 0 1 -1-1v-4a.99942.99942 0 0 1 1-1h4a.99942.99942 0 0 1 1 1v4a.99942.99942 0 0 1 -1 1zm-3-2h2v-2h-2z"/><path d="m35.99121 31.48047h-4a.99943.99943 0 0 1 -1-1v-4a.99942.99942 0 0 1 1-1h4a.99942.99942 0 0 1 1 1v4a.99942.99942 0 0 1 -1 1zm-3-2h2v-2h-2z"/><path d="m44.99121 31.48047h-4a.99943.99943 0 0 1 -1-1v-4a.99942.99942 0 0 1 1-1h4a.99942.99942 0 0 1 1 1v4a.99942.99942 0 0 1 -1 1zm-3-2h2v-2h-2z"/><path d="m44.99121 23.48047h-4a.99943.99943 0 0 1 -1-1v-4a.99942.99942 0 0 1 1-1h4a.99942.99942 0 0 1 1 1v4a.99942.99942 0 0 1 -1 1zm-3-2h2v-2h-2z"/><path d="m48.99121 62.51953a15.01758 15.01758 0 1 1 15.01758-15.01753 15.03516 15.03516 0 0 1 -15.01758 15.01753zm0-28.03515a13.01758 13.01758 0 1 0 13.01758 13.01762 13.03256 13.03256 0 0 0 -13.01758-13.01762z"/><path d="m52 52.501h-2a.99928.99928 0 0 1 -.707-.293l-1.707-1.707h-.17188l-1.707 1.707a.99927.99927 0 0 1 -.707.293h-2.00012a3.00328 3.00328 0 0 1 -3-3v-4a3.00328 3.00328 0 0 1 3-3h9a3.00328 3.00328 0 0 1 3 3v4a3.00328 3.00328 0 0 1 -3 3zm-1.58594-2h1.58594a1.00068 1.00068 0 0 0 1-1v-4a1.00067 1.00067 0 0 0 -1-1h-9a1.00067 1.00067 0 0 0 -1 1v4a1.00068 1.00068 0 0 0 1 1h1.58594l1.707-1.707a.99928.99928 0 0 1 .70706-.293h1a.99927.99927 0 0 1 .707.293z"/><path d="m52 55.501a1 1 0 0 1 0-2 4.004 4.004 0 0 0 4-4 1 1 0 0 1 2 0 6.00657 6.00657 0 0 1 -6 6z"/><path d="m57 50.501a.99943.99943 0 0 1 -1-1v-9a1 1 0 0 1 2 0v9a.99943.99943 0 0 1 -1 1z"/><path d="m41 48.501h-1a1 1 0 0 1 0-2h1a1 1 0 0 1 0 2z"/><path d="m55 48.501h-1a1 1 0 0 1 0-2h1a1 1 0 0 1 0 2z"/></svg>