<svg id="icons" height="512" viewBox="0 0 64 64" width="512" xmlns="http://www.w3.org/2000/svg"><path d="m53 46v3a2.00588 2.00588 0 0 1 -2 2h-3l-2-2h-1l-2 2h-3a2.00588 2.00588 0 0 1 -2-2v-6a2.00588 2.00588 0 0 1 2-2h11a2.00588 2.00588 0 0 1 2 2z" fill="#5d9cec"/><path d="m63 3v18h-4v3l-6-3h-6v-8h-30v-10z" fill="#ccd1d9"/><path d="m47.01 29.02a15.99 15.99 0 1 1 -15.99 15.99v-.01a15.9727 15.9727 0 0 1 15.98-15.98zm3.99 21.98a2.00588 2.00588 0 0 0 2-2v-6a2.00588 2.00588 0 0 0 -2-2h-11a2.00588 2.00588 0 0 0 -2 2v6a2.00588 2.00588 0 0 0 2 2h3l2-2h1l2 2z" fill="#ed5565"/><path d="m39.29 31a15.98668 15.98668 0 0 0 -8.27 14h-17.02l-8 4v-4h-5v-32h46v16.02a15.95463 15.95463 0 0 0 -7.71 1.98z" fill="#e6e9ed"/><path d="m6 50a1.00061 1.00061 0 0 1 -1-1v-3h-4a.99943.99943 0 0 1 -1-1v-32a.99943.99943 0 0 1 1-1h46a.99943.99943 0 0 1 1 1v16.01465a1 1 0 1 1 -2 0v-15.01465h-44v30h4a.99943.99943 0 0 1 1 1v2.38184l6.55176-3.27637a1.0006 1.0006 0 0 1 .44724-.10547h17.01663a1 1 0 0 1 0 2h-16.78028l-7.78808 3.89453a1.003 1.003 0 0 1 -.44727.10547z"/><path d="m59 25a1.003 1.003 0 0 1 -.44727-.10547l-5.78808-2.89453h-5.76465a1 1 0 0 1 0-2h6.001a1.0006 1.0006 0 0 1 .44726.10547l4.55174 2.27637v-1.38184a.99943.99943 0 0 1 1-1h3v-16h-44v9a1 1 0 0 1 -2 0v-10a.99943.99943 0 0 1 1-1h46a.99943.99943 0 0 1 1 1v18a.99943.99943 0 0 1 -1 1h-3v2a1.00061 1.00061 0 0 1 -1 1z"/><path d="m27.01563 20h-20a1 1 0 0 1 0-2h20a1 1 0 0 1 0 2z"/><path d="m15.01563 24h-8a1 1 0 0 1 0-2h8a1 1 0 1 1 0 2z"/><path d="m41 24h-21.98437a1 1 0 0 1 0-2h21.98437a1 1 0 0 1 0 2z"/><path d="m18.01563 32h-11a1 1 0 0 1 0-2h11a1 1 0 0 1 0 2z"/><path d="m39.28711 32h-17.27148a1 1 0 0 1 0-2h17.27148a1 1 0 0 1 0 2z"/><path d="m30.01172 28h-22.99609a1 1 0 0 1 0-2h22.99609a1 1 0 0 1 0 2z"/><path d="m41 28h-6.98828a1 1 0 0 1 0-2h6.98828a1 1 0 0 1 0 2z"/><path d="m41 20h-9.98437a1 1 0 0 1 0-2h9.98437a1 1 0 0 1 0 2z"/><path d="m27.01563 36h-20a1 1 0 0 1 0-2h20a1 1 0 0 1 0 2z"/><path d="m15.01563 40h-8a1 1 0 0 1 0-2h8a1 1 0 1 1 0 2z"/><path d="m32.18359 40h-13.168a1 1 0 0 1 0-2h13.168a1 1 0 1 1 0 2z"/><path d="m34.53418 36h-3.51855a1 1 0 0 1 0-2h3.51855a1 1 0 0 1 0 2z"/><path d="m47.00781 62a16.99219 16.99219 0 1 1 16.99219-16.99219 17.01192 17.01192 0 0 1 -16.99219 16.99219zm0-31.98437a14.99219 14.99219 0 1 0 14.99219 14.99218 15.00931 15.00931 0 0 0 -14.99219-14.99218z"/><path d="m51 52h-3a.99928.99928 0 0 1 -.707-.293l-1.70706-1.707h-.17188l-1.707 1.707a.99927.99927 0 0 1 -.70706.293h-3a3.00328 3.00328 0 0 1 -3-3v-6a3.00328 3.00328 0 0 1 3-3h11a3.00328 3.00328 0 0 1 3 3v6a3.00328 3.00328 0 0 1 -3 3zm-2.58594-2h2.58594a1.00067 1.00067 0 0 0 1-1v-6a1.00067 1.00067 0 0 0 -1-1h-11a1.00067 1.00067 0 0 0 -1 1v6a1.00067 1.00067 0 0 0 1 1h2.58594l1.707-1.707a.99928.99928 0 0 1 .70706-.293h1a.99927.99927 0 0 1 .707.293z"/><path d="m51 55a1 1 0 0 1 0-2 4.004 4.004 0 0 0 4-4 1 1 0 0 1 2 0 6.00657 6.00657 0 0 1 -6 6z"/><path d="m56 50a.99943.99943 0 0 1 -1-1v-11a1 1 0 0 1 2 0v11a.99943.99943 0 0 1 -1 1z"/><path d="m38 47h-1a1 1 0 0 1 0-2h1a1 1 0 0 1 0 2z"/><path d="m54 47h-1a1 1 0 0 1 0-2h1a1 1 0 0 1 0 2z"/></svg>