<svg id="icons" height="512" viewBox="0 0 64 64" width="512" xmlns="http://www.w3.org/2000/svg"><path d="m52.79 23h4.21v7h-4v-4a21.18852 21.18852 0 0 0 -.21-3z" fill="#545c66"/><path d="m11.21 23a21.0083 21.0083 0 0 1 9.79-14.89 20.64407 20.64407 0 0 1 3-1.53c.33-.14.66-.27 1-.38v-.01a21.18324 21.18324 0 0 1 14 0v.01c.34.11.67.24 1 .38a20.64407 20.64407 0 0 1 3 1.53 20.92664 20.92664 0 0 1 10 17.89v4h.02l-5.39 15.48-6.67-2.48h-.02a8.99523 8.99523 0 0 0 -17.88 0l-6.67 2.48-5.39-15.48v-4a21.18852 21.18852 0 0 1 .21-3zm36.79 7v-8a7.9978 7.9978 0 0 0 -8-8h-16a7.9978 7.9978 0 0 0 -8 8v8a3.9989 3.9989 0 0 0 4 4h3l7-6h4l7 6h3a3.9989 3.9989 0 0 0 4-4z" fill="#656d78"/><path d="m48 22v8a3.9989 3.9989 0 0 1 -4 4h-3l-7-6h-4l-7 6h-3a3.9989 3.9989 0 0 1 -4-4v-8a7.9978 7.9978 0 0 1 8-8h16a7.9978 7.9978 0 0 1 8 8z" fill="#5d9cec"/><g fill="#545c66"><path d="m46 3-3 5.11a20.64407 20.64407 0 0 0 -3-1.53l3-5.11z"/><path d="m21 1.47 3 5.11a20.64407 20.64407 0 0 0 -3 1.53l-3-5.11z"/><path d="m7 23h4.21a21.18852 21.18852 0 0 0 -.21 3v4h-4z"/><path d="m36 1 3 5.19a21.18324 21.18324 0 0 0 -14 0l3-5.19z"/></g><path d="m47.63 45.48 1.39.52-3 7-4-1.65-3.29-1.35-.02-.01a8.97 8.97 0 0 0 2.29-5.99 8.26189 8.26189 0 0 0 -.06-1h.02z" fill="#aab2bd"/><circle cx="32" cy="44" fill="#aab2bd" r="5"/><path d="m25.29 50-3.29 1.35-4 1.65-3-7 1.39-.52 6.67-2.48a8.26189 8.26189 0 0 0 -.06 1 8.99572 8.99572 0 0 0 2.29 6z" fill="#aab2bd"/><path d="m42.02 51.35v2.65a3.9989 3.9989 0 0 1 -4 4h-12.02a3.9989 3.9989 0 0 1 -4-4v-2.65l3.29-1.35a8.994 8.994 0 0 0 13.42-.01l.02.01z" fill="#656d78"/><path d="m37 60-2 3h-6l-2-3a1.99309 1.99309 0 0 1 2-2h6a1.99309 1.99309 0 0 1 2 2z" fill="#545c66"/><path d="m40.94 43a8.26189 8.26189 0 0 1 .06 1 9 9 0 1 1 -18 0 8.26189 8.26189 0 0 1 .06-1 8.99522 8.99522 0 0 1 17.88 0zm-3.94 1a5 5 0 1 0 -5 5 5.00182 5.00182 0 0 0 5-5z" fill="#ccd1d9"/><path d="m53 31a.99974.99974 0 0 1 -1-1v-4a1 1 0 0 1 2 0v4a.99974.99974 0 0 1 -1 1z"/><path d="m57 31h-4a1 1 0 0 1 0-2h3v-5h-3.21387a1 1 0 0 1 0-2h4.21387a.99974.99974 0 0 1 1 1v7a.99974.99974 0 0 1 -1 1z"/><path d="m53 27a.99974.99974 0 0 1 -1-1 20 20 0 0 0 -40 0 1 1 0 0 1 -2 0 22 22 0 0 1 44 0 .99974.99974 0 0 1 -1 1z"/><path d="m16.38574 46.48438a.99981.99981 0 0 1 -.94433-.67188l-5.38575-15.48389a.99988.99988 0 0 1 1.88868-.65722l5.38574 15.48486a.99882.99882 0 0 1 -.61621 1.27246.98586.98586 0 0 1 -.32813.05567z"/><path d="m11 31a.99974.99974 0 0 1 -1-1v-4a1 1 0 0 1 2 0v4a.99974.99974 0 0 1 -1 1z"/><path d="m32 54a10 10 0 1 1 10-10 10.01177 10.01177 0 0 1 -10 10zm0-18a8 8 0 1 0 8 8 8.00917 8.00917 0 0 0 -8-8z"/><path d="m32 50a6 6 0 1 1 6-6 6.00657 6.00657 0 0 1 -6 6zm0-10a4 4 0 1 0 4 4 4.004 4.004 0 0 0 -4-4z"/><path d="m18 54a.99821.99821 0 0 1 -.91895-.60645l-3-7a.99968.99968 0 0 1 1.8379-.7871l3 7a.99945.99945 0 0 1 -.5254 1.3125.98325.98325 0 0 1 -.39355.08105z"/><path d="m18 54a1.00005 1.00005 0 0 1 -.38086-1.9248l7.292-3a1.00015 1.00015 0 1 1 .76172 1.8496l-7.292 3a1.0098 1.0098 0 0 1 -.38086.0752z"/><path d="m15 47a1.00008 1.00008 0 0 1 -.34863-1.9375l8.05566-3a1.00023 1.00023 0 0 1 .69727 1.875l-8.05567 3a1.011 1.011 0 0 1 -.34863.0625z"/><path d="m26 59a5.00588 5.00588 0 0 1 -5-5 1 1 0 0 1 2 0 3.00328 3.00328 0 0 0 3 3 1 1 0 0 1 0 2z"/><path d="m22 55a.99943.99943 0 0 1 -1-1v-2.64551a1 1 0 0 1 2 0v2.64551a.99943.99943 0 0 1 -1 1z"/><path d="m47.63281 46.48438a.98585.98585 0 0 1 -.32812-.05567.99882.99882 0 0 1 -.61621-1.27246l5.38574-15.48486a.99988.99988 0 0 1 1.88867.65722l-5.38574 15.48389a.99983.99983 0 0 1 -.94434.67188z"/><path d="m46.01855 54a.98332.98332 0 0 1 -.39355-.081.99945.99945 0 0 1 -.52539-1.3125l3-7a.99967.99967 0 1 1 1.83789.7871l-3 7a.99821.99821 0 0 1 -.91895.6064z"/><path d="m46.01855 54a1.00975 1.00975 0 0 1 -.38085-.0752l-7.291-3a1.00015 1.00015 0 1 1 .76172-1.8496l7.291 3a1.00005 1.00005 0 0 1 -.38087 1.9248z"/><path d="m49.01855 47a1.01107 1.01107 0 0 1 -.34863-.0625l-8.05566-3a1.00022 1.00022 0 1 1 .69726-1.875l8.05567 3a1.00009 1.00009 0 0 1 -.34864 1.9375z"/><path d="m38.01855 59a1 1 0 0 1 0-2 3.00328 3.00328 0 0 0 3-3 1 1 0 0 1 2 0 5.00588 5.00588 0 0 1 -5 5z"/><path d="m42.01855 55a.99943.99943 0 0 1 -1-1v-2.64551a1 1 0 0 1 2 0v2.64551a.99942.99942 0 0 1 -1 1z"/><path d="m38 59h-12a1 1 0 0 1 0-2h12a1 1 0 0 1 0 2z"/><path d="m27 61a.99943.99943 0 0 1 -1-1 3.00328 3.00328 0 0 1 3-3 1 1 0 0 1 0 2 1.00067 1.00067 0 0 0 -1 1 .99943.99943 0 0 1 -1 1z"/><path d="m37 61a.99943.99943 0 0 1 -1-1 1.00067 1.00067 0 0 0 -1-1 1 1 0 0 1 0-2 3.00328 3.00328 0 0 1 3 3 .99943.99943 0 0 1 -1 1z"/><path d="m29.001 64a.99845.99845 0 0 1 -.833-.44531l-2-3a1 1 0 1 1 1.664-1.10938l2 3a1 1 0 0 1 -.831 1.55469z"/><path d="m34.999 64a1 1 0 0 1 -.83105-1.55469l2-3a1 1 0 1 1 1.66405 1.10938l-2 3a.99845.99845 0 0 1 -.833.44531z"/><path d="m35 64h-6a1 1 0 0 1 0-2h6a1 1 0 0 1 0 2z"/><path d="m11 30.99951h-4a.99974.99974 0 0 1 -1-1v-7a.99974.99974 0 0 1 1-1h4.21387a1 1 0 0 1 0 2h-3.21387v5h3a1 1 0 0 1 0 2z"/><path d="m24.999 7.19482a.9999.9999 0 0 1 -.86523-1.5l3-5.19482a1.00016 1.00016 0 1 1 1.73242 1l-3 5.19482a1.00008 1.00008 0 0 1 -.86719.5z"/><path d="m39.001 7.19482a1.00008 1.00008 0 0 1 -.86719-.5l-3-5.19482a1.00016 1.00016 0 0 1 1.73242-1l3 5.19482a.9999.9999 0 0 1 -.86523 1.5z"/><path d="m36 2h-8a1 1 0 0 1 0-2h8a1 1 0 0 1 0 2z"/><path d="m42.999 9.10791a.99968.99968 0 0 1 -.86132-1.50635l3-5.10791a1 1 0 1 1 1.7246 1.0127l-3 5.10791a.99961.99961 0 0 1 -.86328.49365z"/><path d="m40 7.57813a.99969.99969 0 0 1 -.86133-1.50635l2.999-5.106a1 1 0 1 1 1.7246 1.0127l-2.999 5.106a.99961.99961 0 0 1 -.86327.49365z"/><path d="m45.999 4a.995.995 0 0 1 -.45312-.10889l-3-1.52783a1.00015 1.00015 0 0 1 .90822-1.78223l3 1.52784a1.00025 1.00025 0 0 1 -.4551 1.89111z"/><path d="m21.001 9.10791a.99961.99961 0 0 1 -.86328-.49365l-3-5.10791a1 1 0 1 1 1.7246-1.0127l3 5.10791a.99968.99968 0 0 1 -.86132 1.50635z"/><path d="m24 7.57813a.99961.99961 0 0 1 -.86328-.49366l-2.999-5.10595a1 1 0 1 1 1.72458-1.0127l2.999 5.106a.99969.99969 0 0 1 -.8613 1.50631z"/><path d="m18.001 4a1.00025 1.00025 0 0 1 -.45508-1.89111l3-1.52784a1.00015 1.00015 0 0 1 .9082 1.78223l-3 1.52783a.995.995 0 0 1 -.45312.10889z"/><path d="m48 23a.99974.99974 0 0 1 -1-1 7.00818 7.00818 0 0 0 -7-7 1 1 0 0 1 0-2 9.01016 9.01016 0 0 1 9 9 .99974.99974 0 0 1 -1 1z"/><path d="m48 31a.99974.99974 0 0 1 -1-1v-8a1 1 0 0 1 2 0v8a.99974.99974 0 0 1 -1 1z"/><path d="m44 35a1 1 0 0 1 0-2 3.00328 3.00328 0 0 0 3-3 1 1 0 0 1 2 0 5.00588 5.00588 0 0 1 -5 5z"/><path d="m44 35h-3a1 1 0 0 1 0-2h3a1 1 0 0 1 0 2z"/><path d="m41 35a.99373.99373 0 0 1 -.65039-.24121l-7-5.99951a.99976.99976 0 0 1 1.30078-1.51856l7 6.00049a.99994.99994 0 0 1 -.65039 1.75879z"/><path d="m16 23a.99974.99974 0 0 1 -1-1 9.01016 9.01016 0 0 1 9-9 1 1 0 0 1 0 2 7.00818 7.00818 0 0 0 -7 7 .99974.99974 0 0 1 -1 1z"/><path d="m16 31a.99974.99974 0 0 1 -1-1v-8a1 1 0 0 1 2 0v8a.99974.99974 0 0 1 -1 1z"/><path d="m20 35a5.00588 5.00588 0 0 1 -5-5 1 1 0 0 1 2 0 3.00328 3.00328 0 0 0 3 3 1 1 0 0 1 0 2z"/><path d="m23 35h-3a1 1 0 0 1 0-2h3a1 1 0 0 1 0 2z"/><path d="m23 35a.99994.99994 0 0 1 -.65039-1.75879l7-6.00049a.99976.99976 0 0 1 1.30078 1.51856l-7 5.99951a.99373.99373 0 0 1 -.65039.24121z"/><path d="m34 29h-4a1 1 0 0 1 0-2h4a1 1 0 0 1 0 2z"/><path d="m40 15h-16a1 1 0 0 1 0-2h16a1 1 0 0 1 0 2z"/></svg>