<svg id="icons" height="512" viewBox="0 0 64 64" width="512" xmlns="http://www.w3.org/2000/svg"><path d="m36 13v2a2.00588 2.00588 0 0 1 -2 2h-2l-1-1h-1l-1 1h-2a2.00588 2.00588 0 0 1 -2-2v-4a2.00588 2.00588 0 0 1 2-2h7a2.00588 2.00588 0 0 1 2 2z" fill="#5d9cec"/><path d="m25 13v2a2.00588 2.00588 0 0 0 2 2h2l1-1h1l1 1h2a2.00588 2.00588 0 0 0 2-2v-4a2.00588 2.00588 0 0 0 -2-2h-7a2.00588 2.00588 0 0 0 -2 2zm7-12a12 12 0 1 1 -12 12 11.99669 11.99669 0 0 1 12-12z" fill="#ed5565"/><path d="m62 49v1a3.9989 3.9989 0 0 1 -4-4h1a2.996 2.996 0 0 1 3 3z" fill="#656d78"/><path d="m50 46v-3.69a6.84412 6.84412 0 0 0 3 .68v4.01c-1.66 0-3-.45-3-1z" fill="#656d78"/><path d="m36 51.07v3.93c0 1.11-1.79 2-4 2v-5a8.95628 8.95628 0 0 0 4-.94z" fill="#545c66"/><path d="m32 52v5c-2.21 0-4-.89-4-2v-3.94a8.95628 8.95628 0 0 0 4 .94z" fill="#656d78"/><path d="m56 42.32v3.68c0 .55-1.34 1-3 1v-4.01a6.83277 6.83277 0 0 0 2.99-.68z" fill="#545c66"/><path d="m54 33a7.97465 7.97465 0 0 1 6 2.71v.29a6.96471 6.96471 0 0 1 -4.01 6.31 6.93559 6.93559 0 0 1 -5.99 0 6.9558 6.9558 0 0 1 -4-6.31v-3a2.996 2.996 0 0 0 3-3 2.996 2.996 0 0 0 3 3z" fill="#eac6bb"/><path d="m62 31v10a8.00242 8.00242 0 0 0 -8-8h-2a2.996 2.996 0 0 1 -3-3v-5a8.18663 8.18663 0 0 1 5-2 7.9978 7.9978 0 0 1 8 8z" fill="#e9573f"/><path d="m50 46c0 .55 1.34 1 3 1s3-.45 3-1h2a3.9989 3.9989 0 0 0 4 4v3.03h-18v-3.03a3.9989 3.9989 0 0 0 4-4z" fill="#434a54"/><path d="m49 30a2.996 2.996 0 0 1 -3 3v-5a2.99384 2.99384 0 0 1 3-2.99z" fill="#fc6e51"/><path d="m47 46h1a3.9989 3.9989 0 0 1 -4 4v-1a2.996 2.996 0 0 1 3-3z" fill="#656d78"/><path d="m44 60v1a5.992 5.992 0 0 1 -6-6h1a5.00182 5.00182 0 0 1 5 5z" fill="#656d78"/><path d="m44 63h-24v-2a5.992 5.992 0 0 0 6-6h2c0 1.11 1.79 2 4 2s4-.89 4-2h2a5.992 5.992 0 0 0 6 6z" fill="#434a54"/><path d="m25 55h1a5.992 5.992 0 0 1 -6 6v-1a5.00182 5.00182 0 0 1 5-5z" fill="#656d78"/><path d="m41 40.03v2.97a9.00008 9.00008 0 0 1 -18 .05v-3.02l3-2.03a23.0982 23.0982 0 0 0 6.5 1 13.3235 13.3235 0 0 0 5.5-1z" fill="#eac6bb"/><path d="m14 42.32v3.68c0 .55-1.34 1-3 1v-4.01a6.84412 6.84412 0 0 0 3-.68z" fill="#545c66"/><path d="m23 37a7.99718 7.99718 0 0 1 7.59-7.99l.41.01h6v3.98a3.9989 3.9989 0 0 1 4 4v3.03l-3-2.03a13.3235 13.3235 0 0 1 -5.5 1 23.0982 23.0982 0 0 1 -6.5-1l-3 2.03z" fill="#965353"/><path d="m18 32.87v3.13a6.9558 6.9558 0 0 1 -4 6.31 6.95765 6.95765 0 0 1 -6 0 6.9558 6.9558 0 0 1 -4-6.31v-3.86c5.81.67 8.13-1.27 10-1.66 1.24-.26 2.28.15 4 2.39z" fill="#eac6bb"/><path d="m18 31.5v1.37c-1.72-2.24-2.76-2.65-4-2.39l2-4.06a7.43317 7.43317 0 0 1 2 5.08z" fill="#f6bb42"/><path d="m20 49v1a3.9989 3.9989 0 0 1 -4-4h1a2.996 2.996 0 0 1 3 3z" fill="#656d78"/><path d="m4 32.14c-.32-.04-.65-.08-1-.14v-.5a7.50274 7.50274 0 0 1 7.5-7.5 7.41983 7.41983 0 0 1 5.5 2.42l-2 4.06c-1.87.39-4.19 2.33-10 1.66z" fill="#ffce54"/><path d="m8 46v-3.69a6.84412 6.84412 0 0 0 3 .68v4.01c-1.66 0-3-.45-3-1z" fill="#656d78"/><path d="m6 46a3.9989 3.9989 0 0 1 -4 4v-1a2.996 2.996 0 0 1 3-3z" fill="#656d78"/><path d="m16 46a3.9989 3.9989 0 0 0 4 4v3.03h-18v-3.03a3.9989 3.9989 0 0 0 4-4h2c0 .55 1.34 1 3 1s3-.45 3-1z" fill="#434a54"/><path d="m4.001 37.002a.99942.99942 0 0 1 -1-1v-3.86723a1 1 0 1 1 2 0v3.86723a.99942.99942 0 0 1 -1 1z"/><path d="m18.001 37.002a.99942.99942 0 0 1 -1-1v-4.5a1 1 0 0 1 2 0v4.5a.99942.99942 0 0 1 -1 1z"/><path d="m18.001 32.502a.99942.99942 0 0 1 -1-1 6.5 6.5 0 1 0 -13 0 1 1 0 0 1 -2 0 8.5 8.5 0 1 1 17 0 .99942.99942 0 0 1 -1 1z"/><path d="m18.002 33.87305a.99942.99942 0 0 1 -.79492-.3916c-1.93071-2.52345-2.45608-2.31245-4.41408-1.53809a16.85787 16.85787 0 0 1 -9.94824 1.042.99959.99959 0 1 1 .3125-1.97461 14.89491 14.89491 0 0 0 8.89941-.92676c2.4082-.95507 4.02441-1.36328 6.73828 2.18067a.99994.99994 0 0 1 -.793 1.6084z"/><path d="m14 31.47852a1.00025 1.00025 0 0 1 -.89648-1.44043l2-4.07227a.99971.99971 0 1 1 1.79492.88086l-2 4.07227a.99959.99959 0 0 1 -.89844.55957z"/><path d="m2.001 49.99805a.99942.99942 0 0 1 -1-1 4.004 4.004 0 0 1 4-4 1 1 0 0 1 0 2 2.0026 2.0026 0 0 0 -2 2 .99943.99943 0 0 1 -1 1z"/><path d="m8.001 47.00391h-3a1 1 0 1 1 0-2h3a1 1 0 0 1 0 2z"/><path d="m2.001 54.002a.99942.99942 0 0 1 -1-1v-4.0039a1 1 0 0 1 2 0v4.0039a.99942.99942 0 0 1 -1 1z"/><path d="m20.001 49.99805a.99942.99942 0 0 1 -1-1 2.0026 2.0026 0 0 0 -2-2 1 1 0 0 1 0-2 4.004 4.004 0 0 1 4 4 .99943.99943 0 0 1 -1 1z"/><path d="m17.001 47.00391h-3a1 1 0 1 1 0-2h3a1 1 0 0 1 0 2z"/><path d="m20.001 54.002a.99942.99942 0 0 1 -1-1v-4.0039a1 1 0 0 1 2 0v4.0039a.99942.99942 0 0 1 -1 1z"/><path d="m8.001 47.00391a.99942.99942 0 0 1 -1-1v-3.6836a1 1 0 0 1 2 0v3.6836a.99943.99943 0 0 1 -1 1z"/><path d="m14.001 46.99805a.99942.99942 0 0 1 -1-1v-3.67774a1 1 0 0 1 2 0v3.67774a.99943.99943 0 0 1 -1 1z"/><path d="m11.001 43.99414a8.00707 8.00707 0 0 1 -8-7.99609 1 1 0 0 1 2 0 6 6 0 0 0 12 0 1 1 0 0 1 2 0 8.00708 8.00708 0 0 1 -8 7.99609z"/><path d="m45.999 37.002a.99942.99942 0 0 1 -1-1v-8.0039a1 1 0 0 1 2 0v8.0039a.99942.99942 0 0 1 -1 1z"/><path d="m59.999 37.002a.99942.99942 0 0 1 -1-1v-.293a1 1 0 0 1 2 0v.293a.99942.99942 0 0 1 -1 1z"/><path d="m43.999 49.99805a.99943.99943 0 0 1 -1-1 4.004 4.004 0 0 1 4-4 1 1 0 0 1 0 2 2.0026 2.0026 0 0 0 -2 2 .99942.99942 0 0 1 -1 1z"/><path d="m49.999 47.00391h-3a1 1 0 0 1 0-2h3a1 1 0 0 1 0 2z"/><path d="m43.999 54.002a.99942.99942 0 0 1 -1-1v-4.0039a1 1 0 0 1 2 0v4.0039a.99942.99942 0 0 1 -1 1z"/><path d="m61.999 49.99805a.99943.99943 0 0 1 -1-1 2.0026 2.0026 0 0 0 -2-2 1 1 0 0 1 0-2 4.004 4.004 0 0 1 4 4 .99942.99942 0 0 1 -1 1z"/><path d="m58.999 47.00391h-3a1 1 0 0 1 0-2h3a1 1 0 0 1 0 2z"/><path d="m61.999 54.002a.99942.99942 0 0 1 -1-1v-4.0039a1 1 0 0 1 2 0v4.0039a.99942.99942 0 0 1 -1 1z"/><path d="m49.999 47.00391a.99943.99943 0 0 1 -1-1v-3.6836a1 1 0 0 1 2 0v3.6836a.99942.99942 0 0 1 -1 1z"/><path d="m55.999 46.99805a.99943.99943 0 0 1 -1-1v-3.67774a1 1 0 0 1 2 0v3.67774a.99942.99942 0 0 1 -1 1z"/><path d="m52.999 43.99414a8.00708 8.00708 0 0 1 -8-7.99609 1 1 0 0 1 2 0 6 6 0 0 0 12 0 1 1 0 0 1 2 0 8.00707 8.00707 0 0 1 -8 7.99609z"/><path d="m20 61.002a.99942.99942 0 0 1 -1-1 6.00657 6.00657 0 0 1 6-6 1 1 0 0 1 0 2 4.004 4.004 0 0 0 -4 4 .99942.99942 0 0 1 -1 1z"/><path d="m28 56.002h-3a1 1 0 1 1 0-2h3a1 1 0 0 1 0 2z"/><path d="m20 64.00195a.99942.99942 0 0 1 -1-1v-3a1 1 0 1 1 2 0v3a.99942.99942 0 0 1 -1 1z"/><path d="m44 61.002a.99942.99942 0 0 1 -1-1 4.004 4.004 0 0 0 -4-4 1 1 0 0 1 0-2 6.00657 6.00657 0 0 1 6 6 .99942.99942 0 0 1 -1 1z"/><path d="m39 56.002h-3a1 1 0 0 1 0-2h3a1 1 0 0 1 0 2z"/><path d="m44 64.00195a.99942.99942 0 0 1 -1-1v-3a1 1 0 1 1 2 0v3a.99942.99942 0 0 1 -1 1z"/><path d="m28 56.002a.99942.99942 0 0 1 -1-1v-3.93559a1 1 0 1 1 2 0v3.93559a.99942.99942 0 0 1 -1 1z"/><path d="m36 56.002a.99942.99942 0 0 1 -1-1v-3.93559a1 1 0 1 1 2 0v3.93559a.99942.99942 0 0 1 -1 1z"/><path d="m31.999 53.002a10.00989 10.00989 0 0 1 -9.999-9.99809 1 1 0 1 1 2 0 8 8 0 0 0 16 0 1 1 0 1 1 2 0 10.01094 10.01094 0 0 1 -10.001 9.99809z"/><path d="m23 44.05273a.99942.99942 0 0 1 -1-1v-6.05073a1 1 0 0 1 2 0v6.05078a.99942.99942 0 0 1 -1 .99995z"/><path d="m41 44.00391a.99943.99943 0 0 1 -1-1v-6.00191a1 1 0 1 1 2 0v6.002a.99943.99943 0 0 1 -1 .99991z"/><path d="m41 38.002a.99942.99942 0 0 1 -1-1 3.00328 3.00328 0 0 0 -3-3 1 1 0 0 1 0-2 5.00589 5.00589 0 0 1 5 5 .99942.99942 0 0 1 -1 1z"/><path d="m37 34.002a.99942.99942 0 0 1 -1-1v-4a1 1 0 1 1 2 0v4a.99942.99942 0 0 1 -1 1z"/><path d="m37 30.01563h-6a1 1 0 0 1 0-2h6a1 1 0 0 1 0 2z"/><path d="m23 38.002a.99942.99942 0 0 1 -1-1 9.00984 9.00984 0 0 1 9-9 1 1 0 0 1 0 2 7.0085 7.0085 0 0 0 -7 7 .99942.99942 0 0 1 -1 1z"/><path d="m40.999 41.02734a1.00042 1.00042 0 0 1 -.55859-.17089l-3-2.0254a1.00026 1.00026 0 0 1 1.11914-1.6582l3 2.02539a1.00006 1.00006 0 0 1 -.56055 1.8291z"/><path d="m32.5 40.002a23.93192 23.93192 0 0 1 -6.81543-1.05078 1.0001 1.0001 0 0 1 .62988-1.89844 22.27016 22.27016 0 0 0 6.18555.94922 12.60144 12.60144 0 0 0 5.05859-.89746 1.00036 1.00036 0 0 1 .8877 1.793 14.26786 14.26786 0 0 1 -5.94629 1.10446z"/><path d="m23.001 41.02734a1.00006 1.00006 0 0 1 -.56055-1.8291l3-2.02539a1.00026 1.00026 0 1 1 1.11914 1.6582l-3 2.0254a1.00042 1.00042 0 0 1 -.55859.17089z"/><path d="m61.999 31.99805a.99943.99943 0 0 1 -1-1 7.00848 7.00848 0 0 0 -7-7 7.29454 7.29454 0 0 0 -4.374 1.78027 1.00034 1.00034 0 1 1 -1.252-1.56055 9.10637 9.10637 0 0 1 5.626-2.21972 9.00984 9.00984 0 0 1 9 9 .99942.99942 0 0 1 -1 1z"/><path d="m61.999 41.99805a.99943.99943 0 0 1 -1-1 7.00848 7.00848 0 0 0 -7-7 1 1 0 0 1 0-2 9.00984 9.00984 0 0 1 9 9 .99942.99942 0 0 1 -1 1z"/><path d="m45.999 33.99805a1 1 0 0 1 0-2 2.0026 2.0026 0 0 0 2-2 1 1 0 0 1 2 0 4.004 4.004 0 0 1 -4 4z"/><path d="m45.999 29.01172a.99943.99943 0 0 1 -1-1 4.004 4.004 0 0 1 4-4 1 1 0 0 1 0 2 2.0026 2.0026 0 0 0 -2 2 .99942.99942 0 0 1 -1 1z"/><path d="m51.999 33.99805a4.004 4.004 0 0 1 -4-4 1 1 0 0 1 2 0 2.0026 2.0026 0 0 0 2 2 1 1 0 0 1 0 2z"/><path d="m48.999 30.99805a.99943.99943 0 0 1 -1-1v-5a1 1 0 0 1 2 0v5a.99942.99942 0 0 1 -1 1z"/><path d="m61.999 41.99805a.99943.99943 0 0 1 -1-1v-10a1 1 0 0 1 2 0v10a.99942.99942 0 0 1 -1 1z"/><path d="m53.999 33.99805h-2a1 1 0 0 1 0-2h2a1 1 0 0 1 0 2z"/><path d="m3.001 32.99805a.99942.99942 0 0 1 -1-1v-.49605a1 1 0 0 1 2 0v.4961a.99943.99943 0 0 1 -1 .99995z"/><path d="m11 48c-1.93359 0-3.999-.52441-3.999-1.99707a1.00044 1.00044 0 0 1 1.93945-.34473 5.14548 5.14548 0 0 0 2.05955.3418 5.02667 5.02667 0 0 0 2.06055-.3418 1.00044 1.00044 0 0 1 1.93945.34473c0 1.47266-2.06641 1.99707-4 1.99707z"/><path d="m11.001 51a.99942.99942 0 0 1 -1-1v-7.00586a1 1 0 0 1 2 0v7.00586a.99943.99943 0 0 1 -1 1z"/><path d="m20.001 50.999a5.00629 5.00629 0 0 1 -5.001-5.00095 1 1 0 0 1 2 0 3.005 3.005 0 0 0 3.001 3.001 1 1 0 0 1 0 2z"/><path d="m1.999 50.999a1 1 0 0 1 0-2 3.005 3.005 0 0 0 3.001-3.00095 1 1 0 0 1 2 0 5.00629 5.00629 0 0 1 -5.001 5.00095z"/><path d="m53 48c-1.93359 0-3.999-.52441-3.999-1.99707a1.00044 1.00044 0 0 1 1.93945-.34473 5.14548 5.14548 0 0 0 2.05955.3418 5.02667 5.02667 0 0 0 2.06055-.3418 1.00044 1.00044 0 0 1 1.93945.34473c0 1.47266-2.06641 1.99707-4 1.99707z"/><path d="m53.001 51a.99942.99942 0 0 1 -1-1v-7.00586a1 1 0 0 1 2 0v7.00586a.99943.99943 0 0 1 -1 1z"/><path d="m62.001 50.999a5.00629 5.00629 0 0 1 -5.001-5.00095 1 1 0 0 1 2 0 3.005 3.005 0 0 0 3.001 3.001 1 1 0 0 1 0 2z"/><path d="m43.999 50.999a1 1 0 0 1 0-2 3.005 3.005 0 0 0 3.001-3.00095 1 1 0 0 1 2 0 5.00629 5.00629 0 0 1 -5.001 5.00095z"/><path d="m32 58.002c-2.85059 0-5-1.29-5-3a1 1 0 1 1 2 0c0 .249 1.06445 1 3 1s3-.751 3-1a1 1 0 1 1 2 0c0 1.70991-2.14941 3-5 3z"/><path d="m31.999 62a.99943.99943 0 0 1 -1-1v-8.998a1 1 0 1 1 2 0v8.998a.99942.99942 0 0 1 -1 1z"/><path d="m43.99805 62a7.00641 7.00641 0 0 1 -6.99805-6.998 1 1 0 1 1 2 0 5.00381 5.00381 0 0 0 4.99805 4.998 1 1 0 1 1 0 2z"/><path d="m20.001 62a1 1 0 0 1 0-2 5.0038 5.0038 0 0 0 4.998-4.998 1 1 0 1 1 2 0 7.0064 7.0064 0 0 1 -6.998 6.998z"/><path d="m32 25.99805a13 13 0 1 1 13-13 13.01505 13.01505 0 0 1 -13 13zm0-24a11 11 0 1 0 11 11 11.01245 11.01245 0 0 0 -11-11z"/><path d="m34.00293 18h-2a.99927.99927 0 0 1 -.707-.293l-.707-.707h-.17193l-.707.707a.99928.99928 0 0 1 -.707.293h-2a3.00328 3.00328 0 0 1 -3-3v-4a3.00328 3.00328 0 0 1 3-3h7a3.00328 3.00328 0 0 1 3 3v4a3.00328 3.00328 0 0 1 -3.00007 3zm-1.58593-2h1.58594a1.00067 1.00067 0 0 0 1-1v-4a1.00067 1.00067 0 0 0 -1-1h-7a1.00067 1.00067 0 0 0 -1 1v4a1.00067 1.00067 0 0 0 1 1h1.58594l.707-.707a.99927.99927 0 0 1 .707-.293h1a.99928.99928 0 0 1 .707.293z"/><path d="m34.00293 21a1 1 0 0 1 0-2 4.004 4.004 0 0 0 4-4 1 1 0 0 1 2 0 6.00657 6.00657 0 0 1 -6 6z"/><path d="m39.00293 16a.99943.99943 0 0 1 -1-1v-6a1 1 0 0 1 2 0v6a.99943.99943 0 0 1 -1 1z"/><path d="m25.00293 14h-1a1 1 0 0 1 0-2h1a1 1 0 0 1 0 2z"/><path d="m37.00293 14h-1a1 1 0 0 1 0-2h1a1 1 0 0 1 0 2z"/></svg>