<svg id="icons" height="512" viewBox="0 0 64 64" width="512" xmlns="http://www.w3.org/2000/svg"><path d="m37 15v2a2.00588 2.00588 0 0 1 -2 2h-2l-2-2h-1l-2 2h-2a2.00588 2.00588 0 0 1 -2-2v-4a2.00588 2.00588 0 0 1 2-2h9a2.00588 2.00588 0 0 1 2 2z" fill="#5d9cec"/><path d="m37 15v-2a2.00588 2.00588 0 0 0 -2-2h-9a2.00588 2.00588 0 0 0 -2 2v4a2.00588 2.00588 0 0 0 2 2h2l2-2h1l2 2h2a2.00588 2.00588 0 0 0 2-2zm9.01 0a13.99154 13.99154 0 0 1 -12.02 13.84l-1.99 1.99-1.99-1.99a13.99239 13.99239 0 1 1 16-13.84z" fill="#ed5565"/><path d="m60 37.01v25.99h-28a3.9989 3.9989 0 0 1 4-4h21v-21.99z" fill="#656d78"/><path d="m32 37.01v25.99a3.9989 3.9989 0 0 0 -4-4h-21v-25.99h21a3.9989 3.9989 0 0 1 4 4z" fill="#f5f7fa"/><path d="m7 59h21a3.9989 3.9989 0 0 1 4 4h-28v-25.99h3z" fill="#656d78"/><path d="m36 59a3.9989 3.9989 0 0 0 -4 4v-25.99a3.9989 3.9989 0 0 1 4-4h21v25.99z" fill="#e6e9ed"/><path d="m59.99707 64.00391h-55.99414a.99943.99943 0 0 1 -1-1v-25.99024a.99943.99943 0 0 1 1-1h2.99907a1 1 0 1 1 0 2h-1.999v23.99024h53.99407v-23.99024h-1.999a1 1 0 0 1 0-2h2.999a.99943.99943 0 0 1 1 1v25.99024a.99943.99943 0 0 1 -1 1z"/><path d="m32 38.01367a.99942.99942 0 0 1 -1-1 5.00692 5.00692 0 0 1 5-5.002 1 1 0 0 1 0 2 3.00432 3.00432 0 0 0 -3 3.002.99942.99942 0 0 1 -1 1z"/><path d="m56.99805 34.01172h-20.99805a1 1 0 0 1 0-2h20.99805a1 1 0 1 1 0 2z"/><path d="m32 64.00391a.99943.99943 0 0 1 -1-1 5.00588 5.00588 0 0 1 5-5 1 1 0 0 1 0 2 3.00328 3.00328 0 0 0 -3 3 .99943.99943 0 0 1 -1 1z"/><path d="m56.99805 60.00391h-20.99805a1 1 0 0 1 0-2h20.99805a1 1 0 0 1 0 2z"/><path d="m56.99805 60.00391a.99942.99942 0 0 1 -1-1v-25.99219a1 1 0 0 1 2 0v25.99219a.99943.99943 0 0 1 -1 1z"/><path d="m32 38.01367a.99942.99942 0 0 1 -1-1 3.00432 3.00432 0 0 0 -3-3.002 1 1 0 0 1 0-2 5.00692 5.00692 0 0 1 5 5.002.99942.99942 0 0 1 -1 1z"/><path d="m28 34.01172h-20.998a1 1 0 0 1 0-2h20.998a1 1 0 0 1 0 2z"/><path d="m32 64.00391a.99943.99943 0 0 1 -1-1 3.00328 3.00328 0 0 0 -3-3 1 1 0 1 1 0-2 5.00588 5.00588 0 0 1 5 5 .99943.99943 0 0 1 -1 1z"/><path d="m28 60.00391h-20.998a1 1 0 0 1 0-2h20.998a1 1 0 0 1 0 2z"/><path d="m7.002 60.00391a.99943.99943 0 0 1 -1-1v-25.99219a1 1 0 0 1 2 0v25.99219a.99942.99942 0 0 1 -1 1z"/><path d="m32 64.00391a.99943.99943 0 0 1 -1-1v-25.99024a1 1 0 1 1 2 0v25.99024a.99943.99943 0 0 1 -1 1z"/><path d="m19.002 47.01563h-7a1 1 0 0 1 0-2h7a1 1 0 1 1 0 2z"/><path d="m27 47.01563h-3.998a1 1 0 0 1 0-2h3.998a1 1 0 0 1 0 2z"/><path d="m27 43.01367h-10.998a1 1 0 0 1 0-2h10.998a1 1 0 0 1 0 2z"/><path d="m13.002 43.01367h-1a1 1 0 0 1 0-2h1a1 1 0 0 1 0 2z"/><path d="m22 51.01758h-9.998a1 1 0 0 1 0-2h9.998a1 1 0 1 1 0 2z"/><path d="m27 51.01758h-1a1 1 0 0 1 0-2h1a1 1 0 1 1 0 2z"/><path d="m16.002 55.01953h-4a1 1 0 1 1 0-2h4a1 1 0 0 1 0 2z"/><path d="m27 55.01953h-6.998a1 1 0 1 1 0-2h6.998a1 1 0 0 1 0 2z"/><path d="m16.002 39.00391h-4a1 1 0 0 1 0-2h4a1 1 0 0 1 0 2z"/><path d="m27 39.00391h-6.998a1 1 0 0 1 0-2h6.998a1 1 0 0 1 0 2z"/><path d="m52.01465 47.00781h-7a1 1 0 0 1 0-2h7a1 1 0 0 1 0 2z"/><path d="m41.01465 47.00781h-3.99805a1 1 0 0 1 0-2h3.99805a1 1 0 0 1 0 2z"/><path d="m48.01465 43.00586h-10.99805a1 1 0 0 1 0-2h10.99805a1 1 0 0 1 0 2z"/><path d="m52.01465 43.00586h-1a1 1 0 0 1 0-2h1a1 1 0 0 1 0 2z"/><path d="m52.01465 51.00977h-9.99805a1 1 0 0 1 0-2h9.99805a1 1 0 0 1 0 2z"/><path d="m38.0166 51.00977h-1a1 1 0 0 1 0-2h1a1 1 0 0 1 0 2z"/><path d="m52.01465 55.01172h-4a1 1 0 0 1 0-2h4a1 1 0 0 1 0 2z"/><path d="m44.01465 55.01172h-6.99805a1 1 0 0 1 0-2h6.99805a1 1 0 0 1 0 2z"/><path d="m52.01465 38.99609h-4a1 1 0 0 1 0-2h4a1 1 0 0 1 0 2z"/><path d="m44.01465 38.99609h-6.99805a1 1 0 0 1 0-2h6.99805a1 1 0 0 1 0 2z"/><path d="m32 31.82813a.99928.99928 0 0 1 -.707-.293l-1.76074-1.76075a15.00049 15.00049 0 1 1 4.93066.00391l-1.75592 1.75687a.99927.99927 0 0 1 -.707.29297zm.00977-29.832a12.991 12.991 0 0 0 -1.85938 25.84957.9978.9978 0 0 1 .56543.28321l1.28418 1.28418 1.28027-1.28028a.99746.99746 0 0 1 .56641-.2832 12.99141 12.99141 0 0 0 -1.83691-25.85352z"/><path d="m35 20h-2a.99928.99928 0 0 1 -.707-.293l-1.70706-1.707h-.17188l-1.707 1.707a.99927.99927 0 0 1 -.70706.293h-2a3.00328 3.00328 0 0 1 -3-3v-4a3.00328 3.00328 0 0 1 3-3h9a3.00328 3.00328 0 0 1 3 3v4a3.00328 3.00328 0 0 1 -3 3zm-1.58594-2h1.58594a1.00067 1.00067 0 0 0 1-1v-4a1.00067 1.00067 0 0 0 -1-1h-9a1.00067 1.00067 0 0 0 -1 1v4a1.00067 1.00067 0 0 0 1 1h1.58594l1.707-1.707a.99928.99928 0 0 1 .70706-.293h1a.99927.99927 0 0 1 .707.293z"/><path d="m35 23a1 1 0 0 1 0-2 4.004 4.004 0 0 0 4-4 1 1 0 0 1 2 0 6.00657 6.00657 0 0 1 -6 6z"/><path d="m40 18a.99943.99943 0 0 1 -1-1v-8a1 1 0 0 1 2 0v8a.99943.99943 0 0 1 -1 1z"/><path d="m24 16h-1a1 1 0 0 1 0-2h1a1 1 0 0 1 0 2z"/><path d="m38 16h-1a1 1 0 0 1 0-2h1a1 1 0 0 1 0 2z"/></svg>