<svg id="icons" height="512" viewBox="0 0 64 64" width="512" xmlns="http://www.w3.org/2000/svg"><path d="m43.32 40.49 5.51 5.52-2.82 2.82-5.51-5.51a23.55568 23.55568 0 0 0 2.82-2.83z" fill="#ccd1d9"/><path d="m46.01 48.83 2.82-2.82 1.42-1.42 11.58 11.58a4.00222 4.00222 0 0 1 -5.66 5.66l-11.58-11.58z" fill="#656d78"/><path d="m1 25a24 24 0 1 1 42.32 15.49 23.55568 23.55568 0 0 1 -2.82 2.83 23.997 23.997 0 0 1 -39.5-18.32zm9.31 15a20.99642 20.99642 0 0 0 32.62-25.93 20.36217 20.36217 0 0 0 -3.08-3.92 21.00366 21.00366 0 0 0 -29.7 0 20.36217 20.36217 0 0 0 -3.08 3.92 21.00781 21.00781 0 0 0 3.08 25.78c.05.05.11.1.16.15z" fill="#e6e9ed"/><path d="m42.93 14.07-1.93 1.93-2-2-2 2-2-2-2 2-2-2-2 2-2-2-2 2-2-2-2 2-2-2-2 2-2-2-2 2-2-2-2 2-1.93-1.93a20.36217 20.36217 0 0 1 3.08-3.92 21.00366 21.00366 0 0 1 29.7 0 20.36217 20.36217 0 0 1 3.08 3.92z" fill="#87bcf4"/><ellipse cx="18" cy="26" fill="#ffce54" rx="4" ry="3"/><ellipse cx="33" cy="31" fill="#ffce54" rx="4" ry="3"/><path d="m29 31c0 1.66 1.79 3 4 3s4-1.34 4-3-1.79-3-4-3-4 1.34-4 3zm-15-5c0 1.66 1.79 3 4 3s4-1.34 4-3-1.79-3-4-3-4 1.34-4 3zm3-10 2-2 2 2 2-2 2 2 2-2 2 2 2-2 2 2 2-2 2 2 2-2 2 2 1.93-1.93a20.99642 20.99642 0 0 1 -32.62 25.93c-.05-.05-.11-.1-.16-.15a21.00781 21.00781 0 0 1 -3.08-25.78l1.93 1.93 2-2 2 2 2-2z" fill="#5d9cec"/><path d="m10.31 40a20.99287 20.99287 0 0 0 29.54-.15h-29.7c.05.05.11.1.16.15z" fill="#ffce54"/><path d="m25 46.99805a21.999 21.999 0 1 1 15.55664-6.44336 21.85313 21.85313 0 0 1 -15.55664 6.44336zm0-41.98926a19.99024 19.99024 0 1 0 14.14258 5.84863 19.93709 19.93709 0 0 0 -14.14258-5.84863z"/><path d="m25 49.999a24.99951 24.99951 0 0 1 -.00488-49.999h.0039a24.99951 24.99951 0 0 1 .00098 49.999zm-.00488-47.999a23.002 23.002 0 1 0 .0039 0z"/><path d="m46.00586 49.834a.99675.99675 0 0 1 -.707-.293l-5.50786-5.50975a.99989.99989 0 0 1 1.41406-1.41406l5.50783 5.50981a1 1 0 0 1 -.707 1.707z"/><path d="m48.834 47.00586a.9968.9968 0 0 1 -.707-.293l-5.51367-5.51562a.99989.99989 0 0 1 1.41406-1.41407l5.51361 5.51566a1 1 0 0 1 -.707 1.707z"/><path d="m44.5918 51.24805a1 1 0 0 1 -.707-1.707l5.6562-5.65824a.99989.99989 0 1 1 1.41406 1.41407l-5.65625 5.6582a.99676.99676 0 0 1 -.70701.29297z"/><path d="m56.17188 62.82813a.9968.9968 0 0 1 -.707-.293l-11.58011-11.58005a.99989.99989 0 0 1 1.41406-1.41408l11.58008 11.58009a1 1 0 0 1 -.707 1.707z"/><path d="m61.82813 57.17188a.9968.9968 0 0 1 -.707-.293l-11.58013-11.582a.99989.99989 0 0 1 1.41406-1.41407l11.58008 11.582a1 1 0 0 1 -.707 1.707z"/><path d="m59.001 64a4.96848 4.96848 0 0 1 -3.53614-1.46484.9999.9999 0 0 1 1.41407-1.41407 3.06937 3.06937 0 0 0 4.24121 0 2.99655 2.99655 0 0 0 .001-4.24121 1.00058 1.00058 0 0 1 1.41407-1.416 5.00049 5.00049 0 0 1 -3.53421 8.53612z"/><path d="m9 17a.99676.99676 0 0 1 -.707-.293l-1.9346-1.93454a.99989.99989 0 1 1 1.41406-1.41406l1.93454 1.9346a1 1 0 0 1 -.707 1.707z"/><path d="m9 17a1 1 0 0 1 -.707-1.707l2-2a.99989.99989 0 0 1 1.414 1.414l-2 2a.99676.99676 0 0 1 -.707.293z"/><path d="m13 17a.99676.99676 0 0 1 -.707-.293l-2-2a.99989.99989 0 0 1 1.414-1.414l2 2a1 1 0 0 1 -.707 1.707z"/><path d="m13 17a1 1 0 0 1 -.707-1.707l2-2a.99989.99989 0 0 1 1.414 1.414l-2 2a.99676.99676 0 0 1 -.707.293z"/><path d="m17 17a.99676.99676 0 0 1 -.707-.293l-2-2a.99989.99989 0 0 1 1.414-1.414l2 2a1 1 0 0 1 -.707 1.707z"/><path d="m17 17a1 1 0 0 1 -.707-1.707l2-2a.99989.99989 0 0 1 1.414 1.414l-2 2a.99676.99676 0 0 1 -.707.293z"/><path d="m21 17a.99676.99676 0 0 1 -.707-.293l-2-2a.99989.99989 0 0 1 1.414-1.414l2 2a1 1 0 0 1 -.707 1.707z"/><path d="m21 17a1 1 0 0 1 -.707-1.707l2-2a.99989.99989 0 0 1 1.414 1.414l-2 2a.99676.99676 0 0 1 -.707.293z"/><path d="m25 17a.99676.99676 0 0 1 -.707-.293l-2-2a.99989.99989 0 0 1 1.414-1.414l2 2a1 1 0 0 1 -.707 1.707z"/><path d="m25 17a1 1 0 0 1 -.707-1.707l2-2a.99989.99989 0 0 1 1.414 1.414l-2 2a.99676.99676 0 0 1 -.707.293z"/><path d="m29 17a.99676.99676 0 0 1 -.707-.293l-2-2a.99989.99989 0 0 1 1.414-1.414l2 2a1 1 0 0 1 -.707 1.707z"/><path d="m29 17a1 1 0 0 1 -.707-1.707l2-2a.99989.99989 0 0 1 1.414 1.414l-2 2a.99676.99676 0 0 1 -.707.293z"/><path d="m33 17a.99676.99676 0 0 1 -.707-.293l-2-2a.99989.99989 0 0 1 1.414-1.414l2 2a1 1 0 0 1 -.707 1.707z"/><path d="m33 17a1 1 0 0 1 -.707-1.707l2-2a.99989.99989 0 1 1 1.414 1.414l-2 2a.99676.99676 0 0 1 -.707.293z"/><path d="m37 17a.99676.99676 0 0 1 -.707-.293l-2-2a.99989.99989 0 0 1 1.414-1.414l2 2a1 1 0 0 1 -.707 1.707z"/><path d="m37 17a1 1 0 0 1 -.707-1.707l2-2a.99989.99989 0 1 1 1.414 1.414l-2 2a.99676.99676 0 0 1 -.707.293z"/><path d="m41 17a.99676.99676 0 0 1 -.707-.293l-2-2a.99989.99989 0 0 1 1.414-1.414l2 2a1 1 0 0 1 -.707 1.707z"/><path d="m41 17a1 1 0 0 1 -.707-1.707l1.93457-1.93457a.99989.99989 0 0 1 1.41406 1.41406l-1.93463 1.93451a.99676.99676 0 0 1 -.707.293z"/><path d="m39.667 41h-29.35938a1 1 0 0 1 0-2h29.35938a1 1 0 0 1 0 2z"/><path d="m21.01953 44a1 1 0 0 1 -.00976-2h.00976a1 1 0 1 1 0 2z"/><path d="m17.01953 44a1 1 0 0 1 -.00976-2h.00976a1 1 0 1 1 0 2z"/><path d="m25.01953 44a1 1 0 0 1 -.00976-2h.00976a1 1 0 1 1 0 2z"/><path d="m29.01953 44a1 1 0 0 1 -.00976-2h.00976a1 1 0 1 1 0 2z"/><path d="m33.01953 44a1 1 0 0 1 -.00976-2h.00976a1 1 0 0 1 0 2z"/><path d="m33 35c-2.75684 0-5-1.794-5-4s2.24316-4 5-4 5 1.79395 5 4-2.24316 4-5 4zm0-6c-1.626 0-3 .916-3 2s1.374 2 3 2 3-.916 3-2-1.374-2-3-2z"/><path d="m29 32a.99676.99676 0 0 1 -.707-.293l-2-2a.99989.99989 0 0 1 1.414-1.414l2 2a1 1 0 0 1 -.707 1.707z"/><path d="m27 34a1 1 0 0 1 -.707-1.707l2-2a.99989.99989 0 0 1 1.414 1.414l-2 2a.99676.99676 0 0 1 -.707.293z"/><path d="m18 30c-2.75684 0-5-1.79395-5-4s2.24316-4 5-4 5 1.79395 5 4-2.24316 4-5 4zm0-6c-1.626 0-3 .916-3 2s1.374 2 3 2 3-.916 3-2-1.374-2-3-2z"/><path d="m14 27a.99676.99676 0 0 1 -.707-.293l-2-2a.99989.99989 0 0 1 1.414-1.414l2 2a1 1 0 0 1 -.707 1.707z"/><path d="m12 29a1 1 0 0 1 -.707-1.707l2-2a.99989.99989 0 0 1 1.414 1.414l-2 2a.99676.99676 0 0 1 -.707.293z"/></svg>