<svg id="icons" height="512" viewBox="0 0 64 64" width="512" xmlns="http://www.w3.org/2000/svg"><path d="m43 42.5v4a3.011 3.011 0 0 1 -3 3h-1v-7z" fill="#656d78"/><path d="m42 52.5v.01h-3v-3.01h1a2.96531 2.96531 0 0 0 2-.77z" fill="#545c66"/><path d="m22 14.5a10 10 0 1 1 10 10 9.99724 9.99724 0 0 1 -10-10zm10.99 3a2.00588 2.00588 0 0 0 2-2v-2a2.00588 2.00588 0 0 0 -2-2h-5a2.00588 2.00588 0 0 0 -2 2v2a2.00588 2.00588 0 0 0 2 2h1l1-1h1l1 1z" fill="#ed5565"/><path d="m52 42.5v7h-1a3.011 3.011 0 0 1 -3-3v-4z" fill="#656d78"/><path d="m34.99 14.5v1a2.00588 2.00588 0 0 1 -2 2h-1l-1-1h-1l-1 1h-1a2.00588 2.00588 0 0 1 -2-2v-2a2.00588 2.00588 0 0 1 2-2h5a2.00588 2.00588 0 0 1 2 2z" fill="#5d9cec"/><path d="m49 52.5v.01h-7v-3.78a2.94028 2.94028 0 0 0 1-2.23v-4h5v4a2.94028 2.94028 0 0 0 1 2.23z" fill="#5d9cec"/><path d="m25 49.5v3.01h-3v-3.78a2.96531 2.96531 0 0 0 2 .77z" fill="#545c66"/><path d="m36 42.5v10.01 6.99h-8v-17z" fill="#656d78"/><path d="m25 42.5v7h-1a3.011 3.011 0 0 1 -3-3v-4z" fill="#656d78"/><path d="m22 52.5v.01h-7v-3.78a2.94028 2.94028 0 0 0 1-2.23v-4h5v4a2.94028 2.94028 0 0 0 1 2.23z" fill="#5d9cec"/><path d="m59 56.5a2.00588 2.00588 0 0 1 2-2 1.8177 1.8177 0 0 1 2 2v3h-8v-4a2 2 0 0 1 4 0z" fill="#a0d468"/><path d="m52 49.5v3.01h-3v-3.78a2.96531 2.96531 0 0 0 2 .77z" fill="#545c66"/><path d="m16 42.5v4a3.011 3.011 0 0 1 -3 3h-1v-7z" fill="#656d78"/><path d="m15 52.5v.01h-3v-3.01h1a2.96531 2.96531 0 0 0 2-.77z" fill="#545c66"/><path d="m9 27.5h23 23l1 3h-48z" fill="#ed5565"/><path d="m57 33.5h-50l1-3h48z" fill="#da4453"/><path d="m7 33.5h50l1 3h-3-26.83-19.17-3z" fill="#ed5565"/><path d="m5 56.5v-1a2 2 0 0 1 4 0v4h-8v-3a2 2 0 0 1 4 0z" fill="#a0d468"/><g fill="#e6e9ed"><path d="m55 56.5v3h-19v-6.99h3 3 7 3v-3.01-7h3v13z"/><path d="m55 36.5v6h-3-4-5-4v7 3.01h-3v-10.01-3h-7.83v-3z"/><path d="m25 52.51v-10.01h-13v10.01zm3.17-13.01h7.83v3h-8v17h-19v-23h19.17z"/></g><path d="m63 60.5h-62a1 1 0 0 1 0-2h62a1 1 0 0 1 0 2z"/><path d="m55.00391 60.5h-46.00782a.99943.99943 0 0 1 -1-1v-23a1 1 0 0 1 2 0v22h44.00782v-22a1 1 0 0 1 2 0v23a.99943.99943 0 0 1 -1 1z"/><path d="m36 60.5h-8a.99943.99943 0 0 1 -1-1v-17a.99943.99943 0 0 1 1-1h8a.99943.99943 0 0 1 1 1v17a.99943.99943 0 0 1 -1 1zm-7-2h6v-15h-6z"/><path d="m1 60.5a.99943.99943 0 0 1 -1-1v-3a2.99868 2.99868 0 0 1 4.47168-2.61328 2.99874 2.99874 0 0 1 5.52732 1.61133v1.00195a1 1 0 0 1 -2 0v-1.002a.999.999 0 0 0 -1.998 0v1.002a1 1 0 0 1 -2 0 1.00049 1.00049 0 0 0 -2.001 0v3a.99943.99943 0 0 1 -1 1z"/><path d="m63 60.5a.99943.99943 0 0 1 -1-1v-3c0-.60059-.16992-1-.999-1a1.00172 1.00172 0 0 0 -1.002 1 1 1 0 0 1 -2 0v-1.002a.999.999 0 0 0 -1.998 0v1.002a1 1 0 0 1 -2 0v-1.002a2.99874 2.99874 0 0 1 5.52734-1.61133 2.98327 2.98327 0 0 1 1.47266-.38667 2.81066 2.81066 0 0 1 2.999 3v3a.99943.99943 0 0 1 -1 1z"/><path d="m5.99512 37.502a1.0006 1.0006 0 0 1 -.94824-1.3164l3.001-9.00586a.99964.99964 0 1 1 1.89649.63281l-3.001 9.00586a.99948.99948 0 0 1 -.94825.68359z"/><path d="m58.00488 37.502a.99948.99948 0 0 1 -.94824-.68359l-3.001-9.00586a.99964.99964 0 0 1 1.89649-.63281l3.001 9.00586a1.00061 1.00061 0 0 1 -.94825 1.3164z"/><path d="m55.00391 28.49609h-46.00782a1 1 0 0 1 0-2h46.00782a1 1 0 0 1 0 2z"/><path d="m58.00488 37.502h-52.00976a1 1 0 0 1 0-2h52.00976a1 1 0 0 1 0 2z"/><path d="m25.001 53.50586h-13.001a.99943.99943 0 0 1 -1-1v-10.00586a.99943.99943 0 0 1 1-1h13.001a.99943.99943 0 0 1 1 1v10.00586a.99943.99943 0 0 1 -1 1zm-12.001-2h11.001v-8.00586h-11.001z"/><path d="m52.001 53.50586h-13.001a.99943.99943 0 0 1 -1-1v-10.00586a.99943.99943 0 0 1 1-1h13.001a.99943.99943 0 0 1 1 1v10.00586a.99943.99943 0 0 1 -1 1zm-12.001-2h11.001v-8.00586h-11.001z"/><path d="m33 47.5h-2a1 1 0 0 1 0-2h2a1 1 0 0 1 0 2z"/><path d="m36 40.50391h-7.833a1 1 0 1 1 0-2h7.833a1 1 0 0 1 0 2z"/><path d="m13 50.502a1 1 0 0 1 0-2 2.0026 2.0026 0 0 0 2-2 1 1 0 0 1 2 0 4.004 4.004 0 0 1 -4 4z"/><path d="m16 47.502a.99942.99942 0 0 1 -1-1v-4.002a1 1 0 0 1 2 0v4.002a.99942.99942 0 0 1 -1 1z"/><path d="m15 53.5a.99943.99943 0 0 1 -1-1v-3.77148a1 1 0 0 1 2 0v3.77148a.99943.99943 0 0 1 -1 1z"/><path d="m13 50.502h-1a1 1 0 0 1 0-2h1a1 1 0 0 1 0 2z"/><path d="m24 50.502a4.004 4.004 0 0 1 -4-4 1 1 0 1 1 2 0 2.0026 2.0026 0 0 0 2 2 1 1 0 0 1 0 2z"/><path d="m21 47.502a.99942.99942 0 0 1 -1-1v-4.002a1 1 0 0 1 2 0v4.002a.99942.99942 0 0 1 -1 1z"/><path d="m22 53.5a.99943.99943 0 0 1 -1-1v-3.77148a1 1 0 0 1 2 0v3.77148a.99943.99943 0 0 1 -1 1z"/><path d="m25 50.502h-1a1 1 0 1 1 0-2h1a1 1 0 0 1 0 2z"/><path d="m40.001 50.502a1 1 0 0 1 0-2 2.0026 2.0026 0 0 0 2-2 1 1 0 1 1 2 0 4.004 4.004 0 0 1 -4 4z"/><path d="m43.001 47.502a.99942.99942 0 0 1 -1-1v-4.002a1 1 0 0 1 2 0v4.002a.99942.99942 0 0 1 -1 1z"/><path d="m42.001 53.5a.99942.99942 0 0 1 -1-1v-3.77148a1 1 0 0 1 2 0v3.77148a.99943.99943 0 0 1 -1 1z"/><path d="m40.001 50.502h-1a1 1 0 0 1 0-2h1a1 1 0 0 1 0 2z"/><path d="m51.001 50.502a4.004 4.004 0 0 1 -4-4 1 1 0 1 1 2 0 2.0026 2.0026 0 0 0 2 2 1 1 0 0 1 0 2z"/><path d="m48.001 47.502a.99942.99942 0 0 1 -1-1v-4.002a1 1 0 0 1 2 0v4.002a.99942.99942 0 0 1 -1 1z"/><path d="m49.001 53.5a.99942.99942 0 0 1 -1-1v-3.77148a1 1 0 0 1 2 0v3.77148a.99943.99943 0 0 1 -1 1z"/><path d="m52.001 50.502h-1a1 1 0 0 1 0-2h1a1 1 0 0 1 0 2z"/><path d="m56 31.502h-48a1 1 0 0 1 0-2h48a1 1 0 0 1 0 2z"/><path d="m57 34.50391h-50a1 1 0 0 1 0-2h50a1 1 0 0 1 0 2z"/><path d="m32 28.5a.99943.99943 0 0 1 -1-1v-2.998a1 1 0 0 1 2 0v2.998a.99943.99943 0 0 1 -1 1z"/><path d="m31.99707 25.5a11 11 0 1 1 11-11 11.01245 11.01245 0 0 1 -11 11zm0-20a9 9 0 1 0 9 9 9.00984 9.00984 0 0 0 -9-9z"/><path d="m32.99512 18.499h-1a.99927.99927 0 0 1 -.707-.293l-.707-.707h-.17187l-.707.707a.99928.99928 0 0 1 -.707.293h-1a3.00328 3.00328 0 0 1 -3-3v-2a3.00328 3.00328 0 0 1 3-3h5a3.00329 3.00329 0 0 1 3 3v2a3.00328 3.00328 0 0 1 -3.00013 3zm-.58594-2h.58594a1.00067 1.00067 0 0 0 1-1v-2a1.00068 1.00068 0 0 0 -1-1h-5a1.00068 1.00068 0 0 0 -1 1v2a1.00067 1.00067 0 0 0 1 1h.58593l.707-.707a.99927.99927 0 0 1 .707-.293h1a.99928.99928 0 0 1 .707.293z"/><path d="m32.99512 21.499a1 1 0 0 1 0-2 4.004 4.004 0 0 0 4-4 1 1 0 0 1 2 0 6.00656 6.00656 0 0 1 -6 6z"/><path d="m37.99512 16.499a.99942.99942 0 0 1 -1-1v-4a1 1 0 0 1 2 0v4a.99942.99942 0 0 1 -1 1z"/><path d="m25.99512 15.499h-1a1 1 0 0 1 0-2h1a1 1 0 0 1 0 2z"/><path d="m35.99512 15.499h-1a1 1 0 0 1 0-2h1a1 1 0 0 1 0 2z"/></svg>