<svg id="icons" height="512" viewBox="0 0 64 64" width="512" xmlns="http://www.w3.org/2000/svg"><path d="m57.38 42.04a3.99646 3.99646 0 1 1 -5.79 4.71 3.99634 3.99634 0 0 1 5.79-4.71z" fill="#eac6bb"/><path d="m18 31h4v3h-4z" fill="#656d78"/><path d="m44 34v-3h-4v-2.02a2.00588 2.00588 0 0 0 -2-2h-14a2.00588 2.00588 0 0 0 -2 2v2.02h-4v3h4v2a2.00588 2.00588 0 0 0 2 2h4l2 1h2l2-1h4a2.00588 2.00588 0 0 0 2-2v-2zm6.78-4.78a18.50252 18.50252 0 0 1 .02 5.56 19.0612 19.0612 0 0 1 -2.34 6.72 18.70638 18.70638 0 0 1 -4.66 5.38 18.26171 18.26171 0 0 1 -4.81 2.78 18.96456 18.96456 0 0 1 -13.98.01 19.91138 19.91138 0 0 1 -2.51-1.21 18.93935 18.93935 0 0 1 -9.28-13.68 18.50252 18.50252 0 0 1 -.02-5.56 19.0612 19.0612 0 0 1 2.34-6.72 18.70638 18.70638 0 0 1 4.66-5.38 18.26171 18.26171 0 0 1 4.81-2.78 18.96456 18.96456 0 0 1 13.98-.01 19.91138 19.91138 0 0 1 2.51 1.21 18.93935 18.93935 0 0 1 9.28 13.68z" fill="#ed5565"/><path d="m40 34v2a2.00588 2.00588 0 0 1 -2 2h-4l-2-5h-2l-2 5h-4a2.00588 2.00588 0 0 1 -2-2v-7.02a2.00588 2.00588 0 0 1 2-2h14a2.00588 2.00588 0 0 1 2 2z" fill="#5d9cec"/><path d="m35 56.33-.01.01a3.9947 3.9947 0 0 0 -5.97 0 7.0178 7.0178 0 0 1 -4.02-6.34c0-.11 0-.22.01-.33a18.96456 18.96456 0 0 0 13.98-.01v.01c.01.11.01.22.01.33a7.00729 7.00729 0 0 1 -4 6.33z" fill="#656d78"/><path d="m19.91 16.94a2.606 2.606 0 0 1 .28.17l.01.01a18.70638 18.70638 0 0 0 -4.66 5.38 19.0612 19.0612 0 0 0 -2.34 6.72c-.1-.05-.19-.1-.29-.16a6.99016 6.99016 0 0 1 -3.48-6.62l-.01-.03a3.98 3.98 0 0 0 2.99-5.16 7.00239 7.00239 0 0 1 7.5-.31z" fill="#656d78"/><path d="m34.99 56.34a4.00081 4.00081 0 1 1 -6.99 2.66 4.01344 4.01344 0 0 1 4-4 3.99584 3.99584 0 0 1 2.99 1.34z" fill="#eac6bb"/><path d="m40 31h4v3h-4z" fill="#656d78"/><path d="m58.85 16.5a3.99477 3.99477 0 0 1 -1.47 5.46 3.92275 3.92275 0 0 1 -2.82.45 3.98073 3.98073 0 0 1 -2.64-1.91 4.01021 4.01021 0 0 1 1.46-5.46 4.0033 4.0033 0 0 1 5.47 1.46z" fill="#eac6bb"/><path d="m51.59 17.25a3.92857 3.92857 0 0 0 .33 3.25 3.98073 3.98073 0 0 0 2.64 1.91 6.99974 6.99974 0 0 1 -3.47 6.65c-.1.06-.19.11-.29.16h-.02a18.93136 18.93136 0 0 0 -6.97-12.11 2.606 2.606 0 0 1 .28-.17 6.98791 6.98791 0 0 1 7.48.3z" fill="#656d78"/><path d="m12.08 43.5a4.01021 4.01021 0 0 1 -1.46 5.46 3.99646 3.99646 0 1 1 -4-6.92 3.92275 3.92275 0 0 1 2.82-.45 3.98073 3.98073 0 0 1 2.64 1.91z" fill="#eac6bb"/><path d="m43.8 46.88a18.70638 18.70638 0 0 0 4.66-5.38 19.0612 19.0612 0 0 0 2.34-6.72c.1.05.19.1.29.16a6.99016 6.99016 0 0 1 3.48 6.62l.01.03a3.98 3.98 0 0 0 -2.99 5.16 7.00239 7.00239 0 0 1 -7.5.31 2.606 2.606 0 0 1 -.28-.17z" fill="#656d78"/><path d="m32 33 2 5-2 1h-2l-2-1 2-5z" fill="#656d78"/><path d="m12.41 17.25a3.98 3.98 0 0 1 -2.99 5.16 3.92126 3.92126 0 0 1 -2.8-.45 3.99646 3.99646 0 1 1 5.79-4.71z" fill="#eac6bb"/><path d="m13.22 34.78a18.93136 18.93136 0 0 0 6.97 12.11 2.606 2.606 0 0 1 -.28.17 6.98791 6.98791 0 0 1 -7.48-.3l-.02-.01a3.92857 3.92857 0 0 0 -.33-3.25 3.98073 3.98073 0 0 0 -2.64-1.91 6.99974 6.99974 0 0 1 3.47-6.65c.1-.06.19-.11.29-.16z" fill="#656d78"/><path d="m29.01 7.66a3.9947 3.9947 0 0 0 5.97 0 7.0178 7.0178 0 0 1 4.02 6.34c0 .11 0 .22-.01.33a18.96456 18.96456 0 0 0 -13.98.01v-.01c-.01-.11-.01-.22-.01-.33a7.00729 7.00729 0 0 1 4-6.33z" fill="#656d78"/><path d="m32 1a3.9989 3.9989 0 0 1 4 4 4.01344 4.01344 0 0 1 -4 4 4 4 0 0 1 0-8z" fill="#eac6bb"/><path d="m32 10a5 5 0 1 1 5-5 5.00588 5.00588 0 0 1 -5 5zm0-8a3 3 0 1 0 3 3 3.00328 3.00328 0 0 0 -3-3z"/><path d="m38.99316 15.3291c-.01855 0-.03613 0-.05468-.001a1.00108 1.00108 0 0 1 -.94532-1.05274c.00489-.09177.00684-.18259.00684-.27536a6.02658 6.02658 0 0 0 -3.44824-5.43066 1.00041 1.00041 0 0 1 .85156-1.81055 8.03815 8.03815 0 0 1 4.59668 7.24121c0 .12793-.002.25586-.00879.38281a1.001 1.001 0 0 1 -.99805.94629z"/><path d="m25.00586 15.3291a1.00051 1.00051 0 0 1 -.998-.95508c-.00586-.12502-.00786-.24902-.00786-.37402a8.03918 8.03918 0 0 1 4.57129-7.22949.99989.99989 0 0 1 .85742 1.80664 6.03041 6.03041 0 0 0 -3.42871 5.42285q0 .14355.00586.28418a1 1 0 0 1 -.9541 1.044c-.01563.00092-.03028.00092-.0459.00092z"/><path d="m32 64a5 5 0 1 1 5-5 5.00588 5.00588 0 0 1 -5 5zm0-8a3 3 0 1 0 3 3 3.00328 3.00328 0 0 0 -3-3z"/><path d="m29.02148 57.33594a.9989.9989 0 0 1 -.4248-.09473 8.03815 8.03815 0 0 1 -4.59668-7.24121c0-.12793.002-.25586.00879-.38281a1.00047 1.00047 0 0 1 1.998.10742c-.00479.0918-.00679.18262-.00679.27539a6.02658 6.02658 0 0 0 3.44824 5.43066 1.00014 1.00014 0 0 1 -.42676 1.90528z"/><path d="m35.001 57.32617a1 1 0 0 1 -.42969-1.90332 6.03041 6.03041 0 0 0 3.42869-5.42285q0-.14355-.00586-.28418a1 1 0 0 1 1.998-.08984c.00586.125.00781.249.00781.374a8.03918 8.03918 0 0 1 -4.57129 7.22949.99964.99964 0 0 1 -.42766.0967z"/><path d="m31.96191 52.00684a20.06909 20.06909 0 1 1 5.21387-.69043 20.13682 20.13682 0 0 1 -5.21387.69043zm.07227-38.0127a18.11772 18.11772 0 0 0 -4.69238.62109 17.90316 17.90316 0 1 0 4.69238-.62109z"/><path d="m8.60742 23.499a4.999 4.999 0 1 1 4.34082-2.499 4.966 4.966 0 0 1 -4.34082 2.499zm.01465-7.998a2.99933 2.99933 0 1 0 1.49512.40136 3.00167 3.00167 0 0 0 -1.49512-.40136z"/><path d="m12.41406 18.25391a1 1 0 0 1 -.57129-1.82129 8.03993 8.03993 0 0 1 8.56934-.36133c.11523.06738.22461.13281.332.20312a1.00026 1.00026 0 0 1 -1.10156 1.66993c-.07617-.05079-.1543-.09668-.2334-.14258a6.02381 6.02381 0 0 0 -6.42578.27344.99122.99122 0 0 1 -.56931.17871z"/><path d="m13.19922 30.2207a1.00508 1.00508 0 0 1 -.46387-.11425c-.10742-.05665-.21289-.11524-.31933-.17579a8.04033 8.04033 0 0 1 -3.9795-7.57617 1.00036 1.00036 0 0 1 1.99414.16211 6.02478 6.02478 0 0 0 2.98145 5.67969c.081.04687.167.09375.25293.13867a1.00009 1.00009 0 0 1 -.46582 1.88574z"/><path d="m55.37305 50.499a4.96872 4.96872 0 0 1 -2.49024-.668 5.0045 5.0045 0 1 1 2.49024.668zm-1.49024-2.40039a3.00006 3.00006 0 1 0 -1.09863-4.09861 3.00364 3.00364 0 0 0 1.09863 4.09863z"/><path d="m47.584 48.99414a7.99535 7.99535 0 0 1 -3.99609-1.06543c-.11621-.06836-.22461-.13281-.33105-.20312a1.00026 1.00026 0 0 1 1.10156-1.66993c.07715.05079.15625.09766.23633.14454a6.02 6.02 0 0 0 6.4209-.2754 1.00044 1.00044 0 0 1 1.14257 1.64258 8.02047 8.02047 0 0 1 -4.57422 1.42676z"/><path d="m54.56738 42.56445c-.02734 0-.05371-.001-.082-.00293a1.00154 1.00154 0 0 1 -.916-1.07812 6.02478 6.02478 0 0 0 -2.98145-5.67969c-.083-.04785-.167-.09473-.252-.13867a1.00031 1.00031 0 0 1 .92969-1.77149c.10839.05762.21582.11622.32226.17774a8.03947 8.03947 0 0 1 3.97559 7.57422 1.0011 1.0011 0 0 1 -.99609.91894z"/><path d="m8.627 50.499a4.99928 4.99928 0 0 1 -2.50976-9.3291 5.00087 5.00087 0 1 1 2.50976 9.3291zm-1.50981-7.59666a3.00055 3.00055 0 1 0 4.09863 1.09666 3.00271 3.00271 0 0 0 -4.09863-1.09668z"/><path d="m9.43457 42.58984a.99917.99917 0 0 1 -.99512-.917 8.03683 8.03683 0 0 1 3.97266-7.60156c.12891-.07324.23535-.13379.3457-.18848a1.00013 1.00013 0 1 1 .88672 1.793c-.07422.03613-.14551.07813-.21777.11914a6.03893 6.03893 0 0 0 -2.99512 5.71192.9986.9986 0 0 1 -.91309 1.0791.8181.8181 0 0 1 -.08398.00388z"/><path d="m16.41211 48.99316a8.00761 8.00761 0 0 1 -4.54688-1.40916 1.00038 1.00038 0 1 1 1.13677-1.6465 6.02987 6.02987 0 0 0 6.41016.25879l.25-.15137a.99955.99955 0 0 1 1.0625 1.69336l-.30273.18457a8.01834 8.01834 0 0 1 -4.00982 1.07031z"/><path d="m55.39258 23.499a4.99734 4.99734 0 1 1 2.49023-.668 4.97608 4.97608 0 0 1 -2.49023.668zm-.01465-7.998a3 3 0 1 0 1.50488 5.59765 2.99972 2.99972 0 0 0 -1.50488-5.59765z"/><path d="m50.7998 30.21973a1 1 0 0 1 -.44824-1.89453c.08106-.041.15918-.084.23633-.12891a6.0288 6.0288 0 0 0 2.98047-5.70215.99963.99963 0 1 1 1.99219-.168 8.0357 8.0357 0 0 1 -3.97266 7.60254c-.1123.06445-.22363.127-.3418.18555a1.001 1.001 0 0 1 -.44629.1055z"/><path d="m51.56543 18.23926a.99981.99981 0 0 1 -.56738-.17676 6.02784 6.02784 0 0 0 -6.41016-.25879q-.12452.07177-.24609.14942a1.00028 1.00028 0 1 1 -1.06836-1.69141c.10449-.06543.208-.12891.31445-.19043a8.04251 8.04251 0 0 1 8.54688.34473 1.00008 1.00008 0 0 1 -.56934 1.82324z"/><path d="m38 39h-4a1.00045 1.00045 0 0 1 -.92871-.62891l-1.74805-4.37109h-.64648l-1.74805 4.37109a1.00045 1.00045 0 0 1 -.92871.62891h-4a3.00328 3.00328 0 0 1 -3-3v-7.01562a3.00328 3.00328 0 0 1 3-3h14a3.00328 3.00328 0 0 1 3 3v7.01562a3.00328 3.00328 0 0 1 -3 3zm-3.32324-2h3.32324a1.00067 1.00067 0 0 0 1-1v-7.01562a1.00067 1.00067 0 0 0 -1-1h-14a1.00067 1.00067 0 0 0 -1 1v7.01562a1.00067 1.00067 0 0 0 1 1h3.32324l1.74805-4.37109a1.00045 1.00045 0 0 1 .92871-.62891h2a1.00045 1.00045 0 0 1 .92871.62891z"/><path d="m29.999 40a1.00108 1.00108 0 0 1 -.44629-.10547l-2-1a1.00012 1.00012 0 1 1 .89454-1.78906l2 1a1 1 0 0 1 -.44825 1.89453z"/><path d="m32 40h-2a1 1 0 0 1 0-2h2a1 1 0 0 1 0 2z"/><path d="m32.001 40a1 1 0 0 1 -.44825-1.89453l2-1a1.00012 1.00012 0 0 1 .89454 1.78906l-2 1a1.00108 1.00108 0 0 1 -.44629.10547z"/><path d="m38 43a1 1 0 0 1 0-2 5.00588 5.00588 0 0 0 5-5 1 1 0 0 1 2 0 7.00848 7.00848 0 0 1 -7 7z"/><path d="m44 37a.99943.99943 0 0 1 -1-1v-12a1 1 0 0 1 2 0v12a.99943.99943 0 0 1 -1 1z"/><path d="m38 43h-4a1 1 0 0 1 0-2h4a1 1 0 0 1 0 2z"/><path d="m34 43a.99943.99943 0 0 1 -1-1v-1a1 1 0 0 1 2 0v1a.99943.99943 0 0 1 -1 1z"/><path d="m22 35h-4a.99943.99943 0 0 1 -1-1v-3a.99943.99943 0 0 1 1-1h4a.99943.99943 0 0 1 1 1v3a.99943.99943 0 0 1 -1 1zm-3-2h2v-1h-2z"/><path d="m44 35h-4a.99943.99943 0 0 1 -1-1v-3a.99943.99943 0 0 1 1-1h4a.99943.99943 0 0 1 1 1v3a.99943.99943 0 0 1 -1 1zm-3-2h2v-1h-2z"/></svg>