<svg id="icons" height="512" viewBox="0 0 64 64" width="512" xmlns="http://www.w3.org/2000/svg"><path d="m40 31h4v3h-4z" fill="#656d78"/><path d="m18 31h4v3h-4z" fill="#656d78"/><path d="m44 34v-3h-4v-2.02a2.00588 2.00588 0 0 0 -2-2h-14a2.00588 2.00588 0 0 0 -2 2v2.02h-4v3h4v2a2.00588 2.00588 0 0 0 2 2h4l2 1h2l2-1h4a2.00588 2.00588 0 0 0 2-2v-2zm-12-21a19 19 0 1 1 -19 19 19.00437 19.00437 0 0 1 19-19z" fill="#ed5565"/><path d="m40 34v2a2.00588 2.00588 0 0 1 -2 2h-4l-2-5h-2l-2 5h-4a2.00588 2.00588 0 0 1 -2-2v-7.02a2.00588 2.00588 0 0 1 2-2h14a2.00588 2.00588 0 0 1 2 2z" fill="#5d9cec"/><path d="m32 33 2 5-2 1h-2l-2-1 2-5z" fill="#656d78"/><path d="m54 8a2.00588 2.00588 0 0 0 2 2 3.99737 3.99737 0 0 0 -3.99 3.75 7 7 0 1 1 7.98 0 4.0043 4.0043 0 0 0 -3.99-3.75 2 2 0 1 0 -2-2z" fill="#656d78"/><path d="m56 10a4.0043 4.0043 0 0 1 3.99 3.75 6.993 6.993 0 0 1 -7.98 0 3.99737 3.99737 0 0 1 3.99-3.75z" fill="#ac92ec"/><circle cx="56" cy="8" fill="#eac6bb" r="2"/><path d="m54 56a2.00588 2.00588 0 0 0 2 2 3.99737 3.99737 0 0 0 -3.99 3.75 7 7 0 1 1 7.98 0 4.0043 4.0043 0 0 0 -3.99-3.75 2 2 0 1 0 -2-2z" fill="#656d78"/><path d="m56 58a4.0043 4.0043 0 0 1 3.99 3.75 6.993 6.993 0 0 1 -7.98 0 3.99737 3.99737 0 0 1 3.99-3.75z" fill="#a0d468"/><circle cx="56" cy="56" fill="#eac6bb" r="2"/><path d="m8 58a4.0043 4.0043 0 0 1 3.99 3.75 6.993 6.993 0 0 1 -7.98 0 3.99737 3.99737 0 0 1 3.99-3.75z" fill="#ac92ec"/><circle cx="8" cy="56" fill="#eac6bb" r="2"/><path d="m6 56a2.00588 2.00588 0 0 0 2 2 3.99737 3.99737 0 0 0 -3.99 3.75 7 7 0 1 1 7.98 0 4.0043 4.0043 0 0 0 -3.99-3.75 2 2 0 1 0 -2-2z" fill="#656d78"/><path d="m6 8a2.00588 2.00588 0 0 0 2 2 3.99737 3.99737 0 0 0 -3.99 3.75 7 7 0 1 1 7.98 0 4.0043 4.0043 0 0 0 -3.99-3.75 2 2 0 1 0 -2-2z" fill="#656d78"/><path d="m8 10a4.0043 4.0043 0 0 1 3.99 3.75 6.993 6.993 0 0 1 -7.98 0 3.99737 3.99737 0 0 1 3.99-3.75z" fill="#a0d468"/><circle cx="8" cy="8" fill="#eac6bb" r="2"/><path d="m38 39h-4a1.00045 1.00045 0 0 1 -.92871-.62891l-1.74805-4.37109h-.64648l-1.74805 4.37109a1.00045 1.00045 0 0 1 -.92871.62891h-4a3.00328 3.00328 0 0 1 -3-3v-7.01562a3.00328 3.00328 0 0 1 3-3h14a3.00328 3.00328 0 0 1 3 3v7.01562a3.00328 3.00328 0 0 1 -3 3zm-3.32324-2h3.32324a1.00067 1.00067 0 0 0 1-1v-7.01562a1.00067 1.00067 0 0 0 -1-1h-14a1.00067 1.00067 0 0 0 -1 1v7.01562a1.00067 1.00067 0 0 0 1 1h3.32324l1.74805-4.37109a1.00045 1.00045 0 0 1 .92871-.62891h2a1.00045 1.00045 0 0 1 .92871.62891z"/><path d="m29.999 40a1.00108 1.00108 0 0 1 -.44629-.10547l-2-1a1.00012 1.00012 0 1 1 .89454-1.78906l2 1a1 1 0 0 1 -.44825 1.89453z"/><path d="m32 40h-2a1 1 0 0 1 0-2h2a1 1 0 0 1 0 2z"/><path d="m32.001 40a1 1 0 0 1 -.44825-1.89453l2-1a1.00012 1.00012 0 0 1 .89454 1.78906l-2 1a1.00108 1.00108 0 0 1 -.44629.10547z"/><path d="m38 43a1 1 0 0 1 0-2 5.00588 5.00588 0 0 0 5-5 1 1 0 0 1 2 0 7.00848 7.00848 0 0 1 -7 7z"/><path d="m44 37a.99943.99943 0 0 1 -1-1v-12a1 1 0 0 1 2 0v12a.99943.99943 0 0 1 -1 1z"/><path d="m38 43h-4a1 1 0 0 1 0-2h4a1 1 0 0 1 0 2z"/><path d="m34 43a.99943.99943 0 0 1 -1-1v-1a1 1 0 0 1 2 0v1a.99943.99943 0 0 1 -1 1z"/><path d="m22 35h-4a.99943.99943 0 0 1 -1-1v-3a.99943.99943 0 0 1 1-1h4a.99943.99943 0 0 1 1 1v3a.99943.99943 0 0 1 -1 1zm-3-2h2v-1h-2z"/><path d="m44 35h-4a.99943.99943 0 0 1 -1-1v-3a.99943.99943 0 0 1 1-1h4a.99943.99943 0 0 1 1 1v3a.99943.99943 0 0 1 -1 1zm-3-2h2v-1h-2z"/><path d="m8 16a8 8 0 1 1 8-8 8.00917 8.00917 0 0 1 -8 8zm0-14a6 6 0 1 0 6 6 6.00657 6.00657 0 0 0 -6-6z"/><path d="m8 11a3 3 0 1 1 3-3 3.00328 3.00328 0 0 1 -3 3zm0-4a1 1 0 1 0 1 1 1.00067 1.00067 0 0 0 -1-1z"/><path d="m11.99023 14.75a.99949.99949 0 0 1 -.99707-.93848 3.00007 3.00007 0 0 0 -5.98828 0 .99994.99994 0 1 1 -1.99609-.123 4.99995 4.99995 0 0 1 9.98047 0 .99989.99989 0 0 1 -.93653 1.05957c-.0205.00091-.04199.00191-.0625.00191z"/><path d="m8 64a8 8 0 1 1 8-8 8.00917 8.00917 0 0 1 -8 8zm0-14a6 6 0 1 0 6 6 6.00657 6.00657 0 0 0 -6-6z"/><path d="m8 59a3 3 0 1 1 3-3 3.00328 3.00328 0 0 1 -3 3zm0-4a1 1 0 1 0 1 1 1.00067 1.00067 0 0 0 -1-1z"/><path d="m11.99023 62.75a.99949.99949 0 0 1 -.99707-.93848 3.00007 3.00007 0 0 0 -5.98828 0 1.01781 1.01781 0 0 1 -1.05957.93653.99989.99989 0 0 1 -.93652-1.05957 4.99995 4.99995 0 0 1 9.98047 0 .99989.99989 0 0 1 -.93653 1.05957c-.0205.00095-.04199.00195-.0625.00195z"/><path d="m56 16a8 8 0 1 1 8-8 8.00917 8.00917 0 0 1 -8 8zm0-14a6 6 0 1 0 6 6 6.00657 6.00657 0 0 0 -6-6z"/><path d="m56 11a3 3 0 1 1 3-3 3.00328 3.00328 0 0 1 -3 3zm0-4a1 1 0 1 0 1 1 1.00067 1.00067 0 0 0 -1-1z"/><path d="m59.99023 14.75a.99949.99949 0 0 1 -.99707-.93848 3.00007 3.00007 0 0 0 -5.98828 0 .99994.99994 0 1 1 -1.99609-.123 4.99995 4.99995 0 0 1 9.98047 0 .99989.99989 0 0 1 -.93653 1.05957c-.0205.00091-.04199.00191-.0625.00191z"/><path d="m56 64a8 8 0 1 1 8-8 8.00917 8.00917 0 0 1 -8 8zm0-14a6 6 0 1 0 6 6 6.00657 6.00657 0 0 0 -6-6z"/><path d="m56 59a3 3 0 1 1 3-3 3.00328 3.00328 0 0 1 -3 3zm0-4a1 1 0 1 0 1 1 1.00067 1.00067 0 0 0 -1-1z"/><path d="m59.99023 62.75a.99949.99949 0 0 1 -.99707-.93848 3.00007 3.00007 0 0 0 -5.98828 0 1.01472 1.01472 0 0 1 -1.05957.93653.99989.99989 0 0 1 -.93652-1.05957 4.99995 4.99995 0 0 1 9.98047 0 .99989.99989 0 0 1 -.93653 1.05957c-.0205.00095-.04199.00195-.0625.00195z"/><path d="m8 46a.99943.99943 0 0 1 -1-1v-26a1 1 0 0 1 2 0v26a.99943.99943 0 0 1 -1 1z"/><path d="m45 57h-26a1 1 0 0 1 0-2h26a1 1 0 0 1 0 2z"/><path d="m45 9h-26a1 1 0 0 1 0-2h26a1 1 0 0 1 0 2z"/><path d="m56 46a.99943.99943 0 0 1 -1-1v-26a1 1 0 0 1 2 0v26a.99943.99943 0 0 1 -1 1z"/><path d="m32 52a20 20 0 0 1 -.002-40h.0039a19.99848 19.99848 0 0 1 19.9981 20 20.00016 20.00016 0 0 1 -20 20zm-.002-38a18.00015 18.00015 0 1 0 18.002 18 17.998 17.998 0 0 0 -17.998-18h-.0039z"/></svg>