<svg id="icons" height="512" viewBox="0 0 64 64" width="512" xmlns="http://www.w3.org/2000/svg"><path d="m46 24.339h4v5h-4z" fill="#434a54"/><path d="m50 29.33875v-5h-4v-5.01a2.00588 2.00588 0 0 0 -2-2h-26a2.00588 2.00588 0 0 0 -2 2v5.01h-4v5h4v5a2.00588 2.00588 0 0 0 2 2h9l3 1h2l3-1h9a2.00588 2.00588 0 0 0 2-2v-5zm7.68-20.36a18.16092 18.16092 0 0 1 0 25.68l-25.68 25.68-25.68-25.68a18.1585 18.1585 0 0 1 25.68-25.68 18.16092 18.16092 0 0 1 25.68 0z" fill="#ed5565"/><path d="m34 33.339 1 3-3 1h-2l-3-1 1-3 2-6h2z" fill="#656d78"/><path d="m12 24.339h4v5h-4z" fill="#434a54"/><path d="m46 19.32875v15.01a2.00588 2.00588 0 0 1 -2 2h-9l-1-3h9v-13h-24v13h9l-1 3h-9a2.00588 2.00588 0 0 1 -2-2v-15.01a2.00588 2.00588 0 0 1 2-2h26a2.00588 2.00588 0 0 1 2 2z" fill="#545c66"/><path d="m43 20.339v13h-9l-2-6h-2l-2 6h-9v-13z" fill="#5d9cec"/><path d="m44 37.34082h-9a.9989.9989 0 0 1 -.94824-.68359l-2.77246-8.31641h-.5586l-2.77246 8.31641a.9989.9989 0 0 1 -.94824.68359h-9a3.00328 3.00328 0 0 1 -3-3v-15.01562a3.00328 3.00328 0 0 1 3-3h26a3.00328 3.00328 0 0 1 3 3v15.01562a3.00328 3.00328 0 0 1 -3 3zm-8.2793-2h8.2793a1.00067 1.00067 0 0 0 1-1v-15.01562a1.00067 1.00067 0 0 0 -1-1h-26a1.00067 1.00067 0 0 0 -1 1v15.01562a1.00067 1.00067 0 0 0 1 1h8.2793l2.77246-8.31641a.9989.9989 0 0 1 .94824-.68359h2a.9989.9989 0 0 1 .94824.68359z"/><path d="m30 38.34082a.99826.99826 0 0 1 -.31641-.05176l-3-1a.99964.99964 0 0 1 .63282-1.89648l3 1a.99986.99986 0 0 1 -.31641 1.94824z"/><path d="m32 38.34082h-2a1 1 0 0 1 0-2h2a1 1 0 0 1 0 2z"/><path d="m32 38.34082a.99986.99986 0 0 1 -.31641-1.94824l3-1a.99964.99964 0 1 1 .63282 1.89648l-3 1a.99826.99826 0 0 1 -.31641.05176z"/><path d="m44 41.34082a1 1 0 0 1 0-2 5.00588 5.00588 0 0 0 5-5 1 1 0 0 1 2 0 7.00848 7.00848 0 0 1 -7 7z"/><path d="m50 35.34082a.99943.99943 0 0 1 -1-1v-20a1 1 0 0 1 2 0v20a.99943.99943 0 0 1 -1 1z"/><path d="m44 41.34082h-6a1 1 0 0 1 0-2h6a1 1 0 0 1 0 2z"/><path d="m38 41.34082a.99943.99943 0 0 1 -1-1v-1a1 1 0 0 1 2 0v1a.99943.99943 0 0 1 -1 1z"/><path d="m16 30.34082h-4a.99943.99943 0 0 1 -1-1v-5a.99943.99943 0 0 1 1-1h4a.99943.99943 0 0 1 1 1v5a.99943.99943 0 0 1 -1 1zm-3-2h2v-3h-2z"/><path d="m50 30.34082h-4a.99943.99943 0 0 1 -1-1v-5a.99943.99943 0 0 1 1-1h4a.99943.99943 0 0 1 1 1v5a.99943.99943 0 0 1 -1 1zm-3-2h2v-3h-2z"/><path d="m32 61.34082a.99928.99928 0 0 1 -.707-.293l-25.67972-25.68161a19.15889 19.15889 0 0 1 26.38672-27.76758 19.15882 19.15882 0 0 1 26.38672 27.76758l-25.67972 25.68164a.99927.99927 0 0 1 -.707.29297zm-12.84082-56.68066a17.1577 17.1577 0 0 0 -12.13184 29.292l24.97266 24.9746 24.97266-24.97461a17.15873 17.15873 0 0 0 -24.26566-24.2666.99964.99964 0 0 1 -1.41406 0 17.04574 17.04574 0 0 0 -12.13376-5.02539z"/><path d="m43 34.34082h-9a1 1 0 0 1 0-2h8v-11h-22v11h8a1 1 0 0 1 0 2h-9a.99943.99943 0 0 1 -1-1v-13a.99943.99943 0 0 1 1-1h24a.99943.99943 0 0 1 1 1v13a.99943.99943 0 0 1 -1 1z"/></svg>