<svg id="icons" height="512" viewBox="0 0 64 64" width="512" xmlns="http://www.w3.org/2000/svg"><g fill="#5d9cec"><circle cx="51.52" cy="45.5" r="2.5"/><circle cx="12.52" cy="45.5" r="2.5"/><circle cx="32.02" cy="45.5" r="2.5"/></g><path d="m63 9.02h-62v-2a1.99309 1.99309 0 0 1 2-2h58a1.99944 1.99944 0 0 1 2 2z" fill="#ccd1d9"/><path d="m23 25.99v2a2.00588 2.00588 0 0 1 -2 2h-2l-2-2h-1l-2 2h-2a2.00588 2.00588 0 0 1 -2-2v-4a2.00588 2.00588 0 0 1 2-2h9a2.00588 2.00588 0 0 1 2 2z" fill="#5d9cec"/><path d="m10 25.99v2a2.00588 2.00588 0 0 0 2 2h2l2-2h1l2 2h2a2.00588 2.00588 0 0 0 2-2v-4a2.00588 2.00588 0 0 0 -2-2h-9a2.00588 2.00588 0 0 0 -2 2zm49.02-12.96v25.97h-54v-25.97z" fill="#ed5565"/><path d="m63 9.02v49.96h-62v-49.96zm-3.98 29.98v-25.97h-54v25.97zm-5 6.5a2.5 2.5 0 1 0 -2.5 2.5 2.50091 2.50091 0 0 0 2.5-2.5zm-19.5 0a2.5 2.5 0 1 0 -2.5 2.5 2.50091 2.50091 0 0 0 2.5-2.5zm-19.5 0a2.5 2.5 0 1 0 -2.5 2.5 2.50091 2.50091 0 0 0 2.5-2.5z" fill="#e6e9ed"/><path d="m4.01563 8.0166a1 1 0 0 1 -.00977-2h.00977a1 1 0 0 1 0 2z"/><path d="m7.01563 8.0166a1 1 0 0 1 -.00977-2h.00977a1 1 0 0 1 0 2z"/><path d="m10.01563 8.0166a1 1 0 0 1 -.00977-2h.00977a1 1 0 0 1 0 2z"/><path d="m63.00391 59.9834h-62a.99942.99942 0 0 1 -1-1v-49.9668a.99942.99942 0 0 1 1-1h62a.99943.99943 0 0 1 1 1v49.9668a.99943.99943 0 0 1 -1 1zm-61-2h60v-47.9668h-60z"/><path d="m.99609 8.0166a.99942.99942 0 0 1 -1-1 3.00328 3.00328 0 0 1 3-3 1 1 0 1 1 0 2 1.00068 1.00068 0 0 0 -1 1 .99942.99942 0 0 1 -1 1z"/><path d="m.99609 10.0166a.99942.99942 0 0 1 -1-1v-2a1 1 0 0 1 2 0v2a.99942.99942 0 0 1 -1 1z"/><path d="m62.99609 8.0166a.99942.99942 0 0 1 -1-1 1.00067 1.00067 0 0 0 -1-1 1 1 0 0 1 0-2 3.00328 3.00328 0 0 1 3 3 .99942.99942 0 0 1 -1 1z"/><path d="m62.99609 10.0166a.99942.99942 0 0 1 -1-1v-2a1 1 0 0 1 2 0v2a.99942.99942 0 0 1 -1 1z"/><path d="m60.99609 6.0166h-58a1 1 0 0 1 0-2h58a1 1 0 0 1 0 2z"/><path d="m19.01563 53.001h-12.99415a1 1 0 1 1 0-2h12.99415a1 1 0 0 1 0 2z"/><path d="m58.01367 53.001h-12.99414a1 1 0 0 1 0-2h12.99414a1 1 0 0 1 0 2z"/><path d="m38.502 53.001h-12.99419a1 1 0 0 1 0-2h12.99419a1 1 0 0 1 0 2z"/><path d="m35.51953 56.001h-7.03125a1 1 0 0 1 0-2h7.03125a1 1 0 0 1 0 2z"/><path d="m55.01953 56.001h-7.00586a1 1 0 1 1 0-2h7.00586a1 1 0 0 1 0 2z"/><path d="m16.01953 56.001h-6.998a1 1 0 1 1 0-2h6.998a1 1 0 1 1 0 2z"/><path d="m59.01953 39.99512h-54a.99943.99943 0 0 1 -1-1v-25.96289a.99942.99942 0 0 1 1-1h54a.99942.99942 0 0 1 1 1v25.96289a.99942.99942 0 0 1 -1 1zm-53-2h52v-23.96289h-52z"/><path d="m54.00781 23.02148h-23.001a1 1 0 0 1 0-2h23.001a1 1 0 0 1 0 2z"/><path d="m54.00781 20.01953h-23.001a1 1 0 0 1 0-2h23.001a1 1 0 0 1 0 2z"/><path d="m54.00781 26.0293h-23.001a1 1 0 0 1 0-2h23.001a1 1 0 0 1 0 2z"/><path d="m42.00586 29.03711h-10.999a1 1 0 1 1 0-2h10.999a1 1 0 0 1 0 2z"/><path d="m38.002 34.0293h-6.99321a1 1 0 1 1 0-2h6.99321a1 1 0 0 1 0 2z"/><path d="m41.99609 33.0293h-1.0039a1 1 0 0 1 0-2h1.0039a1 1 0 0 1 0 2z"/><path d="m41.99707 35.0293a1.00059 1.00059 0 0 1 -.89453-.55176l-1.00391-2a.99968.99968 0 0 1 1.78711-.89649l1.00391 2a1.00027 1.00027 0 0 1 -.89258 1.44825z"/><path d="m41.99609 35.0293h-1a1 1 0 0 1 0-2h1a1 1 0 0 1 0 2z"/><path d="m12.51855 49.00293a3.5 3.5 0 1 1 3.5-3.5 3.50425 3.50425 0 0 1 -3.5 3.5zm0-5a1.5 1.5 0 1 0 1.5 1.5 1.50164 1.50164 0 0 0 -1.5-1.5z"/><path d="m32.01953 49.00293a3.5 3.5 0 1 1 3.5-3.5 3.50424 3.50424 0 0 1 -3.5 3.5zm0-5a1.5 1.5 0 1 0 1.5 1.5 1.50164 1.50164 0 0 0 -1.5-1.5z"/><path d="m51.52051 49.00293a3.5 3.5 0 1 1 3.5-3.5 3.50424 3.50424 0 0 1 -3.5 3.5zm0-5a1.5 1.5 0 1 0 1.5 1.5 1.50164 1.50164 0 0 0 -1.5-1.5z"/><path d="m21 30.99023h-2a.99927.99927 0 0 1 -.707-.293l-1.707-1.707h-.17188l-1.707 1.707a.99926.99926 0 0 1 -.707.293h-2.00012a3.00328 3.00328 0 0 1 -3-3v-4a3.00328 3.00328 0 0 1 3-3h9a3.00328 3.00328 0 0 1 3 3v4a3.00328 3.00328 0 0 1 -3 3zm-1.58594-2h1.58594a1.00067 1.00067 0 0 0 1-1v-4a1.00068 1.00068 0 0 0 -1-1h-9a1.00068 1.00068 0 0 0 -1 1v4a1.00067 1.00067 0 0 0 1 1h1.58594l1.707-1.707a.99928.99928 0 0 1 .707-.293h1a.99927.99927 0 0 1 .707.293z"/><path d="m21 33.99023a1 1 0 0 1 0-2 4.004 4.004 0 0 0 4-4 1 1 0 1 1 2 0 6.00656 6.00656 0 0 1 -6 6z"/><path d="m26 28.99023a.99942.99942 0 0 1 -1-1v-9a1 1 0 1 1 2 0v9a.99942.99942 0 0 1 -1 1z"/><path d="m10 26.99023h-1a1 1 0 1 1 0-2h1a1 1 0 0 1 0 2z"/><path d="m24 26.99023h-1a1 1 0 0 1 0-2h1a1 1 0 0 1 0 2z"/></svg>