<svg id="icons" height="512" viewBox="0 0 64 64" width="512" xmlns="http://www.w3.org/2000/svg"><path d="m18 59.995h28v3h-28z" fill="#8cc152"/><circle cx="32" cy="44.995" fill="#8cc152" r="4"/><path d="m46 35.99505v4a3.9989 3.9989 0 0 1 -4-4z" fill="#8cc152"/><path d="m46 39.99505v10a3.9989 3.9989 0 0 0 -4 4h-20a3.9989 3.9989 0 0 0 -4-4v-10a3.9989 3.9989 0 0 0 4-4h20a3.9989 3.9989 0 0 0 4 4zm-10 5a4 4 0 1 0 -4 4 3.9989 3.9989 0 0 0 4-4z" fill="#a0d468"/><g fill="#8cc152"><path d="m18 35.99505h4a3.9989 3.9989 0 0 1 -4 4z"/><path d="m18 56.995h28v3h-28z"/><path d="m46 53.995v3h-28v-3h4 20z"/><path d="m22 53.99505h-4v-4a3.9989 3.9989 0 0 1 4 4z"/><path d="m46 49.99505v4h-4a3.9989 3.9989 0 0 1 4-4z"/></g><path d="m46 9.995h4v5h-4z" fill="#434a54"/><path d="m35 18.995 1 3-3 1h-2l-3-1 1-3 2-6h2z" fill="#656d78"/><path d="m14 9.995h4v5h-4z" fill="#434a54"/><path d="m46 9.99505v10a2.00588 2.00588 0 0 1 -2 2h-8l-1-3h8v-12h-22v12h8l-1 3h-8a2.00588 2.00588 0 0 1 -2-2v-14.01a2.00588 2.00588 0 0 1 2-2h24a2.00588 2.00588 0 0 1 2 2z" fill="#545c66"/><path d="m43 6.995v12h-8l-2-6h-2l-2 6h-8v-12z" fill="#5d9cec"/><path d="m9.01563 51.99805a.99921.99921 0 0 1 -.82129-.42774 29.01086 29.01086 0 0 1 .00586-33.13867 1.0002 1.0002 0 1 1 1.64062 1.14453 27.00866 27.00866 0 0 0 -.00582 30.84961.99994.99994 0 0 1 -.81933 1.57227z"/><path d="m10 23.00391a.99985.99985 0 0 1 -.9502-.68946l-.97949-3a.99965.99965 0 1 1 1.90039-.62109l.9795 3a.99916.99916 0 0 1 -.63965 1.26074.98764.98764 0 0 1 -.31055.04981z"/><path d="m6 21.00391a1 1 0 0 1 -.31445-1.94922l3.0205-1a1 1 0 1 1 .62895 1.89844l-3.02051 1a1.00872 1.00872 0 0 1 -.31449.05078z"/><path d="m54.97852 51.99805a.99994.99994 0 0 1 -.81934-1.57227 27.00866 27.00866 0 0 0 .00582-30.84961 1.0002 1.0002 0 1 1 1.64062-1.14453 29.01086 29.01086 0 0 1 -.00586 33.13867 1.0005 1.0005 0 0 1 -.82124.42774z"/><path d="m54.97949 51.99805a.99983.99983 0 0 1 -.95019-.68946l-.9795-3a.99966.99966 0 0 1 1.9004-.62109l.97949 3a.99916.99916 0 0 1 -.63969 1.26074.98764.98764 0 0 1 -.31051.04981z"/><path d="m54.97949 51.99805a.99986.99986 0 0 1 -.31347-1.94922l3.0205-.998a.99964.99964 0 0 1 .627 1.89844l-3.02051.99805a.97517.97517 0 0 1 -.31352.05073z"/><path d="m46 55h-28a.99943.99943 0 0 1 -1-1v-18.00391a.99943.99943 0 0 1 1-1h28a.99943.99943 0 0 1 1 1v18.00391a.99943.99943 0 0 1 -1 1zm-27-2h26v-16.00391h-26z"/><path d="m18 40.99609a1 1 0 0 1 0-2 3.00328 3.00328 0 0 0 3-3 1 1 0 0 1 2 0 5.00588 5.00588 0 0 1 -5 5z"/><path d="m46 40.99609a5.00588 5.00588 0 0 1 -5-5 1 1 0 0 1 2 0 3.00328 3.00328 0 0 0 3 3 1 1 0 0 1 0 2z"/><path d="m42 55a.99943.99943 0 0 1 -1-1 5.00588 5.00588 0 0 1 5-5 1 1 0 0 1 0 2 3.00328 3.00328 0 0 0 -3 3 .99943.99943 0 0 1 -1 1z"/><path d="m22 55a.99943.99943 0 0 1 -1-1 3.00328 3.00328 0 0 0 -3-3 1 1 0 0 1 0-2 5.00588 5.00588 0 0 1 5 5 .99943.99943 0 0 1 -1 1z"/><path d="m32 50.00391a5 5 0 1 1 5-5 5.00589 5.00589 0 0 1 -5 5zm0-8a3 3 0 1 0 3 3 3.00328 3.00328 0 0 0 -3-3z"/><path d="m18 58a.99943.99943 0 0 1 -1-1v-3a1 1 0 0 1 2 0v3a.99943.99943 0 0 1 -1 1z"/><path d="m46 58h-28a1 1 0 0 1 0-2h28a1 1 0 0 1 0 2z"/><path d="m46 58a.99943.99943 0 0 1 -1-1v-3a1 1 0 0 1 2 0v3a.99943.99943 0 0 1 -1 1z"/><path d="m18 61a.99943.99943 0 0 1 -1-1v-3a1 1 0 0 1 2 0v3a.99943.99943 0 0 1 -1 1z"/><path d="m46 61h-28a1 1 0 0 1 0-2h28a1 1 0 0 1 0 2z"/><path d="m46 61a.99943.99943 0 0 1 -1-1v-3a1 1 0 0 1 2 0v3a.99943.99943 0 0 1 -1 1z"/><path d="m18 64a.99943.99943 0 0 1 -1-1v-3a1 1 0 0 1 2 0v3a.99943.99943 0 0 1 -1 1z"/><path d="m46 64h-28a1 1 0 0 1 0-2h28a1 1 0 0 1 0 2z"/><path d="m46 64a.99943.99943 0 0 1 -1-1v-3a1 1 0 0 1 2 0v3a.99943.99943 0 0 1 -1 1z"/><path d="m44.001 23h-8a.99891.99891 0 0 1 -.94825-.68359l-2.77248-8.31641h-.55859l-2.77246 8.31641a.9989.9989 0 0 1 -.94822.68359h-8a3.00328 3.00328 0 0 1 -3-3v-14.01465a3.00328 3.00328 0 0 1 3-3h24a3.00328 3.00328 0 0 1 3 3v14.01465a3.00328 3.00328 0 0 1 -3 3zm-7.2793-2h7.2793a1.00068 1.00068 0 0 0 1-1v-14.01465a1.00068 1.00068 0 0 0 -1-1h-24a1.00067 1.00067 0 0 0 -1 1v14.01465a1.00067 1.00067 0 0 0 1 1h7.27929l2.77246-8.31641a.99891.99891 0 0 1 .94825-.68359h2a.9989.9989 0 0 1 .94824.68359z"/><path d="m31.001 24a.99821.99821 0 0 1 -.31641-.05176l-3-1a.99964.99964 0 1 1 .63281-1.89648l3 1a.99986.99986 0 0 1 -.3164 1.94824z"/><path d="m33.001 24h-2a1 1 0 0 1 0-2h2a1 1 0 0 1 0 2z"/><path d="m33.001 24a.99986.99986 0 0 1 -.31641-1.94824l3-1a.99964.99964 0 1 1 .63281 1.89648l-3 1a.9982.9982 0 0 1 -.3164.05176z"/><path d="m44.001 27a1 1 0 0 1 0-2 5.00589 5.00589 0 0 0 5-5 1 1 0 0 1 2 0 7.00849 7.00849 0 0 1 -7 7z"/><path d="m50.001 21a.99942.99942 0 0 1 -1-1v-19a1 1 0 0 1 2 0v19a.99943.99943 0 0 1 -1 1z"/><path d="m44.001 27h-5a1 1 0 0 1 0-2h5a1 1 0 0 1 0 2z"/><path d="m39.001 27a.99942.99942 0 0 1 -1-1v-1a1 1 0 0 1 2 0v1a.99943.99943 0 0 1 -1 1z"/><path d="m18.001 16h-4a.99942.99942 0 0 1 -1-1v-5a.99942.99942 0 0 1 1-1h4a.99943.99943 0 0 1 1 1v5a.99943.99943 0 0 1 -1 1zm-3-2h2v-3h-2z"/><path d="m50.001 16h-4a.99942.99942 0 0 1 -1-1v-5a.99942.99942 0 0 1 1-1h4a.99943.99943 0 0 1 1 1v5a.99943.99943 0 0 1 -1 1zm-3-2h2v-3h-2z"/><path d="m43.001 20h-8a1 1 0 0 1 0-2h7v-10h-20v10h7.001a1 1 0 0 1 0 2h-8.001a.99942.99942 0 0 1 -1-1v-12a.99942.99942 0 0 1 1-1h22a.99943.99943 0 0 1 1 1v12a.99943.99943 0 0 1 -1 1z"/></svg>