<svg id="icons" height="512" viewBox="0 0 64 64" width="512" xmlns="http://www.w3.org/2000/svg"><path d="m35 55.5v3h-6v-15h6v4 4z" fill="#e6e9ed"/><path d="m20.01 22.5 2 5-2 1h-2l-2-1 2-5z" fill="#656d78"/><path d="m7.01 20.5h3v3h-3z" fill="#545c66"/><path d="m28.01 20.5h3v3h-3z" fill="#545c66"/><path d="m31.01 23.5v-3h-3v-2.02a2.00588 2.00588 0 0 0 -2-2h-14a2.00588 2.00588 0 0 0 -2 2v2.02h-3v3h3v2a2.00588 2.00588 0 0 0 2 2h4l2 1h2l2-1h4a2.00588 2.00588 0 0 0 2-2v-2zm30.99-15v35h-60v-35z" fill="#ed5565"/><path d="m28.01 23.5v2a2.00588 2.00588 0 0 1 -2 2h-4l-2-5h-2l-2 5h-4a2.00588 2.00588 0 0 1 -2-2v-7.02a2.00588 2.00588 0 0 1 2-2h14a2.00588 2.00588 0 0 1 2 2z" fill="#5d9cec"/><path d="m62 44.5a.99943.99943 0 0 1 -1-1v-34h-58v34a1 1 0 0 1 -2 0v-35a.99943.99943 0 0 1 1-1h60a.99943.99943 0 0 1 1 1v35a.99943.99943 0 0 1 -1 1z"/><path d="m11 9.5a.99943.99943 0 0 1 -1-1v-3a1 1 0 0 1 2 0v3a.99943.99943 0 0 1 -1 1z"/><path d="m14 6.5h-6a1 1 0 0 1 0-2h6a1 1 0 0 1 0 2z"/><path d="m25 9.5a.99943.99943 0 0 1 -1-1v-3a1 1 0 0 1 2 0v3a.99943.99943 0 0 1 -1 1z"/><path d="m28 6.5h-6a1 1 0 0 1 0-2h6a1 1 0 0 1 0 2z"/><path d="m39 9.5a.99943.99943 0 0 1 -1-1v-3a1 1 0 0 1 2 0v3a.99943.99943 0 0 1 -1 1z"/><path d="m42 6.5h-6a1 1 0 0 1 0-2h6a1 1 0 0 1 0 2z"/><path d="m53 9.5a.99943.99943 0 0 1 -1-1v-3a1 1 0 0 1 2 0v3a.99943.99943 0 0 1 -1 1z"/><path d="m56 6.5h-6a1 1 0 0 1 0-2h6a1 1 0 0 1 0 2z"/><path d="m63 44.5h-62a1 1 0 0 1 0-2h62a1 1 0 0 1 0 2z"/><path d="m29 59.5a.99943.99943 0 0 1 -1-1v-15a1 1 0 0 1 2 0v15a.99943.99943 0 0 1 -1 1z"/><path d="m35 59.5a.99943.99943 0 0 1 -1-1v-15a1 1 0 0 1 2 0v15a.99943.99943 0 0 1 -1 1z"/><path d="m36 48.5h-1a1 1 0 0 1 0-2h1a1 1 0 0 1 0 2z"/><path d="m36 52.5h-1a1 1 0 0 1 0-2h1a1 1 0 0 1 0 2z"/><path d="m36 56.5h-1a1 1 0 0 1 0-2h1a1 1 0 0 1 0 2z"/><path d="m57.001 19.50391h-21.00393a1 1 0 0 1 0-2h21.00393a1 1 0 0 1 0 2z"/><path d="m57.001 16.5h-21.00393a1 1 0 0 1 0-2h21.00393a1 1 0 0 1 0 2z"/><path d="m57.001 22.502h-21.00393a1 1 0 0 1 0-2h21.00393a1 1 0 0 1 0 2z"/><path d="m46.999 25.49609h-11.002a1 1 0 0 1 0-2h11.002a1 1 0 0 1 0 2z"/><path d="m42.999 30.501h-7.002a1 1 0 0 1 0-2h7.002a1 1 0 0 1 0 2z"/><path d="m47 29.501h-.999a1 1 0 0 1 0-2h.999a1 1 0 0 1 0 2z"/><path d="m47.001 31.501a.999.999 0 0 1 -.89551-.55274l-.999-2a1.00011 1.00011 0 0 1 1.78906-.89453l.999 2a.99991.99991 0 0 1 -.89355 1.44727z"/><path d="m47 31.501h-1a1 1 0 0 1 0-2h1a1 1 0 0 1 0 2z"/><path d="m26.01367 28.5h-4a1.00045 1.00045 0 0 1 -.92871-.62891l-1.74805-4.37109h-.64648l-1.748 4.37109a1.00045 1.00045 0 0 1 -.92871.62891h-4a3.00328 3.00328 0 0 1 -3-3v-7.01562a3.00328 3.00328 0 0 1 3-3h14a3.00328 3.00328 0 0 1 3 3v7.01562a3.00328 3.00328 0 0 1 -3.00005 3zm-3.32324-2h3.32324a1.00067 1.00067 0 0 0 1-1v-7.01562a1.00067 1.00067 0 0 0 -1-1h-14a1.00067 1.00067 0 0 0 -1 1v7.01562a1.00067 1.00067 0 0 0 1 1h3.32324l1.748-4.37109a1.00045 1.00045 0 0 1 .92876-.62891h2a1.00045 1.00045 0 0 1 .92871.62891z"/><path d="m18.0127 29.5a1.001 1.001 0 0 1 -.44629-.10547l-2-1a1.00011 1.00011 0 1 1 .89453-1.78906l2 1a1 1 0 0 1 -.44824 1.89453z"/><path d="m20.01367 29.5h-2a1 1 0 0 1 0-2h2a1 1 0 1 1 0 2z"/><path d="m20.01465 29.5a1 1 0 0 1 -.44824-1.89453l2-1a1.00011 1.00011 0 0 1 .89453 1.78906l-2 1a1.00108 1.00108 0 0 1 -.44629.10547z"/><path d="m26.01367 31.48633a1 1 0 0 1 0-2 3.99063 3.99063 0 0 0 3.98633-3.98633 1 1 0 0 1 2 0 5.99323 5.99323 0 0 1 -5.98633 5.98633z"/><path d="m31.01367 26.5a.99943.99943 0 0 1 -1-1v-12a1 1 0 0 1 2 0v12a.99942.99942 0 0 1 -1 1z"/><path d="m26.01367 31.5h-2a1 1 0 0 1 0-2h2a1 1 0 1 1 0 2z"/><path d="m24.01367 31.5a.99943.99943 0 0 1 -1-1v-1a1 1 0 0 1 2 0v1a.99942.99942 0 0 1 -1 1z"/><path d="m10.01367 24.5h-3a.99943.99943 0 0 1 -1-1v-3a.99943.99943 0 0 1 1-1h3a.99942.99942 0 0 1 1 1v3a.99942.99942 0 0 1 -1 1zm-2-2h1v-1h-1z"/><path d="m31.01367 24.5h-3a.99943.99943 0 0 1 -1-1v-3a.99943.99943 0 0 1 1-1h3a.99942.99942 0 0 1 1 1v3a.99942.99942 0 0 1 -1 1zm-2-2h1v-1h-1z"/><path d="m57 36.5h-50a1 1 0 0 1 0-2h50a1 1 0 0 1 0 2z"/><path d="m18 39.5h-11a1 1 0 0 1 0-2h11a1 1 0 0 1 0 2z"/><path d="m35 39.5h-6a1 1 0 0 1 0-2h6a1 1 0 0 1 0 2z"/><path d="m57 39.5h-11a1 1 0 0 1 0-2h11a1 1 0 0 1 0 2z"/></svg>