<svg id="icons" height="512" viewBox="0 0 64 64" width="512" xmlns="http://www.w3.org/2000/svg"><path d="m29 27h6v22h-6z" fill="#656d78"/><path d="m29 27v22l-3-2v-14.55z" fill="#545c66"/><path d="m54 15a6.01764 6.01764 0 0 1 6 6v20a6.01764 6.01764 0 0 1 -6 6h-8l-1.65-3h9.65a3.00882 3.00882 0 0 0 3-3v-20a3.00882 3.00882 0 0 0 -3-3h-44a3.00882 3.00882 0 0 0 -3 3v20a3.00882 3.00882 0 0 0 3 3h9.65l-1.65 3h-8a6.01764 6.01764 0 0 1 -6-6v-20a6.01764 6.01764 0 0 1 6-6z" fill="#656d78"/><path d="m1 25h3v12h-3z" fill="#545c66"/><path d="m60 25h3v12h-3z" fill="#545c66"/><path d="m26 32.45v14.55h-8l1.65-3z" fill="#434a54"/><path d="m44.35 44 1.65 3h-8v-14.55z" fill="#434a54"/><path d="m35 49v-22l3 5.45v14.55z" fill="#545c66"/><path d="m57 21v20a3.00882 3.00882 0 0 1 -3 3h-9.65l-6.35-11.55-3-5.45h-6l-3 5.45-6.35 11.55h-9.65a3.00882 3.00882 0 0 1 -3-3v-20a3.00882 3.00882 0 0 1 3-3h44a3.00882 3.00882 0 0 1 3 3z" fill="#5d9cec"/><path d="m54 48a1 1 0 0 1 0-2 5.00588 5.00588 0 0 0 5-5v-20a5.00588 5.00588 0 0 0 -5-5h-44a5.00588 5.00588 0 0 0 -5 5v20a5.00588 5.00588 0 0 0 5 5 1 1 0 0 1 0 2 7.00849 7.00849 0 0 1 -7-7v-20a7.00818 7.00818 0 0 1 7-7h44a7.00818 7.00818 0 0 1 7 7v20a7.00848 7.00848 0 0 1 -7 7z"/><path d="m54 48a1 1 0 0 1 0-2 5.00588 5.00588 0 0 0 5-5v-20a5.00588 5.00588 0 0 0 -5-5h-44a5.00588 5.00588 0 0 0 -5 5v20a5.00588 5.00588 0 0 0 5 5 1 1 0 0 1 0 2 7.00849 7.00849 0 0 1 -7-7v-20a7.00818 7.00818 0 0 1 7-7h44a7.00818 7.00818 0 0 1 7 7v20a7.00848 7.00848 0 0 1 -7 7z"/><path d="m54 45a1 1 0 0 1 0-2 2.0026 2.0026 0 0 0 2-2v-20a2.00229 2.00229 0 0 0 -2-2h-44a2.00229 2.00229 0 0 0 -2 2v20a2.0026 2.0026 0 0 0 2 2 1 1 0 0 1 0 2 4.004 4.004 0 0 1 -4-4v-20a4.00427 4.00427 0 0 1 4-4h44a4.00427 4.00427 0 0 1 4 4v20a4.004 4.004 0 0 1 -4 4z"/><path d="m54 48h-8a1 1 0 0 1 0-2h8a1 1 0 0 1 0 2z"/><path d="m46.001 48a.99779.99779 0 0 1 -.877-.51855l-11-19.99952a.9998.9998 0 0 1 1.752-.96386l11 20.00048a1.00029 1.00029 0 0 1 -.875 1.48145z"/><path d="m18 48h-8a1 1 0 0 1 0-2h8a1 1 0 0 1 0 2z"/><path d="m17.999 48a1.00029 1.00029 0 0 1 -.875-1.48145l11-20.00048a.9998.9998 0 0 1 1.752.96386l-11 19.99952a.99974.99974 0 0 1 -.877.51855z"/><path d="m35 28h-6a1 1 0 0 1 0-2h6a1 1 0 0 1 0 2z"/><path d="m26 48a.99943.99943 0 0 1 -1-1v-14.54639a1 1 0 1 1 2 0v14.54639a.99943.99943 0 0 1 -1 1z"/><path d="m28.999 50a.99943.99943 0 0 1 -.55371-.168l-3-2a1 1 0 0 1 1.1094-1.664l3 2a1 1 0 0 1 -.55569 1.832z"/><path d="m29 50a.99943.99943 0 0 1 -1-1v-22a1 1 0 0 1 2 0v22a.99943.99943 0 0 1 -1 1z"/><path d="m26 48h-8a1 1 0 0 1 0-2h8a1 1 0 0 1 0 2z"/><path d="m38 48a.99943.99943 0 0 1 -1-1v-14.54687a1 1 0 0 1 2 0v14.54687a.99943.99943 0 0 1 -1 1z"/><path d="m35.001 50a1 1 0 0 1 -.55567-1.832l3-2a1 1 0 1 1 1.10936 1.664l-3 2a.99943.99943 0 0 1 -.55369.168z"/><path d="m35 50a.99943.99943 0 0 1 -1-1v-22a1 1 0 0 1 2 0v22a.99943.99943 0 0 1 -1 1z"/><path d="m46 48h-8a1 1 0 0 1 0-2h8a1 1 0 0 1 0 2z"/><path d="m35 50h-6a1 1 0 0 1 0-2h6a1 1 0 0 1 0 2z"/><path d="m19.65039 45h-9.65039a1 1 0 0 1 0-2h9.65039a1 1 0 0 1 0 2z"/><path d="m54 45h-9.65039a1 1 0 0 1 0-2h9.65039a1 1 0 0 1 0 2z"/><path d="m4 38h-3a.99943.99943 0 0 1 -1-1v-12a.99974.99974 0 0 1 1-1h3a.99974.99974 0 0 1 1 1v12a.99943.99943 0 0 1 -1 1zm-2-2h1v-10h-1z"/><path d="m63 38h-3a.99943.99943 0 0 1 -1-1v-12a.99974.99974 0 0 1 1-1h3a.99974.99974 0 0 1 1 1v12a.99943.99943 0 0 1 -1 1zm-2-2h1v-10h-1z"/></svg>