<svg id="icons" height="512" viewBox="0 0 64 64" width="512" xmlns="http://www.w3.org/2000/svg"><path d="m57.5 47.99v2l-2 3-2-3v-2z" fill="#ccd1d9"/><path d="m57.5 16.99v9h-4v-10a2 2 0 1 1 4 0z" fill="#656d78"/><path d="m53.5 25.99h4v22h-4z" fill="#656d78"/><path d="m28.51 14.98v2a2.00588 2.00588 0 0 1 -2 2h-2l-1-1h-1l-1 1h-2a2.00588 2.00588 0 0 1 -2-2v-3a2.00588 2.00588 0 0 1 2-2h7a2.00588 2.00588 0 0 1 2 2z" fill="#5d9cec"/><path d="m43.5 7v-6h-34v56h40v-50zm-14.99 7.98v2a2.00591 2.00591 0 0 1 -2 2h-2l-1-1h-1l-1 1h-2a2.00583 2.00583 0 0 1 -2-2v-3a2.0058 2.0058 0 0 1 2-2h7a2.00587 2.00587 0 0 1 2 2z" fill="#e6e9ed"/><path d="m9.5 57h37v3h-3l-37-.01v-52.99-3h3z" fill="#ccd1d9"/><path d="m6.5 59.99 37 .01v3l-40-.01v-55.99h3z" fill="#e6e9ed"/><path d="m49.5 7h-6v-6z" fill="#f5f7fa"/><path d="m49.5 58.00293-40-.00586a1.00005 1.00005 0 0 1 -1-1v-55.99414a.99943.99943 0 0 1 1-1h34a1.001 1.001 0 0 1 .707.293l6 5.99414a.99928.99928 0 0 1 .293.707v50.00586a1.00026 1.00026 0 0 1 -1 1zm-39-2.00586 38 .00586v-48.5918l-5.41406-5.4082h-32.58594z"/><path d="m46.50293 61-40-.00586a1.00005 1.00005 0 0 1 -1-1v-55.99414a.99943.99943 0 0 1 1-1h2.99707a1 1 0 0 1 0 2h-1.99707v53.99414l38 .00586v-2.00293a1 1 0 0 1 2 0v3.00293a1.00026 1.00026 0 0 1 -1 1z"/><path d="m43.5 63.99707-40-.00586a1.00005 1.00005 0 0 1 -1-1v-55.99414a.99943.99943 0 0 1 1-1h2.99707a1 1 0 0 1 0 2h-1.99707v53.99414l38 .00586v-2.00293a1 1 0 0 1 2 0v3.00293a1.00026 1.00026 0 0 1 -1 1z"/><path d="m49.5 7.99707h-6a1 1 0 0 1 0-2h6a1 1 0 0 1 0 2z"/><path d="m43.5 7.99707a.99943.99943 0 0 1 -1-1v-5.99414a1 1 0 1 1 2 0v5.99414a.99943.99943 0 0 1 -1 1z"/><path d="m57.5 16.99316a.99942.99942 0 0 1 -1-1 1 1 0 0 0 -2 0 1 1 0 1 1 -2 0 3 3 0 0 1 6 0 .99942.99942 0 0 1 -1 1z"/><path d="m53.5 50.99414a.99942.99942 0 0 1 -1-1v-34.001a1 1 0 0 1 2 0v34.001a.99942.99942 0 0 1 -1 1z"/><path d="m57.5 50.99414a.99942.99942 0 0 1 -1-1v-34.001a1 1 0 0 1 2 0v34.001a.99942.99942 0 0 1 -1 1z"/><path d="m55.501 53.99414a.99845.99845 0 0 1 -.833-.44531l-2-3a1 1 0 1 1 1.664-1.10938l2 3a1 1 0 0 1 -.83105 1.55469z"/><path d="m55.499 53.99414a1 1 0 0 1 -.83105-1.55469l2-3a1 1 0 0 1 1.66405 1.10938l-2 3a.99845.99845 0 0 1 -.833.44531z"/><path d="m55.5 54.99414a.99942.99942 0 0 1 -1-1v-1a1 1 0 0 1 2 0v1a.99942.99942 0 0 1 -1 1z"/><path d="m57.5 48.99414h-4a1 1 0 0 1 0-2h4a1 1 0 0 1 0 2z"/><path d="m60.5 19.99316a.99942.99942 0 0 1 -1-1 1.00068 1.00068 0 0 0 -1-1 1 1 0 0 1 0-2 3.00328 3.00328 0 0 1 3 3 .99942.99942 0 0 1 -1 1z"/><path d="m60.5 31.99316a.99942.99942 0 0 1 -1-1v-12a1 1 0 0 1 2 0v12a.99942.99942 0 0 1 -1 1z"/><path d="m58.5 17.99316h-1a1 1 0 0 1 0-2h1a1 1 0 0 1 0 2z"/><path d="m57.5 26.99316h-4a1 1 0 0 1 0-2h4a1 1 0 0 1 0 2z"/><path d="m42.5 34h-26a1 1 0 0 1 0-2h26a1 1 0 0 1 0 2z"/><path d="m42.5 30.99805h-26a1 1 0 0 1 0-2h26a1 1 0 0 1 0 2z"/><path d="m42.5 27.99805h-26a1 1 0 0 1 0-2h26a1 1 0 0 1 0 2z"/><path d="m42.5 37.001h-26a1 1 0 0 1 0-2h26a1 1 0 0 1 0 2z"/><path d="m42.5 40.001h-26a1 1 0 0 1 0-2h26a1 1 0 0 1 0 2z"/><path d="m29.5 43h-13a1 1 0 0 1 0-2h13a1 1 0 0 1 0 2z"/><path d="m42.5 50.99707h-7a1 1 0 0 1 0-2h7a1 1 0 0 1 0 2z"/><path d="m37.5 52.99707a.99943.99943 0 0 1 -1-1v-4a1 1 0 0 1 2 0v4a.99943.99943 0 0 1 -1 1z"/><path d="m37.499 52.99707a1.00009 1.00009 0 0 1 -.79882-1.59961l3-4a.99961.99961 0 1 1 1.5996 1.19922l-3 4a.99553.99553 0 0 1 -.80078.40039z"/><path d="m40.5 52.99707a.99943.99943 0 0 1 -1-1v-4a1 1 0 0 1 2 0v4a.99943.99943 0 0 1 -1 1z"/><path d="m26.50781 19.97559h-2a.99928.99928 0 0 1 -.707-.293l-.707-.707h-.17187l-.707.707a.99927.99927 0 0 1 -.707.293h-2a3.00329 3.00329 0 0 1 -3-3v-3a3.00328 3.00328 0 0 1 3-3h7a3.00328 3.00328 0 0 1 3 3v3a3.00328 3.00328 0 0 1 -3.00013 3zm-1.58593-2h1.58593a1.00068 1.00068 0 0 0 1-1v-3a1.00067 1.00067 0 0 0 -1-1h-7a1.00067 1.00067 0 0 0 -1 1v3a1.00068 1.00068 0 0 0 1 1h1.58594l.707-.707a.99927.99927 0 0 1 .707-.293h1a.99926.99926 0 0 1 .707.293z"/><path d="m26.50781 22.97559a1 1 0 0 1 0-2 4.004 4.004 0 0 0 4-4 1 1 0 0 1 2 0 6.00656 6.00656 0 0 1 -6 6z"/><path d="m31.50781 17.97559a.99943.99943 0 0 1 -1-1v-6a1 1 0 0 1 2 0v6a.99942.99942 0 0 1 -1 1z"/><path d="m17.50781 15.97559h-1a1 1 0 0 1 0-2h1a1 1 0 0 1 0 2z"/><path d="m29.50781 15.97559h-1a1 1 0 0 1 0-2h1a1 1 0 0 1 0 2z"/></svg>