<svg id="icons" height="512" viewBox="0 0 64 64" width="512" xmlns="http://www.w3.org/2000/svg"><path d="m47 41.998h4v5h-4z" fill="#434a54"/><path d="m11 41.998h4v5h-4z" fill="#434a54"/><path d="m44 37.998v14h-10l-2-6h-2l-2 6h-10v-14z" fill="#5d9cec"/><path d="m34 51.998 1 3-3 1h-2l-3-1 1-3 2-6h2z" fill="#656d78"/><path d="m47 41.99805v11a2.00588 2.00588 0 0 1 -2 2h-10l-1-3h10v-14h-26v14h10l-1 3h-10a2.00588 2.00588 0 0 1 -2-2v-16.01a2.00588 2.00588 0 0 1 2-2h28a2.00588 2.00588 0 0 1 2 2z" fill="#545c66"/><path d="m61.01 18.008 1.98 7h-3.98z" fill="#ffce54"/><path d="m46.99 27.98805h.03a3.01519 3.01519 0 0 1 -3.01 3.02l-.03-.02h-25.98v.02a3.01518 3.01518 0 0 1 -3.02-3.01h.02v-12.73l15.99 3.73 16-3.73z" fill="#545c66"/><path d="m60.99 11.998-14 3.27-16 3.73-15.99-3.73-13.99-3.27 29.98-7z" fill="#656d78"/><path d="m1.00684 13a.99994.99994 0 0 1 -.22657-1.97363l29.98438-7.002a.99515.99515 0 0 1 .45508 0l29.998 7.002a.99986.99986 0 1 1 -.45507 1.94726l-29.77047-6.94824-29.75684 6.94824a1.01962 1.01962 0 0 1 -.22851.02637z"/><path d="m30.99219 19.99805a.99839.99839 0 0 1 -.22754-.02637l-29.98438-6.99805a.99986.99986 0 0 1 .45508-1.94726l29.75684 6.94433 29.77051-6.94433a.99986.99986 0 1 1 .45507 1.94726l-29.998 6.998a.99846.99846 0 0 1 -.22758.02642z"/><path d="m59.00879 26.00977a1.029 1.029 0 0 1 -.27539-.03809 1.00036 1.00036 0 0 1 -.6875-1.23633l1.998-7.002a1.00029 1.00029 0 1 1 1.92382.54883l-1.998 7.002a1.00109 1.00109 0 0 1 -.96093.72559z"/><path d="m62.99121 26.00977a1 1 0 0 1 -.96094-.72754l-1.98632-7.002a.99975.99975 0 1 1 1.92382-.54492l1.98633 7.002a.999.999 0 0 1 -.68945 1.23438.97758.97758 0 0 1 -.27344.03808z"/><path d="m62.99219 26.00977h-3.98438a1 1 0 0 1 0-2h3.98438a1 1 0 0 1 0 2z"/><path d="m15.00391 29.002a.99942.99942 0 0 1 -1-1v-12.73442a1 1 0 0 1 2 0v12.73442a.99942.99942 0 0 1 -1 1z"/><path d="m46.99414 29.002a.99942.99942 0 0 1 -1-1v-12.73637a1 1 0 0 1 2 0v12.73637a.99942.99942 0 0 1 -1 1z"/><path d="m44.00586 32.00586a1 1 0 0 1 0-2 2.018 2.018 0 0 0 2.01562-2.01563 1 1 0 1 1 2 0 4.02063 4.02063 0 0 1 -4.01562 4.01563z"/><path d="m43.98438 31.99219h-25.98438a1 1 0 0 1 0-2h25.98438a1 1 0 0 1 0 2z"/><path d="m18 32.00586a4.02063 4.02063 0 0 1 -4.01562-4.01563 1 1 0 0 1 2 0 2.018 2.018 0 0 0 2.01562 2.01563 1 1 0 0 1 0 2z"/><path d="m61.00586 19.00781a.99942.99942 0 0 1 -1-1v-6.00781a1 1 0 0 1 2 0v6.00781a.99942.99942 0 0 1 -1 1z"/><path d="m43.00781 28.01172h-24a1 1 0 0 1 0-2h24a1 1 0 0 1 0 2z"/><path d="m44.999 56.002h-10a.9989.9989 0 0 1 -.94824-.68359l-2.77244-8.31641h-.55859l-2.77246 8.31641a.99891.99891 0 0 1 -.94825.68359h-10a3.00328 3.00328 0 0 1 -3-3v-16.01567a3.00328 3.00328 0 0 1 3-3h28a3.00328 3.00328 0 0 1 3 3v16.01567a3.00328 3.00328 0 0 1 -3.00002 3zm-9.27929-2h9.27929a1.00067 1.00067 0 0 0 1-1v-16.01567a1.00067 1.00067 0 0 0 -1-1h-28a1.00068 1.00068 0 0 0 -1 1v16.01567a1.00068 1.00068 0 0 0 1 1h9.2793l2.77246-8.3164a.99889.99889 0 0 1 .94824-.6836h2a.9989.9989 0 0 1 .94825.6836z"/><path d="m31.999 57.002a.99986.99986 0 0 1 -.3164-1.94824l3-1a.99964.99964 0 0 1 .63281 1.89649l-3 1a.99848.99848 0 0 1 -.31641.05175z"/><path d="m31.999 57.002h-2a1 1 0 1 1 0-2h2a1 1 0 0 1 0 2z"/><path d="m29.999 57.002a.99846.99846 0 0 1 -.3164-.05175l-3-1a.99964.99964 0 1 1 .63281-1.89649l3 1a.99986.99986 0 0 1 -.31641 1.94824z"/><path d="m16.999 60.002a7.00849 7.00849 0 0 1 -7-7 1 1 0 1 1 2 0 5.00589 5.00589 0 0 0 5 5 1 1 0 0 1 0 2z"/><path d="m10.999 54.002a.99942.99942 0 0 1 -1-1v-26a1 1 0 0 1 2 0v26a.99942.99942 0 0 1 -1 1z"/><path d="m21.999 60.002h-5a1 1 0 0 1 0-2h5a1 1 0 0 1 0 2z"/><path d="m21.999 60.002a.99942.99942 0 0 1 -1-1v-1a1 1 0 1 1 2 0v1a.99942.99942 0 0 1 -1 1z"/><path d="m50.999 48.002h-4a.99942.99942 0 0 1 -1-1v-5a.99943.99943 0 0 1 1-1h4a.99942.99942 0 0 1 1 1v5a.99942.99942 0 0 1 -1 1zm-3-2h2v-3h-2z"/><path d="m14.999 48.002h-4a.99942.99942 0 0 1 -1-1v-5a.99943.99943 0 0 1 1-1h4a.99942.99942 0 0 1 1 1v5a.99942.99942 0 0 1 -1 1zm-3-2h2v-3h-2z"/><path d="m43.999 53.002h-10a1 1 0 0 1 0-2h9v-12h-24v12h9a1 1 0 0 1 0 2h-10a.99942.99942 0 0 1 -1-1v-14a.99943.99943 0 0 1 1-1h26a.99942.99942 0 0 1 1 1v14a.99942.99942 0 0 1 -1 1z"/></svg>