<svg id="icons" height="512" viewBox="0 0 64 64" width="512" xmlns="http://www.w3.org/2000/svg"><path d="m41 34.51h4v4h-4z" fill="#434a54"/><path d="m41 34.51v9a2.00588 2.00588 0 0 1 -2 2h-6l-1-3h6v-11h-18v11h6l-1 3h-6a2.00588 2.00588 0 0 1 -2-2v-13.01a2.00588 2.00588 0 0 1 2-2h20a2.00588 2.00588 0 0 1 2 2z" fill="#545c66"/><path d="m59.49 1.51a3.5 3.5 0 1 1 -3.16 5 3.47882 3.47882 0 0 1 0-3 3.50489 3.50489 0 0 1 3.16-2z" fill="#e6e9ed"/><path d="m13 34.51h4v4h-4z" fill="#434a54"/><path d="m48.01 6.51v11.24a22.97281 22.97281 0 0 0 -3-2.48v-8.76z" fill="#656d78"/><path d="m45 38.51v-4h-4v-4.01a2.00588 2.00588 0 0 0 -2-2h-20a2.00588 2.00588 0 0 0 -2 2v4.01h-4v4h4v5a2.00588 2.00588 0 0 0 2 2h6l3 1h2l3-1h6a2.00588 2.00588 0 0 0 2-2v-5zm-15.01-25.02a23 23 0 1 1 -23 23 23.00326 23.00326 0 0 1 23-23z" fill="#da4453"/><path d="m38 31.51v11h-6l-2-6h-2l-2 6h-6v-11z" fill="#5d9cec"/><path d="m29.99 59.49a23 23 0 1 0 -23-23 23.00326 23.00326 0 0 0 23 23zm18.02-41.74a25.99916 25.99916 0 1 1 -36-.04 24.45587 24.45587 0 0 1 3-2.47 25.99222 25.99222 0 0 1 30 .03 22.97281 22.97281 0 0 1 3 2.48z" fill="#ed5565"/><path d="m32 42.51 1 3-3 1h-2l-3-1 1-3 2-6h2z" fill="#656d78"/><path d="m1.01 3.51h55.32a3.47882 3.47882 0 0 0 0 3h-55.32z" fill="#ccd1d9"/><path d="m15.01 6.51v8.73a24.45587 24.45587 0 0 0 -3 2.47v-11.2z" fill="#656d78"/><path d="m29.99023 63.49023a27 27 0 1 1 27-27 27.03078 27.03078 0 0 1 -27 27zm0-52a25 25 0 1 0 25 25 25.02818 25.02818 0 0 0 -25-25z"/><path d="m29.99023 60.49023a24 24 0 1 1 24-24 24.0275 24.0275 0 0 1 -24 24zm0-46a22 22 0 1 0 22 22 22.0249 22.0249 0 0 0 -22-22z"/><path d="m56.33008 7.50977h-55.32227a1 1 0 0 1 0-2h55.32227a1 1 0 0 1 0 2z"/><path d="m56.33008 4.50977h-55.32227a1 1 0 1 1 0-2h55.32227a1 1 0 1 1 0 2z"/><path d="m59.49219 9.50977a4.5 4.5 0 1 1 4.5-4.5 4.506 4.506 0 0 1 -4.5 4.5zm0-7a2.5 2.5 0 1 0 2.5 2.5 2.50336 2.50336 0 0 0 -2.5-2.5z"/><path d="m12.00781 18.71289a.99942.99942 0 0 1 -1-1v-11.20312a1 1 0 0 1 2 0v11.20312a.99942.99942 0 0 1 -1 1z"/><path d="m48.01172 18.74805a.99942.99942 0 0 1 -1-1v-11.23828a1 1 0 0 1 2 0v11.23828a.99943.99943 0 0 1 -1 1z"/><path d="m45.00977 16.26563a.99942.99942 0 0 1 -1-1v-8.75586a1 1 0 0 1 2 0v8.75586a.99943.99943 0 0 1 -1 1z"/><path d="m15.00977 16.26563a.99942.99942 0 0 1 -1-1v-8.75586a1 1 0 0 1 2 0v8.75586a.99943.99943 0 0 1 -1 1z"/><path d="m38.99805 46.51172h-6a.99891.99891 0 0 1 -.94825-.68359l-2.77246-8.31641h-.55859l-2.77246 8.31641a.9989.9989 0 0 1 -.94824.68359h-6a3.00328 3.00328 0 0 1 -3-3v-13.01563a3.00328 3.00328 0 0 1 3-3h20a3.00329 3.00329 0 0 1 3 3v13.01563a3.00328 3.00328 0 0 1 -3 3zm-5.2793-2h5.2793a1.00068 1.00068 0 0 0 1-1v-13.01563a1.00069 1.00069 0 0 0 -1-1h-20a1.00068 1.00068 0 0 0 -1 1v13.01563a1.00067 1.00067 0 0 0 1 1h5.27929l2.77246-8.31641a.99891.99891 0 0 1 .94825-.68359h2a.9989.9989 0 0 1 .94824.68359z"/><path d="m27.99805 47.51172a.99821.99821 0 0 1 -.31641-.05176l-3-1a.99964.99964 0 1 1 .63281-1.89648l3 1a.99986.99986 0 0 1 -.3164 1.94824z"/><path d="m29.99805 47.51172h-2a1 1 0 0 1 0-2h2a1 1 0 1 1 0 2z"/><path d="m29.99805 47.51172a.99986.99986 0 0 1 -.31641-1.94824l3-1a.99964.99964 0 1 1 .63281 1.89652l-3 1a.9982.9982 0 0 1 -.3164.05172z"/><path d="m38.99805 50.51172a1 1 0 0 1 0-2 5.00589 5.00589 0 0 0 5-5 1 1 0 0 1 2 0 7.0085 7.0085 0 0 1 -7 7z"/><path d="m44.99805 44.51172a.99942.99942 0 0 1 -1-1v-18a1 1 0 0 1 2 0v18a.99943.99943 0 0 1 -1 1z"/><path d="m38.99805 50.51172h-3a1 1 0 0 1 0-2h3a1 1 0 1 1 0 2z"/><path d="m35.99805 50.51172a.99942.99942 0 0 1 -1-1v-1a1 1 0 0 1 2 0v1a.99943.99943 0 0 1 -1 1z"/><path d="m16.99805 39.51172h-4a.99942.99942 0 0 1 -1-1v-4a.99942.99942 0 0 1 1-1h4a.99942.99942 0 0 1 1 1v4a.99943.99943 0 0 1 -1 1zm-3-2h2v-2h-2z"/><path d="m44.99805 39.51172h-4a.99942.99942 0 0 1 -1-1v-4a.99942.99942 0 0 1 1-1h4a.99942.99942 0 0 1 1 1v4a.99943.99943 0 0 1 -1 1zm-3-2h2v-2h-2z"/><path d="m37.99805 43.51172h-6a1 1 0 0 1 0-2h5v-9h-16v9h5a1 1 0 1 1 0 2h-6a.99942.99942 0 0 1 -1-1v-11a.99942.99942 0 0 1 1-1h18a.99942.99942 0 0 1 1 1v11a.99943.99943 0 0 1 -1 1z"/></svg>