<svg id="icons" height="512" viewBox="0 0 64 64" width="512" xmlns="http://www.w3.org/2000/svg"><path d="m35 18.015 1 3-3 1h-2l-3-1 1-3 2-6h2z" fill="#656d78"/><path d="m5 53.01527v10a4.01176 4.01176 0 0 1 -4-4v-10a4.01176 4.01176 0 0 0 4 4z" fill="#e6e9ed"/><path d="m41 7.015v11h-6l-2-6h-2l-2 6h-6v-11z" fill="#5d9cec"/><path d="m63 40.01527v9a4.01176 4.01176 0 0 1 -4 4h-54a4.01176 4.01176 0 0 1 -4-4v-11c0-2.2 1.8-3 4-3h54a4.01176 4.01176 0 0 1 4 4z" fill="#5d9cec"/><path d="m59 63.01527v-10a4.01176 4.01176 0 0 0 4-4v10a4.01176 4.01176 0 0 1 -4 4z" fill="#e6e9ed"/><path d="m5 29.01527v6c-2.2 0-4 .8-4 3v-6c0-2.2 1.8-3 4-3z" fill="#e6e9ed"/><path d="m16 10.015h4v4h-4z" fill="#434a54"/><path d="m5 29.015h54v6h-54z" fill="#ccd1d9"/><path d="m63 33.01527v6a4.01176 4.01176 0 0 0 -4-4v-6a4.01176 4.01176 0 0 1 4 4z" fill="#e6e9ed"/><path d="m5 53.015h54v10h-54z" fill="#f5f7fa"/><path d="m44 10.015h4v4h-4z" fill="#434a54"/><path d="m23 7.01527v11h6l-1 3h-6a2.00588 2.00588 0 0 1 -2-2v-13.02a2.00588 2.00588 0 0 1 2-2h20a2.00588 2.00588 0 0 1 2 2v13.02a2.00588 2.00588 0 0 1 -2 2h-6l-1-3h6v-11z" fill="#545c66"/><path d="m59 53.99609h-54a5.00588 5.00588 0 0 1 -5-5v-17c0-2.50488 1.86914-4 5-4h54a5.00589 5.00589 0 0 1 5 5v16a5.00588 5.00588 0 0 1 -5 5zm-54-24c-3 0-3 1.50489-3 2v17a3.00328 3.00328 0 0 0 3 3h54a3.00328 3.00328 0 0 0 3-3v-16a3.00328 3.00328 0 0 0 -3-3z"/><path d="m63 40a.99943.99943 0 0 1 -1-1 3.00411 3.00411 0 0 0 -3-3.001h-54c-3 0-3 1.50586-3 2.001a1 1 0 0 1 -2 0c0-2.50488 1.86914-4.001 5-4.001h54a5.0061 5.0061 0 0 1 5 5.001.99943.99943 0 0 1 -1 1z"/><path d="m59 64h-54a5.00588 5.00588 0 0 1 -5-5v-20.00391a1 1 0 0 1 2 0v20.00391a3.00328 3.00328 0 0 0 3 3h54a3.00328 3.00328 0 0 0 3-3v-19.00391a1 1 0 0 1 2 0v19.00391a5.00588 5.00588 0 0 1 -5 5z"/><path d="m5 64a.99943.99943 0 0 1 -1-1v-10.00391a1 1 0 0 1 2 0v10.00391a.99943.99943 0 0 1 -1 1z"/><path d="m59 64a.99943.99943 0 0 1 -1-1v-10.00391a1 1 0 0 1 2 0v10.00391a.99943.99943 0 0 1 -1 1z"/><path d="m24 40.99414h-9a1 1 0 0 1 0-2h9a1 1 0 0 1 0 2z"/><path d="m29 40.99414h-2a1 1 0 0 1 0-2h2a1 1 0 0 1 0 2z"/><path d="m37.99512 44.99414h-10.99512a1 1 0 0 1 0-2h10.99512a1 1 0 0 1 0 2z"/><path d="m48.99512 48.99512h-10a1 1 0 0 1 0-2h10a1 1 0 0 1 0 2z"/><path d="m35.99512 48.99512h-2a1 1 0 0 1 0-2h2a1 1 0 0 1 0 2z"/><path d="m5 35.999a.99942.99942 0 0 1 -1-1v-6.00291a1 1 0 1 1 2 0v6.00291a.99942.99942 0 0 1 -1 1z"/><path d="m59 35.999a.99942.99942 0 0 1 -1-1v-6.00291a1 1 0 1 1 2 0v6.00291a.99942.99942 0 0 1 -1 1z"/><path d="m42 22h-6a.9989.9989 0 0 1 -.94824-.68359l-2.77246-8.31641h-.5586l-2.77246 8.31641a.9989.9989 0 0 1 -.94824.68359h-6a3.00328 3.00328 0 0 1 -3-3v-13.01562a3.00328 3.00328 0 0 1 3-3h20a3.00328 3.00328 0 0 1 3 3v13.01562a3.00328 3.00328 0 0 1 -3 3zm-5.2793-2h5.2793a1.00067 1.00067 0 0 0 1-1v-13.01562a1.00067 1.00067 0 0 0 -1-1h-20a1.00067 1.00067 0 0 0 -1 1v13.01562a1.00067 1.00067 0 0 0 1 1h5.2793l2.77246-8.31641a.9989.9989 0 0 1 .94824-.68359h2a.9989.9989 0 0 1 .94824.68359z"/><path d="m31 23a.99826.99826 0 0 1 -.31641-.05176l-3-1a.99964.99964 0 1 1 .63282-1.89648l3 1a.99986.99986 0 0 1 -.31641 1.94824z"/><path d="m33 23h-2a1 1 0 0 1 0-2h2a1 1 0 0 1 0 2z"/><path d="m33 23a.99986.99986 0 0 1 -.31641-1.94824l3-1a.99964.99964 0 1 1 .63282 1.89648l-3 1a.99826.99826 0 0 1 -.31641.05176z"/><path d="m42 26a1 1 0 0 1 0-2 5.00588 5.00588 0 0 0 5-5 1 1 0 0 1 2 0 7.00848 7.00848 0 0 1 -7 7z"/><path d="m48 20a.99943.99943 0 0 1 -1-1v-18a1 1 0 0 1 2 0v18a.99943.99943 0 0 1 -1 1z"/><path d="m42 26h-3a1 1 0 0 1 0-2h3a1 1 0 0 1 0 2z"/><path d="m39 26a.99943.99943 0 0 1 -1-1v-1a1 1 0 0 1 2 0v1a.99943.99943 0 0 1 -1 1z"/><path d="m20 15h-4a.99943.99943 0 0 1 -1-1v-4a.99943.99943 0 0 1 1-1h4a.99943.99943 0 0 1 1 1v4a.99943.99943 0 0 1 -1 1zm-3-2h2v-2h-2z"/><path d="m48 15h-4a.99943.99943 0 0 1 -1-1v-4a.99943.99943 0 0 1 1-1h4a.99943.99943 0 0 1 1 1v4a.99943.99943 0 0 1 -1 1zm-3-2h2v-2h-2z"/><path d="m41 19h-6a1 1 0 0 1 0-2h5v-9h-16v9h5a1 1 0 0 1 0 2h-6a.99943.99943 0 0 1 -1-1v-11a.99943.99943 0 0 1 1-1h18a.99943.99943 0 0 1 1 1v11a.99943.99943 0 0 1 -1 1z"/></svg>