<svg id="icons" height="512" viewBox="0 0 64 64" width="512" xmlns="http://www.w3.org/2000/svg"><path d="m47 22.5v10h-6v-10a3 3 0 0 1 6 0z" fill="#5d9cec"/><path d="m56 22.5v10h-6v-10a3 3 0 0 1 6 0z" fill="#5d9cec"/><path d="m47 22.5a3 3 0 0 0 -6 0v10h6zm6-3a2.996 2.996 0 0 0 -3 3v10h6v-10a2.996 2.996 0 0 0 -3-3zm10-8v41h-29v-41zm-9 34.5a1.498 1.498 0 0 0 -1.5-1.5h-8v-.01a1.505 1.505 0 0 0 0 3.01h8a1.498 1.498 0 0 0 1.5-1.5z" fill="#e6e9ed"/><path d="m52.5 44.5a1.5 1.5 0 0 1 0 3h-8a1.505 1.505 0 0 1 0-3.01v.01z" fill="#656d78"/><path d="m21 24.5v-3a2.00588 2.00588 0 0 0 -2-2h-11a2.00588 2.00588 0 0 0 -2 2v6a2.00588 2.00588 0 0 0 2 2h3l2-2h1l2 2h3a2.00588 2.00588 0 0 0 2-2zm9-13v41h-29v-41zm-9 34.5a1.498 1.498 0 0 0 -1.5-1.5h-8v-.01a1.505 1.505 0 0 0 0 3.01h8a1.498 1.498 0 0 0 1.5-1.5z" fill="#e6e9ed"/><path d="m19.5 44.5a1.5 1.5 0 0 1 0 3h-8a1.505 1.505 0 0 1 0-3.01v.01z" fill="#656d78"/><path d="m21 27.5a2.00588 2.00588 0 0 1 -2 2h-3l-2-2h-1l-2 2h-3a2.00588 2.00588 0 0 1 -2-2v-6a2.00588 2.00588 0 0 1 2-2h11a2.00588 2.00588 0 0 1 2 2z" fill="#5d9cec"/><path d="m29.99805 53.5h-29a.99942.99942 0 0 1 -1-1v-41a.99942.99942 0 0 1 1-1h29a.99943.99943 0 0 1 1 1v41a.99943.99943 0 0 1 -1 1zm-28-2h27v-39h-27z"/><path d="m25 38.49414h-19a1 1 0 0 1 0-2h19a1 1 0 0 1 0 2z"/><path d="m20.99805 41.49414h-10.99805a1 1 0 0 1 0-2h10.998a1 1 0 0 1 0 2z"/><path d="m11.498 48.49609a2.501 2.501 0 0 1 0-5.002 1 1 0 0 1 0 2 .501.501 0 0 0 0 1.002 1 1 0 0 1 0 2z"/><path d="m19.5 48.49609a1 1 0 0 1 0-2 .5.5 0 1 0 0-1 1 1 0 0 1 0-2 2.5 2.5 0 1 1 0 5z"/><path d="m19.5 45.49609h-8.002a1 1 0 0 1 0-2h8.002a1 1 0 0 1 0 2z"/><path d="m19.5 48.49609h-8.002a1 1 0 0 1 0-2h8.002a1 1 0 1 1 0 2z"/><path d="m63.002 53.5h-29a.99943.99943 0 0 1 -1-1v-41a.99943.99943 0 0 1 1-1h29a.99942.99942 0 0 1 1 1v41a.99942.99942 0 0 1 -1 1zm-28-2h27v-39h-27z"/><path d="m58.00391 38.49414h-19a1 1 0 0 1 0-2h19a1 1 0 1 1 0 2z"/><path d="m54.002 41.49414h-10.998a1 1 0 0 1 0-2h10.998a1 1 0 1 1 0 2z"/><path d="m44.502 48.49609a2.501 2.501 0 0 1 0-5.002 1 1 0 1 1 0 2 .501.501 0 0 0 0 1.002 1 1 0 0 1 0 2z"/><path d="m52.50391 48.49609a1 1 0 0 1 0-2 .5.5 0 0 0 0-1 1 1 0 0 1 0-2 2.5 2.5 0 0 1 0 5z"/><path d="m52.50391 45.49609h-8.00191a1 1 0 0 1 0-2h8.002a1 1 0 0 1 0 2z"/><path d="m52.50391 48.49609h-8.00191a1 1 0 0 1 0-2h8.002a1 1 0 0 1 0 2z"/><path d="m19 30.5h-3a.99928.99928 0 0 1 -.707-.293l-1.707-1.707h-.17188l-1.707 1.707a.99927.99927 0 0 1 -.70712.293h-3a3.00328 3.00328 0 0 1 -3-3v-6a3.00328 3.00328 0 0 1 3-3h11a3.00328 3.00328 0 0 1 3 3v6a3.00328 3.00328 0 0 1 -3 3zm-2.58594-2h2.58594a1.00067 1.00067 0 0 0 1-1v-6a1.00067 1.00067 0 0 0 -1-1h-11a1.00067 1.00067 0 0 0 -1 1v6a1.00067 1.00067 0 0 0 1 1h2.58594l1.707-1.707a.99928.99928 0 0 1 .70706-.293h1a.99927.99927 0 0 1 .707.293z"/><path d="m19 33.5a1 1 0 0 1 0-2 4.004 4.004 0 0 0 4-4 1 1 0 0 1 2 0 6.00657 6.00657 0 0 1 -6 6z"/><path d="m24 28.5a.99943.99943 0 0 1 -1-1v-11a1 1 0 0 1 2 0v11a.99943.99943 0 0 1 -1 1z"/><path d="m6 25.5h-1a1 1 0 0 1 0-2h1a1 1 0 0 1 0 2z"/><path d="m22 25.5h-1a1 1 0 0 1 0-2h1a1 1 0 0 1 0 2z"/><path d="m47 23.5a.99943.99943 0 0 1 -1-1 2 2 0 0 0 -4 0 1 1 0 0 1 -2 0 4 4 0 0 1 8 0 .99943.99943 0 0 1 -1 1z"/><path d="m47 33.5h-6a.99943.99943 0 0 1 -1-1v-10a1 1 0 0 1 2 0v9h4v-9a1 1 0 0 1 2 0v10a.99943.99943 0 0 1 -1 1z"/><path d="m56 23.5a.99943.99943 0 0 1 -1-1 2 2 0 0 0 -4 0 1 1 0 0 1 -2 0 4 4 0 0 1 8 0 .99943.99943 0 0 1 -1 1z"/><path d="m56 33.5h-6a.99943.99943 0 0 1 -1-1v-10a1 1 0 0 1 2 0v9h4v-9a1 1 0 0 1 2 0v10a.99943.99943 0 0 1 -1 1z"/><path d="m44 20.5a.99943.99943 0 0 1 -1-1v-3a1 1 0 0 1 2 0v3a.99943.99943 0 0 1 -1 1z"/><path d="m53 20.5a.99943.99943 0 0 1 -1-1v-3a1 1 0 0 1 2 0v3a.99943.99943 0 0 1 -1 1z"/><path d="m53 18.5h-9a1 1 0 0 1 0-2h9a1 1 0 0 1 0 2z"/></svg>