<svg id="icons" height="512" viewBox="0 0 64 64" width="512" xmlns="http://www.w3.org/2000/svg"><path d="m61 14v5a3.995 3.995 0 1 1 -7.99 0h-.01v-5l2-2 2 2h.01l1.99-2z" fill="#e6e9ed"/><path d="m45.01 58v-5.01h4a2.0038 2.0038 0 0 1 1.99 2v6.01a2.00588 2.00588 0 0 1 -2 2h-44a2.00588 2.00588 0 0 1 -2-2v-6.01a2.00588 2.00588 0 0 1 2-2h4v5.01z" fill="#656d78"/><path d="m57.01 23h-12v-18a3.995 3.995 0 1 1 7.99 0v14h.01a3.9989 3.9989 0 0 0 4 4z" fill="#ccd1d9"/><path d="m37 16h3v3h-3z" fill="#545c66"/><path d="m40 19v-3h-3v-3.02a2.00588 2.00588 0 0 0 -2-2h-16a2.00588 2.00588 0 0 0 -2 2v3.02h-3v3h3v3a2.00588 2.00588 0 0 0 2 2h5l2 1h2l2-1h5a2.00588 2.00588 0 0 0 2-2v-3zm5.01 4v35h-36.01v-53a3.9989 3.9989 0 0 1 4-4h36a3.99038 3.99038 0 0 0 -3.99 4z" fill="#e6e9ed"/><path d="m28 19 2 5-2 1h-2l-2-1 2-5z" fill="#656d78"/><path d="m14 16h3v3h-3z" fill="#545c66"/><path d="m37 19v3a2.00588 2.00588 0 0 1 -2 2h-5l-2-5h-2l-2 5h-5a2.00588 2.00588 0 0 1 -2-2v-9.02a2.00588 2.00588 0 0 1 2-2h16a2.00588 2.00588 0 0 1 2 2z" fill="#5d9cec"/><path d="m8.99609 58.99805a.99943.99943 0 0 1 -1-1v-53.00098a1 1 0 0 1 2 0v53.001a.99942.99942 0 0 1 -1 .99998z"/><path d="m45.00586 58.99805a.99943.99943 0 0 1 -1-1v-53.00098a1 1 0 0 1 2 0v53.001a.99943.99943 0 0 1 -1 .99998z"/><path d="m40.01074 46.02344h-2.998a1 1 0 0 1 0-2h2.998a1 1 0 0 1 0 2z"/><path d="m18.99609 46.02344h-5a1 1 0 0 1 0-2h5a1 1 0 1 1 0 2z"/><path d="m40.01074 42.01953h-2.998a1 1 0 1 1 0-2h2.998a1 1 0 0 1 0 2z"/><path d="m24.001 42.01953h-10.00491a1 1 0 0 1 0-2h10.00491a1 1 0 0 1 0 2z"/><path d="m40.01074 50.02344h-2.998a1 1 0 0 1 0-2h2.998a1 1 0 0 1 0 2z"/><path d="m25.00293 50.02344h-11.00684a1 1 0 0 1 0-2h11.00684a1 1 0 0 1 0 2z"/><path d="m40.00586 33.99121h-26.00977a1 1 0 0 1 0-2h26.00977a1 1 0 0 1 0 2z"/><path d="m40.01074 54.00879h-2.998a1 1 0 0 1 0-2h2.998a1 1 0 0 1 0 2z"/><path d="m16.99414 54.00879h-2.99805a1 1 0 0 1 0-2h2.99805a1 1 0 0 1 0 2z"/><path d="m40.01074 38.00879h-2.998a1 1 0 0 1 0-2h2.998a1 1 0 0 1 0 2z"/><path d="m16.99414 38.00879h-2.99805a1 1 0 0 1 0-2h2.99805a1 1 0 0 1 0 2z"/><path d="m46.00781 58.99805h-38.01367a1 1 0 1 1 0-2h38.01367a1 1 0 0 1 0 2z"/><path d="m52.99805 5.99707a.99942.99942 0 0 1 -1-1 2.9961 2.9961 0 0 0 -5.99219 0 1 1 0 1 1 -2 0 4.9961 4.9961 0 0 1 9.99219 0 .99943.99943 0 0 1 -1 1z"/><path d="m57.00586 23.99707a5.00171 5.00171 0 0 1 -4.99609-4.99607 1 1 0 0 1 2 0 2.99609 2.99609 0 0 0 5.99218 0 1 1 0 1 1 2 0 5.00171 5.00171 0 0 1 -4.99609 4.99607z"/><path d="m9 5.99707a.99943.99943 0 0 1 -1-1 5.00171 5.00171 0 0 1 4.99609-4.99607 1 1 0 0 1 0 2 2.99911 2.99911 0 0 0 -2.99609 2.99607.99943.99943 0 0 1 -1 1z"/><path d="m49.00391 2.001h-36.00782a1 1 0 1 1 0-2h36.00782a1 1 0 0 1 0 2z"/><path d="m52.99805 20.001a.99942.99942 0 0 1 -1-1v-14.00393a1 1 0 0 1 2 0v14.00393a.99943.99943 0 0 1 -1 1z"/><path d="m57.00586 23.99707h-12.00586a1 1 0 0 1 0-2h12.00586a1 1 0 0 1 0 2z"/><path d="m61.002 20.001a.99943.99943 0 0 1 -1-1v-5.002a1 1 0 1 1 2 0v5.002a.99942.99942 0 0 1 -1 1z"/><path d="m49.002 63.999h-44.00395a3.00328 3.00328 0 0 1 -3-3v-6.00486a3.00328 3.00328 0 0 1 3-3h3.998a1 1 0 1 1 0 2h-3.998a1.00067 1.00067 0 0 0 -1 1v6.00486a1.00067 1.00067 0 0 0 1 1h44.00395a1.00067 1.00067 0 0 0 1-1v-6.00486a.99922.99922 0 0 0 -.99609-1h-3.998a1 1 0 1 1 0-2h3.998a3.0012 3.0012 0 0 1 2.99609 3v6.00486a3.00328 3.00328 0 0 1 -3 3z"/><path d="m61.002 14.999a.99672.99672 0 0 1 -.707-.293l-2-2a.99989.99989 0 1 1 1.414-1.414l2 2a1 1 0 0 1 -.707 1.707z"/><path d="m57.00586 14.99609a1 1 0 0 1 -.707-1.707l1.99606-1.99709a.99989.99989 0 0 1 1.41408 1.41405l-1.99609 1.99708a.99675.99675 0 0 1 -.70705.29296z"/><path d="m56.99805 14.999a.99672.99672 0 0 1 -.707-.293l-2-2a.99989.99989 0 0 1 1.41403-1.414l2 2a1 1 0 0 1 -.707 1.707z"/><path d="m53 14.99609a1 1 0 0 1 -.707-1.707l1.998-1.99709a.99989.99989 0 1 1 1.41406 1.41406l-1.998 1.99708a.99675.99675 0 0 1 -.70706.29295z"/><path d="m35 25h-5a1.00045 1.00045 0 0 1 -.92871-.62891l-1.74805-4.37109h-.64648l-1.74805 4.37109a1.00045 1.00045 0 0 1 -.92871.62891h-5a3.00328 3.00328 0 0 1 -3-3v-9.01562a3.00328 3.00328 0 0 1 3-3h16a3.00328 3.00328 0 0 1 3 3v9.01562a3.00328 3.00328 0 0 1 -3 3zm-4.32324-2h4.32324a1.00067 1.00067 0 0 0 1-1v-9.01562a1.00067 1.00067 0 0 0 -1-1h-16a1.00067 1.00067 0 0 0 -1 1v9.01562a1.00067 1.00067 0 0 0 1 1h4.32324l1.74805-4.37109a1.00045 1.00045 0 0 1 .92871-.62891h2a1.00045 1.00045 0 0 1 .92871.62891z"/><path d="m25.999 26a1.00108 1.00108 0 0 1 -.44629-.10547l-2-1a1.00012 1.00012 0 1 1 .89454-1.78906l2 1a1 1 0 0 1 -.44825 1.89453z"/><path d="m28 26h-2a1 1 0 0 1 0-2h2a1 1 0 0 1 0 2z"/><path d="m28.001 26a1 1 0 0 1 -.44825-1.89453l2-1a1.00012 1.00012 0 0 1 .89454 1.78906l-2 1a1.00108 1.00108 0 0 1 -.44629.10547z"/><path d="m35 27.98633a1 1 0 0 1 0-2 3.99063 3.99063 0 0 0 3.98633-3.98633 1 1 0 0 1 2 0 5.99323 5.99323 0 0 1 -5.98633 5.98633z"/><path d="m40 23a.99943.99943 0 0 1 -1-1v-14a1 1 0 0 1 2 0v14a.99943.99943 0 0 1 -1 1z"/><path d="m35 28h-2a1 1 0 0 1 0-2h2a1 1 0 0 1 0 2z"/><path d="m33 28a.99943.99943 0 0 1 -1-1v-1a1 1 0 0 1 2 0v1a.99943.99943 0 0 1 -1 1z"/><path d="m17 20h-3a.99943.99943 0 0 1 -1-1v-3a.99943.99943 0 0 1 1-1h3a.99943.99943 0 0 1 1 1v3a.99943.99943 0 0 1 -1 1zm-2-2h1v-1h-1z"/><path d="m40 20h-3a.99943.99943 0 0 1 -1-1v-3a.99943.99943 0 0 1 1-1h3a.99943.99943 0 0 1 1 1v3a.99943.99943 0 0 1 -1 1zm-2-2h1v-1h-1z"/></svg>