<svg id="icons" height="512" viewBox="0 0 64 64" width="512" xmlns="http://www.w3.org/2000/svg"><path d="m27 8.01v13.01h-.01l-6.99-.02-5 2v-2h-3v-12.99h14.99z" fill="#da4453"/><path d="m45 12v2a2.00588 2.00588 0 0 1 -2 2h-2l-2-2h-1l-2 2h-2a2.00588 2.00588 0 0 1 -2-2v-4a2.00588 2.00588 0 0 1 2-2h9a2.00588 2.00588 0 0 1 2 2z" fill="#5d9cec"/><path d="m59 63h-24v-3a5.992 5.992 0 0 0 6-6h2c0 1.1 1.79 2 4 2s4-.9 4-2h2a5.992 5.992 0 0 0 6 6z" fill="#434a54"/><path d="m56 39.02v2.98a9.00008 9.00008 0 0 1 -18 .05v-3.03l3-2.02a23.0982 23.0982 0 0 0 6.5 1 13.3235 13.3235 0 0 0 5.5-1z" fill="#eac6bb"/><path d="m59 59v1a5.992 5.992 0 0 1 -6-6h1a5.00182 5.00182 0 0 1 5 5z" fill="#656d78"/><path d="m38 39.02v-3.02a7.99141 7.99141 0 0 1 8-8h6v4a3.9989 3.9989 0 0 1 4 4v3.02l-3-2.02a13.3235 13.3235 0 0 1 -5.5 1 23.0982 23.0982 0 0 1 -6.5-1z" fill="#965353"/><path d="m51 50.06v3.94c0 1.1-1.79 2-4 2v-5a8.95628 8.95628 0 0 0 4-.94z" fill="#545c66"/><path d="m32 12v2a2.00588 2.00588 0 0 0 2 2h2l2-2h1l2 2h2a2.00588 2.00588 0 0 0 2-2v-4a2.00588 2.00588 0 0 0 -2-2h-9a2.00588 2.00588 0 0 0 -2 2zm20-11v22h-3v2l-6-2-16 .02v-22.02z" fill="#ed5565"/><g fill="#656d78"><path d="m47 51v5c-2.21 0-4-.9-4-2v-3.94a8.95628 8.95628 0 0 0 4 .94z"/><path d="m41 54a5.992 5.992 0 0 1 -6 6v-1a5.00182 5.00182 0 0 1 5-5z"/><path d="m10 54h1a5.992 5.992 0 0 1 -6 6v-1a5.00182 5.00182 0 0 1 5-5z"/><path d="m29 59v1a5.992 5.992 0 0 1 -6-6h1a4.99543 4.99543 0 0 1 5 5z"/></g><path d="m26 37.5v1.5c-1.93-2.52-3.34-3.12-4.96-2.98l2.96-4.35a9.43215 9.43215 0 0 1 2 5.83z" fill="#f6bb42"/><path d="m29 63h-24v-3a5.992 5.992 0 0 0 6-6h2c0 1.1 1.79 2 4 2s4-.9 4-2h2a5.992 5.992 0 0 0 6 6z" fill="#434a54"/><path d="m21 50.06v3.94c0 1.1-1.79 2-4 2v-5a8.95628 8.95628 0 0 0 4-.94z" fill="#545c66"/><path d="m26 39v3a9 9 0 0 1 -18 0v-4.37c7.12.89 10.37-1.36 13.04-1.61 1.62-.14 3.03.46 4.96 2.98z" fill="#eac6bb"/><path d="m17 51v5c-2.21 0-4-.9-4-2v-3.94a8.95628 8.95628 0 0 0 4 .94z" fill="#656d78"/><path d="m24 31.67-2.96 4.35c-2.67.25-5.92 2.5-13.04 1.61-.32-.03-.66-.08-1-.13a9.4995 9.4995 0 0 1 17-5.83z" fill="#ffce54"/><path d="m49 26.00391a.981.981 0 0 1 -.31641-.05176l-5.84668-1.94824-15.835.01172h-.001a1.00026 1.00026 0 0 1 -1-1v-22.01368a.99942.99942 0 0 1 1-1h24.99909a.99943.99943 0 0 1 1 1v22.002a.99943.99943 0 0 1 -1 1h-1.999l-.001 1.00093a1.00051 1.00051 0 0 1 -1 .999zm-6.001-4a.999.999 0 0 1 .31641.05175l4.68559 1.56153.001-.61426a1.00047 1.00047 0 0 1 1-.999h1.998v-20.00193h-22.999v20.0127l14.99707-.01074z"/><path d="m14.999 24.00391a1 1 0 0 1 -1-1v-1h-2a.99943.99943 0 0 1 -1-1v-12.9961a.99943.99943 0 0 1 1-1h14.99416a1 1 0 1 1 0 2h-13.99416v10.9961h2a.99942.99942 0 0 1 1 1v.52343l3.62891-1.45214a1.00685 1.00685 0 0 1 .37109-.07129h.002l6.99414.01172a1 1 0 0 1 -.002 2h-.002l-6.80078-.01172-4.82031 1.92871a.99491.99491 0 0 1 -.37105.07129z"/><path d="m35 59.99805a.99943.99943 0 0 1 -1-1 6.00656 6.00656 0 0 1 6-6 1 1 0 0 1 0 2 4.004 4.004 0 0 0 -4 4 .99943.99943 0 0 1 -1 1z"/><path d="m43 54.99805h-3a1 1 0 0 1 0-2h3a1 1 0 0 1 0 2z"/><path d="m35 63.99805a.99943.99943 0 0 1 -1-1v-4a1 1 0 0 1 2 0v4a.99943.99943 0 0 1 -1 1z"/><path d="m59 59.99805a.99943.99943 0 0 1 -1-1 4.004 4.004 0 0 0 -4-4 1 1 0 0 1 0-2 6.00656 6.00656 0 0 1 6 6 .99943.99943 0 0 1 -1 1z"/><path d="m54 54.99805h-3a1 1 0 0 1 0-2h3a1 1 0 0 1 0 2z"/><path d="m59 63.99805a.99943.99943 0 0 1 -1-1v-4a1 1 0 0 1 2 0v4a.99943.99943 0 0 1 -1 1z"/><path d="m43 54.99805a.99943.99943 0 0 1 -1-1v-3.93555a1 1 0 0 1 2 0v3.93555a.99943.99943 0 0 1 -1 1z"/><path d="m51 54.99805a.99943.99943 0 0 1 -1-1v-3.93555a1 1 0 0 1 2 0v3.93555a.99943.99943 0 0 1 -1 1z"/><path d="m46.999 51.99805a10.00989 10.00989 0 0 1 -9.999-9.99805 1 1 0 0 1 2 0 8 8 0 0 0 16 0 1 1 0 0 1 2 0 10.01094 10.01094 0 0 1 -10.001 9.99805z"/><path d="m38 43.04883a.99943.99943 0 0 1 -1-1v-6.05078a1 1 0 0 1 2 0v6.05078a.99943.99943 0 0 1 -1 1z"/><path d="m56 43a.99943.99943 0 0 1 -1-1v-6.002a1 1 0 0 1 2 0v6.002a.99943.99943 0 0 1 -1 1z"/><path d="m56 36.99609a.99942.99942 0 0 1 -1-1 3.00223 3.00223 0 0 0 -3-2.998 1 1 0 0 1 0-2 5.00483 5.00483 0 0 1 5 4.998.99942.99942 0 0 1 -1 1z"/><path d="m52 32.99805a.99943.99943 0 0 1 -1-1v-4a1 1 0 0 1 2 0v4a.99943.99943 0 0 1 -1 1z"/><path d="m52 28.99805h-6a1 1 0 0 1 0-2h6a1 1 0 0 1 0 2z"/><path d="m38 36.99805a.99943.99943 0 0 1 -1-1 9.00984 9.00984 0 0 1 9-9 1 1 0 0 1 0 2 7.00849 7.00849 0 0 0 -7 7 .99943.99943 0 0 1 -1 1z"/><path d="m55.999 40.02344a1.00043 1.00043 0 0 1 -.55859-.1709l-3-2.02539a1.00026 1.00026 0 1 1 1.11914-1.6582l3 2.02539a1.00006 1.00006 0 0 1 -.56055 1.8291z"/><path d="m47.5 38.99805a23.93232 23.93232 0 0 1 -6.81543-1.05078 1.0001 1.0001 0 0 1 .62988-1.89844 22.27059 22.27059 0 0 0 6.18555.94922 12.60165 12.60165 0 0 0 5.05859-.89746 1.00035 1.00035 0 0 1 .8877 1.793 14.26757 14.26757 0 0 1 -5.94629 1.10446z"/><path d="m38.001 40.02344a1.00006 1.00006 0 0 1 -.56055-1.8291l3-2.02539a1.00026 1.00026 0 0 1 1.11914 1.6582l-3 2.02539a1.00043 1.00043 0 0 1 -.55859.1709z"/><path d="m8.00391 42.959a.99942.99942 0 0 1 -1-1v-4.32033a1 1 0 0 1 2 0v4.32033a.99942.99942 0 0 1 -1 1z"/><path d="m26.00391 42.99805a.99942.99942 0 0 1 -1-1v-4.5a1 1 0 0 1 2 0v4.5a.99943.99943 0 0 1 -1 1z"/><path d="m26.00391 38.49805a.99942.99942 0 0 1 -1-1 8.5 8.5 0 1 0 -17 0 1 1 0 1 1 -2 0 10.5 10.5 0 1 1 21 0 .99943.99943 0 0 1 -1 1z"/><path d="m26.00488 39.99805a.99942.99942 0 0 1 -.79492-.3916c-2.46-3.21094-3.56738-2.87989-6.52441-2.001a23.98768 23.98768 0 0 1 -11.83789.87988.99959.99959 0 1 1 .3125-1.97461 22.24492 22.24492 0 0 0 10.9541-.82226c3.13086-.93067 5.38867-1.59961 8.68359 2.70117a1 1 0 0 1 -.793 1.6084z"/><path d="m21.02441 37.02734a.99936.99936 0 0 1 -.82519-1.56347l2.97851-4.36231a1.00031 1.00031 0 0 1 1.65235 1.12793l-2.97852 4.36231a1.00087 1.00087 0 0 1 -.82715.43554z"/><path d="m5.00391 59.99805a.99942.99942 0 0 1 -1-1 6.00655 6.00655 0 0 1 6-6 1 1 0 0 1 0 2 4.004 4.004 0 0 0 -4 4 .99943.99943 0 0 1 -1 1z"/><path d="m13.00391 54.99805h-3a1 1 0 1 1 0-2h3a1 1 0 0 1 0 2z"/><path d="m5.00391 63.99805a.99942.99942 0 0 1 -1-1v-4a1 1 0 0 1 2 0v4a.99943.99943 0 0 1 -1 1z"/><path d="m29.00391 59.99805a.99942.99942 0 0 1 -1-1 4.004 4.004 0 0 0 -4-4 1 1 0 1 1 0-2 6.00656 6.00656 0 0 1 6 6 .99943.99943 0 0 1 -1 1z"/><path d="m24.00391 54.99805h-3a1 1 0 1 1 0-2h3a1 1 0 0 1 0 2z"/><path d="m29.00391 63.99805a.99942.99942 0 0 1 -1-1v-4a1 1 0 0 1 2 0v4a.99943.99943 0 0 1 -1 1z"/><path d="m13.00391 54.99805a.99942.99942 0 0 1 -1-1v-3.93555a1 1 0 0 1 2 0v3.93555a.99943.99943 0 0 1 -1 1z"/><path d="m21.00391 54.99805a.99942.99942 0 0 1 -1-1v-3.93555a1 1 0 0 1 2 0v3.93555a.99943.99943 0 0 1 -1 1z"/><path d="m17.00293 51.99805a10.00989 10.00989 0 0 1 -9.99902-9.99805 1 1 0 0 1 2 0 8 8 0 0 0 16 0 1 1 0 0 1 2 0 10.01094 10.01094 0 0 1 -10.00098 9.99805z"/><path d="m47 56.99805c-2.85059 0-5-1.29-5-3a1 1 0 0 1 2 0c0 .249 1.06445 1 3 1s3-.751 3-1a1 1 0 0 1 2 0c0 1.70995-2.14941 3-5 3z"/><path d="m46.999 60a.99943.99943 0 0 1 -1-1v-8.002a1 1 0 0 1 2 0v8.002a.99942.99942 0 0 1 -1 1z"/><path d="m35 61a1 1 0 0 1 0-2 5.00588 5.00588 0 0 0 5-5 1 1 0 0 1 2 0 7.00848 7.00848 0 0 1 -7 7z"/><path d="m59 61a7.00849 7.00849 0 0 1 -7-7 1 1 0 0 1 2 0 5.00588 5.00588 0 0 0 5 5 1 1 0 0 1 0 2z"/><path d="m17 56.99805c-2.85059 0-5-1.29-5-3a1 1 0 0 1 2 0c0 .249 1.06445 1 3 1s3-.751 3-1a1 1 0 0 1 2 0c0 1.70995-2.14941 3-5 3z"/><path d="m16.999 60a.99943.99943 0 0 1 -1-1v-8.002a1 1 0 1 1 2 0v8.002a.99942.99942 0 0 1 -1 1z"/><path d="m5 61a1 1 0 0 1 0-2 5.00588 5.00588 0 0 0 5-5 1 1 0 0 1 2 0 7.00848 7.00848 0 0 1 -7 7z"/><path d="m29 61a7.00849 7.00849 0 0 1 -7-7 1 1 0 0 1 2 0 5.00588 5.00588 0 0 0 5 5 1 1 0 0 1 0 2z"/><path d="m43.002 16.99805h-2a.99928.99928 0 0 1 -.707-.293l-1.707-1.707h-.172l-1.707 1.707a.99927.99927 0 0 1 -.707.293h-2a3.00329 3.00329 0 0 1 -3-3v-4a3.00328 3.00328 0 0 1 3-3h9a3.00328 3.00328 0 0 1 3 3v4a3.00328 3.00328 0 0 1 -3 3zm-1.58593-2h1.58593a1.00068 1.00068 0 0 0 1-1v-4a1.00067 1.00067 0 0 0 -1-1h-9a1.00068 1.00068 0 0 0 -1 1v4a1.00069 1.00069 0 0 0 1 1h1.58594l1.707-1.707a.99928.99928 0 0 1 .707-.293h1a.99927.99927 0 0 1 .707.293z"/><path d="m43.002 19.99805a1 1 0 0 1 0-2 4.004 4.004 0 0 0 4-4 1 1 0 0 1 2 0 6.00656 6.00656 0 0 1 -6 6z"/><path d="m48.002 14.99805a.99943.99943 0 0 1 -1-1v-9a1 1 0 1 1 2 0v9a.99942.99942 0 0 1 -1 1z"/><path d="m32.002 12.998h-1a1 1 0 0 1 0-2h1a1 1 0 0 1 0 2z"/><path d="m46.002 12.998h-1a1 1 0 0 1 0-2h1a1 1 0 0 1 0 2z"/></svg>