<svg id="icons" height="512" viewBox="0 0 64 64" width="512" xmlns="http://www.w3.org/2000/svg"><path d="m49 30v11a2.00588 2.00588 0 0 1 -2 2h-10l-1-3h10v-14h-4l3.02-3.02h1.98a2.00588 2.00588 0 0 1 2 2z" fill="#545c66"/><path d="m49 30h4v5h-4z" fill="#434a54"/><path d="m20 26v14h8l-3 3h-6a2.00588 2.00588 0 0 1 -2-2v-16.02a2.00588 2.00588 0 0 1 2-2h26.02l-3.02 3.02z" fill="#545c66"/><path d="m13 30h4v5h-4z" fill="#434a54"/><path d="m32 44h2l3-1h10a2.00588 2.00588 0 0 0 2-2v-6h4v-5h-4v-5.02a2.00588 2.00588 0 0 0 -2-2h-1.98l8.68-8.68a28.00341 28.00341 0 0 1 -39.4 39.4l6.7-6.7 4-4h4z" fill="#e6e9ed"/><path d="m51.8 12.2a28.00143 28.00143 0 0 0 -39.6 39.6c.68.68 1.38 1.31 2.1 1.9a28.00341 28.00341 0 0 0 39.4-39.4c-.59-.72-1.22-1.42-1.9-2.1zm-19.8-11.2a31 31 0 1 1 -31 31 31.00106 31.00106 0 0 1 31-31z" fill="#ed5565"/><g fill="#5d9cec"><path d="m46 26v14h-10l-2-6 8-8z"/><path d="m42 26-8 8h-2l-1 3-3 3h-8v-14z"/><path d="m31 37-1 3h-2z"/></g><path d="m36 40 1 3-3 1h-2l-3-1 1-3 1-3 3-3z" fill="#656d78"/><path d="m34 34-3 3 1-3z" fill="#656d78"/><path d="m25 43 3-3h2l-1 3z" fill="#545c66"/><path d="m25 43-4 4h-2a5.992 5.992 0 0 1 -6-6v-6h4v6a2.00588 2.00588 0 0 0 2 2z" fill="#e6e9ed"/><path d="m19 47h2l-6.7 6.7c-.72-.59-1.42-1.22-2.1-1.9a28.00143 28.00143 0 0 1 39.6-39.6c.68.68 1.31 1.38 1.9 2.1l-8.68 8.68h-26.02a2.00588 2.00588 0 0 0 -2 2v5.02h-4v11a5.992 5.992 0 0 0 6 6z" fill="#e6e9ed"/><path d="m32 64a32 32 0 1 1 32-32 32.03667 32.03667 0 0 1 -32 32zm0-62a30 30 0 1 0 30 30 30.03406 30.03406 0 0 0 -30-30z"/><path d="m32 60.999a28.99967 28.99967 0 0 1 -20.50586-49.50486 28.99967 28.99967 0 0 1 41.01172 41.01172 28.80936 28.80936 0 0 1 -20.50586 8.49314zm0-55.998a26.99988 26.99988 0 0 0 -19.0918 46.0908 26.99988 26.99988 0 0 0 38.1836-38.1836 26.82639 26.82639 0 0 0 -19.0918-7.9072z"/><path d="m14.30273 54.70117a1 1 0 0 1 -.707-1.707l39.39841-39.39749a.99989.99989 0 1 1 1.41406 1.41406l-39.39843 39.39746a.99676.99676 0 0 1 -.70704.29297z"/><path d="m47 44h-10a.9989.9989 0 0 1 -.94824-.68359l-2.77246-8.31641h-.5586l-2.77246 8.31641a.9989.9989 0 0 1 -.94824.68359h-10a3.00328 3.00328 0 0 1 -3-3v-16.01562a3.00328 3.00328 0 0 1 3-3h28a3.00328 3.00328 0 0 1 3 3v16.01562a3.00328 3.00328 0 0 1 -3 3zm-9.2793-2h9.2793a1.00067 1.00067 0 0 0 1-1v-16.01562a1.00067 1.00067 0 0 0 -1-1h-28a1.00067 1.00067 0 0 0 -1 1v16.01562a1.00067 1.00067 0 0 0 1 1h9.2793l2.77246-8.31641a.9989.9989 0 0 1 .94824-.68359h2a.9989.9989 0 0 1 .94824.68359z"/><path d="m34 45a.99986.99986 0 0 1 -.31641-1.94824l3-1a.99964.99964 0 1 1 .63282 1.89648l-3 1a.99826.99826 0 0 1 -.31641.05176z"/><path d="m34 45h-2a1 1 0 0 1 0-2h2a1 1 0 0 1 0 2z"/><path d="m32 45a.99826.99826 0 0 1 -.31641-.05176l-3-1a.99964.99964 0 0 1 .63282-1.89648l3 1a.99986.99986 0 0 1 -.31641 1.94824z"/><path d="m19 48a7.00849 7.00849 0 0 1 -7-7 1 1 0 0 1 2 0 5.00588 5.00588 0 0 0 5 5 1 1 0 0 1 0 2z"/><path d="m13 42a.99943.99943 0 0 1 -1-1v-22a1 1 0 0 1 2 0v22a.99943.99943 0 0 1 -1 1z"/><path d="m26 48h-7a1 1 0 0 1 0-2h7a1 1 0 0 1 0 2z"/><path d="m53 36h-4a.99943.99943 0 0 1 -1-1v-5a.99943.99943 0 0 1 1-1h4a.99943.99943 0 0 1 1 1v5a.99943.99943 0 0 1 -1 1zm-3-2h2v-3h-2z"/><path d="m17 36h-4a.99943.99943 0 0 1 -1-1v-5a.99943.99943 0 0 1 1-1h4a.99943.99943 0 0 1 1 1v5a.99943.99943 0 0 1 -1 1zm-3-2h2v-3h-2z"/><path d="m46 41h-10a1 1 0 0 1 0-2h9v-12h-24v12h9a1 1 0 0 1 0 2h-10a.99943.99943 0 0 1 -1-1v-14a.99943.99943 0 0 1 1-1h26a.99943.99943 0 0 1 1 1v14a.99943.99943 0 0 1 -1 1z"/></svg>