<svg id="icons" height="512" viewBox="0 0 64 64" width="512" xmlns="http://www.w3.org/2000/svg"><path d="m16 15 21-8h8.08l5.51 4h-13.59l-21 7z" fill="#ffce54"/><path d="m51 25 2-3h-8a2.996 2.996 0 0 0 3 3zm12-5v2l-12 6h-8a10.99751 10.99751 0 0 0 -21.71-2.49h-.01l-5.28-1.51h-4l-11 5v-16l11 5h4l21-7h13.59z" fill="#ed5565"/><path d="m49 28-4 6-2.55-2.55a10.88866 10.88866 0 0 0 .55-3.45z" fill="#ffce54"/><path d="m45 22h8l-2 3h-3a2.996 2.996 0 0 1 -3-3z" fill="#ffce54"/><path d="m34 38.82v5.18h-4v-5.18a11.20111 11.20111 0 0 0 4 0z" fill="#ccd1d9"/><path d="m32 17a11.00183 11.00183 0 1 1 -11 11 10.741 10.741 0 0 1 .29-2.49 10.98381 10.98381 0 0 1 10.71-8.51zm8 11a8 8 0 1 0 -8 8 7.9978 7.9978 0 0 0 8-8z" fill="#e6e9ed"/><circle cx="32" cy="28" fill="#5d9cec" r="8"/><path d="m34 44h1v10a3 3 0 0 1 -6 0v-10z" fill="#656d78"/><path d="m56.01953 20a1 1 0 0 1 -.00976-2h.00976a1 1 0 0 1 0 2z"/><path d="m62.999 21a.99192.99192 0 0 1 -.58593-.19043l-17.917-13a.99994.99994 0 0 1 1.17383-1.61914l17.917 13a1 1 0 0 1 -.5879 1.80957z"/><path d="m51.001 29a1 1 0 0 1 -.44825-1.89453l12-6a1.00012 1.00012 0 0 1 .89454 1.78906l-12 6a1.00108 1.00108 0 0 1 -.44629.10547z"/><path d="m63 23a.99943.99943 0 0 1 -1-1v-2a1 1 0 0 1 2 0v2a.99943.99943 0 0 1 -1 1z"/><path d="m51 29h-8a1 1 0 0 1 0-2h8a1 1 0 0 1 0 2z"/><path d="m21.28516 26.50977a1.02894 1.02894 0 0 1 -.27539-.03809l-5.28418-1.50977a1.00029 1.00029 0 1 1 .54882-1.92382l5.28418 1.50976a1.00012 1.00012 0 0 1 -.27343 1.96192z"/><path d="m16 25h-4a1 1 0 0 1 0-2h4a1 1 0 0 1 0 2z"/><path d="m16 19h-4a1 1 0 0 1 0-2h4a1 1 0 0 1 0 2z"/><path d="m16 19a.99986.99986 0 0 1 -.31641-1.94824l21-7a.99964.99964 0 1 1 .63282 1.89648l-21 7a.99826.99826 0 0 1 -.31641.05176z"/><path d="m16 16a1.00009 1.00009 0 0 1 -.35645-1.93457l21-8a1.00024 1.00024 0 1 1 .7129 1.86914l-21 8a.99508.99508 0 0 1 -.35645.06543z"/><path d="m50.59375 12h-13.59375a1 1 0 0 1 0-2h13.59375a1 1 0 0 1 0 2z"/><path d="m45.083 8h-8.083a1 1 0 0 1 0-2h8.083a1 1 0 0 1 0 2z"/><path d="m16 19a.99943.99943 0 0 1 -1-1v-3a1 1 0 0 1 2 0v3a.99943.99943 0 0 1 -1 1z"/><path d="m53 23h-8a1 1 0 0 1 0-2h8a1 1 0 0 1 0 2z"/><path d="m50.999 26a1 1 0 0 1 -.83105-1.55469l2-3a1 1 0 0 1 1.66405 1.10938l-2 3a.99845.99845 0 0 1 -.833.44531z"/><path d="m51 26h-3a1 1 0 0 1 0-2h3a1 1 0 0 1 0 2z"/><path d="m48 26a4.004 4.004 0 0 1 -4-4 1 1 0 0 1 2 0 2.0026 2.0026 0 0 0 2 2 1 1 0 0 1 0 2z"/><path d="m44.999 35a1 1 0 0 1 -.83105-1.55469l4-6a1 1 0 0 1 1.66405 1.10938l-4 6a.99845.99845 0 0 1 -.833.44531z"/><path d="m45 35a.99676.99676 0 0 1 -.707-.293l-2.55176-2.55176a.99989.99989 0 1 1 1.41406-1.41406l2.5517 2.55182a1 1 0 0 1 -.707 1.707z"/><path d="m11.999 19a.99183.99183 0 0 1 -.41308-.08984l-11-5a.99992.99992 0 1 1 .82812-1.82032l11 5a1 1 0 0 1 -.41504 1.91016z"/><path d="m1.001 29.99805a1 1 0 0 1 -.415-1.91016l11-5a.99991.99991 0 1 1 .82812 1.82031l-11 5a.99169.99169 0 0 1 -.41312.08985z"/><path d="m1 29.99805a.99943.99943 0 0 1 -1-1v-15.99805a1 1 0 0 1 2 0v15.99805a.99943.99943 0 0 1 -1 1z"/><path d="m32 40a12 12 0 1 1 12-12 12.01312 12.01312 0 0 1 -12 12zm0-22a10 10 0 1 0 10 10 10.01177 10.01177 0 0 0 -10-10z"/><path d="m32 37a9 9 0 1 1 9-9 9.00984 9.00984 0 0 1 -9 9zm0-16a7 7 0 1 0 7 7 7.0085 7.0085 0 0 0 -7-7z"/><path d="m30 45a.99943.99943 0 0 1 -1-1v-5.18164a1 1 0 0 1 2 0v5.18164a.99943.99943 0 0 1 -1 1z"/><path d="m34 45a.99943.99943 0 0 1 -1-1v-5.18164a1 1 0 0 1 2 0v5.18164a.99943.99943 0 0 1 -1 1z"/><path d="m35 45h-6a1 1 0 0 1 0-2h6a1 1 0 0 1 0 2z"/><path d="m32 58a4.004 4.004 0 0 1 -4-4 1 1 0 0 1 2 0 2 2 0 0 0 4 0 1 1 0 0 1 2 0 4.004 4.004 0 0 1 -4 4z"/><path d="m35 55a.99943.99943 0 0 1 -1-1v-10a1 1 0 0 1 2 0v10a.99943.99943 0 0 1 -1 1z"/><path d="m29 55a.99943.99943 0 0 1 -1-1v-10a1 1 0 0 1 2 0v10a.99943.99943 0 0 1 -1 1z"/></svg>