<svg id="icons" height="512" viewBox="0 0 64 64" width="512" xmlns="http://www.w3.org/2000/svg"><path d="m58.5 46h4v5h-4z" fill="#434a54"/><path d="m55.5 42v14h-9l-2-6h-2l-2 6h-9v-14z" fill="#5d9cec"/><path d="m46.5 56 1 3-3 1h-2l-3-1 1-3 2-6h2z" fill="#656d78"/><path d="m24.5 46h4v5h-4z" fill="#434a54"/><path d="m37.5 13h6v25.98h-6z" fill="#da4453"/><path d="m43.5 13h6v25.98h-6z" fill="#d3374e"/><path d="m55.5 42h-24v14h9l-1 3h-9a2.00588 2.00588 0 0 1 -2-2v-16.02a2.00588 2.00588 0 0 1 2-2h26a2.00588 2.00588 0 0 1 2 2v16.02a2.00588 2.00588 0 0 1 -2 2h-9l-1-3h9z" fill="#545c66"/><path d="m28.5 57a2.00588 2.00588 0 0 0 2 2h-29v-46h36v25.98h-7a2.00588 2.00588 0 0 0 -2 2v5.02h-4v5h4z" fill="#ed5565"/><path d="m33.501 60h-32a.99942.99942 0 0 1 -1-1v-46a.99942.99942 0 0 1 1-1h36a1 1 0 0 1 0 2h-35v44h31a1 1 0 0 1 0 2z"/><path d="m49.501 40a.99942.99942 0 0 1 -1-1v-25h-11a1 1 0 0 1 0-2h12a.99943.99943 0 0 1 1 1v26a.99943.99943 0 0 1 -1 1z"/><path d="m37.501 40a.99942.99942 0 0 1 -1-1v-26a1 1 0 0 1 2 0v26a.99943.99943 0 0 1 -1 1z"/><path d="m43.501 40a.99942.99942 0 0 1 -1-1v-26a1 1 0 0 1 2 0v26a.99943.99943 0 0 1 -1 1z"/><path d="m27.501 10a.99942.99942 0 0 1 -1-1 7 7 0 0 0 -14 0 1 1 0 0 1 -2 0 9 9 0 0 1 18 0 .99943.99943 0 0 1 -1 1z"/><path d="m11.501 22a.99942.99942 0 0 1 -1-1v-12a1 1 0 0 1 2 0v12a.99943.99943 0 0 1 -1 1z"/><path d="m27.501 22a.99942.99942 0 0 1 -1-1v-12a1 1 0 0 1 2 0v12a.99943.99943 0 0 1 -1 1z"/><path d="m37.501 10a.99942.99942 0 0 1 -1-1 7 7 0 0 0 -14 0 1 1 0 0 1 -2 0 9 9 0 0 1 18 0 .99943.99943 0 0 1 -1 1z"/><path d="m21.501 14a.99942.99942 0 0 1 -1-1v-4a1 1 0 0 1 2 0v4a.99943.99943 0 0 1 -1 1z"/><path d="m37.501 14a.99942.99942 0 0 1 -1-1v-4a1 1 0 0 1 2 0v4a.99943.99943 0 0 1 -1 1z"/><path d="m56.499 60h-9a.9989.9989 0 0 1 -.94824-.68359l-2.77244-8.31641h-.55859l-2.77246 8.31641a.99891.99891 0 0 1 -.94827.68359h-9a3.00328 3.00328 0 0 1 -3-3v-16.01562a3.00328 3.00328 0 0 1 3-3h26a3.00328 3.00328 0 0 1 3 3v16.01562a3.00328 3.00328 0 0 1 -3 3zm-8.27929-2h8.27929a1.00067 1.00067 0 0 0 1-1v-16.01562a1.00067 1.00067 0 0 0 -1-1h-26a1.00068 1.00068 0 0 0 -1 1v16.01562a1.00068 1.00068 0 0 0 1 1h8.2793l2.77246-8.31641a.9989.9989 0 0 1 .94824-.68359h2a.99891.99891 0 0 1 .94825.68359z"/><path d="m42.499 61a.9982.9982 0 0 1 -.3164-.05176l-3-1a.99964.99964 0 1 1 .63281-1.89648l3 1a.99986.99986 0 0 1 -.31641 1.94824z"/><path d="m44.499 61h-2a1 1 0 0 1 0-2h2a1 1 0 0 1 0 2z"/><path d="m44.499 61a.99986.99986 0 0 1 -.3164-1.94824l3-1a.99964.99964 0 1 1 .63281 1.89648l-3 1a.99821.99821 0 0 1 -.31641.05176z"/><path d="m56.499 64a1 1 0 0 1 0-2 5.00588 5.00588 0 0 0 5-5 1 1 0 0 1 2 0 7.00848 7.00848 0 0 1 -7 7z"/><path d="m62.499 58a.99943.99943 0 0 1 -1-1v-22a1 1 0 0 1 2 0v22a.99942.99942 0 0 1 -1 1z"/><path d="m56.499 64h-6a1 1 0 0 1 0-2h6a1 1 0 0 1 0 2z"/><path d="m28.499 52h-4a.99943.99943 0 0 1 -1-1v-5a.99943.99943 0 0 1 1-1h4a.99942.99942 0 0 1 1 1v5a.99942.99942 0 0 1 -1 1zm-3-2h2v-3h-2z"/><path d="m62.499 52h-4a.99943.99943 0 0 1 -1-1v-5a.99943.99943 0 0 1 1-1h4a.99942.99942 0 0 1 1 1v5a.99942.99942 0 0 1 -1 1zm-3-2h2v-3h-2z"/><path d="m55.499 57h-9a1 1 0 0 1 0-2h8v-12h-22v12h8a1 1 0 0 1 0 2h-9a.99943.99943 0 0 1 -1-1v-14a.99943.99943 0 0 1 1-1h24a.99942.99942 0 0 1 1 1v14a.99942.99942 0 0 1 -1 1z"/></svg>