<svg id="icons" height="512" viewBox="0 0 64 64" width="512" xmlns="http://www.w3.org/2000/svg"><path d="m39 7v4l-4-3v-7l4 1v1z" fill="#aab2bd"/><path d="m26 50v5a8.01391 8.01391 0 0 0 -5 1.75v-6.75z" fill="#545c66"/><path d="m47 11v30a17.98865 17.98865 0 0 1 -18 18h-3a3.9989 3.9989 0 0 0 -4 4h-4a7.99039 7.99039 0 0 1 8-8h3a13.98975 13.98975 0 0 0 14-14v-30a3.9989 3.9989 0 0 0 -4-4v-4a7.9978 7.9978 0 0 1 8 8z" fill="#656d78"/><circle cx="29" cy="33" fill="#e6e9ed" r="2"/><path d="m27 46v4h-1-5-1v-4l2 1h3z" fill="#656d78"/><circle cx="23.5" cy="39.5" fill="#e6e9ed" r="1.5"/><circle cx="21" cy="26" fill="#e6e9ed" r="4"/><path d="m27 51h-7a.99943.99943 0 0 1 -1-1v-4a1.00038 1.00038 0 0 1 1.44727-.89453l1.78906.89453h2.52734l1.78906-.89453a1.00038 1.00038 0 0 1 1.44727.89453v4a.99943.99943 0 0 1 -1 1zm-6-2h5v-1.38184l-.55273.27637a1.00067 1.00067 0 0 1 -.44727.10547h-3a1.00067 1.00067 0 0 1 -.44727-.10547l-.55273-.27637z"/><path d="m29 60a1 1 0 0 1 0-2 17.019 17.019 0 0 0 17-17 1 1 0 0 1 2 0 19.02162 19.02162 0 0 1 -19 19z"/><path d="m29 56a1 1 0 0 1 0-2 13.01505 13.01505 0 0 0 13-13 1 1 0 0 1 2 0 15.01641 15.01641 0 0 1 -15 15z"/><path d="m22 64a.99943.99943 0 0 1 -1-1 5.00588 5.00588 0 0 1 5-5 1 1 0 0 1 0 2 3.00328 3.00328 0 0 0 -3 3 .99943.99943 0 0 1 -1 1z"/><path d="m18 64a.99943.99943 0 0 1 -1-1 9.00984 9.00984 0 0 1 9-9 1 1 0 0 1 0 2 7.0085 7.0085 0 0 0 -7 7 .99943.99943 0 0 1 -1 1z"/><path d="m22 64h-4a1 1 0 0 1 0-2h4a1 1 0 0 1 0 2z"/><path d="m29 60h-3a1 1 0 0 1 0-2h3a1 1 0 0 1 0 2z"/><path d="m29 56h-3a1 1 0 0 1 0-2h3a1 1 0 0 1 0 2z"/><path d="m26 56a.99943.99943 0 0 1 -1-1v-5a1 1 0 0 1 2 0v5a.99943.99943 0 0 1 -1 1z"/><path d="m21 57.75293a.99943.99943 0 0 1 -1-1v-6.75293a1 1 0 0 1 2 0v6.75293a.99943.99943 0 0 1 -1 1z"/><path d="m47 42a.99943.99943 0 0 1 -1-1v-30a1 1 0 0 1 2 0v30a.99943.99943 0 0 1 -1 1z"/><path d="m43 42a.99943.99943 0 0 1 -1-1v-30a1 1 0 0 1 2 0v30a.99943.99943 0 0 1 -1 1z"/><path d="m47 12a.99974.99974 0 0 1 -1-1 7.00818 7.00818 0 0 0 -7-7 1 1 0 0 1 0-2 9.01016 9.01016 0 0 1 9 9 .99974.99974 0 0 1 -1 1z"/><path d="m43 12a.99974.99974 0 0 1 -1-1 3.00328 3.00328 0 0 0 -3-3 1 1 0 0 1 0-2 5.00588 5.00588 0 0 1 5 5 .99974.99974 0 0 1 -1 1z"/><path d="m39 12a.99818.99818 0 0 1 -.59961-.2002l-4-3a.99878.99878 0 0 1 -.40039-.7998v-7a1.0003 1.0003 0 0 1 1.24219-.97021l4 1a1.00016 1.00016 0 0 1 .75781.97021v9a.99966.99966 0 0 1 -1 1zm-3-4.5 2 1.5v-6.21924l-2-.5z"/><path d="m21 31a5 5 0 1 1 5-5 5.00588 5.00588 0 0 1 -5 5zm0-8a3 3 0 1 0 3 3 3.00328 3.00328 0 0 0 -3-3z"/><path d="m29 36a3 3 0 1 1 3-3 3.00328 3.00328 0 0 1 -3 3zm0-4a1 1 0 1 0 1 1 1.001 1.001 0 0 0 -1-1z"/><path d="m23.5 42a2.5 2.5 0 1 1 2.5-2.5 2.50231 2.50231 0 0 1 -2.5 2.5zm0-3a.5.5 0 1 0 .5.5.501.501 0 0 0 -.5-.5z"/></svg>