<svg id="icons" height="512" viewBox="0 0 64 64" width="512" xmlns="http://www.w3.org/2000/svg"><path d="m53 13.46a1.99309 1.99309 0 0 1 2 2v5a1.99309 1.99309 0 0 1 -2 2h-6l-1-1h-2v-8h3l1-3.5c.29-1.01.67-1.5 1.5-1.5a1.498 1.498 0 0 1 1.5 1.5v3.5z" fill="#eac6bb"/><path d="m60 36.54h3v12h-3z" fill="#545c66"/><path d="m36.86 4.6a3.899 3.899 0 0 1 0 5.51l-.35.34-5.51 5.52-5.52-5.52-.34-.34a3.8997 3.8997 0 0 1 5.52-5.51l.34.34.34-.34a3.911 3.911 0 0 1 5.52 0z" fill="#ed5565"/><path d="m29 38.54v22l-3-2v-14.55z" fill="#545c66"/><path d="m1 36.54h3v12h-3z" fill="#545c66"/><path d="m44.35 55.54 1.65 3h-8v-14.55z" fill="#434a54"/><path d="m44 21.46v1h-4v-10h4v1z" fill="#656d78"/><path d="m26 43.99v14.55h-8l1.65-3z" fill="#434a54"/><path d="m60 36.54v16a6.01764 6.01764 0 0 1 -6 6h-8l-1.65-3h9.65a3.00882 3.00882 0 0 0 3-3v-20a3.00882 3.00882 0 0 0 -3-3h-44a3.00882 3.00882 0 0 0 -3 3v20a3.00882 3.00882 0 0 0 3 3h9.65l-1.65 3h-8a6.01764 6.01764 0 0 1 -6-6v-20a6.01764 6.01764 0 0 1 6-6h44a6.01764 6.01764 0 0 1 6 6z" fill="#656d78"/><path d="m35 60.54v-22l3 5.45v14.55z" fill="#545c66"/><path d="m29 38.54h6v22h-6z" fill="#656d78"/><circle cx="16" cy="16.46" fill="#ac92ec" r="6"/><path d="m57 32.54v20a3.00882 3.00882 0 0 1 -3 3h-9.65l-6.35-11.55-3-5.45h-6l-3 5.45-6.35 11.55h-9.65a3.00882 3.00882 0 0 1 -3-3v-20a3.00882 3.00882 0 0 1 3-3h44a3.00882 3.00882 0 0 1 3 3z" fill="#5d9cec"/><path d="m31 16.96582a1.001 1.001 0 0 1 -.707-.293l-5.85742-5.85742a4.89455 4.89455 0 0 1 3.44723-8.3554l.01172-.001a4.87554 4.87554 0 0 1 3.10547 1.10545 4.89716 4.89716 0 0 1 6.56543 7.252l-.35254.34668-5.50589 5.50972a.99927.99927 0 0 1 -.707.29297zm-3.10547-12.50582h-.00683a2.89334 2.89334 0 0 0 -2.03907 4.94043l5.15137 5.15133 5.1582-5.15625a2.89282 2.89282 0 0 0 -.00488-4.08692 2.97033 2.97033 0 0 0 -4.10352 0l-.34472.34278a.99847.99847 0 0 1 -1.41016 0l-.34375-.3418-.001-.001a2.89037 2.89037 0 0 0 -2.05564-.84857z"/><path d="m55 16.46a.99942.99942 0 0 1 -1-1 1.00067 1.00067 0 0 0 -1-1 1 1 0 0 1 0-2 3.00328 3.00328 0 0 1 3 3 .99942.99942 0 0 1 -1 1z"/><path d="m53 23.46a1 1 0 0 1 0-2 1.00067 1.00067 0 0 0 1-1 1 1 0 1 1 2 0 3.00328 3.00328 0 0 1 -3 3z"/><path d="m55 21.46a.99942.99942 0 0 1 -1-1v-5a1 1 0 1 1 2 0v5a.99942.99942 0 0 1 -1 1z"/><path d="m53 14.46h-2a1 1 0 0 1 0-2h2a1 1 0 0 1 0 2z"/><path d="m53 23.46h-6a1 1 0 0 1 0-2h6a1 1 0 0 1 0 2z"/><path d="m51 14.46a.99942.99942 0 0 1 -1-1v-3.5a1 1 0 0 1 2 0v3.5a.99942.99942 0 0 1 -1 1z"/><path d="m47.001 14.46a1.02893 1.02893 0 0 1 -.27539-.03808 1.00122 1.00122 0 0 1 -.6875-1.23633l1-3.5a1.00029 1.00029 0 1 1 1.92382.54883l-1 3.5a1.00106 1.00106 0 0 1 -.96093.72558z"/><path d="m48 10.96a1.00083 1.00083 0 0 1 -.96094-1.27539 2.58552 2.58552 0 0 1 2.46094-2.22461 2.50231 2.50231 0 0 1 2.5 2.5 1 1 0 1 1 -2 0 .501.501 0 0 0 -.5-.5c-.18359 0-.31641 0-.53906.77539a.99933.99933 0 0 1 -.96094.72461z"/><path d="m47 23.46a.99676.99676 0 0 1 -.707-.293l-1-1a.99989.99989 0 0 1 1.414-1.41407l1 1a1 1 0 0 1 -.707 1.70707z"/><path d="m47 14.46h-3a1 1 0 0 1 0-2h3a1 1 0 0 1 0 2z"/><path d="m46 22.46h-2a1 1 0 0 1 0-2h2a1 1 0 0 1 0 2z"/><path d="m44 23.46h-4a.99942.99942 0 0 1 -1-1v-10a.99943.99943 0 0 1 1-1h4a.99943.99943 0 0 1 1 1v10a.99942.99942 0 0 1 -1 1zm-3-2h2v-8h-2z"/><path d="m16 23.46a7 7 0 1 1 7-7 7.00849 7.00849 0 0 1 -7 7zm0-12a5 5 0 1 0 5 5 5.00589 5.00589 0 0 0 -5-5z"/><path d="m16 19.46a.99942.99942 0 0 1 -1-1v-4a1 1 0 0 1 2 0v4a.99942.99942 0 0 1 -1 1z"/><path d="m18 17.46h-4a1 1 0 0 1 0-2h4a1 1 0 1 1 0 2z"/><path d="m54 59.54a1 1 0 0 1 0-2 5.00588 5.00588 0 0 0 5-5v-20a5.00588 5.00588 0 0 0 -5-5h-44a5.00588 5.00588 0 0 0 -5 5v20a5.00588 5.00588 0 0 0 5 5 1 1 0 1 1 0 2 7.0085 7.0085 0 0 1 -7-7v-20a7.00849 7.00849 0 0 1 7-7h44a7.00848 7.00848 0 0 1 7 7v20a7.00849 7.00849 0 0 1 -7 7z"/><path d="m54 59.54a1 1 0 0 1 0-2 5.00588 5.00588 0 0 0 5-5v-20a5.00588 5.00588 0 0 0 -5-5h-44a5.00588 5.00588 0 0 0 -5 5v20a5.00588 5.00588 0 0 0 5 5 1 1 0 1 1 0 2 7.0085 7.0085 0 0 1 -7-7v-20a7.00849 7.00849 0 0 1 7-7h44a7.00848 7.00848 0 0 1 7 7v20a7.00849 7.00849 0 0 1 -7 7z"/><path d="m54 56.54a1 1 0 0 1 0-2 2.0026 2.0026 0 0 0 2-2v-20a2.0026 2.0026 0 0 0 -2-2h-44a2.0026 2.0026 0 0 0 -2 2v20a2.0026 2.0026 0 0 0 2 2 1 1 0 1 1 0 2 4.004 4.004 0 0 1 -4-4v-20a4.004 4.004 0 0 1 4-4h44a4.004 4.004 0 0 1 4 4v20a4.004 4.004 0 0 1 -4 4z"/><path d="m54 59.54h-8a1 1 0 0 1 0-2h8a1 1 0 0 1 0 2z"/><path d="m46.001 59.54a.99778.99778 0 0 1 -.877-.51856l-11-20a.99957.99957 0 0 1 1.752-.96289l11 20a1.00029 1.00029 0 0 1 -.875 1.48145z"/><path d="m18 59.54h-8a1 1 0 0 1 0-2h8a1 1 0 1 1 0 2z"/><path d="m17.999 59.54a1.00029 1.00029 0 0 1 -.875-1.48145l11-20a.99957.99957 0 0 1 1.752.96289l-11 20a.99973.99973 0 0 1 -.877.51856z"/><path d="m35 39.54h-6a1 1 0 0 1 0-2h6a1 1 0 0 1 0 2z"/><path d="m26 59.54a.99943.99943 0 0 1 -1-1v-14.54586a1 1 0 0 1 2 0v14.54586a.99943.99943 0 0 1 -1 1z"/><path d="m28.999 61.54a.99943.99943 0 0 1 -.55371-.168l-3-2a1 1 0 0 1 1.1094-1.664l3 2a1 1 0 0 1 -.55569 1.832z"/><path d="m29 61.54a.99943.99943 0 0 1 -1-1v-22a1 1 0 0 1 2 0v22a.99943.99943 0 0 1 -1 1z"/><path d="m26 59.54h-8a1 1 0 0 1 0-2h8a1 1 0 1 1 0 2z"/><path d="m38 59.54a.99943.99943 0 0 1 -1-1v-14.54684a1 1 0 0 1 2 0v14.54684a.99943.99943 0 0 1 -1 1z"/><path d="m35.001 61.54a1 1 0 0 1 -.55567-1.832l3-2a1 1 0 1 1 1.10938 1.66406l-3 2a.99943.99943 0 0 1 -.55371.16794z"/><path d="m35 61.54a.99943.99943 0 0 1 -1-1v-22a1 1 0 0 1 2 0v22a.99943.99943 0 0 1 -1 1z"/><path d="m46 59.54h-8a1 1 0 0 1 0-2h8a1 1 0 0 1 0 2z"/><path d="m35 61.54h-6a1 1 0 0 1 0-2h6a1 1 0 0 1 0 2z"/><path d="m19.65039 56.54h-9.65039a1 1 0 0 1 0-2h9.65039a1 1 0 0 1 0 2z"/><path d="m54 56.54h-9.65039a1 1 0 0 1 0-2h9.65039a1 1 0 0 1 0 2z"/><path d="m4 49.54h-3a.99943.99943 0 0 1 -1-1v-12a.99942.99942 0 0 1 1-1h3a.99942.99942 0 0 1 1 1v12a.99943.99943 0 0 1 -1 1zm-2-2h1v-10h-1z"/><path d="m63 49.54h-3a.99943.99943 0 0 1 -1-1v-12a.99942.99942 0 0 1 1-1h3a.99942.99942 0 0 1 1 1v12a.99943.99943 0 0 1 -1 1zm-2-2h1v-10h-1z"/></svg>