<svg id="icons" height="512" viewBox="0 0 64 64" width="512" xmlns="http://www.w3.org/2000/svg"><path d="m40 46v4h-1-5-1v-4l2 1h3z" fill="#656d78"/><path d="m39 50v5a8.01391 8.01391 0 0 0 -5 1.75v-6.75z" fill="#545c66"/><path d="m25.1 40 .9-9h4l.9 9 .1 1h-6z" fill="#656d78"/><path d="m60 11v30a17.98865 17.98865 0 0 1 -18 18h-3a3.9989 3.9989 0 0 0 -4 4h-4a7.99039 7.99039 0 0 1 8-8h3a13.98975 13.98975 0 0 0 14-14v-30a3.9989 3.9989 0 0 0 -4-4v-4a7.9978 7.9978 0 0 1 8 8z" fill="#656d78"/><path d="m52 7v4l-4-3v-7l4 1v1z" fill="#aab2bd"/><path d="m47.75 27h4.25v6h-4v-4a8.23868 8.23868 0 0 0 -.25-2z" fill="#545c66"/><path d="m45 29v7a1.00294 1.00294 0 0 1 -1 1h-10.67l-3.33-6h-4l-3.33 6h-10.67a1.00294 1.00294 0 0 1 -1-1v-7a5.00182 5.00182 0 0 1 5-5h24a5.00182 5.00182 0 0 1 5 5z" fill="#5d9cec"/><path d="m35 40h-4.1l-.9-9 3.33 6z" fill="#545c66"/><path d="m26 31-.9 9h-4.1l1.67-3z" fill="#545c66"/><path d="m12 37h10.67l-1.67 3h-9a3.9989 3.9989 0 0 1 -4-4v-7a8.23868 8.23868 0 0 1 .25-2 8.00589 8.00589 0 0 1 7.75-6h24a8.00589 8.00589 0 0 1 7.75 6 8.23868 8.23868 0 0 1 .25 2v7a3.9989 3.9989 0 0 1 -4 4h-9l-1.67-3h10.67a1.00294 1.00294 0 0 0 1-1v-7a5.00182 5.00182 0 0 0 -5-5h-24a5.00182 5.00182 0 0 0 -5 5v7a1.00294 1.00294 0 0 0 1 1z" fill="#656d78"/><path d="m4 27h4.25a8.23868 8.23868 0 0 0 -.25 2v4h-4z" fill="#545c66"/><path d="m16 18h24v3h-24z" fill="#aab2bd"/><path d="m40 51h-7a.99943.99943 0 0 1 -1-1v-4a1.00038 1.00038 0 0 1 1.44727-.89453l1.78906.89453h2.52734l1.78906-.89453a1.00038 1.00038 0 0 1 1.44727.89453v4a.99943.99943 0 0 1 -1 1zm-6-2h5v-1.38184l-.55273.27637a1.00067 1.00067 0 0 1 -.44727.10547h-3a1.00067 1.00067 0 0 1 -.44727-.10547l-.55273-.27637z"/><path d="m42 60a1 1 0 0 1 0-2 17.019 17.019 0 0 0 17-17 1 1 0 0 1 2 0 19.02162 19.02162 0 0 1 -19 19z"/><path d="m42 56a1 1 0 0 1 0-2 13.01505 13.01505 0 0 0 13-13 1 1 0 0 1 2 0 15.01641 15.01641 0 0 1 -15 15z"/><path d="m35 64a.99943.99943 0 0 1 -1-1 5.00588 5.00588 0 0 1 5-5 1 1 0 0 1 0 2 3.00328 3.00328 0 0 0 -3 3 .99943.99943 0 0 1 -1 1z"/><path d="m31 64a.99943.99943 0 0 1 -1-1 9.00984 9.00984 0 0 1 9-9 1 1 0 0 1 0 2 7.0085 7.0085 0 0 0 -7 7 .99943.99943 0 0 1 -1 1z"/><path d="m35 64h-4a1 1 0 0 1 0-2h4a1 1 0 0 1 0 2z"/><path d="m42 60h-3a1 1 0 0 1 0-2h3a1 1 0 0 1 0 2z"/><path d="m42 56h-3a1 1 0 0 1 0-2h3a1 1 0 0 1 0 2z"/><path d="m39 56a.99943.99943 0 0 1 -1-1v-5a1 1 0 0 1 2 0v5a.99943.99943 0 0 1 -1 1z"/><path d="m34 57.75293a.99943.99943 0 0 1 -1-1v-6.75293a1 1 0 0 1 2 0v6.75293a.99943.99943 0 0 1 -1 1z"/><path d="m60 42a.99943.99943 0 0 1 -1-1v-30a1 1 0 0 1 2 0v30a.99943.99943 0 0 1 -1 1z"/><path d="m56 42a.99943.99943 0 0 1 -1-1v-30a1 1 0 0 1 2 0v30a.99943.99943 0 0 1 -1 1z"/><path d="m60 12a.99974.99974 0 0 1 -1-1 7.00818 7.00818 0 0 0 -7-7 1 1 0 0 1 0-2 9.01016 9.01016 0 0 1 9 9 .99974.99974 0 0 1 -1 1z"/><path d="m56 12a.99974.99974 0 0 1 -1-1 3.00328 3.00328 0 0 0 -3-3 1 1 0 0 1 0-2 5.00588 5.00588 0 0 1 5 5 .99974.99974 0 0 1 -1 1z"/><path d="m52 12a.99818.99818 0 0 1 -.59961-.2002l-4-3a.99878.99878 0 0 1 -.40039-.7998v-7a1.0003 1.0003 0 0 1 1.24219-.97021l4 1a1.00016 1.00016 0 0 1 .75781.97021v9a.99966.99966 0 0 1 -1 1zm-3-4.5 2 1.5v-6.21924l-2-.5z"/><path d="m48 30a.99974.99974 0 0 1 -1-1 7.00818 7.00818 0 0 0 -7-7 1 1 0 0 1 0-2 9.01016 9.01016 0 0 1 9 9 .99974.99974 0 0 1 -1 1z"/><path d="m45 30a.99974.99974 0 0 1 -1-1 4.00427 4.00427 0 0 0 -4-4 1 1 0 0 1 0-2 6.00657 6.00657 0 0 1 6 6 .99974.99974 0 0 1 -1 1z"/><path d="m8 30a.99974.99974 0 0 1 -1-1 9.01016 9.01016 0 0 1 9-9 1 1 0 0 1 0 2 7.00818 7.00818 0 0 0 -7 7 .99974.99974 0 0 1 -1 1z"/><path d="m40 22h-24a1 1 0 0 1 0-2h24a1 1 0 0 1 0 2z"/><path d="m48 37a.99943.99943 0 0 1 -1-1v-7a1 1 0 0 1 2 0v7a.99943.99943 0 0 1 -1 1z"/><path d="m44 41a1 1 0 0 1 0-2 3.00328 3.00328 0 0 0 3-3 1 1 0 0 1 2 0 5.00588 5.00588 0 0 1 -5 5z"/><path d="m44 38a1 1 0 0 1 0-2 1 1 0 0 1 2 0 2.0026 2.0026 0 0 1 -2 2z"/><path d="m44 41h-9a1 1 0 0 1 0-2h9a1 1 0 0 1 0 2z"/><path d="m35.001 41a.99911.99911 0 0 1 -.875-.51465l-5-8.99951a1 1 0 0 1 1.748-.97168l5 9.00049a.99889.99889 0 0 1 -.38867 1.35937.98811.98811 0 0 1 -.48433.12598z"/><path d="m8 37a.99943.99943 0 0 1 -1-1v-7a1 1 0 0 1 2 0v7a.99943.99943 0 0 1 -1 1z"/><path d="m12 41a5.00588 5.00588 0 0 1 -5-5 1 1 0 0 1 2 0 3.00328 3.00328 0 0 0 3 3 1 1 0 0 1 0 2z"/><path d="m12 38a2.0026 2.0026 0 0 1 -2-2 1 1 0 0 1 2 0v.002a.999.999 0 1 1 0 1.998z"/><path d="m21 41h-9a1 1 0 0 1 0-2h9a1 1 0 0 1 0 2z"/><path d="m20.999 41a.98811.98811 0 0 1 -.48437-.126.99889.99889 0 0 1 -.38867-1.35937l5-9.00049a1 1 0 0 1 1.748.97168l-5 8.99951a.99911.99911 0 0 1 -.87496.51467z"/><path d="m30 32h-4a1 1 0 0 1 0-2h4a1 1 0 0 1 0 2z"/><path d="m25.09961 41h-4.09961a1 1 0 0 1 0-2h4.09961a1 1 0 0 1 0 2z"/><path d="m25.001 42c-.03321 0-.06641-.002-.10059-.00488a.99987.99987 0 0 1 -.89551-1.09473l1-10a1.00009 1.00009 0 0 1 1.99024.19922l-1 10a1.00026 1.00026 0 0 1 -.99414.90039z"/><path d="m30.999 42a1.00026 1.00026 0 0 1 -.99414-.90039l-1-10a1.00009 1.00009 0 0 1 1.99024-.19922l1 10a.99987.99987 0 0 1 -.89551 1.09473c-.03416.00293-.06736.00488-.10059.00488z"/><path d="m40 22h-24a.99974.99974 0 0 1 -1-1v-3a.99974.99974 0 0 1 1-1h24a.99974.99974 0 0 1 1 1v3a.99974.99974 0 0 1 -1 1zm-23-2h22v-1h-22z"/><path d="m35 41h-4.09961a1 1 0 0 1 0-2h4.09961a1 1 0 0 1 0 2z"/><path d="m31 42h-6a1 1 0 0 1 0-2h6a1 1 0 0 1 0 2z"/><path d="m22.667 38h-10.667a1 1 0 0 1 0-2h10.667a1 1 0 0 1 0 2z"/><path d="m44 38h-10.667a1 1 0 0 1 0-2h10.667a1 1 0 0 1 0 2z"/><path d="m45 37a.99943.99943 0 0 1 -1-1v-7a1 1 0 0 1 2 0v7a.99943.99943 0 0 1 -1 1z"/><path d="m11 30a.99974.99974 0 0 1 -1-1 6.00657 6.00657 0 0 1 6-6 1 1 0 0 1 0 2 4.00427 4.00427 0 0 0 -4 4 .99974.99974 0 0 1 -1 1z"/><path d="m11 37a.99943.99943 0 0 1 -1-1v-7a1 1 0 0 1 2 0v7a.99943.99943 0 0 1 -1 1z"/><path d="m40 25h-24a1 1 0 0 1 0-2h24a1 1 0 0 1 0 2z"/><path d="m8 34h-4a.99943.99943 0 0 1 -1-1v-6a.99974.99974 0 0 1 1-1h4.25a1 1 0 0 1 0 2h-3.25v4h3a1 1 0 0 1 0 2z"/><path d="m52 34h-4a1 1 0 0 1 0-2h3v-4h-3.25a1 1 0 0 1 0-2h4.25a.99974.99974 0 0 1 1 1v6a.99943.99943 0 0 1 -1 1z"/></svg>