<svg id="icons" height="512" viewBox="0 0 64 64" width="512" xmlns="http://www.w3.org/2000/svg"><g fill="#656d78"><circle cx="41.5" cy="33.5" r="1.5"/><circle cx="22.5" cy="33.5" r="1.5"/><path d="m32 23 4.24 4.24a5.98128 5.98128 0 0 1 -8.48 0z"/></g><path d="m54 18v10h-3.67a18.99172 18.99172 0 0 0 0-10z" fill="#f6bb42"/><path d="m23.94 27h-4.94v-5h4.06a8.26189 8.26189 0 0 0 -.06 1 8.92456 8.92456 0 0 0 .94 4z" fill="#656d78"/><path d="m53 38v14a10.99377 10.99377 0 0 1 -11 11h-20a10.99377 10.99377 0 0 1 -11-11v-14h4v14a6.99488 6.99488 0 0 0 7 7h20a6.99488 6.99488 0 0 0 7-7v-14z" fill="#ffce54"/><path d="m25 1h14v4.34a18.95358 18.95358 0 0 0 -14 0z" fill="#f6bb42"/><path d="m43.99 23 .01 4h-3.94a8.92456 8.92456 0 0 0 .94-4z" fill="#656d78"/><path d="m43.99 23h-2.99a8.92456 8.92456 0 0 0 -.94-4h3.91z" fill="#656d78"/><path d="m36.24 27.24a5.99627 5.99627 0 1 0 -8.48 0 5.98128 5.98128 0 0 0 8.48 0zm3.82-8.24a8.998 8.998 0 1 1 -17.06 4 8.26189 8.26189 0 0 1 .06-1 8.99569 8.99569 0 0 1 17-3z" fill="#e6e9ed"/><path d="m19 40v-3.14l.01-.01a18.95753 18.95753 0 0 0 25.98 0l.01.01v3.14h2l2-2v14a6.99488 6.99488 0 0 1 -7 7h-20a6.99488 6.99488 0 0 1 -7-7v-14l2 2zm19 13c0-1.1-2.69-2-6-2s-6 .9-6 2 2.69 2 6 2 6-.9 6-2z" fill="#f6bb42"/><path d="m36.24 18.76-4.24 4.24-4.24-4.24a5.98128 5.98128 0 0 1 8.48 0z" fill="#656d78"/><path d="m36.24 18.76a5.98128 5.98128 0 0 1 0 8.48l-4.24-4.24z" fill="#656d78"/><ellipse cx="32" cy="53" fill="#ffce54" rx="6" ry="2"/><path d="m32 23-4.24 4.24a5.98128 5.98128 0 0 1 0-8.48z" fill="#656d78"/><path d="m10 18h3.67a18.99172 18.99172 0 0 0 0 10h-3.67z" fill="#f6bb42"/><path d="m50.33 18a18.99 18.99 0 0 1 -31.32 18.85 18.98481 18.98481 0 0 1 5.99-31.51 18.95358 18.95358 0 0 1 14 0 19.0081 19.0081 0 0 1 11.33 12.66zm-6.33 9-.01-4-.02-4h-3.91a8.99569 8.99569 0 0 0 -17 3h-4.06v5h4.94a8.99636 8.99636 0 0 0 16.12 0zm-1 6.5a1.5 1.5 0 1 0 -1.5 1.5 1.498 1.498 0 0 0 1.5-1.5zm-19 0a1.5 1.5 0 1 0 -1.5 1.5 1.498 1.498 0 0 0 1.5-1.5z" fill="#ffce54"/><path d="m32 43a20 20 0 1 1 20-20 20.02229 20.02229 0 0 1 -20 20zm0-38a18 18 0 1 0 18 18 18.02063 18.02063 0 0 0 -18-18z"/><path d="m32 33a10 10 0 1 1 10-10 10.01146 10.01146 0 0 1 -10 10zm0-18a8 8 0 1 0 8 8 8.00917 8.00917 0 0 0 -8-8z"/><path d="m32 30a7.001 7.001 0 1 1 4.94922-2.05029 6.95376 6.95376 0 0 1 -4.94922 2.05029zm0-12a5 5 0 1 0 3.53516 8.53564 5 5 0 0 0 -3.53516-8.53564z"/><path d="m54 29h-3.667a1 1 0 0 1 0-2h2.667v-8h-2.667a1 1 0 0 1 0-2h3.667a.99974.99974 0 0 1 1 1v10a.99974.99974 0 0 1 -1 1z"/><path d="m39 6.33057a.99974.99974 0 0 1 -1-1v-3.33057h-12v3.33057a1 1 0 1 1 -2 0v-4.33057a.99974.99974 0 0 1 1-1h14a.99974.99974 0 0 1 1 1v4.33057a.99974.99974 0 0 1 -1 1z"/><path d="m13.666 29h-3.666a.99974.99974 0 0 1 -1-1v-10a.99974.99974 0 0 1 1-1h3.666a1 1 0 0 1 0 2h-2.666v8h2.666a1 1 0 1 1 0 2z"/><path d="m44 28h-3.93652a1 1 0 0 1 0-2h2.93359l-.01953-6h-2.91406a1 1 0 0 1 0-2h3.91113a1.00037 1.00037 0 0 1 1 .99707l.02539 8a1.00027 1.00027 0 0 1 -1 1.00293z"/><path d="m43.9873 24h-2.9873a1 1 0 0 1 0-2h2.9873a1 1 0 1 1 0 2z"/><path d="m27.75781 28.24268a1 1 0 0 1 -.707-1.707l8.48438-8.48535a.99989.99989 0 0 1 1.41406 1.41407l-8.48438 8.48535a.99676.99676 0 0 1 -.70706.29293z"/><path d="m36.24219 28.24268a.99676.99676 0 0 1 -.707-.293l-8.48438-8.48535a.99989.99989 0 0 1 1.41406-1.41407l8.48438 8.48535a1 1 0 0 1 -.707 1.707z"/><path d="m23.93555 28h-4.93555a1 1 0 0 1 0-2h4.93555a1 1 0 0 1 0 2z"/><path d="m23.05469 23h-4.05469a1 1 0 0 1 0-2h4.05469a1 1 0 0 1 0 2z"/><path d="m19 28a.99974.99974 0 0 1 -1-1v-5a1 1 0 0 1 2 0v5a.99974.99974 0 0 1 -1 1z"/><path d="m21.01953 26a1 1 0 0 1 -.00976-2h.00976a1 1 0 1 1 0 2z"/><path d="m41.5 36a2.5 2.5 0 1 1 2.5-2.5 2.50231 2.50231 0 0 1 -2.5 2.5zm0-3a.5.5 0 1 0 .5.5.501.501 0 0 0 -.5-.5z"/><path d="m22.5 36a2.5 2.5 0 1 1 2.5-2.5 2.50231 2.50231 0 0 1 -2.5 2.5zm0-3a.5.5 0 1 0 .5.5.501.501 0 0 0 -.5-.5z"/><path d="m53 39h-4a1 1 0 0 1 0-2h4a1 1 0 0 1 0 2z"/><path d="m47 41a1 1 0 0 1 -.707-1.707l2-2a.99989.99989 0 0 1 1.414 1.414l-2 2a.99676.99676 0 0 1 -.707.293z"/><path d="m47 41h-2a1 1 0 0 1 0-2h2a1 1 0 0 1 0 2z"/><path d="m45 41a.99943.99943 0 0 1 -1-1v-3.14355a1 1 0 1 1 2 0v3.14355a.99943.99943 0 0 1 -1 1z"/><path d="m53 53a.99943.99943 0 0 1 -1-1v-14a1 1 0 0 1 2 0v14a.99943.99943 0 0 1 -1 1z"/><path d="m49 53a.99943.99943 0 0 1 -1-1v-14a1 1 0 0 1 2 0v14a.99943.99943 0 0 1 -1 1z"/><path d="m42 64a1 1 0 0 1 0-2 10.01177 10.01177 0 0 0 10-10 1 1 0 0 1 2 0 12.01312 12.01312 0 0 1 -12 12z"/><path d="m42 60a1 1 0 0 1 0-2 6.00657 6.00657 0 0 0 6-6 1 1 0 0 1 2 0 8.00917 8.00917 0 0 1 -8 8z"/><path d="m17 41a.99676.99676 0 0 1 -.707-.293l-2-2a.99989.99989 0 0 1 1.414-1.414l2 2a1 1 0 0 1 -.707 1.707z"/><path d="m19 41h-2a1 1 0 0 1 0-2h2a1 1 0 0 1 0 2z"/><path d="m19 41a.99943.99943 0 0 1 -1-1v-3.14355a1 1 0 0 1 2 0v3.14355a.99943.99943 0 0 1 -1 1z"/><path d="m11 53a.99943.99943 0 0 1 -1-1v-14a1 1 0 0 1 2 0v14a.99943.99943 0 0 1 -1 1z"/><path d="m15 53a.99943.99943 0 0 1 -1-1v-14a1 1 0 0 1 2 0v14a.99943.99943 0 0 1 -1 1z"/><path d="m22 64a12.01312 12.01312 0 0 1 -12-12 1 1 0 0 1 2 0 10.01177 10.01177 0 0 0 10 10 1 1 0 0 1 0 2z"/><path d="m22 60a8.00917 8.00917 0 0 1 -8-8 1 1 0 0 1 2 0 6.00657 6.00657 0 0 0 6 6 1 1 0 0 1 0 2z"/><path d="m15 39h-4a1 1 0 0 1 0-2h4a1 1 0 0 1 0 2z"/><path d="m42 60h-20a1 1 0 0 1 0-2h20a1 1 0 0 1 0 2z"/><path d="m42 64h-20a1 1 0 0 1 0-2h20a1 1 0 0 1 0 2z"/><path d="m32 56c-3.48437 0-7-.92773-7-3s3.51563-3 7-3 7 .92773 7 3-3.51562 3-7 3zm-4.90918-3c.46973.37012 2.14551 1 4.90918 1s4.43945-.62988 4.90918-1c-.46973-.37012-2.14551-1-4.90918-1s-4.43945.62988-4.90918 1z"/></svg>