<svg id="icons" height="512" viewBox="0 0 64 64" width="512" xmlns="http://www.w3.org/2000/svg"><path d="m5.7 27h.01a17.96063 17.96063 0 0 0 0 10h-4.71v-10z" fill="#545c66"/><path d="m63 27v10h-4.71a17.96063 17.96063 0 0 0 0-10z" fill="#545c66"/><path d="m41 17a15.00218 15.00218 0 0 1 7 28.27v-3.27l-4-.67-4-.66-4-.67v7h-8v-7l-4 .67-4 .66-4 .67v3.27a15.00218 15.00218 0 0 1 7-28.27z" fill="#5d9cec"/><path d="m40 40.67v6.33h-4v-7z" fill="#e6e9ed"/><path d="m24 40.67v6.33h-1a14.81909 14.81909 0 0 1 -3-.3v-5.37z" fill="#ccd1d9"/><path d="m20 41.33v5.37a15.127 15.127 0 0 1 -4-1.43v-3.27z" fill="#e6e9ed"/><path d="m44 41.33v5.37a14.81909 14.81909 0 0 1 -3 .3h-1v-6.33z" fill="#ccd1d9"/><path d="m48 42v3.27a15.127 15.127 0 0 1 -4 1.43v-5.37z" fill="#e6e9ed"/><path d="m28 40v7h-4v-6.33z" fill="#e6e9ed"/><path d="m48 45.27a15.00218 15.00218 0 0 0 -7-28.27h-18a15.00143 15.00143 0 0 0 -3 29.7 14.81909 14.81909 0 0 0 3 .3h18a14.81909 14.81909 0 0 0 3-.3 15.127 15.127 0 0 0 4-1.43zm11-13.27a18.00652 18.00652 0 0 1 -18 18h-18a18 18 0 0 1 0-36h18a18.00652 18.00652 0 0 1 18 18z" fill="#656d78"/><path d="m23 51a19 19 0 0 1 0-38 1 1 0 0 1 0 2 17 17 0 0 0 0 34 1 1 0 0 1 0 2z"/><path d="m23 48a16 16 0 0 1 0-32 1 1 0 0 1 0 2 14 14 0 0 0 0 28 1 1 0 0 1 0 2z"/><path d="m41 51a1 1 0 0 1 0-2 17 17 0 0 0 0-34 1 1 0 0 1 0-2 19 19 0 0 1 0 38z"/><path d="m41 48a1 1 0 0 1 0-2 14 14 0 0 0 0-28 1 1 0 0 1 0-2 16 16 0 0 1 0 32z"/><path d="m41 15h-18a1 1 0 0 1 0-2h18a1 1 0 0 1 0 2z"/><path d="m41 51h-18a1 1 0 0 1 0-2h18a1 1 0 0 1 0 2z"/><path d="m41 18h-18a1 1 0 0 1 0-2h18a1 1 0 0 1 0 2z"/><path d="m41 48h-18a1 1 0 0 1 0-2h18a1 1 0 0 1 0 2z"/><path d="m5.70313 38h-4.70313a.99943.99943 0 0 1 -1-1v-10a.99974.99974 0 0 1 1-1h4.70313a1 1 0 1 1 0 2h-3.70313v8h3.70313a1 1 0 1 1 0 2z"/><path d="m63 38h-4.70312a1 1 0 0 1 0-2h3.70312v-8h-3.70312a1 1 0 0 1 0-2h4.70312a.99974.99974 0 0 1 1 1v10a.99943.99943 0 0 1 -1 1z"/><path d="m28 48a.99943.99943 0 0 1 -1-1v-5.81934l-10 1.666v2.42285a1 1 0 0 1 -2 0v-3.26951a.99947.99947 0 0 1 .83594-.98633l12-2a1.00015 1.00015 0 0 1 1.16406.98633v7a.99943.99943 0 0 1 -1 1z"/><path d="m24 48a.99943.99943 0 0 1 -1-1v-6.333a1 1 0 0 1 2 0v6.333a.99943.99943 0 0 1 -1 1z"/><path d="m20 47.69922a.99943.99943 0 0 1 -1-1v-5.36622a1 1 0 0 1 2 0v5.36621a.99943.99943 0 0 1 -1 1.00001z"/><path d="m36 48a.99943.99943 0 0 1 -1-1v-7a.99735.99735 0 0 1 .35352-.7627 1.009 1.009 0 0 1 .81054-.22363l12 2a.99947.99947 0 0 1 .83594.98633v3.26953a1 1 0 0 1 -2 0v-2.42285l-10-1.666v5.81932a.99943.99943 0 0 1 -1 1z"/><path d="m40 48a.99943.99943 0 0 1 -1-1v-6.333a1 1 0 0 1 2 0v6.333a.99943.99943 0 0 1 -1 1z"/><path d="m44 47.69922a.99943.99943 0 0 1 -1-1v-5.36622a1 1 0 0 1 2 0v5.36621a.99943.99943 0 0 1 -1 1.00001z"/></svg>