<svg id="icons" height="512" viewBox="0 0 64 64" width="512" xmlns="http://www.w3.org/2000/svg"><circle cx="32" cy="31" fill="#e6e9ed" r="4"/><path d="m30 1h4v3h-4z" fill="#ccd1d9"/><path d="m30 7h4v3.25a8.125 8.125 0 0 0 -4 0z" fill="#ccd1d9"/><path d="m37 4v3h-3-4-3v-3h3 4z" fill="#e6e9ed"/><path d="m41 49v3h-18v-3h1 16z" fill="#545c66"/><path d="m41 52v6a1.99309 1.99309 0 0 1 -2 2h-14a1.99309 1.99309 0 0 1 -2-2v-6z" fill="#656d78"/><path d="m40 18v31h-16v-31a8.00589 8.00589 0 0 1 6-7.75 8.125 8.125 0 0 1 4 0 8.00589 8.00589 0 0 1 6 7.75zm-4 13a4 4 0 1 0 -4 4 3.9989 3.9989 0 0 0 4-4z" fill="#5d9cec"/><path d="m40 1v6h-3v-3-3z" fill="#ccd1d9"/><path d="m25 60h14v3h-14z" fill="#545c66"/><path d="m40 19a.99974.99974 0 0 1 -1-1 7 7 0 0 0 -14 0 1 1 0 0 1 -2 0 9 9 0 0 1 18 0 .99974.99974 0 0 1 -1 1z"/><path d="m24 50a.99943.99943 0 0 1 -1-1v-31a1 1 0 0 1 2 0v31a.99943.99943 0 0 1 -1 1z"/><path d="m40 50a.99943.99943 0 0 1 -1-1v-31a1 1 0 0 1 2 0v31a.99943.99943 0 0 1 -1 1z"/><path d="m41 59a.99943.99943 0 0 1 -1-1v-8h-16v8a1 1 0 0 1 -2 0v-9a.99943.99943 0 0 1 1-1h18a.99943.99943 0 0 1 1 1v9a.99943.99943 0 0 1 -1 1z"/><path d="m25 61a3.00328 3.00328 0 0 1 -3-3 1 1 0 0 1 2 0 1.00067 1.00067 0 0 0 1 1 1 1 0 0 1 0 2z"/><path d="m39 61a1 1 0 0 1 0-2 1.00067 1.00067 0 0 0 1-1 1 1 0 0 1 2 0 3.00328 3.00328 0 0 1 -3 3z"/><path d="m39 61h-14a1 1 0 0 1 0-2h14a1 1 0 0 1 0 2z"/><path d="m39 64h-14a.99943.99943 0 0 1 -1-1v-3a.99943.99943 0 0 1 1-1h14a.99943.99943 0 0 1 1 1v3a.99943.99943 0 0 1 -1 1zm-13-2h12v-1h-12z"/><path d="m30 11.25244a.99974.99974 0 0 1 -1-1v-3.25244a1 1 0 0 1 2 0v3.25244a.99974.99974 0 0 1 -1 1z"/><path d="m34 11.25244a.99974.99974 0 0 1 -1-1v-3.25244a1 1 0 0 1 2 0v3.25244a.99974.99974 0 0 1 -1 1z"/><path d="m37 8h-10a.99974.99974 0 0 1 -1-1v-3a.99974.99974 0 0 1 1-1h10a.99974.99974 0 0 1 1 1v3a.99974.99974 0 0 1 -1 1zm-9-2h8v-1h-8z"/><path d="m40 8h-3a.99974.99974 0 0 1 -1-1v-6a.99974.99974 0 0 1 1-1h3a.99974.99974 0 0 1 1 1v6a.99974.99974 0 0 1 -1 1zm-2-2h1v-4h-1z"/><path d="m34 5h-4a.99974.99974 0 0 1 -1-1v-3a.99974.99974 0 0 1 1-1h4a.99974.99974 0 0 1 1 1v3a.99974.99974 0 0 1 -1 1zm-3-2h2v-1h-2z"/><path d="m41 53h-18a1 1 0 0 1 0-2h18a1 1 0 0 1 0 2z"/><path d="m32 36a5 5 0 1 1 5-5 5.00588 5.00588 0 0 1 -5 5zm0-8a3 3 0 1 0 3 3 3.00328 3.00328 0 0 0 -3-3z"/></svg>