<svg height="511pt" viewBox="-27 0 511 511.99815" width="511pt" xmlns="http://www.w3.org/2000/svg"><path d="m272.410156 484.34375c0-11.109375-13.386718-20.113281-29.902344-20.113281-16.515624 0-29.902343 9.003906-29.902343 20.113281s13.386719 20.113281 29.902343 20.113281c16.515626 0 29.902344-9.003906 29.902344-20.113281zm0 0" fill="#b4d2d7"/><path d="m212.605469 484.34375c0-8.972656 8.734375-16.574219 20.796875-19.164062.011718-.316407.015625-.632813.015625-.949219 0-22.21875-24.0625-40.230469-53.746094-40.230469s-53.75 18.011719-53.75 40.230469c0 22.214843 24.066406 40.226562 53.75 40.226562 14.058594 0 26.859375-4.042969 36.4375-10.65625-2.234375-2.820312-3.503906-6.039062-3.503906-9.457031zm0 0" fill="#9bb9c3"/><path d="m178.339844 424.011719-1.070313-68.710938c-.007812-.441406-.183593-.859375-.496093-1.167969l-78.917969-78.917968c-8.816407-8.816406-8.816407-23.113282 0-31.929688l7.867187-7.863281c6.667969-6.671875 16.472656-8.296875 24.671875-4.875l8.492188-31.691406c2.40625-8.980469-2.921875-18.210938-11.90625-20.621094l-8.011719-2.144531c-8.980469-2.40625-18.210938 2.921875-20.617188 11.902344l-6.097656 22.765624c-.292968 1.09375-1.769531 1.273438-2.320312.285157l-28.300782-50.832031c-4.5625-8.195313-14.949218-11.066407-23.074218-6.375l-22.148438 12.785156c-8.125 4.691406-10.832031 15.125-6.015625 23.175781l54.367188 90.863281c.578125.96875-.316407 2.15625-1.410157 1.863282l-28.105468-7.53125c-8.980469-2.40625-18.210938 2.921874-20.617188 11.902343l-2.148437 8.011719c-2.40625 8.980469 2.921875 18.210938 11.90625 20.617188l72.433593 19.410156c.316407.085937.589844.289062.757813.570312l55.976563 93.558594c7.367187-3.074219 15.800781-4.886719 24.785156-5.050781zm0 0" fill="#eb5793"/><path d="m319.605469 185.78125c8.816406-8.816406 8.816406-23.113281 0-31.929688l-7.867188-7.863281c-8.816406-8.816406-23.109375-8.816406-31.925781 0l-27.59375 27.589844c-1.074219 1.074219-2.90625.296875-2.882812-1.21875l2.210937-141.980469c.199219-12.578125-9.945313-22.878906-22.523437-22.878906h-34.296876c-12.582031 0-22.722656 10.300781-22.527343 22.878906l1.21875 78.011719c.023437 1.519531-1.8125 2.292969-2.882813 1.222656l-22.351562-22.351562c-8.816406-8.8125-23.109375-8.8125-31.925782 0l-7.867187 7.867187c-8.816406 8.816406-8.816406 23.109375 0 31.929688l65.867187 65.863281c.308594.3125.488282.730469.496094 1.171875l1.175782 75.503906c.023437 1.519532-1.8125 2.296875-2.882813 1.222656l-35.398437-35.398437c-8.816407-8.816406-23.109376-8.816406-31.925782 0l-7.867187 7.867187c-8.816407 8.816407-8.816407 23.109376 0 31.925782l78.917969 78.917968c.308593.308594.484374.730469.492187 1.167969l1.074219 68.714844c.441406-.007813.882812-.011719 1.328125-.011719 29.6875 0 53.75 18.011719 53.75 40.226563 0 .320312-.007813.636719-.015625.953125-.007813 0-.011719 0-.019532.003906 2.875-.621094 5.941407-.957031 9.125-.957031.765626 0 1.523438.023437 2.273438.058593l3.214844-206.226562c.007812-.441406.1875-.859375.496094-1.171875zm0 0" fill="#f294ba"/><path d="m221.550781 10.378906-2.0625 132.359375c-.035156 2.273438 1.3125 4.34375 3.410157 5.230469 2.09375.890625 4.519531.417969 6.128906-1.191406l20.789062-20.789063c.078125-.078125.164063-.144531.246094-.222656l1.488281-95.386719c.195313-12.578125-9.949219-22.878906-22.527343-22.878906h-7.617188c.105469.945312.160156 1.902344.144531 2.878906zm0 0" fill="#ef75a7"/><path d="m319.605469 185.78125c8.816406-8.816406 8.816406-23.113281 0-31.929688l-7.867188-7.863281c-4.933593-4.9375-11.585937-7.105469-18.03125-6.515625 4.382813 8.496094 3.019531 19.1875-4.101562 26.308594l-59.855469 59.855469c-7.527344 7.53125-11.832031 17.695312-11.996094 28.339843l-2.804687 179.917969c11.308593 7.375 18.46875 18.226563 18.46875 30.335938 0 .316406-.003907.632812-.015625.949219-.003906 0-.011719.003906-.015625.003906 2.875-.617188 5.941406-.953125 9.121093-.953125.765626 0 1.523438.019531 2.273438.054687l3.21875-206.226562c.003906-.4375.183594-.855469.492188-1.167969zm0 0" fill="#ef75a7"/><path d="m435.996094 259.707031c9.769531-2.621093 15.566406-12.660156 12.949218-22.429687l-2.335937-8.714844c-2.617187-9.769531-12.660156-15.566406-22.425781-12.949219l-24.761719 6.636719c-1.191406.316406-2.164063-.972656-1.53125-2.03125l32.492187-54.308594c5.238282-8.753906 2.292969-20.101562-6.542968-25.203125l-24.09375-13.910156c-8.835938-5.101563-20.140625-1.980469-25.101563 6.933594l-56.027343 100.636719c-.597657 1.074218-2.203126.875-2.519532-.3125l-8.195312-30.574219c-.40625-1.523438-.996094-2.949219-1.734375-4.261719l-36.804688 36.800781 15.5625 58.070313c.089844.34375.046875.710937-.128906 1.019531l-38.453125 69.070313-1.558594 100.105468c2.269532.117188 4.46875.402344 6.574219.839844l43.6875-73.019531c.183594-.304688.476563-.527344.820313-.621094l87.445312-23.429687c9.769531-2.617188 15.566406-12.660157 12.949219-22.425782l-2.335938-8.71875c-2.617187-9.769531-12.660156-15.566406-22.429687-12.949218l-39.222656 10.511718c-1.1875.316406-2.164063-.972656-1.53125-2.027344l31.449218-52.566406c.183594-.304687.480469-.527344.824219-.617187zm0 0" fill="#eb5793"/><path d="m283.777344 440.855469c-7.300782 0-14.175782 1.378906-20.179688 3.808593l-12.242187 20.460938c12.195312 2.539062 21.054687 10.183594 21.054687 19.21875 0 6.214844-4.1875 11.769531-10.773437 15.460938 6.449219 2.949218 14.03125 4.652343 22.140625 4.652343 23.46875 0 42.488281-14.238281 42.488281-31.800781s-19.019531-31.800781-42.488281-31.800781zm0 0" fill="#87a0af"/><path d="m456.191406 235.335938-2.335937-8.714844c-3.6875-13.746094-17.871094-21.9375-31.613281-18.253906l-10.148438 2.722656 24.726562-41.328125c7.394532-12.359375 3.246094-28.347657-9.230468-35.550781l-24.09375-13.910157c-12.46875-7.203125-28.394532-2.800781-35.402344 9.78125l-9.9375 17.851563c-2.011719 3.617187-.714844 8.183594 2.90625 10.199218 3.617188 2.015626 8.183594.714844 10.199219-2.902343l9.9375-17.851563c2.929687-5.261718 9.582031-7.101562 14.800781-4.089844l24.09375 13.910157c5.210938 3.011719 6.949219 9.695312 3.855469 14.863281l-32.492188 54.304688c-4.089843 6.832031 2.214844 15.179687 9.90625 13.125l24.761719-6.636719c5.757812-1.546875 11.699219 1.886719 13.242188 7.648437l2.335937 8.714844c1.542969 5.757812-1.886719 11.699219-7.644531 13.242188l-72.976563 19.554687c-2.242187.597656-4.132812 2.023437-5.320312 4.015625l-31.453125 52.5625c-4.082032 6.828125 2.210937 15.175781 9.910156 13.121094l39.222656-10.507813c5.757813-1.542969 11.699219 1.886719 13.242188 7.644531l2.335937 8.714844c1.542969 5.761719-1.886719 11.699219-7.648437 13.242188l-87.445313 23.433594c-2.238281.597656-4.125 2.027343-5.3125 4.011718-12.355469 20.652344 23.855469-39.867187-36.082031 60.304688l1.285156-82.375 37.539063-67.429688c1.128906-2.03125 1.417969-4.378906.816406-6.605468l-14.441406-53.886719 25.027343-25.027344 6.097657 22.757813c2.050781 7.675781 12.433593 8.992187 16.316406 2.023437l29.050781-52.179687c2.015625-3.621094.714844-8.1875-2.902344-10.199219-3.621093-2.015625-8.1875-.714844-10.203124 2.902343l-21.6875 38.960938c-3.785157-14.117188-4.292969-16.019531-4.433594-16.507812l9.914062-9.910157c11.753906-11.753906 11.757813-30.777343 0-42.535156l-7.863281-7.863281c-11.757813-11.753906-30.78125-11.757813-42.535156 0l-17.449219 17.449218.917969-59.042968c.066406-4.1875-3.304688-7.617188-7.5-7.617188-4.085938 0-7.433594 3.28125-7.496094 7.382813l-1.144531 73.386719c-.128906 8.238281 9.855468 12.46875 15.6875 6.636718l27.589844-27.589844c5.894531-5.894531 15.429687-5.894531 21.324218 0l7.863282 7.867188c5.894531 5.890625 5.894531 15.425781 0 21.320312-4.671876 4.667969-59.242188 59.242188-71.109376 71.109376-1.699218 1.699218-2.652343 3.957031-2.691406 6.355468-.042968 2.882813-2.972656 190.617188-2.972656 190.617188-7.699219-17.21875-27.726562-29.976563-51.800781-31.824219l-.960938-61.550781c-.035156-2.402344-.992187-4.660156-2.6875-6.355469l-78.917969-78.917969c-5.890624-5.890625-5.894531-15.425781 0-21.320312l7.863282-7.867188c5.882812-5.875 15.445312-5.878906 21.324218 0l35.394532 35.398438c5.824218 5.828125 15.820312 1.605468 15.6875-6.640625l-1.175782-75.507813c-.039062-2.398437-.992187-4.65625-2.691406-6.351562l-65.867187-65.867188c-5.890625-5.894531-5.894531-15.429687 0-21.324218l7.867187-7.863282c5.890625-5.890625 15.425782-5.894531 21.320313 0l22.347656 22.347656c5.824219 5.824219 15.820313 1.605469 15.6875-6.640624l-1.214844-78.015626c-.136719-8.394531 6.621094-15.257812 15.019531-15.257812h34.296876c8.398437 0 15.160156 6.863281 15.027343 15.261719l-.523437 33.558593c-.0625 4.140626 3.238281 7.550782 7.382812 7.613282 4.1875.058594 7.550782-3.242188 7.613282-7.382813l.523437-33.554687c.261719-16.777344-13.238281-30.496094-30.023437-30.496094h-34.296876c-16.78125 0-30.285156 13.71875-30.023437 30.496094l.992187 63.671875-12.207031-12.207031c-11.75-11.753907-30.777343-11.753907-42.53125 0l-7.867187 7.867187c-11.753906 11.753906-11.753906 30.777344 0 42.53125l64.203125 64.203125.917969 58.8125c-26.863282-26.863281-26.207032-26.441406-29.074219-28.488281l6.992187-26.089844c3.480469-12.992187-4.214844-26.324219-17.207031-29.804687l-8.011719-2.144532c-12.960937-3.476562-26.332031 4.246094-29.800781 17.203125l-2.117187 7.890625-20.808594-37.378906c-6.605469-11.863281-21.617188-16.011719-33.375-9.222656l-22.152344 12.789062c-11.757812 6.789063-15.675781 21.863282-8.699219 33.515625l46.457031 77.648438-13.230468-3.546875c-12.964844-3.472656-26.328125 4.25-29.800782 17.207031l-2.148437 8.015625c-3.472656 12.957031 4.25 26.328125 17.207031 29.800781l69.996094 18.753907 25.113281 41.972656c2.132813 3.566406 6.742188 4.703125 10.285157 2.585937 3.554687-2.128906 4.710937-6.730469 2.582031-10.285156l-26.40625-44.140625c-1.175781-1.964844-3.039063-3.371094-5.25-3.964844l-72.4375-19.410156c-4.972657-1.332031-7.933594-6.460938-6.601563-11.433594l2.148438-8.011718c1.332031-4.972657 6.460937-7.933594 11.433594-6.601563l28.105468 7.53125c7.585938 2.03125 13.824219-6.203125 9.78125-12.957031l-54.363281-90.863282c-2.664063-4.453124-1.179687-10.226562 3.328125-12.828124l22.148438-12.789063c4.5-2.597656 10.246093-1.011719 12.773437 3.53125l28.300781 50.828125c3.828125 6.886719 14.082032 5.589844 16.117188-1.988281l6.097656-22.765625c1.335938-4.980469 6.449219-7.9375 11.433594-6.601563l8.015625 2.148438c4.980469 1.332031 7.933593 6.449219 6.597656 11.433593l-6.589844 24.597657c-8.777343-.980469-17.910156 1.886719-24.628906 8.605469l-7.867187 7.867187c-11.753907 11.75-11.753907 30.773437 0 42.53125l77.253906 77.253906.921875 59.238281c-4.835938.554688-9.492188 1.550782-13.894531 2.933594l-8.324219-13.914062c-2.128907-3.554688-6.734375-4.710938-10.285157-2.585938-3.554687 2.128906-4.714843 6.730469-2.585937 10.285156l7.359375 12.296876c-14.910156 8.714843-24.574219 22.597656-24.574219 38.203124 0 26.316407 27.476563 47.726563 61.246094 47.726563 12.761719 0 25.085937-3.054687 35.363281-8.695313 12.515625 9.925782 32.574219 11.121094 46.917969 4.792969 33.296875 12.605469 71.816406-6.542969 71.816406-35.394531 0-21.914062-23.882812-41.441406-54.769531-39.125l21.210938-35.449219 85.039062-22.785156c13.75-3.683594 21.9375-17.863281 18.253906-31.613281l-2.335937-8.714844c-3.683594-13.746094-17.859375-21.9375-31.613281-18.25l-24.609376 6.59375 22.410157-37.449219 70.582031-18.914062c13.75-3.683594 21.933594-17.863281 18.253906-31.613281zm-190.707031 15.171874 11.554687 43.125-22.730468 40.828126 1.152344-73.929688zm-132.0625 213.722657c0-11.839844 8.933594-22.234375 22.28125-27.980469.472656-.144531.941406-.335938 1.390625-.578125 28.953125-11.507813 63.972656 1.78125 68.375 23.988281-16.996094 6.28125-23.011719 19.886719-19.316406 31.328125-7.738282 3.878907-16.914063 5.96875-26.480469 5.96875-25.5 0-46.25-14.679687-46.25-32.726562zm88.667969 25.042969c-1.101563-1.457032-1.984375-2.980469-1.984375-4.929688 0-4.664062 5.621093-9.742188 14.375-11.738281.640625-.089844 6.96875-1.765625 14.933593-.234375.289063.074218.578126.136718.871094.175781 8.898438 1.957031 14.628906 7.089844 14.628906 11.796875 0 3.035156-2.382812 6.246094-6.460937 8.667969-.332031.15625-.652344.335937-.960937.539062-11.484376 6.089844-29.007813 3.640625-35.402344-4.277343zm61.6875-40.917969c18.96875 0 34.992187 11.128906 34.992187 24.300781 0 14.550781-19.992187 27.207031-42.476562 23.730469 7.472656-11.644531 3.574219-27.476563-13.6875-35.457031l6.074219-10.15625c4.699218-1.585938 9.867187-2.417969 15.097656-2.417969zm0 0"/></svg>