<svg height="512pt" viewBox="-29 0 512 512.00001" width="512pt" xmlns="http://www.w3.org/2000/svg"><path d="m175.492188 429.121094-1.105469-70.792969c-.003907-.453125-.1875-.886719-.507813-1.207031l-62.230468-84.011719c-9.082032-9.082031-16.425782-9.105469-7.34375-18.1875l5.875-9.96875c6.875-6.871094 7.46875-18.679687 15.914062-15.152344l8.75-32.65625c2.476562-9.25-3.011719-18.761719-12.265625-21.242187l-8.253906-2.210938c-9.253907-2.476562-18.765625 3.011719-21.242188 12.265625l-6.285156 23.453125c-.300781 1.125-1.820313 1.3125-2.386719.292969l-29.160156-52.371094c-4.699219-8.441406-15.40625-11.398437-23.773438-6.566406l-22.820312 13.171875c-8.367188 4.832031-11.160156 15.582031-6.199219 23.875l56.011719 93.613281c.601562 1-.320312 2.222657-1.449219 1.921875l-28.957031-7.761718c-9.25-2.476563-18.761719 3.011718-21.242188 12.265624l-2.210937 8.253907c-2.480469 9.253906 3.011719 18.761719 12.265625 21.242187l74.625 19.996094c.328125.089844.605469.300781.78125.589844l57.671875 96.386718c7.59375-3.164062 16.285156-5.03125 25.539063-5.199218zm0 0" fill="#eb5793"/><path d="m440.949219 259.839844c10.066406-2.695313 16.039062-13.042969 13.339843-23.105469l-2.40625-8.980469c-2.695312-10.066406-13.039062-16.035156-23.105468-13.339844l-25.511719 6.835938c-1.222656.328125-2.226563-1-1.578125-2.089844l33.480469-55.953125c5.394531-9.019531 2.363281-20.710937-6.742188-25.96875l-24.824219-14.332031c-9.101562-5.253906-20.746093-2.039062-25.859374 7.148438l-57.726563 103.679687c-.617187 1.109375-2.265625.902344-2.59375-.320313l-8.441406-31.5c-.421875-1.570312-1.027344-3.039062-1.789063-4.394531l-31.28125 25.015625-6.636718 12.902344 16.03125 59.828125c.097656.351563.050781.730469-.128907 1.050781l-39.617187 71.160156-3.953125 51.628907 2.34375 51.507812c2.339843.117188 4.609375.414063 6.773437.863281l45.011719-75.230468c.1875-.3125.492187-.542969.847656-.636719l90.089844-24.140625c10.0625-2.695312 16.035156-13.042969 13.339844-23.105469l-2.40625-8.980469c-2.695313-10.066406-13.042969-16.039062-23.105469-13.339843l-40.410156 10.828125c-1.226563.328125-2.230469-1-1.578125-2.089844l32.402343-54.15625c.1875-.3125.492188-.542969.84375-.636719zm0 0" fill="#eb5793"/><path d="m272.410156 491.277344c0-11.445313-13.792968-20.722656-30.808594-20.722656-17.011718 0-30.804687 9.277343-30.804687 20.722656 0 11.445312 13.792969 20.722656 30.804687 20.722656 17.015626 0 30.808594-9.277344 30.808594-20.722656zm0 0" fill="#b4d2d7"/><path d="m210.796875 491.277344c0-9.246094 9-17.074219 21.425781-19.746094.011719-.324219.015625-.648438.015625-.976562 0-22.890626-24.789062-41.445313-55.371093-41.445313-30.582032 0-55.375 18.554687-55.375 41.445313 0 22.890624 24.792968 41.445312 55.375 41.445312 14.484374 0 27.671874-4.164062 37.539062-10.980469-2.304688-2.902343-3.609375-6.21875-3.609375-9.742187zm0 0" fill="#9bb9c3"/><path d="m321.035156 183.675781c9.082032-9.082031 9.082032-23.808593 0-32.894531l-8.105468-8.101562c-9.082032-9.082032-23.808594-9.082032-32.894532 0l-28.425781 28.425781c-1.105469 1.105469-2.996094.304687-2.972656-1.257813l2.28125-146.277344c.203125-12.957031-10.246094-23.570312-23.207031-23.570312h-35.335938c-12.957031 0-23.40625 10.613281-23.207031 23.570312l1.253906 80.375c.027344 1.5625-1.863281 2.363282-2.96875 1.257813l-23.027344-23.023437c-9.082031-9.085938-23.808593-9.085938-32.890625 0l-8.105468 8.101562c-9.082032 9.082031-9.082032 23.8125 0 32.894531l67.859374 67.859375c.320313.320313.503907.75.511719 1.203125l1.210938 77.792969c.027343 1.5625-1.863281 2.363281-2.96875 1.257812l-36.472657-36.46875c-9.082031-9.085937-23.808593-9.085937-32.890624 0l-8.105469 8.101563c-9.082031 9.085937-9.082031 23.8125 0 32.894531l81.304687 81.304688c.320313.320312.503906.753906.511719 1.203125l1.105469 70.796875c.453125-.007813.910156-.015625 1.371094-.015625 30.582031 0 55.371093 18.558593 55.371093 41.449219 0 .324218-.003906.652343-.015625.976562-.003906 0-.011718.003906-.019531.003906 2.964844-.636718 6.121094-.980468 9.398437-.980468.789063 0 1.570313.019531 2.347657.058593l3.3125-212.46875c.003906-.453125.1875-.886719.507812-1.207031zm0 0" fill="#f294ba"/><path d="m220.011719 2.96875-2.125 136.363281c-.039063 2.34375 1.351562 4.476563 3.511719 5.390625 2.160156.914063 4.65625.425782 6.316406-1.230468l21.414062-21.417969c.082032-.082031.171875-.148438.257813-.230469l1.53125-98.273438c.203125-12.957031-10.246094-23.570312-23.207031-23.570312h-7.847657c.109375.972656.164063 1.960938.148438 2.96875zm0 0" fill="#ef75a7"/><path d="m321.035156 183.675781c9.082032-9.082031 9.082032-23.808593 0-32.894531l-8.105468-8.101562c-5.085938-5.085938-11.9375-7.320313-18.578126-6.710938 4.515626 8.75 3.113282 19.765625-4.222656 27.101562l-61.667968 61.667969c-7.757813 7.757813-12.191407 18.230469-12.363282 29.199219l-2.886718 185.359375c11.652343 7.597656 19.027343 18.777344 19.027343 31.253906 0 .328125-.003906.652344-.015625.980469-.003906 0-.011718.003906-.015625.003906 2.960938-.636718 6.121094-.980468 9.398438-.980468.789062 0 1.570312.019531 2.34375.058593l3.3125-212.472656c.007812-.449219.191406-.882813.507812-1.203125zm0 0" fill="#ef75a7"/><path d="m284.125 446.472656c-7.527344 0-14.609375 1.421875-20.792969 3.921875l-12.613281 21.082031c12.566406 2.613282 21.691406 10.488282 21.691406 19.800782 0 6.402344-4.316406 12.125-11.097656 15.925781 6.644531 3.042969 14.453125 4.796875 22.8125 4.796875 24.175781 0 43.773438-14.671875 43.773438-32.765625s-19.597657-32.761719-43.773438-32.761719zm0 0" fill="#87a0af"/></svg>