<svg id="icons" enable-background="new 0 0 64 64" height="512" viewBox="0 0 64 64" width="512" xmlns="http://www.w3.org/2000/svg"><g><g><path d="m36.99 24.8c2.38 1.38 3.98 3.95 3.98 6.91h.04l-.01 3.04h-19.72l4.6-6.75c.84-1.23 1.89-2.34 3.13-3.11l-.01-.01v-23.13-.5h8v.5 23.03z" fill="#eac6bb"/></g><g><path d="m36.97 48.71v4c0 1.1-.89 2-2 2-1.1 0-2-.9-2-2v3c0 1.1-.89 2-2 2-1.1 0-2-.9-2-2v-3c0 1.1-.89 2-2 2-1.1 0-2-.9-2-2v-15l-2.58 2.41c-.81.75-2.05.78-2.83 0s-.61-1.93 0-2.83l1.73-2.54h19.71l-.03 13.96c0 1.1-.89 2-2 2-1.1 0-2-.9-2-2z" fill="#87bcf4"/></g><g><path d="m36.97 52.71v-4c0 1.1.9 2 2 2 1.11 0 2-.9 2-2l.03-13.96h20.74l-8.97 28h-41.75l-8.75-28h19.02l-1.73 2.54c-.61.9-.78 2.05 0 2.83s2.02.75 2.83 0l2.58-2.41v15c0 1.1.9 2 2 2 1.11 0 2-.9 2-2v3c0 1.1.9 2 2 2 1.11 0 2-.9 2-2v-3c0 1.1.9 2 2 2 1.11 0 2-.9 2-2z" fill="#5d9cec"/></g></g><g><g><path d="m11 63.5c-.43 0-.82-.27-.95-.7l-10-32c-.17-.53.13-1.09.66-1.25.52-.17 1.09.13 1.25.66l10 32c.17.53-.13 1.09-.66 1.25-.1.03-.2.04-.3.04z"/></g><g><path d="m52.75 63.5c-.1 0-.2-.02-.3-.05-.53-.17-.82-.73-.65-1.26l10.25-32c.17-.53.73-.82 1.26-.65s.82.73.65 1.26l-10.25 32c-.14.43-.54.7-.96.7z"/></g><g><path d="m52.75 63.5h-41.75c-.55 0-1-.45-1-1s.45-1 1-1h41.75c.55 0 1 .45 1 1s-.45 1-1 1z"/></g><g><path d="m61.72 35.5h-59.49c-.55 0-1-.45-1-1s.45-1 1-1h59.49c.55 0 1 .45 1 1s-.45 1-1 1z"/></g><g><g><path d="m38.95 51.46c-1.65 0-3-1.35-3-3 0-.55.45-1 1-1s1 .45 1 1 .45 1 1 1 1-.45 1-1 .45-1 1-1 1 .45 1 1c0 1.65-1.34 3-3 3z"/></g><g><path d="m40.95 49.46c-.54.04-1-.45-1-1l.03-17c0-.55.45-1 1-1 .55 0 1 .45 1 1l-.03 17c0 .55-.45 1-1 1z"/></g><g><path d="m36.95 53.46c-.55 0-1-.45-1-1v-11c0-.55.45-1 1-1s1 .45 1 1v11c0 .55-.45 1-1 1z"/></g><g><path d="m34.95 55.46c-1.65 0-3-1.35-3-3 0-.55.45-1 1-1s1 .45 1 1 .45 1 1 1 1-.45 1-1 .45-1 1-1 1 .45 1 1c0 1.65-1.34 3-3 3z"/></g><g><path d="m24.95 53.46c-.55 0-1-.45-1-1v-15c0-.55.45-1 1-1s1 .45 1 1v15c0 .55-.45 1-1 1z"/></g><g><path d="m26.95 55.46c-1.65 0-3-1.35-3-3 0-.55.45-1 1-1s1 .45 1 1 .45 1 1 1 1-.45 1-1 .45-1 1-1 1 .45 1 1c0 1.65-1.34 3-3 3z"/></g><g><path d="m32.95 56.46c-.55 0-1-.45-1-1v-14c0-.55.45-1 1-1s1 .45 1 1v14c0 .55-.45 1-1 1z"/></g><g><path d="m30.95 58.46c-1.65 0-3-1.35-3-3 0-.55.45-1 1-1s1 .45 1 1 .45 1 1 1 1-.45 1-1 .45-1 1-1 1 .45 1 1c0 1.65-1.34 3-3 3z"/></g><g><path d="m28.95 56.46c-.55 0-1-.45-1-1v-14c0-.55.45-1 1-1s1 .45 1 1v14c0 .55-.45 1-1 1z"/></g><g><path d="m40.95 32.46c-.55 0-1-.45-1-1 0-2.85-1.7-5.39-4.33-6.47-.51-.21-.75-.8-.54-1.31s.8-.75 1.31-.54c3.38 1.4 5.57 4.66 5.57 8.32-.01.55-.46 1-1.01 1z"/></g><g><path d="m25.86 28.75c-.19 0-.39-.06-.56-.17-.46-.31-.57-.93-.26-1.39 1.27-1.87 2.85-3.25 4.56-4.01.51-.22 1.1 0 1.32.51s0 1.1-.51 1.32c-1.37.61-2.66 1.75-3.72 3.31-.2.28-.51.43-.83.43z"/></g><g><path d="m20.93 41.45c-.76 0-1.52-.29-2.1-.87-1.05-1.05-1.1-2.66-.12-4.1.31-.46.93-.57 1.39-.26s.57.93.26 1.39c-.11.17-.65 1.02-.12 1.56.39.39 1.01.38 1.44-.02.41-.38 1.04-.35 1.41.05.38.4.35 1.04-.05 1.41-.59.56-1.36.84-2.11.84z"/></g><g><path d="m19.54 38.04c-.19 0-.39-.06-.56-.17-.46-.31-.58-.93-.26-1.39l6.32-9.29c.31-.46.93-.58 1.39-.26.46.31.58.93.26 1.39l-6.32 9.29c-.2.28-.51.43-.83.43z"/></g><g><path d="m22.37 40.87c-.27 0-.53-.11-.73-.32-.38-.4-.35-1.04.05-1.41l2.59-2.41c.4-.38 1.04-.36 1.41.05.38.4.35 1.04-.05 1.41l-2.59 2.41c-.19.18-.44.27-.68.27z"/></g><g><path d="m36.98 25.53c-.55 0-1-.45-1-1v-23.03c0-.55.45-1 1-1s1 .45 1 1v23.03c0 .55-.44 1-1 1z"/></g><g><path d="m28.98 25.63c-.55 0-1-.45-1-1v-23.13c0-.55.45-1 1-1s1 .45 1 1v23.13c0 .56-.44 1-1 1z"/></g></g></g></svg>