<?xml version="1.0" encoding="iso-8859-1"?>
<!-- Generator: Adobe Illustrator 19.0.0, SVG Export Plug-In . SVG Version: 6.00 Build 0)  -->
<svg version="1.1" id="Layer_1" xmlns="http://www.w3.org/2000/svg" xmlns:xlink="http://www.w3.org/1999/xlink" x="0px" y="0px"
	 viewBox="0 0 512.001 512.001" style="enable-background:new 0 0 512.001 512.001;" xml:space="preserve">
<path style="fill:#FFCE54;" d="M395.256,382.495c0,0-43.5-27.75-44.25-28.25s-49-16.5-49-16.5s-59.25-4-60.75-4s-44.75,7-44.75,7
	l-33.5,11.25l-47.75,32.25l-27.75,38.25l39,8.25l60.5,1.5l175.25,0.25h45.5l13.75-11.75L395.256,382.495z"/>
<polygon style="fill:#5D9CEC;" points="14.256,432.011 14.256,488.667 499.6,485.339 503.6,432.011 "/>
<g>
	<polygon style="fill:#965353;" points="301.6,202.002 266.67,166.659 262.256,226.002 254.506,280.667 224.006,327.339 
		312.928,333.745 320.006,280.667 320.006,239.33 	"/>
	<path style="fill:#965353;" d="M250.256,180.112c0,10.203-8.266,18.469-18.461,18.469c-10.188,0-18.453-8.266-18.453-18.469
		c0-10.188,8.266-18.453,18.453-18.453C241.99,161.659,250.256,169.924,250.256,180.112z"/>
</g>
<path style="fill:#A0D468;" d="M383.912,90.33c0,0-40-8.984-43.656-8.328s-37.656,12-37.656,12l-29,21.328l-17.594-44.671
	l5.25-38.656c0,0-3.836-7.328-5.25-7.328c-1.414,0-32,15-32,15l-10.664,25.656l-2.75,34.344l-11,12.656l-38.336,6l-21,16.672
	l-11.664,19.672l-5.336,19.984l69-14.656h52.336l41.664-5l33.75-7l34.906-26.344l23-11.328l27-3.672L383.912,90.33z"/>
<g>
	<path style="fill:#080808;" d="M231.545,370.214c4.172-4.172,4.172-10.938,0-15.094c-4.164-4.156-10.914-4.156-15.078,0
		c-4.172,4.156-4.172,10.922,0,15.094C220.631,374.37,227.381,374.37,231.545,370.214z"/>
	<path style="fill:#080808;" d="M274.225,412.87c4.156-4.156,4.156-10.906,0-15.094c-4.172-4.156-10.93-4.156-15.094,0
		c-4.164,4.188-4.164,10.938,0,15.094C263.295,417.042,270.053,417.042,274.225,412.87z"/>
	<path style="fill:#080808;" d="M210.217,412.87c4.164-4.156,4.164-10.906,0-15.094c-4.164-4.156-10.922-4.156-15.086,0
		c-4.164,4.188-4.164,10.938,0,15.094C199.295,417.042,206.053,417.042,210.217,412.87z"/>
	<path style="fill:#080808;" d="M146.217,412.87c4.164-4.156,4.164-10.906,0-15.094c-4.164-4.156-10.922-4.156-15.086,0
		c-4.164,4.188-4.164,10.938,0,15.094C135.295,417.042,142.053,417.042,146.217,412.87z"/>
	<path style="fill:#080808;" d="M295.537,370.214c4.188-4.172,4.188-10.938,0-15.094c-4.156-4.156-10.906-4.156-15.062,0
		c-4.188,4.156-4.188,10.922,0,15.094C284.631,374.37,291.381,374.37,295.537,370.214z"/>
	<path style="fill:#080808;" d="M338.225,412.87c4.156-4.156,4.156-10.906,0-15.094c-4.172-4.156-10.938-4.156-15.094,0
		c-4.156,4.188-4.156,10.938,0,15.094C327.287,417.042,334.053,417.042,338.225,412.87z"/>
	<path style="fill:#080808;" d="M511.975,425.87c-0.016-0.125-0.031-0.25-0.031-0.375c-0.031-0.172-0.062-0.344-0.094-0.531
		s-0.047-0.375-0.094-0.562c-0.016-0.109-0.062-0.219-0.094-0.344c-0.047-0.234-0.109-0.469-0.188-0.703c0,0,0-0.047-0.016-0.062
		c-0.016-0.078-0.062-0.156-0.094-0.234c-0.078-0.234-0.172-0.469-0.266-0.688c-0.062-0.125-0.125-0.25-0.188-0.375
		c-0.094-0.188-0.172-0.375-0.281-0.547c-0.078-0.156-0.172-0.297-0.266-0.453c-0.078-0.125-0.172-0.281-0.266-0.406
		c-0.125-0.156-0.234-0.312-0.359-0.484c-0.078-0.109-0.172-0.219-0.266-0.328c-0.125-0.156-0.266-0.312-0.406-0.453
		c-0.094-0.109-0.188-0.203-0.281-0.297c-0.156-0.141-0.297-0.281-0.453-0.406c-0.109-0.094-0.219-0.188-0.344-0.281
		c-0.141-0.125-0.281-0.219-0.422-0.328c-0.141-0.094-0.281-0.203-0.422-0.297c-0.141-0.078-0.266-0.156-0.406-0.25
		c-0.172-0.094-0.328-0.188-0.5-0.266c-0.125-0.078-0.266-0.125-0.391-0.188c-0.188-0.078-0.359-0.172-0.547-0.234
		c-0.141-0.062-0.266-0.109-0.422-0.156c-0.172-0.062-0.359-0.125-0.531-0.188c-0.172-0.047-0.344-0.094-0.5-0.125
		c-0.172-0.031-0.328-0.094-0.5-0.125c-0.203-0.031-0.406-0.062-0.625-0.094c-0.125,0-0.25-0.031-0.391-0.031
		c-0.25-0.031-0.5-0.031-0.766-0.047c-0.062,0-0.156-0.016-0.219-0.016c-0.031,0-0.062,0-0.078,0c-0.234,0-0.484,0.031-0.734,0.031
		c-0.125,0.031-0.25,0.031-0.359,0.031c-0.172,0.031-0.359,0.062-0.547,0.094s-0.375,0.047-0.531,0.094
		c-0.125,0.031-0.25,0.062-0.375,0.094c-0.219,0.062-0.469,0.109-0.688,0.188c-0.031,0-0.047,0-0.062,0.016l-27.812,9.266
		l-17.375-8.688c-3.016-1.5-6.547-1.5-9.562,0l-8.375,4.188c-2.969-5.438-6.25-11-9.969-16.562
		c-16.406-24.594-37.109-44.219-61.547-58.312c-12.859-7.438-26.766-13.312-41.609-17.609
		c16.516-42.328,12.375-85.461-12.25-125.508c-8.625-14.031-18.406-25.5-26.859-34.078c21.062-2.625,47.75-9.828,62.922-28.891
		c9.531-11.984,24.469-18.078,44.375-18.078c17.922,0,33.172,5.094,33.312,5.141c4.688,1.609,9.844-0.234,12.484-4.422
		s2.016-9.656-1.453-13.172c-1.625-1.641-40.281-40.062-87.797-40.062c-11.562,0-22.766,2.297-33.297,6.828
		c-15.406,6.641-27.5,16-36.938,26.031c-1.516-5.953-3.984-11.938-7.734-17.734c-7.016-10.891-6.82-22.75,0.594-36.281
		c6.188-11.297,15.141-19.109,15.203-19.172c3.438-2.953,4.625-7.75,3-11.953c-1.625-4.219-5.75-6.953-10.266-6.812
		c-1.734,0.047-42.758,1.594-65.492,29.062c-12.484,15.078-16.922,34.578-13.203,57.953c0.328,2.031,0.711,4.016,1.141,5.953
		c-2.359-0.203-4.789-0.344-7.312-0.391c-0.328,0-0.664,0-1,0c-66.688,0-93.633,92.75-94.75,96.688
		c-1.367,4.844,0.852,10,5.32,12.344c1.57,0.812,3.266,1.219,4.945,1.219c3.102,0,6.148-1.359,8.234-3.875
		c0.336-0.406,33.562-40.031,74.32-40.031c3.586,0,7.188,0.297,10.695,0.906c1.461,0.266,2.93,0.5,4.406,0.719
		c-1.07,3.188-1.656,6.578-1.656,10.125c0,17.641,14.359,32,32,32c6.484,0,12.516-1.953,17.562-5.281
		c0.336,5.734,0.508,11.781,0.422,18.047c-0.594,43.375-12.594,75.93-35.672,96.836c-25.117,3.922-47.992,11.781-68.305,23.5
		c-24.438,14.094-45.148,33.719-61.547,58.312c-3.711,5.562-7.008,11.125-9.969,16.562l-8.391-4.188c-3-1.5-6.531-1.5-9.539,0
		l-17.383,8.688l-27.805-9.266c-0.023-0.016-0.039-0.016-0.062-0.016c-0.234-0.078-0.477-0.141-0.711-0.188
		c-0.117-0.031-0.234-0.062-0.344-0.094c-0.188-0.047-0.375-0.062-0.562-0.094c-0.172-0.031-0.352-0.062-0.531-0.094
		c-0.125,0-0.25,0-0.383-0.031c-0.234,0-0.469-0.031-0.711-0.031c-0.023,0-0.047,0-0.07,0c-0.086,0-0.172,0.016-0.266,0.016
		c-0.242,0.016-0.477,0.016-0.719,0.047c-0.141,0-0.289,0.031-0.43,0.047c-0.195,0.016-0.391,0.047-0.586,0.078
		c-0.18,0.047-0.352,0.094-0.523,0.125c-0.156,0.031-0.312,0.078-0.461,0.125c-0.195,0.062-0.391,0.125-0.586,0.188
		c-0.125,0.047-0.258,0.094-0.383,0.141c-0.195,0.078-0.383,0.172-0.57,0.266c-0.125,0.047-0.25,0.094-0.367,0.156
		c-0.18,0.094-0.352,0.203-0.516,0.312c-0.133,0.062-0.266,0.141-0.391,0.219c-0.148,0.094-0.289,0.203-0.438,0.312
		c-0.141,0.094-0.273,0.188-0.414,0.312c-0.117,0.094-0.234,0.188-0.359,0.297c-0.141,0.125-0.281,0.25-0.422,0.391
		c-0.102,0.094-0.203,0.188-0.297,0.312c-0.141,0.125-0.281,0.281-0.406,0.438c-0.094,0.109-0.18,0.219-0.273,0.344
		c-0.117,0.156-0.242,0.312-0.352,0.469c-0.094,0.125-0.18,0.281-0.266,0.406c-0.094,0.156-0.188,0.297-0.273,0.453
		c-0.102,0.172-0.188,0.359-0.281,0.547c-0.062,0.125-0.125,0.25-0.18,0.375c-0.094,0.219-0.188,0.453-0.266,0.688
		c-0.031,0.094-0.07,0.156-0.094,0.234c-0.008,0.016-0.008,0.047-0.008,0.047c-0.086,0.25-0.148,0.484-0.203,0.719
		c-0.031,0.125-0.07,0.25-0.094,0.344c-0.039,0.188-0.062,0.375-0.094,0.562s-0.062,0.359-0.086,0.531
		c-0.008,0.125-0.016,0.25-0.023,0.375c-0.016,0.25-0.031,0.484-0.039,0.719c0,0.031,0,0.062,0,0.078v64
		c0,0.734,0.078,1.453,0.219,2.141c0.992,4.875,5.297,8.531,10.445,8.531h490.68c5.875,0,10.656-4.781,10.656-10.672v-64
		c0-0.016,0-0.047,0-0.078C512.006,426.354,511.975,426.12,511.975,425.87z M321.6,96.174c7.844-3.375,16.219-5.094,24.859-5.094
		c13.922,0,27.234,4.375,38.562,9.969c-24.078,1.062-43.438,10-56.188,26.016c-11.094,13.953-35.312,20.266-57.586,21.859
		C278.037,133.409,292.912,108.518,321.6,96.174z M227.904,53.393c6.133-7.453,14.555-12.312,22.719-15.5
		c-11.453,20.594-11.477,40.844-0.055,58.547c7.594,11.781,7.156,25.375,4.578,36.438c-0.148,0.297-0.289,0.578-0.43,0.859
		c-0.773-1.062-1.586-2.125-2.453-3.188c-6.086-7.469-15.383-15.844-28.914-21.312c-1.719-4.562-3.094-9.516-3.953-14.938
		C216.686,77.299,219.545,63.549,227.904,53.393z M189.225,148.237c-20.625,0-39.164,7.516-54.039,16.594
		c12.203-20.188,30.695-40.25,55.969-40.25c0.234,0,0.469,0,0.703,0c27.227,0.375,41.203,14.281,47.992,25.156
		c-1.688-0.266-3.414-0.406-5.18-0.406c-4.148,0-8.117,0.797-11.758,2.25c-6.539-0.297-13.008-1-19.312-2.094
		C198.881,148.659,194.045,148.237,189.225,148.237z M234.67,191.987c-5.883,0-10.664-4.781-10.664-10.656
		c0-5.891,4.781-10.672,10.664-10.672s10.672,4.781,10.672,10.672C245.342,187.205,240.553,191.987,234.67,191.987z
		 M254.568,309.183c0.547,0.094,1.102,0.156,1.664,0.156h21.117c5.875,0,10.656-4.781,10.656-10.672s-4.781-10.672-10.656-10.672
		h-13.352c0.234-0.672,0.477-1.328,0.703-2c5.906-17.711,9.023-37.946,9.289-60.149c0.156-13.609-0.766-26.234-2.039-36.859
		c6.336,6.938,13.211,15.5,19.367,25.5c6.25,10.188,10.953,20.469,14.125,30.844h-6.781c-5.875,0-10.656,4.766-10.656,10.656
		c0,5.891,4.781,10.672,10.656,10.672h11.156c1.953,18.883-1.062,37.992-9.094,57.242c-14.188-2.594-29.102-3.906-44.719-3.906
		c-2.781,0-5.547,0.047-8.281,0.125C250.17,316.651,252.451,312.995,254.568,309.183z M151.779,369.448
		c0.211,0.266,0.438,0.516,0.688,0.766c4.164,4.156,10.914,4.156,15.078,0c2.992-3,3.828-7.312,2.523-11.062
		c15.953-7.625,33.555-12.812,52.758-15.547c0.039-0.016,0.078-0.016,0.125-0.016c10.539-1.5,21.555-2.25,33.055-2.25
		c17.062,0,33.062,1.656,48.016,4.922c0.391,0.109,0.766,0.203,1.156,0.266c13.078,2.953,25.359,7.156,36.766,12.625
		c-1.312,3.75-0.469,8.062,2.531,11.062c4.156,4.156,10.906,4.156,15.078,0c0.234-0.25,0.469-0.5,0.672-0.766
		c11.109,7.266,21.25,15.938,30.422,26c-1.281,0.516-2.484,1.297-3.516,2.328c-4.156,4.188-4.156,10.938,0,15.094
		c4.156,4.172,10.922,4.172,15.094,0c0.469-0.484,0.906-1,1.266-1.547c1.078,1.516,2.141,3.047,3.203,4.594
		c0.031,0.062,0.078,0.141,0.125,0.203c-2.125-0.312-4.297,0.031-6.25,1l-16.563,8.281l-16.562-8.281c-3-1.5-6.531-1.5-9.531,0
		l-16.562,8.281l-16.578-8.281c-3-1.5-6.531-1.5-9.547,0l-16.562,8.281l-16.562-8.281c-3-1.5-6.531-1.5-9.531,0l-16.565,8.281
		l-16.562-8.281c-3.008-1.5-6.539-1.5-9.539,0l-16.562,8.281l-16.57-8.281c-3-1.5-6.531-1.5-9.539,0l-16.562,8.281l-16.562-8.281
		c-3-1.5-6.539-1.5-9.539,0l-16.565,8.281l-16.562-8.281c-1.953-0.969-4.133-1.312-6.25-1c0.047-0.062,0.086-0.141,0.133-0.203
		C118.225,396.745,133.748,381.261,151.779,369.448z M47.444,446.87l16.562-8.281l16.562,8.281c3,1.5,6.539,1.5,9.539,0
		l16.562-8.281l16.562,8.281c3.008,1.5,6.539,1.5,9.539,0l16.57-8.281l16.562,8.281c3,1.5,6.531,1.5,9.539,0l16.565-8.281
		l16.562,8.281c3,1.5,6.539,1.5,9.539,0l16.562-8.281l16.562,8.281c3.008,1.5,6.539,1.5,9.547,0l16.57-8.281l16.562,8.281
		c3,1.5,6.531,1.5,9.531,0l16.565-8.281l16.562,8.281c1.5,0.75,3.125,1.125,4.781,1.125c1.625,0,3.25-0.375,4.75-1.125l16.562-8.281
		l16.562,8.281c3.016,1.5,6.547,1.5,9.562,0l16.562-8.281l16.562,8.281c3,1.5,6.531,1.5,9.531,0l16.566-8.281l16.562,8.281
		c2.531,1.266,5.469,1.469,8.141,0.578l17.953-5.984v38.531H21.342v-38.531l17.961,5.984
		C41.983,448.339,44.912,448.136,47.444,446.87z"/>
</g>
<g>
</g>
<g>
</g>
<g>
</g>
<g>
</g>
<g>
</g>
<g>
</g>
<g>
</g>
<g>
</g>
<g>
</g>
<g>
</g>
<g>
</g>
<g>
</g>
<g>
</g>
<g>
</g>
<g>
</g>
</svg>
