<svg id="icons" enable-background="new 0 0 64 64" height="512" viewBox="0 0 64 64" width="512" xmlns="http://www.w3.org/2000/svg"><g><g><path d="m28.01 31.5v-4-4-4h8v12 6.25c-1.13-.79-2.51-1.25-4-1.25s-2.87.46-4 1.26z" fill="#da4453"/></g><g><path d="m36.01 37.75c1.82 1.27 3 3.37 3 5.75 0 3.87-3.13 7-7 7s-7-3.13-7-7c0-2.38 1.18-4.48 3-5.74 1.13-.8 2.51-1.26 4-1.26 1.5 0 2.87.46 4 1.25z" fill="#ed5565"/></g><g><path d="m28.01 15.5v-4-3c0-2.21 1.79-4 4-4s4 1.79 4 4v11h-8z" fill="#e6e9ed"/></g><g><path d="m61.74 31.5-8.97 28h-41.75l-8.75-28h25.75v6.26c-1.82 1.26-3 3.36-3 5.74 0 3.87 3.13 7 7 7s7-3.13 7-7c0-2.38-1.18-4.48-3-5.75v-6.25z" fill="#5d9cec"/></g></g><g><g><g><path d="m11 60.5c-.43 0-.82-.27-.95-.7l-10-32c-.17-.53.13-1.09.66-1.25.52-.17 1.09.13 1.25.66l10 32c.17.53-.13 1.09-.66 1.25-.1.03-.2.04-.3.04z"/></g><g><path d="m52.75 60.5c-.1 0-.2-.02-.3-.05-.53-.17-.82-.73-.65-1.26l10.25-32c.17-.53.73-.82 1.26-.65s.82.73.65 1.26l-10.25 32c-.14.43-.54.7-.96.7z"/></g><g><path d="m52.75 60.5h-41.75c-.55 0-1-.45-1-1s.45-1 1-1h41.75c.55 0 1 .45 1 1s-.45 1-1 1z"/></g><g><path d="m28 32.5h-25.77c-.55 0-1-.45-1-1s.45-1 1-1h25.77c.55 0 1 .45 1 1s-.45 1-1 1z"/></g></g><g><path d="m61.72 32.5h-25.72c-.55 0-1-.45-1-1s.45-1 1-1h25.72c.55 0 1 .45 1 1s-.45 1-1 1z"/></g><g><path d="m32 51.5c-4.41 0-8-3.59-8-8s3.59-8 8-8 8 3.59 8 8-3.59 8-8 8zm0-14c-3.31 0-6 2.69-6 6s2.69 6 6 6 6-2.69 6-6-2.69-6-6-6z"/></g><g><path d="m36 9.5c-.55 0-1-.45-1-1 0-1.65-1.35-3-3-3s-3 1.35-3 3c0 .55-.45 1-1 1s-1-.45-1-1c0-2.76 2.24-5 5-5s5 2.24 5 5c0 .55-.45 1-1 1z"/></g><g><path d="m36 38.75c-.55 0-1-.45-1-1v-29.25c0-.55.45-1 1-1s1 .45 1 1v29.25c0 .56-.45 1-1 1z"/></g><g><path d="m28 38.76c-.55 0-1-.45-1-1v-29.26c0-.55.45-1 1-1s1 .45 1 1v29.26c0 .55-.45 1-1 1z"/></g><g><path d="m29 32.5h-1c-.55 0-1-.45-1-1s.45-1 1-1h1c.55 0 1 .45 1 1s-.45 1-1 1z"/></g><g><path d="m29 28.5h-1c-.55 0-1-.45-1-1s.45-1 1-1h1c.55 0 1 .45 1 1s-.45 1-1 1z"/></g><g><path d="m29 24.5h-1c-.55 0-1-.45-1-1s.45-1 1-1h1c.55 0 1 .45 1 1s-.45 1-1 1z"/></g><g><path d="m36 20.5h-8c-.55 0-1-.45-1-1s.45-1 1-1h8c.55 0 1 .45 1 1s-.45 1-1 1z"/></g><g><path d="m29 16.5h-1c-.55 0-1-.45-1-1s.45-1 1-1h1c.55 0 1 .45 1 1s-.45 1-1 1z"/></g><g><path d="m29 12.5h-1c-.55 0-1-.45-1-1s.45-1 1-1h1c.55 0 1 .45 1 1s-.45 1-1 1z"/></g></g></svg>