<?xml version="1.0" encoding="iso-8859-1"?>
<!-- Generator: Adobe Illustrator 19.0.0, SVG Export Plug-In . SVG Version: 6.00 Build 0)  -->
<svg version="1.1" id="Capa_1" xmlns="http://www.w3.org/2000/svg" xmlns:xlink="http://www.w3.org/1999/xlink" x="0px" y="0px"
	 viewBox="0 0 512 512" style="enable-background:new 0 0 512 512;" xml:space="preserve">
<path style="fill:#9E7325;" d="M391.232,412.439l-0.001-0.002c-7.303-10.712-15.839-20.529-25.371-29.175
	c-8.444-7.66-17.679-14.44-27.45-20.15l-4.249-2.482h-78.16h-79.134l-4.249,2.482c-9.771,5.711-19.006,12.489-27.449,20.149
	c-8.052,7.305-15.384,15.452-21.872,24.262l132.704,78.786c48.882-0.117,95.828-17.858,132.238-49.993l0.001-0.001
	C395.112,430.25,396.395,420.014,391.232,412.439z"/>
<path style="fill:#BB9430;" d="M123.298,407.522c-1.192,1.619-2.366,3.252-3.5,4.915l-0.001,0.001
	c-5.164,7.575-3.881,17.811,2.993,23.877c36.649,32.348,83.975,50.115,133.206,49.999c0.002-0.002,0.003-0.003,0.005-0.005v-60.604
	c0-10.042-8.138-18.183-18.178-18.183H123.298z"/>
<path style="fill:#D9B43A;" d="M237.823,407.522h-42.414l-20.638,61.931c25.343,11.092,52.968,16.927,81.225,16.861
	c0.002-0.002,0.003-0.003,0.005-0.005v-60.604C256.001,415.663,247.863,407.522,237.823,407.522z"/>
<path style="fill:#915729;" d="M256.54,504.5c-6.669,0-13.088-3.683-16.273-10.055c-3.255-6.512-2.237-14.043,1.991-19.404
	l5.168-6.893l9.062-0.021c14.805-0.036,29.606-1.698,43.993-4.939c32.72-7.373,63.252-22.951,88.294-45.055
	c7.528-6.642,19.015-5.924,25.657,1.605c6.642,7.529,5.924,19.02-1.604,25.664c-29.61,26.133-65.696,44.55-104.359,53.262
	c-16.782,3.781-34.039,5.741-51.3,5.825C256.96,504.496,256.75,504.5,256.54,504.5z"/>
<path style="fill:#AD712C;" d="M255.983,504.498c-31.763,0-62.654-6.188-91.827-18.395c-9.262-3.875-13.629-14.526-9.755-23.79
	s14.522-13.63,23.784-9.758c24.704,10.337,50.878,15.577,77.799,15.577c0.025,0,0.051,0,0.076,0
	c3.952-0.112,7.968,1.074,11.377,3.631c8.031,6.025,9.659,17.423,3.636,25.456c-1.693,2.259-3.894,4.096-6.418,5.358l-3.817,1.909
	l-4.268,0.011C256.374,504.496,256.177,504.498,255.983,504.498z"/>
<path style="fill:#C98A2E;" d="M171.163,487.516c-2.338,0-4.714-0.453-7.007-1.413c-23.803-9.958-45.667-23.653-64.983-40.703
	c-7.528-6.643-8.246-18.134-1.604-25.664c6.641-7.53,18.129-8.251,25.657-1.603c16.334,14.417,34.825,25.998,54.958,34.422
	c9.262,3.875,13.63,14.526,9.756,23.79C185.025,483.316,178.273,487.516,171.163,487.516z"/>
<path style="fill:#9E7325;" d="M455.955,207.511C455.955,97.048,366.433,7.5,256.001,7.5S56.047,97.048,56.047,207.511
	c0,75.868,42.23,141.868,104.459,175.767h190.99C413.725,349.379,455.955,283.379,455.955,207.511z"/>
<path style="fill:#BB9430;" d="M56.047,207.511c0,32.887,7.946,63.912,22.005,91.28c21.136,7.603,43.918,11.756,67.672,11.756
	c110.432,0,199.954-89.548,199.954-200.011c0-32.887-7.946-63.912-22.005-91.28C302.536,11.653,279.755,7.5,256.001,7.5
	C145.569,7.5,56.047,97.048,56.047,207.511z"/>
<path style="fill:#D9B43A;" d="M205.729,57.787c16.564,16.569,10.809,49.188-12.854,72.858s-56.273,29.426-72.837,12.857
	s-10.809-49.188,12.854-72.858S189.165,41.218,205.729,57.787z"/>
<ellipse style="fill:#80531A;" cx="274.181" cy="219.63" rx="115.12" ry="115.16"/>
<ellipse style="fill:#AD712C;" cx="256.001" cy="207.51" rx="115.12" ry="115.16"/>
<path style="fill:#5B7676;" d="M256.001,274.182c-36.752,0-66.651-29.908-66.651-66.67s29.9-66.67,66.651-66.67
	s66.651,29.908,66.651,66.67S292.753,274.182,256.001,274.182z"/>
<path style="fill:#78ABB1;" d="M317.022,180.737c-11.594-9.758-26.541-15.652-42.844-15.652c-36.752,0-66.651,29.908-66.651,66.67
	c0,9.521,2.02,18.573,5.63,26.775c1.407,1.184,2.866,2.309,4.368,3.376l64.682-18.437l34.931-62.448
	C317.098,180.927,317.063,180.83,317.022,180.737z"/>
<path style="fill:#ACCCC7;" d="M217.526,261.906c10.876,7.723,24.151,12.276,38.475,12.276c36.752,0,66.651-29.908,66.651-66.67
	c0-9.412-1.98-18.364-5.514-26.491L217.526,261.906z"/>
<path style="fill:#AD712C;" d="M154.054,286.304h-26.355c-2.761,0-5-2.239-5-5V133.719c0-2.761,2.239-5,5-5h26.355
	c2.761,0,5,2.239,5,5v147.585C159.054,284.065,156.815,286.304,154.054,286.304z"/>
<path style="fill:#C98A2E;" d="M140.876,268.121V134.78c0-3.347-2.713-6.061-6.059-6.061h-6.059c-3.346,0-6.059,2.714-6.059,6.061
	v133.341c0,3.347,2.713,6.061,6.059,6.061h6.059C138.163,274.182,140.876,271.468,140.876,268.121z"/>
<path style="fill:#915729;" d="M408.54,340.852H103.462c-2.761,0-5,2.239-5,5v32.427c0,2.761,2.239,5,5,5h305.079
	c2.761,0,5-2.239,5-5v-32.427C413.54,343.091,411.302,340.852,408.54,340.852z"/>
<path style="fill:#AD712C;" d="M287.356,340.852H103.462c-2.761,0-5,2.239-5,5v32.427c0,2.761,2.239,5,5,5h183.895
	c2.761,0,5-2.239,5-5v-32.427C292.356,343.091,290.118,340.852,287.356,340.852z"/>
<path style="fill:#C98A2E;" d="M226.764,340.852h-74.829c-2.761,0-5,2.239-5,5v32.427c0,2.761,2.239,5,5,5h74.829
	c2.761,0,5-2.239,5-5v-32.427C231.764,343.091,229.526,340.852,226.764,340.852z"/>
<path style="fill:#915729;" d="M78.343,322.669H33.751c-4.418,0-8-3.582-8-8V100.353c0-4.418,3.582-8,8-8h44.592
	c4.418,0,8,3.582,8,8v214.316C86.343,319.087,82.761,322.669,78.343,322.669z"/>
<path style="fill:#AD712C;" d="M78.343,262.06H33.751c-4.418,0-8-3.582-8-8V100.353c0-4.418,3.582-8,8-8h44.592c4.418,0,8,3.582,8,8
	V254.06C86.343,258.478,82.761,262.06,78.343,262.06z"/>
<path style="fill:#C98A2E;" d="M78.343,201.45H33.751c-4.418,0-8-3.582-8-8v-68.853c0-4.418,3.582-8,8-8h44.592c4.418,0,8,3.582,8,8
	v68.853C86.343,197.869,82.761,201.45,78.343,201.45z"/>
<path style="fill:#915729;" d="M478.251,322.669h-44.592c-4.418,0-8-3.582-8-8V100.353c0-4.418,3.582-8,8-8h44.592
	c4.418,0,8,3.582,8,8v214.316C486.251,319.087,482.669,322.669,478.251,322.669z"/>
<path style="fill:#AD712C;" d="M478.251,262.06h-44.592c-4.418,0-8-3.582-8-8V100.353c0-4.418,3.582-8,8-8h44.592
	c4.418,0,8,3.582,8,8V254.06C486.251,258.478,482.669,262.06,478.251,262.06z"/>
<path style="fill:#C98A2E;" d="M478.251,201.45h-44.592c-4.418,0-8-3.582-8-8v-68.853c0-4.418,3.582-8,8-8h44.592
	c4.418,0,8,3.582,8,8v68.853C486.251,197.869,482.669,201.45,478.251,201.45z"/>
<path d="M163.807,126.606c-2.478-3.271-6.402-5.388-10.813-5.388h-24.237c-7.477,0-13.559,6.084-13.559,13.562v145.462
	c0,7.478,6.083,13.562,13.559,13.562h24.237c4.41,0,8.335-2.116,10.813-5.388c23.116,26.422,56.434,41.753,92.194,41.753
	c67.615,0,122.625-55.023,122.625-122.657S323.616,84.854,256.001,84.854C220.241,84.854,186.923,100.185,163.807,126.606z
	 M363.626,207.512c0,59.362-48.28,107.657-107.625,107.657c-36.112,0-69.382-17.829-89.447-47.79v-14.526c0-4.143-3.358-7.5-7.5-7.5
	s-7.5,3.357-7.5,7.5v16.788v2.916v6.246h-21.355V136.219h21.355v9.162v19.704c0,4.143,3.358,7.5,7.5,7.5s7.5-3.357,7.5-7.5v-17.442
	c20.066-29.961,53.335-47.79,89.447-47.79C315.346,99.854,363.626,148.148,363.626,207.512z"/>
<path d="M476.557,84.854h-41.203c-9.267,0-16.809,7.258-17.168,16.474c-0.016,0.239-0.026,0.479-0.026,0.724v209.116
	c-4.968,7.759-10.517,15.203-16.549,22.186h-72.898c-4.143,0-7.5,3.357-7.5,7.5s3.357,7.5,7.5,7.5h76.229
	c0.022,0,0.044,0.003,0.066,0.003c0.019,0,0.038-0.003,0.057-0.003h0.976v27.426h-300.08v-27.426h0.904
	c0.045,0.001,0.089,0.007,0.134,0.007c0.052,0,0.103-0.006,0.154-0.007h76.138c4.142,0,7.5-3.357,7.5-7.5s-3.358-7.5-7.5-7.5
	h-72.899c-6.029-6.98-11.578-14.424-16.549-22.185V103.852C129.462,48.182,189.908,15,256.001,15
	c49.307,0,96.203,18.638,132.05,52.48c2.148,2.028,4.279,4.135,6.331,6.258c0.534,0.553,1.065,1.11,1.595,1.67
	c2.845,3.009,7.592,3.139,10.603,0.294c3.009-2.847,3.141-7.593,0.294-10.603c-0.564-0.597-1.131-1.191-1.704-1.784
	c-2.212-2.289-4.506-4.557-6.82-6.741C359.706,20.092,309.152,0,256.001,0c-35.826,0-71.142,9.286-102.13,26.855
	c-26.636,15.102-49.737,36.083-67.401,61.082c-2.785-1.939-6.164-3.083-9.822-3.083H35.446c-9.481,0-17.195,7.715-17.195,17.197
	v210.921c0,9.482,7.713,17.197,17.195,17.197h41.203c3.663,0,7.044-1.145,9.829-3.085c2.573,3.644,5.264,7.207,8.065,10.679
	c-2.216,2.415-3.581,5.622-3.581,9.15v30.305c0,7.478,6.083,13.561,13.559,13.561h22.704c-3.495,3.938-6.83,8.039-9.967,12.298
	c-0.88,1.196-1.652,2.268-2.372,3.288c-8.438-1.236-17.1,1.786-22.941,8.41c-9.367,10.619-8.351,26.881,2.265,36.248
	c19.931,17.592,42.488,31.722,67.046,41.997l0,0c0.018,0.008,0.036,0.015,0.055,0.022c30.078,12.578,61.93,18.956,94.671,18.956
	l0.341-0.001c0.077,0.002,0.153,0.003,0.216,0.003l4.317-0.015c0.374-0.001,0.746-0.03,1.113-0.086
	c16.27-0.396,32.462-2.386,48.146-5.919c39.89-8.988,77.122-27.991,107.673-54.955c10.617-9.37,11.633-25.632,2.265-36.248
	c-6.022-6.828-15.141-9.803-23.812-8.248c-3.843-5.496-7.997-10.757-12.435-15.751h23.674c7.477,0,13.559-6.083,13.559-13.561
	v-30.305c0-3.528-1.365-6.735-3.581-9.15c2.801-3.472,5.492-7.036,8.065-10.679c2.785,1.94,6.167,3.085,9.829,3.085h41.203
	c9.481,0,17.194-7.715,17.194-17.197v-210.92C493.751,92.568,486.038,84.854,476.557,84.854z M76.648,315.169H35.446
	c-1.21,0-2.195-0.985-2.195-2.197V102.051c0-1.212,0.984-2.197,2.195-2.197h41.203c1.177,0,2.135,0.926,2.181,2.102
	c0.003,0.089,0.008,0.177,0.014,0.272v210.561c-0.005,0.09-0.01,0.18-0.014,0.269C78.786,314.241,77.828,315.169,76.648,315.169z
	 M382.754,413.423c-16.739,14.558-35.82,26.05-56.749,34.151c-3.863,1.495-5.782,5.839-4.287,9.701
	c1.495,3.863,5.837,5.785,9.701,4.287c23.028-8.914,43.995-21.634,62.319-37.808c0.695-0.614,1.509-1.148,2.414-1.588
	c4.296-2.084,9.5-1.043,12.654,2.533c3.897,4.417,3.475,11.181-0.942,15.079c-28.666,25.3-63.606,43.132-101.044,51.568
	c-14.977,3.374-30.456,5.249-46.006,5.574c-0.285,0.006-0.568,0.027-0.85,0.065l-3.344,0.011c-0.075-0.001-0.153-0.003-0.224-0.002
	l-0.415,0.002c-30.761,0-60.682-5.993-88.931-17.814c-0.019-0.008-0.038-0.016-0.057-0.023c-23.024-9.64-44.172-22.89-62.859-39.385
	c-4.416-3.896-4.838-10.661-0.941-15.079c3.048-3.457,7.948-4.562,12.191-2.749c1.064,0.454,2.032,1.062,2.877,1.809
	c16.948,14.959,36.133,26.976,57.023,35.717c0.026,0.011,0.052,0.021,0.078,0.032c1.637,0.684,3.346,1.369,5.222,2.095
	c3.866,1.49,8.207-0.429,9.7-4.292c1.493-3.864-0.428-8.206-4.292-9.7c-1.775-0.686-3.382-1.331-4.914-1.972
	c-0.017-0.007-0.034-0.014-0.051-0.021c-19.171-8.027-36.788-19.032-52.379-32.707c0.224-0.307,0.447-0.613,0.686-0.939
	c5.634-7.65,11.941-14.763,18.763-21.191h214.819C370.211,397.645,376.866,405.235,382.754,413.423z M478.751,312.972
	c0,1.212-0.984,2.197-2.194,2.197h-41.203c-1.18,0-2.138-0.929-2.181-2.079l0,0c-0.001-0.017-0.002-0.033-0.002-0.05
	c-0.003-0.079-0.006-0.157-0.011-0.241v-210.6l0.013-0.237c0.046-1.183,1.005-2.108,2.182-2.108h41.203
	c1.21,0,2.194,0.985,2.194,2.197v210.921H478.751z"/>
<path d="M248.501,117.512v16.208c-34.912,3.523-62.751,31.371-66.273,66.292h-16.201c-4.142,0-7.5,3.357-7.5,7.5s3.358,7.5,7.5,7.5
	h16.201c3.522,34.921,31.362,62.768,66.273,66.292v16.208c0,4.143,3.358,7.5,7.5,7.5c4.143,0,7.5-3.357,7.5-7.5v-16.208
	c34.912-3.523,62.751-31.371,66.273-66.292h16.201c4.143,0,7.5-3.357,7.5-7.5s-3.357-7.5-7.5-7.5h-16.201
	c-3.522-34.922-31.361-62.769-66.273-66.292v-16.208c0-4.143-3.357-7.5-7.5-7.5C251.859,110.012,248.501,113.369,248.501,117.512z
	 M248.501,148.833v51.179h-51.16C200.727,173.375,221.873,152.221,248.501,148.833z M197.341,215.012h51.16v51.178
	C221.873,262.802,200.727,241.648,197.341,215.012z M263.501,266.189v-51.178h51.16
	C311.275,241.648,290.129,262.802,263.501,266.189z M314.661,200.012h-51.16v-51.179
	C290.129,152.221,311.275,173.375,314.661,200.012z"/>
<path d="M326.571,268.279c-0.19-0.449-0.42-0.89-0.69-1.289c-0.28-0.41-0.59-0.801-0.94-1.141c-0.34-0.35-0.73-0.66-1.14-0.939
	c-0.4-0.271-0.84-0.5-1.29-0.69c-0.45-0.18-0.93-0.33-1.41-0.42c-0.96-0.2-1.96-0.2-2.93,0c-0.47,0.09-0.95,0.24-1.4,0.42
	c-0.45,0.19-0.89,0.42-1.29,0.69c-0.41,0.279-0.8,0.59-1.14,0.939c-0.35,0.34-0.66,0.73-0.94,1.141c-0.27,0.399-0.5,0.84-0.69,1.289
	c-0.18,0.45-0.33,0.931-0.42,1.41c-0.1,0.48-0.15,0.971-0.15,1.46c0,0.49,0.05,0.98,0.15,1.471c0.09,0.47,0.24,0.949,0.42,1.399
	c0.19,0.45,0.42,0.891,0.69,1.29c0.28,0.41,0.59,0.8,0.94,1.141c0.34,0.35,0.73,0.659,1.14,0.939c0.4,0.271,0.84,0.5,1.29,0.69
	c0.45,0.18,0.93,0.33,1.4,0.42c0.49,0.1,0.98,0.149,1.47,0.149s0.98-0.05,1.46-0.149c0.48-0.09,0.96-0.24,1.41-0.42
	c0.45-0.19,0.89-0.42,1.29-0.69c0.41-0.28,0.8-0.59,1.14-0.939c0.35-0.341,0.66-0.73,0.94-1.141c0.27-0.399,0.5-0.84,0.69-1.29
	c0.18-0.45,0.33-0.93,0.42-1.399c0.1-0.49,0.15-0.98,0.15-1.471c0-0.489-0.05-0.979-0.15-1.46
	C326.901,269.21,326.751,268.729,326.571,268.279z"/>
<path d="M185.441,146.74c0.18,0.449,0.41,0.89,0.68,1.29c0.28,0.42,0.59,0.8,0.94,1.149c0.34,0.34,0.73,0.65,1.14,0.93
	c0.4,0.271,0.84,0.5,1.29,0.69c0.45,0.18,0.93,0.33,1.4,0.43c0.49,0.09,0.98,0.141,1.47,0.141s0.98-0.051,1.47-0.141
	c0.47-0.1,0.95-0.25,1.4-0.43c0.45-0.19,0.89-0.42,1.29-0.69c0.41-0.279,0.8-0.59,1.14-0.93c0.35-0.35,0.66-0.729,0.94-1.149
	c0.27-0.4,0.5-0.841,0.69-1.29c0.18-0.45,0.33-0.931,0.42-1.4c0.1-0.49,0.15-0.98,0.15-1.47s-0.05-0.98-0.15-1.46
	c-0.09-0.48-0.24-0.95-0.42-1.41c-0.19-0.45-0.42-0.891-0.69-1.29c-0.28-0.41-0.59-0.8-0.94-1.141c-0.34-0.35-0.73-0.659-1.14-0.93
	c-0.4-0.27-0.84-0.51-1.29-0.689c-0.45-0.19-0.93-0.33-1.4-0.431c-0.97-0.2-1.97-0.2-2.94,0c-0.47,0.101-0.95,0.24-1.4,0.431
	c-0.45,0.18-0.89,0.42-1.29,0.689c-0.41,0.271-0.8,0.58-1.14,0.93c-0.35,0.341-0.66,0.73-0.94,1.141c-0.27,0.399-0.5,0.84-0.68,1.29
	c-0.19,0.46-0.34,0.93-0.43,1.41c-0.1,0.479-0.15,0.97-0.15,1.46c0,0.489,0.05,0.979,0.15,1.47
	C185.101,145.81,185.251,146.29,185.441,146.74z"/>
<path d="M312.711,146.739c0.19,0.45,0.42,0.89,0.69,1.29c0.279,0.41,0.59,0.8,0.939,1.14c0.34,0.35,0.73,0.66,1.141,0.94
	c0.399,0.27,0.84,0.5,1.289,0.69c0.45,0.18,0.931,0.33,1.41,0.42c0.48,0.1,0.971,0.15,1.46,0.15c0.49,0,0.98-0.05,1.471-0.15
	c0.47-0.09,0.949-0.24,1.399-0.42c0.45-0.19,0.891-0.42,1.29-0.69c0.41-0.28,0.8-0.59,1.141-0.94c0.35-0.34,0.659-0.73,0.939-1.14
	c0.271-0.4,0.5-0.84,0.69-1.29c0.18-0.45,0.33-0.93,0.42-1.4c0.1-0.49,0.149-0.98,0.149-1.47s-0.05-0.98-0.149-1.46
	c-0.09-0.48-0.24-0.96-0.42-1.41c-0.19-0.45-0.42-0.89-0.69-1.29c-0.28-0.41-0.59-0.8-0.939-1.14c-0.341-0.35-0.73-0.66-1.141-0.94
	c-0.399-0.27-0.84-0.5-1.29-0.69c-0.45-0.18-0.93-0.33-1.399-0.42c-0.49-0.1-0.98-0.15-1.471-0.15c-0.489,0-0.979,0.05-1.46,0.15
	c-0.479,0.09-0.96,0.24-1.41,0.42c-0.449,0.19-0.89,0.42-1.289,0.69c-0.41,0.28-0.801,0.59-1.141,0.94
	c-0.35,0.34-0.66,0.73-0.939,1.14c-0.271,0.4-0.5,0.84-0.69,1.29c-0.18,0.45-0.33,0.93-0.42,1.41c-0.2,0.96-0.2,1.96,0,2.93
	C312.381,145.81,312.531,146.29,312.711,146.739z"/>
<path d="M199.291,268.279c-0.19-0.45-0.42-0.89-0.69-1.29c-0.279-0.41-0.59-0.8-0.93-1.14c-0.35-0.35-0.729-0.66-1.149-0.94
	c-0.4-0.27-0.841-0.5-1.29-0.69c-0.45-0.18-0.931-0.33-1.4-0.42c-0.49-0.1-0.98-0.15-1.47-0.15s-0.98,0.05-1.46,0.15
	c-0.48,0.09-0.95,0.24-1.41,0.42c-0.45,0.19-0.891,0.42-1.29,0.69c-0.41,0.28-0.8,0.59-1.141,0.94c-0.35,0.34-0.659,0.73-0.93,1.14
	c-0.27,0.4-0.51,0.84-0.689,1.29c-0.19,0.45-0.33,0.93-0.431,1.4c-0.2,0.97-0.2,1.97,0,2.94c0.101,0.47,0.24,0.95,0.431,1.4
	c0.18,0.45,0.42,0.89,0.689,1.29c0.271,0.41,0.58,0.8,0.93,1.14c0.341,0.35,0.73,0.66,1.141,0.94c0.399,0.27,0.84,0.5,1.29,0.68
	c0.46,0.19,0.93,0.34,1.41,0.43c0.479,0.1,0.97,0.15,1.46,0.15c0.489,0,0.979-0.05,1.47-0.15c0.47-0.09,0.95-0.24,1.4-0.43
	c0.449-0.18,0.89-0.41,1.29-0.68c0.42-0.28,0.8-0.59,1.149-0.94c0.34-0.34,0.65-0.73,0.93-1.14c0.271-0.4,0.5-0.84,0.69-1.29
	c0.18-0.45,0.33-0.93,0.43-1.4c0.09-0.49,0.141-0.98,0.141-1.47s-0.051-0.98-0.141-1.47
	C199.621,269.209,199.471,268.729,199.291,268.279z"/>
<g>
</g>
<g>
</g>
<g>
</g>
<g>
</g>
<g>
</g>
<g>
</g>
<g>
</g>
<g>
</g>
<g>
</g>
<g>
</g>
<g>
</g>
<g>
</g>
<g>
</g>
<g>
</g>
<g>
</g>
</svg>
