<?xml version="1.0" encoding="iso-8859-1"?>
<!-- Generator: Adobe Illustrator 19.0.0, SVG Export Plug-In . SVG Version: 6.00 Build 0)  -->
<svg version="1.1" id="Layer_1" xmlns="http://www.w3.org/2000/svg" xmlns:xlink="http://www.w3.org/1999/xlink" x="0px" y="0px"
	 viewBox="0 0 511.992 511.992" style="enable-background:new 0 0 511.992 511.992;" xml:space="preserve">
<polygon style="fill:#AAB2BC;" points="498.93,146.726 464.305,101.937 403.461,62.234 327.398,55.469 275.867,76.586 
	226.844,106.758 203.187,84.258 147.437,76.586 110.516,106.758 89.219,160.844 55.312,172.07 17.297,211.789 7.156,284.445 
	37.578,332.617 124.625,346.133 299.523,346.133 406.836,336.851 457.523,305.586 504.836,230.375 "/>
<polygon style="fill:#4FC2E9;" points="256,294.992 221.992,344.992 199.992,412.992 231.992,454.992 280.992,454.992 
	305.992,426.664 305.992,393.992 "/>
<g>
	<polygon style="fill:#3BAFDA;" points="371.898,397.633 357.789,418.383 348.648,446.601 361.93,464.039 382.273,464.039 
		392.648,452.289 392.648,438.726 	"/>
	<polygon style="fill:#3BAFDA;" points="139.914,397.633 125.797,418.383 116.664,446.601 129.945,464.039 150.289,464.039 
		160.664,452.289 160.664,438.726 	"/>
</g>
<path d="M351.992,42.703c-46.125,0-87.672,19.523-116.875,50.75c-15.641-18.023-38.719-29.414-64.453-29.414
	c-47.133,0-85.336,38.203-85.336,85.336c0,0.711,0.008,1.422,0.031,2.125C36.656,161.375,0,204.422,0,256.039
	c0,58.906,47.75,106.656,106.664,106.656h96.602C196.547,379.32,192,394.82,192,405.289c0,35.344,28.648,64,64,64
	c35.336,0,63.992-28.656,63.992-64c0-10.469-4.531-25.969-11.25-42.594h43.25c88.375,0,160-71.625,160-159.992
	S440.367,42.703,351.992,42.703z M256,447.945c-23.531,0-42.672-19.141-42.672-42.656c0-8.75,6.602-30.719,21.344-60.156
	c8.047-16.078,15.617-28.656,21.359-37.141c5.734,8.484,13.289,21.062,21.32,37.125c14.719,29.438,21.312,51.422,21.312,60.172
	C298.664,428.805,279.523,447.945,256,447.945z M450.055,300.758c-12.75,12.75-27.578,22.75-44.094,29.719
	c-17.078,7.234-35.234,10.906-53.969,10.906h-52.719c-15.859-33-36.18-64-43.242-64c-7.055,0-27.398,31-43.289,64H106.664
	c-22.797,0-44.227-8.891-60.344-25c-16.117-16.125-24.992-37.562-24.992-60.344c0-10.109,1.742-19.992,5.188-29.375
	c3.328-9.07,8.148-17.469,14.336-24.953c12.445-15.047,29.75-25.453,48.742-29.305l17.531-3.547l-0.445-17.891
	c-0.008-0.547-0.016-1.086-0.016-1.594c0-35.297,28.711-64,64-64c18.547,0,36.172,8.039,48.352,22.062l15.516,17.875l16.172-17.289
	c12.852-13.742,28.039-24.562,45.164-32.156c17.688-7.852,36.594-11.828,56.125-11.828c18.734,0,36.891,3.664,53.969,10.891
	c16.516,6.977,31.344,16.984,44.094,29.727c12.734,12.734,22.734,27.57,29.719,44.078c7.219,17.086,10.891,35.242,10.891,53.969
	c0,18.734-3.672,36.891-10.891,53.969C472.789,273.18,462.789,288.008,450.055,300.758z"/>
<path d="M373.273,384.039c-6.094,0-31.938,35.562-31.938,53.25c0,17.656,14.312,32,32,32c17.656,0,32-14.344,32-32
	C405.336,419.601,379.367,384.039,373.273,384.039z M373.336,447.945c-5.875,0-10.641-4.75-10.672-10.594
	c0.109-1.484,1.797-7.875,8.141-18.344c0.844-1.391,1.672-2.719,2.5-3.969c0.828,1.25,1.656,2.594,2.5,3.969
	c6.375,10.469,8.094,16.859,8.188,18.344C383.961,443.195,379.18,447.945,373.336,447.945z"/>
<path d="M138.609,384.039c-6.094,0-31.945,35.562-31.945,53.25c0,17.656,14.328,32,32,32s32-14.344,32-32
	C170.664,419.601,144.703,384.039,138.609,384.039z M138.664,447.945c-5.859,0-10.633-4.75-10.664-10.594
	c0.102-1.484,1.797-7.875,8.141-18.344c0.836-1.391,1.672-2.719,2.492-3.969c0.828,1.25,1.672,2.594,2.516,3.969
	c6.367,10.469,8.07,16.859,8.18,18.344C149.289,443.195,144.523,447.945,138.664,447.945z"/>
<g>
</g>
<g>
</g>
<g>
</g>
<g>
</g>
<g>
</g>
<g>
</g>
<g>
</g>
<g>
</g>
<g>
</g>
<g>
</g>
<g>
</g>
<g>
</g>
<g>
</g>
<g>
</g>
<g>
</g>
</svg>
