<?xml version="1.0" encoding="iso-8859-1"?>
<!-- Generator: Adobe Illustrator 19.0.0, SVG Export Plug-In . SVG Version: 6.00 Build 0)  -->
<svg version="1.1" id="Layer_1" xmlns="http://www.w3.org/2000/svg" xmlns:xlink="http://www.w3.org/1999/xlink" x="0px" y="0px"
	 viewBox="0 0 512 512" style="enable-background:new 0 0 512 512;" xml:space="preserve">
<rect x="9" y="85.27" style="fill:#5D9CEC;" width="499" height="241"/>
<path style="fill:#965353;" d="M85.328,288.094l-32-26.656c0,0-37-8.344-38-9l-3.328,71h105.328v-15.344L85.328,288.094z"/>
<path style="fill:#ED5564;" d="M416,284.109c1-1-18.672-6.328-21.328-7l-39,43l46-2l17.328-13C419,305.109,415,285.109,416,284.109z
	"/>
<g>
	<path style="fill:#FFCE54;" d="M258.5,179.766c-3-0.5-38,0-38,0l-12,15.891l7,6.109l19.172,10h32l14.828-10.5v-13.5
		C281.5,187.766,261.5,180.266,258.5,179.766z"/>
	<rect x="12" y="320.11" style="fill:#FFCE54;" width="482" height="109.66"/>
</g>
<g>
	<path style="fill:#080808;" d="M507.562,71.359c-2.781-2.016-6.344-2.562-9.609-1.469l-27.797,9.266l-17.391-8.703
		c-3-1.5-6.531-1.5-9.531,0l-16.562,8.281l-16.562-8.281c-3.016-1.5-6.547-1.5-9.547,0L384,78.734l-16.562-8.281
		c-3-1.5-6.547-1.5-9.547,0l-16.562,8.281l-16.562-8.281c-3-1.5-6.531-1.5-9.531,0l-16.562,8.281l-16.562-8.281
		c-3.016-1.5-6.547-1.5-9.547,0L256,78.734l-16.562-8.281c-3-1.5-6.547-1.5-9.547,0l-16.562,8.281l-16.562-8.281
		c-3-1.5-6.531-1.5-9.531,0l-16.562,8.281l-16.562-8.281c-3.016-1.5-6.547-1.5-9.547,0L128,78.734l-16.562-8.281
		c-3-1.5-6.547-1.5-9.547,0l-16.562,8.281l-16.562-8.281c-3-1.5-6.531-1.5-9.531,0l-17.391,8.703L14.033,69.89
		c-3.25-1.094-6.828-0.547-9.609,1.469C1.641,73.359,0,76.578,0,80v170.484c0,0,0,0.016,0,0.031v74.812V432
		c0,5.891,4.781,10.672,10.672,10.672h490.656c5.891,0,10.672-4.781,10.672-10.672V325.328V80
		C512,76.578,510.344,73.359,507.562,71.359z M39.297,100.797c2.672,0.891,5.609,0.688,8.141-0.594L64,91.922l16.562,8.281
		c3,1.5,6.531,1.5,9.547,0l16.562-8.281l16.562,8.281c3,1.5,6.531,1.5,9.531,0l16.562-8.281l16.562,8.281c3,1.5,6.547,1.5,9.547,0
		L192,91.922l16.562,8.281c3,1.5,6.531,1.5,9.547,0l16.562-8.281l16.562,8.281c3,1.5,6.531,1.5,9.531,0l16.562-8.281l16.562,8.281
		c3.016,1.5,6.547,1.5,9.547,0L320,91.922l16.562,8.281c3,1.5,6.531,1.5,9.547,0l16.562-8.281l16.562,8.281c3,1.5,6.531,1.5,9.531,0
		l16.562-8.281l16.562,8.281c3,1.5,6.547,1.5,9.547,0L448,91.922l16.562,8.281c2.531,1.281,5.453,1.484,8.141,0.594l17.969-6
		v219.875h-63.109c4.609-8,6.766-18.938,1.141-29.625l16.172-16.172c4.172-4.172,4.172-10.922,0-15.078
		c-4.172-4.172-10.922-4.172-15.078,0l-16.188,16.188c-5.094-2.672-9.844-3.391-13.438-3.391c-12.969,0-22.172,8.828-23.172,9.828
		l-37.719,37.719c-0.172,0.156-0.328,0.344-0.484,0.531H132.516l-2.875-11.469c-0.844-3.438-3.344-6.219-6.672-7.438l-31.297-11.469
		l-25.094-29.828c-1.516-1.797-3.562-3.031-5.844-3.547l-39.406-8.797V94.797L39.297,100.797z M407.156,291.516
		c4.062,4.047,3.906,7.016,3.219,9.391c-0.781,2.672-2.609,5.031-3.281,5.75l-8.016,8.016h-30.156l23.156-23.156
		c0.594-0.594,4.359-3.594,8.094-3.594C401.016,287.922,403.578,287.922,407.156,291.516z M21.328,263.984l31.234,6.969
		l24.609,29.25c1.203,1.422,2.75,2.5,4.484,3.156l28.672,10.5l0.203,0.812H21.328V263.984z M490.672,421.328H21.328V336h102.797
		c0.016,0,0.031,0.016,0.062,0.016c0.016,0,0.047-0.016,0.078-0.016h366.406L490.672,421.328L490.672,421.328z"/>
	<path style="fill:#080808;" d="M35.125,392.453c-4.172,4.172-4.172,10.922,0,15.094c4.156,4.156,10.922,4.156,15.078,0
		c4.172-4.172,4.172-10.922,0-15.094C46.047,388.297,39.281,388.297,35.125,392.453z"/>
	<path style="fill:#080808;" d="M77.797,349.797c-4.172,4.156-4.172,10.906,0,15.078c4.156,4.172,10.906,4.172,15.078,0
		s4.172-10.922,0-15.078C88.703,345.625,81.953,345.625,77.797,349.797z"/>
	<path style="fill:#080808;" d="M120.453,392.453c-4.156,4.172-4.156,10.922,0,15.094c4.172,4.156,10.922,4.156,15.094,0
		c4.156-4.172,4.156-10.922,0-15.094C131.375,388.297,124.625,388.297,120.453,392.453z"/>
	<path style="fill:#080808;" d="M178.203,364.875c4.172-4.172,4.172-10.922,0-15.078c-4.156-4.172-10.922-4.172-15.078,0
		c-4.172,4.156-4.172,10.906,0,15.078C167.281,369.047,174.047,369.047,178.203,364.875z"/>
	<path style="fill:#080808;" d="M220.875,407.547c4.172-4.172,4.172-10.922,0-15.094c-4.172-4.156-10.922-4.156-15.078,0
		c-4.172,4.172-4.172,10.922,0,15.094C209.953,411.703,216.703,411.703,220.875,407.547z"/>
	<path style="fill:#080808;" d="M263.547,364.875c4.156-4.172,4.156-10.922,0-15.078c-4.172-4.172-10.922-4.172-15.094,0
		c-4.156,4.156-4.156,10.906,0,15.078C252.625,369.047,259.375,369.047,263.547,364.875z"/>
	<path style="fill:#080808;" d="M306.203,407.547c4.172-4.172,4.172-10.922,0-15.094c-4.156-4.156-10.922-4.156-15.078,0
		c-4.172,4.172-4.172,10.922,0,15.094C295.281,411.703,302.047,411.703,306.203,407.547z"/>
	<path style="fill:#080808;" d="M348.875,364.875c4.172-4.172,4.172-10.922,0-15.078c-4.172-4.172-10.922-4.172-15.078,0
		c-4.172,4.156-4.172,10.906,0,15.078C337.953,369.047,344.703,369.047,348.875,364.875z"/>
	<path style="fill:#080808;" d="M391.547,407.547c4.156-4.172,4.156-10.922,0-15.094c-4.172-4.156-10.922-4.156-15.094,0
		c-4.156,4.172-4.156,10.922,0,15.094C380.625,411.703,387.375,411.703,391.547,407.547z"/>
	<path style="fill:#080808;" d="M434.203,364.875c4.172-4.172,4.172-10.922,0-15.078c-4.156-4.172-10.922-4.172-15.078,0
		c-4.172,4.156-4.172,10.906,0,15.078C423.281,369.047,430.047,369.047,434.203,364.875z"/>
	<path style="fill:#080808;" d="M476.875,407.547c4.172-4.172,4.172-10.922,0-15.094c-4.172-4.156-10.922-4.156-15.078,0
		c-4.172,4.172-4.172,10.922,0,15.094C465.953,411.703,472.703,411.703,476.875,407.547z"/>
	<path style="fill:#080808;" d="M173.781,226.203c2.094,2.094,4.812,3.125,7.547,3.125s5.469-1.031,7.547-3.125l14.297-14.281
		c9.234,7.281,25.156,17.406,42.156,17.406c52.734,0,53.344-30.688,53.344-32c0-1.625-0.406-10.156-8.469-18.203
		c-9.141-9.141-24.25-13.797-44.875-13.797c-17,0-32.922,10.141-42.156,17.422l-14.297-14.297c-4.172-4.156-10.922-4.156-15.094,0
		c-4.156,4.172-4.156,10.938,0.016,15.094l13.781,13.781l-13.781,13.797C169.625,215.297,169.625,222.047,173.781,226.203z
		 M245.328,186.672c4.016,0,7.562,0.203,10.703,0.562c0.125,2.531,1.156,5.031,3.094,6.969c4.156,4.172,10.922,4.172,15.078,0
		c0.172-0.156,0.312-0.344,0.469-0.5c1.453,1.281,2.25,2.562,2.562,3.625c-1.156,4-8.938,10.672-31.906,10.672
		c-8.844,0-18.719-5.422-26-10.656C226.594,192.141,236.531,186.672,245.328,186.672z"/>
</g>
<g>
</g>
<g>
</g>
<g>
</g>
<g>
</g>
<g>
</g>
<g>
</g>
<g>
</g>
<g>
</g>
<g>
</g>
<g>
</g>
<g>
</g>
<g>
</g>
<g>
</g>
<g>
</g>
<g>
</g>
</svg>
