<svg id="icons" enable-background="new 0 0 64 64" height="512" viewBox="0 0 64 64" width="512" xmlns="http://www.w3.org/2000/svg"><g><g><path d="m30 49h4v14h-4z" fill="#e6e9ed"/></g><g><path d="m41.94 1h-19.88l-14.06 14.06v19.88l14.06 14.06h7.94 4 7.94l14.06-14.06v-19.88z" fill="#ed5565"/></g></g><g><g><path d="m41.94 50h-19.88c-.266 0-.52-.105-.707-.293l-14.06-14.06c-.188-.187-.293-.441-.293-.707v-19.88c0-.266.105-.52.293-.707l14.06-14.06c.187-.188.441-.293.707-.293h19.88c.266 0 .52.105.707.293l14.06 14.06c.188.187.293.441.293.707v19.88c0 .266-.105.52-.293.707l-14.06 14.06c-.187.188-.441.293-.707.293zm-19.466-2h19.053l13.473-13.474v-19.052l-13.474-13.474h-19.052l-13.474 13.474v19.053z"/></g><g><g><path d="m21.496 22.002c-.553 0-1-.447-1-1 0-1.103-.897-2-2-2s-2 .897-2 2c0 .553-.447 1-1 1s-1-.447-1-1c0-2.206 1.794-4 4-4s4 1.794 4 4c0 .553-.447 1-1 1z"/></g><g><path d="m39.496 22.002c-.553 0-1-.447-1-1 0-1.103-.897-2-2-2s-2 .897-2 2c0 .553-.447 1-1 1s-1-.447-1-1c0-2.206 1.794-4 4-4s4 1.794 4 4c0 .553-.447 1-1 1z"/></g><g><path d="m49.5 22c-.553 0-1-.447-1-1 0-1.103-.897-2-2-2-.553 0-1-.447-1-1s.447-1 1-1c2.206 0 4 1.794 4 4 0 .553-.447 1-1 1z"/></g><g><path d="m36.496 35.003c-2.206 0-4-1.794-4-4 0-.553.447-1 1-1s1 .447 1 1c0 1.103.897 2 2 2s2-.897 2-2c0-.553.447-1 1-1s1 .447 1 1c0 2.206-1.794 4-4 4z"/></g><g><path d="m18.496 35.002c-2.206 0-4-1.794-4-4 0-.553.447-1 1-1s1 .447 1 1c0 1.103.897 2 2 2s2-.897 2-2c0-.553.447-1 1-1s1 .447 1 1c0 2.206-1.794 4-4 4z"/></g><g><path d="m21.496 32.002c-.553 0-1-.447-1-1 0-1.486-1.294-2.798-2.664-4.188-1.563-1.585-3.336-3.381-3.336-5.813 0-.553.447-1 1-1s1 .447 1 1c0 1.611 1.341 2.97 2.76 4.408 1.593 1.615 3.24 3.285 3.24 5.592 0 .554-.447 1.001-1 1.001z"/></g><g><path d="m30.496 19.002h-6c-.553 0-1-.447-1-1s.447-1 1-1h6c.553 0 1 .447 1 1s-.447 1-1 1z"/></g><g><path d="m27.496 35.002c-.553 0-1-.447-1-1v-16c0-.553.447-1 1-1s1 .447 1 1v16c0 .553-.447 1-1 1z"/></g><g><path d="m33.496 32.003c-.553 0-1-.447-1-1v-10.001c0-.553.447-1 1-1s1 .447 1 1v10.001c0 .553-.447 1-1 1z"/></g><g><path d="m39.496 32.003c-.553 0-1-.447-1-1v-10.001c0-.553.447-1 1-1s1 .447 1 1v10.001c0 .553-.447 1-1 1z"/></g><g><path d="m46.5 19h-3c-.553 0-1-.447-1-1s.447-1 1-1h3c.553 0 1 .447 1 1s-.447 1-1 1z"/></g><g><path d="m46.5 27.999c-.553 0-1-.447-1-1s.447-1 1-1c1.103 0 2-.897 2-2 0-.553.447-1 1-1s1 .447 1 1c0 2.206-1.794 4-4 4z"/></g><g><path d="m46.5 27.999h-3c-.553 0-1-.447-1-1s.447-1 1-1h3c.553 0 1 .447 1 1s-.447 1-1 1z"/></g><g><path d="m43.5 35c-.553 0-1-.447-1-1v-16c0-.553.447-1 1-1s1 .447 1 1v16c0 .553-.447 1-1 1z"/></g><g><path d="m49.5 24.999c-.553 0-1-.447-1-1v-2.999c0-.553.447-1 1-1s1 .447 1 1v2.999c0 .553-.447 1-1 1z"/></g></g><g><path d="m30.002 64c-.553 0-1-.447-1-1v-14c0-.553.447-1 1-1s1 .447 1 1v14c0 .553-.447 1-1 1z"/></g><g><path d="m34.002 64c-.553 0-1-.447-1-1v-14c0-.553.447-1 1-1s1 .447 1 1v14c0 .553-.447 1-1 1z"/></g></g></svg>