<svg id="icons" height="512" viewBox="0 0 64 64" width="512" xmlns="http://www.w3.org/2000/svg"><path d="m55.19 28.05h5v3h-2z" fill="#ccd1d9"/><path d="m60.19 21.06v2.99h-5l3-2.99z" fill="#ccd1d9"/><path d="m60.19 24.05025v4h-25.96a2 2 0 0 1 0-4z" fill="#e6e9ed"/><path d="m51.19 12.04-1.99 11.99v.02h-9v-.02l8-11.99z" fill="#5d9cec"/><path d="m49.2 28.05 1.99 11.99h-2.99l-8-11.99z" fill="#5d9cec"/><path d="m22.54 34 .46 6h-6l.46-6z" fill="#844747"/><path d="m22.08 28 .46 6h-5.08l.46-6h4.15z" fill="#965353"/><path d="m19 14h1 1l.61 8h-3.23z" fill="#965353"/><path d="m21.61 22 .47 6h-.01-4.15l.46-6z" fill="#844747"/><g fill="#5d9cec"><path d="m52 59h-4l2-2z"/><path d="m46 57 2 2h-4z"/><path d="m42 57 2 2h-4z"/></g><path d="m4.01 46.00025a5.98983 5.98983 0 0 1 5.99-6h20a5.992 5.992 0 0 1 6 6h.01v2.01l-.01-.01-2 2-2-2-2 2-2-2-2 2-2-2-2 2-2-2-2 2-2-2-2 2-2-2-2 2-2-2-2 2-2-2v-2z" fill="#ffce54"/><path d="m18 50 2-2 2 2 2-2 2 2 2-2 2 2 2-2 2 2 2-2 .01.01 1.99 1.99 2-2 2 2 2-2 2 2 2-2 2 2h.02l1.99-1.99 1.99 1.99 2-2 2 2 2-2 2 2 1-1v10h-11l-2-2-2 2-2-2-2 2-2-2-2 2h-39v-10l1 1 2-2 2 2 2-2 2 2 2-2 2 2 2-2z" fill="#5d9cec"/><path d="m62 51.001a1 1 0 0 1 -.707-1.707l1-1a.99989.99989 0 1 1 1.414 1.414l-1 1a.99676.99676 0 0 1 -.707.293z"/><path d="m62 51.001a.99676.99676 0 0 1 -.707-.293l-2-2a.99989.99989 0 1 1 1.414-1.414l2 2a1 1 0 0 1 -.707 1.707z"/><path d="m58 51.001a1 1 0 0 1 -.707-1.707l2-2a.99989.99989 0 1 1 1.414 1.414l-2 2a.99676.99676 0 0 1 -.707.293z"/><path d="m58 51.001a.99676.99676 0 0 1 -.707-.293l-2-2a.99989.99989 0 1 1 1.414-1.414l2 2a1 1 0 0 1 -.707 1.707z"/><path d="m54 51.001a1 1 0 0 1 -.707-1.707l2-2a.99989.99989 0 1 1 1.414 1.414l-2 2a.99676.99676 0 0 1 -.707.293z"/><path d="m54 51.001a.99676.99676 0 0 1 -.707-.293l-2-2a.99989.99989 0 1 1 1.414-1.414l2 2a1 1 0 0 1 -.707 1.707z"/><path d="m50 51.001a.99676.99676 0 0 1 -.707-.293l-2-2a.99989.99989 0 1 1 1.414-1.414l2 2a1 1 0 0 1 -.707 1.707z"/><path d="m46 51.001a1 1 0 0 1 -.707-1.707l2-2a.99989.99989 0 1 1 1.414 1.414l-2 2a.99676.99676 0 0 1 -.707.293z"/><path d="m50.01563 51.001a1 1 0 0 1 -.707-1.707l2-2a.99989.99989 0 1 1 1.41403 1.414l-2 2a.9968.9968 0 0 1 -.70703.293z"/><path d="m46 51.001a.99676.99676 0 0 1 -.707-.293l-2-2a.99989.99989 0 1 1 1.414-1.414l2 2a1 1 0 0 1 -.707 1.707z"/><path d="m42 51.001a1 1 0 0 1 -.707-1.707l2-2a.99989.99989 0 1 1 1.414 1.414l-2 2a.99676.99676 0 0 1 -.707.293z"/><path d="m42 51.001a.99676.99676 0 0 1 -.707-.293l-2-2a.99989.99989 0 1 1 1.414-1.414l2 2a1 1 0 0 1 -.707 1.707z"/><path d="m38 51.001a1 1 0 0 1 -.707-1.707l2-2a.99989.99989 0 1 1 1.414 1.414l-2 2a.99676.99676 0 0 1 -.707.293z"/><path d="m38 51.001a.99676.99676 0 0 1 -.707-.293l-2-2a.99989.99989 0 1 1 1.414-1.414l2 2a1 1 0 0 1 -.707 1.707z"/><path d="m34 51.001a1 1 0 0 1 -.707-1.707l2-2a.99989.99989 0 1 1 1.414 1.414l-2 2a.99676.99676 0 0 1 -.707.293z"/><path d="m34 51.001a.99676.99676 0 0 1 -.707-.293l-2-2a.99989.99989 0 1 1 1.414-1.414l2 2a1 1 0 0 1 -.707 1.707z"/><path d="m30 51.001a1 1 0 0 1 -.707-1.707l2-2a.99989.99989 0 1 1 1.414 1.414l-2 2a.99676.99676 0 0 1 -.707.293z"/><path d="m30 51.001a.99676.99676 0 0 1 -.707-.293l-2-2a.99989.99989 0 1 1 1.414-1.414l2 2a1 1 0 0 1 -.707 1.707z"/><path d="m26 51.001a1 1 0 0 1 -.707-1.707l2-2a.99989.99989 0 1 1 1.414 1.414l-2 2a.99676.99676 0 0 1 -.707.293z"/><path d="m26 51.001a.99676.99676 0 0 1 -.707-.293l-2-2a.99989.99989 0 1 1 1.414-1.414l2 2a1 1 0 0 1 -.707 1.707z"/><path d="m22 51.001a1 1 0 0 1 -.707-1.707l2-2a.99989.99989 0 1 1 1.414 1.414l-2 2a.99676.99676 0 0 1 -.707.293z"/><path d="m22 51.001a.99676.99676 0 0 1 -.707-.293l-2-2a.99989.99989 0 1 1 1.414-1.414l2 2a1 1 0 0 1 -.707 1.707z"/><path d="m18 51.001a1 1 0 0 1 -.707-1.707l2-2a.99989.99989 0 1 1 1.414 1.414l-2 2a.99676.99676 0 0 1 -.707.293z"/><path d="m18 51.001a.99676.99676 0 0 1 -.707-.293l-2-2a.99989.99989 0 1 1 1.414-1.414l2 2a1 1 0 0 1 -.707 1.707z"/><path d="m14 51.001a1 1 0 0 1 -.707-1.707l2-2a.99989.99989 0 1 1 1.414 1.414l-2 2a.99676.99676 0 0 1 -.707.293z"/><path d="m26 58.001a.99676.99676 0 0 1 -.707-.293l-2-2a.99989.99989 0 1 1 1.414-1.414l2 2a1 1 0 0 1 -.707 1.707z"/><path d="m22 58.001a1 1 0 0 1 -.707-1.707l2-2a.99989.99989 0 1 1 1.414 1.414l-2 2a.99676.99676 0 0 1 -.707.293z"/><path d="m22 58.001a.99676.99676 0 0 1 -.707-.293l-2-2a.99989.99989 0 1 1 1.414-1.414l2 2a1 1 0 0 1 -.707 1.707z"/><path d="m18 58.001a1 1 0 0 1 -.707-1.707l2-2a.99989.99989 0 1 1 1.414 1.414l-2 2a.99676.99676 0 0 1 -.707.293z"/><path d="m18 58.001a.99676.99676 0 0 1 -.707-.293l-2-2a.99989.99989 0 1 1 1.414-1.414l2 2a1 1 0 0 1 -.707 1.707z"/><path d="m14 58.001a1 1 0 0 1 -.707-1.707l2-2a.99989.99989 0 1 1 1.414 1.414l-2 2a.99676.99676 0 0 1 -.707.293z"/><path d="m14 58.001a.99676.99676 0 0 1 -.707-.293l-2-2a.99989.99989 0 1 1 1.414-1.414l2 2a1 1 0 0 1 -.707 1.707z"/><path d="m10 58.001a1 1 0 0 1 -.707-1.707l2-2a.99989.99989 0 1 1 1.414 1.414l-2 2a.99676.99676 0 0 1 -.707.293z"/><path d="m52 60.001a.99676.99676 0 0 1 -.707-.293l-2-2a.99989.99989 0 1 1 1.414-1.414l2 2a1 1 0 0 1 -.707 1.707z"/><path d="m48 60.001a1 1 0 0 1 -.707-1.707l2-2a.99989.99989 0 1 1 1.414 1.414l-2 2a.99676.99676 0 0 1 -.707.293z"/><path d="m48 60.001a.99676.99676 0 0 1 -.707-.293l-2-2a.99989.99989 0 1 1 1.414-1.414l2 2a1 1 0 0 1 -.707 1.707z"/><path d="m44 60.001a1 1 0 0 1 -.707-1.707l2-2a.99989.99989 0 1 1 1.414 1.414l-2 2a.99676.99676 0 0 1 -.707.293z"/><path d="m44 60.001a.99676.99676 0 0 1 -.707-.293l-2-2a.99989.99989 0 1 1 1.414-1.414l2 2a1 1 0 0 1 -.707 1.707z"/><path d="m40 60.001a1 1 0 0 1 -.707-1.707l2-2a.99989.99989 0 1 1 1.414 1.414l-2 2a.99676.99676 0 0 1 -.707.293z"/><path d="m14 51.001a.99676.99676 0 0 1 -.707-.293l-2-2a.99989.99989 0 1 1 1.414-1.414l2 2a1 1 0 0 1 -.707 1.707z"/><path d="m10 51.001a1 1 0 0 1 -.707-1.707l2-2a.99989.99989 0 1 1 1.414 1.414l-2 2a.99676.99676 0 0 1 -.707.293z"/><path d="m10 51.001a.99676.99676 0 0 1 -.707-.293l-2-2a.99989.99989 0 1 1 1.414-1.414l2 2a1 1 0 0 1 -.707 1.707z"/><path d="m6 51.001a1 1 0 0 1 -.707-1.707l2-2a.99989.99989 0 1 1 1.414 1.414l-2 2a.99676.99676 0 0 1 -.707.293z"/><path d="m6 51.001a.99676.99676 0 0 1 -.707-.293l-2-2a.99989.99989 0 1 1 1.414-1.414l2 2a1 1 0 0 1 -.707 1.707z"/><path d="m2 51.001a1 1 0 0 1 -.707-1.707l2-2a.99989.99989 0 1 1 1.414 1.414l-2 2a.99676.99676 0 0 1 -.707.293z"/><path d="m2 51.001a.99676.99676 0 0 1 -.707-.293l-1-1a.99989.99989 0 1 1 1.414-1.414l1 1a1 1 0 0 1 -.707 1.707z"/><path d="m36.01172 49.001a.99942.99942 0 0 1 -1-1v-2.00393a1 1 0 0 1 2 0v2.00393a.99943.99943 0 0 1 -1 1z"/><path d="m36 46.99707a.99943.99943 0 0 1 -1-1 5.003 5.003 0 0 0 -4.998-4.99707 1 1 0 1 1 0-2 7.00557 7.00557 0 0 1 6.998 6.99707.99943.99943 0 0 1 -1 1z"/><path d="m3.99512 49.001a.99942.99942 0 0 1 -1-1v-2.00393a1 1 0 0 1 2 0v2.00393a.99943.99943 0 0 1 -1 1z"/><path d="m4.00684 46.99707a.99942.99942 0 0 1 -1-1 7.00556 7.00556 0 0 1 6.99804-6.99707 1 1 0 0 1 0 2 5.003 5.003 0 0 0 -4.998 4.99707.99943.99943 0 0 1 -1.00004 1z"/><path d="m30.002 41h-19.99712a1 1 0 0 1 0-2h19.99712a1 1 0 0 1 0 2z"/><path d="m60.18652 25.05371h-25.96093a1 1 0 0 1 0-2h25.96093a1 1 0 0 1 0 2z"/><path d="m60.18652 29.05176h-25.96093a1 1 0 0 1 0-2h25.96093a1 1 0 0 1 0 2z"/><path d="m34.22559 29.05273a3 3 0 1 1 0-6 1 1 0 0 1 0 2 1 1 0 0 0 0 2 1 1 0 0 1 0 2z"/><path d="m60.18652 29.05176a.99943.99943 0 0 1 -1-1v-3.99805a1 1 0 1 1 2 0v3.99805a.99942.99942 0 0 1 -1 1z"/><path d="m58.18652 32.0498a.99675.99675 0 0 1 -.707-.293l-2.998-2.998a.99989.99989 0 1 1 1.41406-1.41406l2.998 2.998a1 1 0 0 1 -.707 1.707z"/><path d="m60.18652 32.0498h-2a1 1 0 0 1 0-2h2a1 1 0 1 1 0 2z"/><path d="m60.18652 32.0498a.99942.99942 0 0 1 -1-1v-2.998a1 1 0 0 1 2 0v2.998a.99942.99942 0 0 1 -1 1z"/><path d="m55.18848 25.05371a1 1 0 0 1 -.707-1.707l2.998-2.998a.99989.99989 0 1 1 1.41406 1.41407l-2.998 2.998a.99676.99676 0 0 1 -.70706.29293z"/><path d="m60.18652 22.05566h-2a1 1 0 0 1 0-2h2a1 1 0 0 1 0 2z"/><path d="m60.18652 25.05371a.99942.99942 0 0 1 -1-1v-2.998a1 1 0 0 1 2 0v2.998a.99942.99942 0 0 1 -1 1z"/><path d="m48.19727 41.03809a.9997.9997 0 0 1 -.833-.44532l-7.9961-11.98632a1 1 0 0 1 1.66407-1.10938l7.99608 11.98633a1 1 0 0 1 -.831 1.55469z"/><path d="m51.19434 41.03809h-2.998a1 1 0 1 1 0-2h2.998a1 1 0 0 1 0 2z"/><path d="m51.19336 41.03809a.99974.99974 0 0 1 -.98535-.83594l-1.99801-11.98633a.99988.99988 0 1 1 1.97266-.32812l1.998 11.98632a1.00011 1.00011 0 0 1 -.82226 1.15039.94853.94853 0 0 1 -.16504.01368z"/><path d="m40.19727 25.02637a1 1 0 0 1 -.83106-1.55469l7.998-11.98633a1 1 0 0 1 1.66406 1.10938l-7.998 11.98632a.99969.99969 0 0 1 -.833.44532z"/><path d="m51.19434 13.04h-2.998a1 1 0 0 1 0-2h2.998a1 1 0 0 1 0 2z"/><path d="m49.19727 25.02637a.94941.94941 0 0 1 -.165-.01367 1.00012 1.00012 0 0 1 -.82227-1.1504l1.998-11.9863a.99988.99988 0 1 1 1.97265.32812l-1.998 11.98633a.99976.99976 0 0 1 -.98538.83592z"/><path d="m22.99805 41h-5.99805a1.00023 1.00023 0 0 1 -.99707-1.07715l2-26.00293a1 1 0 0 1 .99707-.92285h1.998a1 1 0 0 1 .99707.92285l2 26.00293a1.00023 1.00023 0 0 1 -.99702 1.07715zm-4.918-2h3.83795l-1.8457-24.00293h-.14649z"/><path d="m37.99805 14.999a.99942.99942 0 0 1 -1-1 8 8 0 0 0 -16 0 1 1 0 1 1 -2 0 10 10 0 0 1 20 0 .99942.99942 0 0 1 -1 1z"/><path d="m31.99805 14.999a.99942.99942 0 0 1 -1-1 5 5 0 0 0 -10 0 1 1 0 1 1 -2 0 7 7 0 0 1 14 0 .99942.99942 0 0 1 -1 1z"/><path d="m25.99805 14.999a.99942.99942 0 0 1 -1-1 2 2 0 0 0 -4 0 1 1 0 1 1 -2 0 4 4 0 0 1 8 0 .99942.99942 0 0 1 -1 1z"/><path d="m19.99805 14.999a.99942.99942 0 0 1 -1-1 8 8 0 0 0 -16 0 1 1 0 0 1 -2 0 10 10 0 0 1 20 0 .99942.99942 0 0 1 -1 1z"/><path d="m19.99805 14.999a.99942.99942 0 0 1 -1-1 5 5 0 0 0 -10 0 1 1 0 0 1 -2 0 7 7 0 0 1 14 0 .99942.99942 0 0 1 -1 1z"/><path d="m19.99805 14.999a.99942.99942 0 0 1 -1-1 2 2 0 0 0 -4 0 1 1 0 1 1 -2 0 4 4 0 0 1 8 0 .99942.99942 0 0 1 -1 1z"/><path d="m21.61328 22.99707h-3.22949a1 1 0 1 1 0-2h3.22949a1 1 0 0 1 0 2z"/><path d="m22.07422 28.99707h-4.15137a1 1 0 0 1 0-2h4.15137a1 1 0 1 1 0 2z"/><path d="m22.53613 34.99707h-5.07422a1 1 0 1 1 0-2h5.07422a1 1 0 0 1 0 2z"/></svg>