<svg id="icons" height="512" viewBox="0 0 64 64" width="512" xmlns="http://www.w3.org/2000/svg"><path d="m24.5 27h12.99a9.98 9.98 0 0 1 -15.98 0z" fill="#5d9cec"/><path d="m43.5 63-28-3v-59l28 3zm-6-36a10 10 0 1 0 -16 0h.01a9.98 9.98 0 0 0 15.98 0z" fill="#ed5565"/><path d="m26.5 24h6a1.99944 1.99944 0 0 1 2 2v1h-10v-1a1.99309 1.99309 0 0 1 2-2z" fill="#ffce54"/><path d="m43.5 4-28-3h33v59h-5z" fill="#e6e9ed"/><path d="m29.5 24h-3a1.99309 1.99309 0 0 0 -2 2v1h-3a10 10 0 1 1 16 0h-3v-1a1.99944 1.99944 0 0 0 -2-2z" fill="#87bcf4"/><path d="m48.50293 60.99609a.99942.99942 0 0 1 -1-1v-58.99609a1 1 0 0 1 2 0v58.99609a.99942.99942 0 0 1 -1 1z"/><path d="m15.49707 60.99609a.99942.99942 0 0 1 -1-1v-58.99609a1 1 0 0 1 2 0v58.99609a.99942.99942 0 0 1 -1 1z"/><path d="m43.5 5.002a1.00233 1.00233 0 0 1 -.10742-.00586l-28.00195-3.002a.99982.99982 0 1 1 .21289-1.98828l28.002 3.002a.99992.99992 0 0 1 -.10552 1.99414z"/><path d="m43.5 64a1.00233 1.00233 0 0 1 -.10742-.00586l-28.00195-3a.99982.99982 0 1 1 .21289-1.98828l28.002 3a.99992.99992 0 0 1 -.10552 1.99414z"/><path d="m43.499 64a.99943.99943 0 0 1 -1-1v-58.998a1 1 0 0 1 2 0v58.998a.99942.99942 0 0 1 -1 1z"/><path d="m48.50293 2h-33.00586a1 1 0 0 1 0-2h33.00586a1 1 0 0 1 0 2z"/><path d="m48.50293 60.99609h-5.00393a1 1 0 0 1 0-2h5.00391a1 1 0 0 1 0 2z"/><path d="m38.49805 38.00391h-18a1 1 0 0 1 0-2h18a1 1 0 0 1 0 2z"/><path d="m38.49805 41.00391h-18a1 1 0 0 1 0-2h18a1 1 0 0 1 0 2z"/><path d="m38.49805 44.002h-18a1 1 0 0 1 0-2h18a1 1 0 0 1 0 2z"/><path d="m34.49512 47.002h-9.99412a1 1 0 1 1 0-2h9.99414a1 1 0 0 1 0 2z"/><path d="m25.51855 53a1 1 0 0 1 -.00976-2h.00976a1 1 0 1 1 0 2z"/><path d="m29.51855 53a1 1 0 0 1 -.00976-2h.00976a1 1 0 1 1 0 2z"/><path d="m33.51855 53a1 1 0 0 1 -.00976-2h.00976a1 1 0 1 1 0 2z"/><path d="m29.49707 32a11 11 0 1 1 11-11 11.01245 11.01245 0 0 1 -11 11zm0-20a9 9 0 1 0 9 9 9.01016 9.01016 0 0 0 -9-9z"/><path d="m37.49707 28h-16a1 1 0 0 1 0-2h16a1 1 0 1 1 0 2z"/><path d="m24.49707 27a.99974.99974 0 0 1 -1-1 3.00328 3.00328 0 0 1 3-3 1 1 0 0 1 0 2 1.001 1.001 0 0 0 -1 1 .99974.99974 0 0 1 -1 1z"/><path d="m34.49707 27a.99974.99974 0 0 1 -1-1 1.001 1.001 0 0 0 -1-1 1 1 0 0 1 0-2 3.00328 3.00328 0 0 1 3 3 .99974.99974 0 0 1 -1 1z"/><path d="m32.49707 25h-6a1 1 0 0 1 0-2h6a1 1 0 0 1 0 2z"/><path d="m34.49707 28a.99974.99974 0 0 1 -1-1v-1a1 1 0 0 1 2 0v1a.99974.99974 0 0 1 -1 1z"/><path d="m24.49707 28a.99974.99974 0 0 1 -1-1v-1a1 1 0 0 1 2 0v1a.99974.99974 0 0 1 -1 1z"/><path d="m29.49707 25a.99974.99974 0 0 1 -1-1v-4.97852a1 1 0 0 1 2 0v4.97852a.99974.99974 0 0 1 -1 1z"/><path d="m35.49707 20.02148a.99974.99974 0 0 1 -1-1 2 2 0 0 0 -4 0 1 1 0 1 1 -2 0 4 4 0 0 1 8 0 .99974.99974 0 0 1 -1 1z"/><path d="m32.49707 21.02148a.99974.99974 0 0 1 -1-1 .5.5 0 0 0 -1 0 1 1 0 1 1 -2 0 2.5 2.5 0 0 1 5 0 .99974.99974 0 0 1 -1 1z"/><path d="m29.49707 20.02148a.99974.99974 0 0 1 -1-1 2 2 0 0 0 -4 0 1 1 0 1 1 -2 0 4 4 0 0 1 8 0 .99974.99974 0 0 1 -1 1z"/><path d="m29.49707 21.02148a.99974.99974 0 0 1 -1-1 .5.5 0 0 0 -1 0 1 1 0 1 1 -2 0 2.5 2.5 0 0 1 5 0 .99974.99974 0 0 1 -1 1z"/></svg>