<svg id="icons" height="512" viewBox="0 0 64 64" width="512" xmlns="http://www.w3.org/2000/svg"><path d="m15 12v3h-2-4-2v-3z" fill="#ccd1d9"/><path d="m38 11h3v4h-3z" fill="#ccd1d9"/><path d="m23 11h3v4h-3z" fill="#ccd1d9"/><path d="m41 9v2h-18v-2a1.99309 1.99309 0 0 1 2-2h14a1.99309 1.99309 0 0 1 2 2z" fill="#656d78"/><path d="m57 15h-2-4-2v-3h8z" fill="#ccd1d9"/><path d="m15 15h36v42h-38v-42zm28.5 29.01a14.01041 14.01041 0 1 0 -11.5 6.01 13.90772 13.90772 0 0 0 11.5-6.01z" fill="#965353"/><path d="m57 15h2a4.01176 4.01176 0 0 1 4 4v34a4.01176 4.01176 0 0 1 -4 4h-4v-42z" fill="#965353"/><path d="m9 15h4v42h-4z" fill="#e6e9ed"/><path d="m25.02 44 14 .01h4.48a14.01041 14.01041 0 0 1 -23.01-.01z" fill="#5d9cec"/><path d="m51 15h4v42h-4z" fill="#e6e9ed"/><path d="m39.02 42.01v2l-14-.01v-1.99a1.99309 1.99309 0 0 1 2-2h10a1.99944 1.99944 0 0 1 2 2z" fill="#ffce54"/><path d="m25.02 44h-4.53a14.02152 14.02152 0 1 1 23.01.01h-4.48v-2a1.99944 1.99944 0 0 0 -2-2h-10a1.99309 1.99309 0 0 0 -2 2z" fill="#e6e9ed"/><path d="m9 15v42h-4a4.01176 4.01176 0 0 1 -4-4v-34a4.01176 4.01176 0 0 1 4-4z" fill="#965353"/><path d="m32.01355 31.03027a.99943.99943 0 0 0 -1 1v7.97852h2v-7.97852a.99943.99943 0 0 0 -1-1z" fill="#965353"/><g fill="#a0d468"><path d="m40.01355 33.03027a.99942.99942 0 0 1 -1-1 3 3 0 0 0 -6 0 1 1 0 1 1 -2 0 5 5 0 0 1 10 0 .99942.99942 0 0 1 -1 1z"/><path d="m36.01355 34.03027a.99942.99942 0 0 1 -1-1 1 1 0 0 0 -2 0 1 1 0 1 1 -2 0 3 3 0 0 1 6 0 .99942.99942 0 0 1 -1 1z"/><path d="m32.01355 33.03027a.99942.99942 0 0 1 -1-1 3 3 0 0 0 -6 0 1 1 0 0 1 -2 0 5 5 0 0 1 10 0 .99942.99942 0 0 1 -1 1z"/><path d="m32.01355 34.03027a.99942.99942 0 0 1 -1-1 1 1 0 0 0 -2 0 1 1 0 0 1 -2 0 3 3 0 0 1 6 0 .99942.99942 0 0 1 -1 1z"/></g></svg>