<?xml version="1.0" encoding="iso-8859-1"?>
<!-- Generator: Adobe Illustrator 19.0.0, SVG Export Plug-In . SVG Version: 6.00 Build 0)  -->
<svg version="1.1" id="Capa_1" xmlns="http://www.w3.org/2000/svg" xmlns:xlink="http://www.w3.org/1999/xlink" x="0px" y="0px"
	 viewBox="0 0 512 512" style="enable-background:new 0 0 512 512;" xml:space="preserve">
<circle style="fill:#FFDE1F;" cx="256" cy="256" r="256"/>
<path style="fill:#F9C41E;" d="M273.463,511.395c124.249-8.372,224.192-105.38,237.113-228.328l-73.109-73.109h-0.081
	l-61.791-61.791L73.637,211.198l7.42,98.925c0.229,0.253,38.935,38.964,85.448,85.475l-4.88,3.96L273.463,511.395z"/>
<circle style="fill:#7AE5FE;" cx="256" cy="256" r="161"/>
<path style="fill:#00BED2;" d="M256,95c-0.016,0-0.032,0-0.048,0v322c0.016,0,0.032,0,0.048,0c88.918,0,161-72.082,161-161
	S344.918,95,256,95z"/>
<g>
	<path style="fill:#00BEA5;" d="M95,256c0,53.174,25.784,100.321,65.525,129.638c15.403-32.385,34.446-62.723,40.475-77.972
		c11.333-28.667-98-46.667-76-62s50.667,6.667,56-45.333s24-31.333,36.667-64.667c5.891-15.501,3.704-27.538-0.318-35.985
		C147.101,116.994,95,180.407,95,256z"/>
	<path style="fill:#00BEA5;" d="M414.499,227.581c-17.31-13.353-38.428-19.572-47.499-27.248
		c-12.186-10.311,18.462,1.454,37.972-5.474c-20.92-50.918-67.178-88.741-123.087-97.778c3.147,18.239,6.44,54.048-14.218,61.918
		c-28,10.667-17.333,28,10.667,48.667s39.333,16,32.667,36.667c-6.667,20.667-47.333,32-12,70
		c26.018,27.981,62.515,35.722,71.967,54.36C399.437,339.653,417,299.881,417,256C417,246.303,416.142,236.806,414.499,227.581z"/>
</g>
<path style="fill:#00A496;" d="M414.499,227.581c-17.31-13.353-38.428-19.572-47.499-27.248
	c-12.186-10.311,18.462,1.454,37.972-5.474c-20.92-50.918-67.178-88.741-123.087-97.778c3.147,18.239,6.44,54.048-14.218,61.918
	c-5.19,1.977-9.045,4.185-11.714,6.599v21.351c4.606,6.38,12.378,13.334,22.381,20.717c28,20.667,39.333,16,32.667,36.667
	c-6.667,20.667-47.333,32-12,70c26.018,27.981,62.515,35.722,71.967,54.36C399.437,339.653,417,299.881,417,256
	C417,246.303,416.142,236.806,414.499,227.581z"/>
<path style="fill:#FF328D;" d="M393.879,172.863c6.793,11.244,12.248,23.385,16.149,36.205
	c15.193,14.286,23.305,30.375,23.305,46.932c0,24.458-17.68,47.9-49.781,66.007c-33.908,19.126-79.207,29.659-127.552,29.659
	s-93.644-10.533-127.552-29.659C96.347,303.9,78.667,280.458,78.667,256c0-16.557,8.112-32.646,23.305-46.932
	c3.901-12.82,9.356-24.961,16.149-36.205C79.78,194.644,58.667,224.149,58.667,256c0,31.991,21.293,61.619,59.956,83.427
	c36.857,20.79,85.646,32.239,137.377,32.239s100.52-11.449,137.377-32.239c38.663-21.808,59.956-51.437,59.956-83.427
	C453.333,224.149,432.22,194.644,393.879,172.863z"/>
<path style="fill:#C40B5A;" d="M393.879,172.863c6.793,11.244,12.248,23.385,16.149,36.205
	c15.193,14.286,23.305,30.375,23.305,46.932c0,24.458-17.68,47.9-49.781,66.007c-33.908,19.126-79.207,29.659-127.552,29.659
	c-0.016,0-0.032,0-0.048,0v20c0.016,0,0.032,0,0.048,0c51.731,0,100.52-11.449,137.377-32.239
	c38.663-21.808,59.956-51.437,59.956-83.427C453.333,224.149,432.22,194.644,393.879,172.863z"/>
<path style="fill:#415BE9;" d="M208.443,441.266h10.517l69.654-65.487l11.7,0.741c8.429,0.534,16.816-1.57,23.996-6.019l5.695-3.528
	c5.547-3.437,5.407-11.554-0.256-14.797l-5.877-3.367c-6.914-3.961-14.838-5.803-22.79-5.3l-12.419,0.786l-69.702-65.532h-10.517
	l17.378,69.512l-27.553,1.745l-31.428-29.548h-5.213l7.951,31.803c-3.083,1.25-5.237,4.266-5.237,7.764
	c0,3.495,2.149,6.506,5.225,7.76l-7.939,31.759h5.213l31.38-29.502l27.59,1.747L208.443,441.266z"/>
<path style="fill:#062BE3;" d="M329.749,352.176l-5.877-3.367c-6.914-3.961-14.838-5.804-22.79-5.3l-12.419,0.786l-32.71-30.752
	v92.943l32.661-30.707l11.7,0.741c8.429,0.534,16.816-1.57,23.996-6.019l5.695-3.528
	C335.552,363.537,335.412,355.42,329.749,352.176z"/>
<g>
</g>
<g>
</g>
<g>
</g>
<g>
</g>
<g>
</g>
<g>
</g>
<g>
</g>
<g>
</g>
<g>
</g>
<g>
</g>
<g>
</g>
<g>
</g>
<g>
</g>
<g>
</g>
<g>
</g>
</svg>
